<?xml version="1.0" encoding="UTF-8"?>
<svg id="Layer_2" data-name="Layer 2" xmlns="http://www.w3.org/2000/svg" xmlns:xlink="http://www.w3.org/1999/xlink" viewBox="0 0 227.52 246.09">
  <defs>
    <style>
      .cls-1 {
        fill: none;
      }

      .cls-2 {
        clip-path: url(#clippath);
      }

      .cls-3 {
        fill: #2d2d35;
      }
    </style>
    <clipPath id="clippath">
      <rect class="cls-1" x="12.63" y="36.42" width="202.26" height="173.24" transform="translate(-38.55 192.93) rotate(-71.89)"/>
    </clipPath>
  </defs>
  <g id="Layer_1-2" data-name="Layer 1">
    <g class="cls-2">
      <g>
        <path class="cls-3" d="M79.17,192.98c.07-.15,.15-.31,.22-.46,.03-.06,.05-.12,.08-.18-.1,.21-.2,.42-.3,.63Z"/>
        <path class="cls-3" d="M45.94,129.04s-.04,.03-.06,.04c0,0,0,0,0,0,.12-.08,.11-.07,.07-.04h0Z"/>
        <path class="cls-3" d="M86.43,149.93c-.15-.33-.05-.14,0,0h0Z"/>
        <path class="cls-3" d="M94.67,156.72s.02-.03,.02-.05c.03-.06,.07-.15-.02,.05Z"/>
        <path class="cls-3" d="M94.5,157.08h0c-.06,.13-.04,.08,0,0Z"/>
        <path class="cls-3" d="M94.41,148.3s-.04,.06-.06,.09c.01-.01,.04-.04,.07-.09,0,0,0,0-.01,0h0Z"/>
        <path class="cls-3" d="M94.3,148.48s-.01,.03-.02,.05c0,.02,0,.04,0,.07,0-.03,.01-.07,.01-.11Z"/>
        <path class="cls-3" d="M94.3,148.43s-.01,.04-.02,.06c0,0,0,0,0,.01,0-.02,.01-.04,.02-.07,0,0,0,0,0,0h0Z"/>
        <path class="cls-3" d="M102.82,134.82c.15,.15,.31,.29,.46,.44,.03,.03,.06,.05,.09,.08,.05,.04,.11,.06,.17,.07,.04,.01,.08,.02,.12,0,.06,0,.11-.01,.17-.04,.03-.02,.06-.04,.1-.07l.08-.09c.04-.05,.06-.11,.06-.17,.02-.06,.01-.12,0-.18-.03-.21-.05-.42-.08-.63-.02-.11-.08-.21-.15-.3-.08-.09-.18-.15-.29-.19-.06-.01-.12-.02-.17-.03-.12,0-.23,.02-.33,.07-.08,.04-.15,.09-.2,.16-.07,.06-.11,.14-.13,.23-.04,.11-.04,.23-.02,.35,.03,.11,.08,.21,.15,.3h0Z"/>
        <path class="cls-3" d="M120.88,114.56c.03,.11,.06,.21,0,0h0Z"/>
        <path class="cls-3" d="M31.37,166.26c.11,.02,.18,.05,0,0h0Z"/>
        <path class="cls-3" d="M31.11,166.23s0,0,0,0c-.04,0-.07,.01-.1,.02-.04,0-.02,.01,.11-.02Z"/>
        <path class="cls-3" d="M103.51,188.22s.01,0,.02,0c.05,.01,.16,.02,.2,.05-.08-.07-.22-.07-.22-.05Z"/>
        <path class="cls-3" d="M126.41,223.74s-.03,0-.05,0c.02,0,.03,0,.05,0h0Z"/>
        <path class="cls-3" d="M126.36,223.74c-.26,.02-.52,.04-.78,.06,.26-.02,.52-.04,.78-.06Z"/>
        <path class="cls-3" d="M32.6,175.28c-.84,.08-.73,1.51,.13,1.48,1.24,.02,2.47,0,3.7-.09,.14,0,.28,0,.42,0,.08,0,.14-.02,.2-.04,.4-.04,.8-.08,1.2-.13,.89-.12,1.77-.25,2.65-.42,.48-.09,.92-.26,1.36-.44,.45-.19,.83-.35,1.18-.68,.27-.25,.2-.74-.18-.85-.44-.13-.83-.12-1.29-.1-.48,.02-.96,.02-1.43,.12-.88,.18-1.76,.34-2.64,.47-1.76,.27-3.53,.53-5.3,.69h0Z"/>
        <path class="cls-3" d="M42.08,178.23c-.26,0-.52-.02-.77-.04-1.02-.1-2.04-.31-3.07-.34-.6-.02-1.23,.01-1.81,.18-.79,.23-1.34,.61-1.84,1.26-.7,.91,.5,2.2,1.48,1.65,.09-.05,.19-.1,.28-.14,.02-.01,.03-.01,.04-.02,0,0,.01,0,.03,0-.09,.03,.25-.11,.44-.18h0c.07-.01,.14-.04,.21-.06,.1-.03,.2-.04,.3-.06,.06,0,.12-.01,.18-.02,.15-.03-.12,0-.11,0,.18-.08,.54-.01,.74,0,.98,.05,1.94,.27,2.92,.38,1.23,.14,2.46,.01,3.66-.26,1.3-.3,2.42-.5,3.64-.53,.74-.01,1.48,0,2.21,.05,.35,.02,.7-.02,1.05-.04,.4-.03,.83-.02,1.22-.1,.19-.04,.36-.17,.45-.35,.01,0,.02-.01,.03-.02,.13-.08,.18-.24,.07-.37-.01-.02-.03-.03-.04-.05-.04-.17-.13-.35-.28-.43-1.27-.66-2.74-.86-4.15-.99-1.42-.14-2.85-.12-4.27,.09-.66,.1-1.3,.27-1.96,.36-.02,0-.1,.01-.15,.02-.03,0-.07,0-.07,0-.14,0-.28,0-.41,0h0Zm-5.18,2.35s.07-.02,.07-.02c0,0-.03,.01-.07,.02Z"/>
        <path class="cls-3" d="M50.2,181.92c-1.18,0-2.33,.33-3.47,.6-.61,.15-1.19,.31-1.78,.54-.53,.21-1.06,.42-1.59,.63-.42,.17-.58,.72-.44,1.11,.15,.43,.59,.66,1.04,.59,.57-.1,1.14-.2,1.71-.3,.55-.1,1.05-.26,1.58-.42,1.1-.36,2.27-.66,3.26-1.27,.3-.18,.49-.5,.41-.86-.07-.33-.39-.62-.73-.62h0Z"/>
        <path class="cls-3" d="M98.65,200.52c-.66,.24-.26,1.36,.41,1.16,1.19-.36,2.4-.65,3.62-.87,1.23-.22,2.47-.29,3.66-.67,.63-.2,.56-1.03-.1-1.13-1.31-.2-2.6,.09-3.87,.38-1.27,.29-2.5,.68-3.73,1.12Z"/>
        <path class="cls-3" d="M110.48,210.8c1.75-.12,3.48-.32,5.21-.62,.83-.15,1.66-.32,2.48-.51,.89-.21,1.7-.56,2.53-.95,.61-.28,.24-1.17-.38-1.07-.42,.07-.83,.13-1.25,.18-.42,.06-.82,.16-1.23,.28-.81,.22-1.64,.41-2.46,.59-1.65,.35-3.32,.6-5,.77-.74,.07-.65,1.37,.11,1.32Z"/>
        <path class="cls-3" d="M98.79,170.49s-.03,.01-.04,.02c.05-.02,.07-.03,.08-.03-.01,0-.02,0-.04,.01Z"/>
        <path class="cls-3" d="M75.44,102.27c-.06-.09-.03-.05,0,0h0Z"/>
        <path class="cls-3" d="M76.74,111.96s-.02,.04-.03,.06c0-.01,0-.02,.01-.03,0,0,0-.02,.01-.03h0Z"/>
        <path class="cls-3" d="M140.48,131.68s0,0,.01,0c0,0,0,0-.01,0h0s0,0,0,0Z"/>
        <path class="cls-3" d="M142.72,132.07s.04,.05,.06,.08c0-.01-.03-.04-.08-.09,0,0,0,.01,.01,.02Z"/>
        <path class="cls-3" d="M85.75,105.32s-.01,0-.02,0c0,0,0,.01,.01,.01,0,0,0,0,0,0h0Z"/>
        <path class="cls-3" d="M85.65,105.34s-.02,.01-.03,.02c.04,0,.08-.01,.1-.02-.02,0-.05,0-.07,0h0Z"/>
        <path class="cls-3" d="M85.57,106.18c-.07,.05-.09,.07-.09,.08,.03-.03,.06-.05,.08-.08h0s0,0,0,0Z"/>
        <path class="cls-3" d="M85.76,105.33h0s0,0,0,0h0s0,0,0,0Z"/>
        <path class="cls-3" d="M85.72,105.34s.02,0,.03,0c0,0,0,0,0,0,0,0-.01,0-.02,0h0Z"/>
        <path class="cls-3" d="M138.78,138.41s.02,.02,.03,.03c.04,.03,.08,.07,.1,.09,.07,.04,.02-.07-.13-.12Z"/>
        <path class="cls-3" d="M138.37,136.56s-.06,.05-.09,.07h0s.07-.05,.09-.07Z"/>
        <path class="cls-3" d="M138.4,136.53s.02-.03,.02-.04c-.03,.01-.05,.03-.06,.04,0,0-.01,.01-.02,.02,0,.01,.02,0,.06-.02h0Z"/>
        <path class="cls-3" d="M138.22,136.72s0,.01-.01,.02c0,.01-.01,.02-.02,.04,0,.02-.02,.06-.04,.11,.01-.01,.03-.06,.07-.16Z"/>
        <path class="cls-3" d="M138.22,136.72s.04-.06,.06-.09c-.01,0-.03,.02-.04,.03,0,.02-.01,.04-.02,.06h0Z"/>
        <path class="cls-3" d="M138.24,136.66s0,0,0,0c0,0,0,0,0,0Z"/>
        <path class="cls-3" d="M138.59,136.52s-.02-.01-.02-.02c0,0,.01,0,.02,0,0,0,0,0,0-.01-.02-.02-.05-.03-.07-.04,0,0,0,0,0,0h0s.02,.01,.03,.02c.02,.01,.04,.03,.07,.05h0Z"/>
        <path class="cls-3" d="M138.49,136.45s0,0,0,0c0,0,0,0,0,0Z"/>
        <path class="cls-3" d="M138.37,136.56s.07-.07,.11-.1c-.03,.03-.06,.05-.08,.07,0,0-.02,.02-.03,.03Z"/>
        <path class="cls-3" d="M144.54,138.52s-.05,.02-.06,.03c.02-.01,.04-.02,.06-.03Z"/>
        <path class="cls-3" d="M51.02,78.61s0,0,0,.02c-.16-.47-.06-.16,0-.02Z"/>
        <path class="cls-3" d="M51.03,78.63s0-.02,0-.02c0,0,0,0,0,.02Z"/>
        <path class="cls-3" d="M102.09,57.98s0-.02,0-.03c0,.01,0,.03,0,.03Z"/>
        <path class="cls-3" d="M217.17,85.09c.96-3.57,1.65-7.24,1.57-10.95-.07-3.65-.77-7.19-2.29-10.53-1.3-2.85-3.15-5.52-5.3-7.8-.66-.7-1.35-1.37-2.09-1.98,.2,.18,.41,.35,.61,.53-1.47-1.29-2.98-2.48-4.64-3.51-1.61-.99-3.31-1.85-5.06-2.57-3.71-1.54-7.66-2.52-11.65-2.94-4.07-.42-8.2-.22-12.24,.39-3.8,.58-7.46,1.65-11.11,2.8-3.77,1.19-7.55,2.45-11.5,2.84-.84,.05-1.67,.02-2.51,.07,.04,0,.09,0,.13-.01-1.08,0-2.16-.07-3.23-.25,.08,.02,.15,.03,.23,.04-.39-.06-.77-.06-1.15,.06-.01,0-.03,0-.07,0-.08,0-.16,.02-.24,.03-.02,0-.04,0-.05,0-.17,.01-.34,.02-.5,.02-.16,0-.31,.03-.45,.06,.17-1.11,.28-2.22,.34-3.34,.06-1.17,.04-2.35-.02-3.52-.04-.72-.06-1.46-.22-2.15-.12-.56-.27-1.11-.42-1.66-.01-.04-.02-.08-.03-.11,.01-.11,.02-.22,.04-.34,0-.06-.05-.13-.12-.13-.02,0-.04,0-.06,0-.01-.03-.02-.06-.04-.09-.09-.17-.22-.33-.34-.48-.1-.14-.21-.28-.32-.42-.21-.75-.38-1.49-.54-2.25-.06-.29-.37-.42-.62-.37-.1-.3-.2-.59-.31-.88-.42-1.12-.98-2.2-1.62-3.21-1.52-2.42-3.39-4.47-5.61-6.26-2.15-1.73-4.53-3.09-7.02-4.27-2.32-1.12-4.76-2-7.24-2.64-6.17-1.61-12.62-2.27-18.99-2.01-6.43,.26-12.82,1.28-19.04,2.93-3.18,.84-6.32,1.85-9.41,2.97-3,1.1-5.96,2.34-8.74,3.9-5.51,3.09-10.22,7.44-13.74,12.68-3.49,5.18-5.75,11.1-6.73,17.25-.94,5.89-.61,12.01,.77,17.82,.71,2.98,1.71,5.9,2.97,8.69,1.27,2.79,2.83,5.4,4.51,7.95,1.79,2.72,3.66,5.4,5.07,8.34,.32,.68,.61,1.37,.88,2.06,0,0,0,0,0,.01,.03,.08,.05,.15,.08,.23,.05,.15,.1,.31,.15,.46,.12,.39,.23,.78,.33,1.17,.18,.74,.32,1.49,.41,2.25,0,.09,.04,.2,.05,.31,0,.03-.01,.07,0,.12,0,.1,.01,.2,.02,.3,.02,.38,.03,.75,.03,1.13,0,.7-.08,1.39-.18,2.08-.02,.07-.03,.15-.05,.23-.04,.17-.08,.35-.13,.52-.1,.36-.22,.72-.35,1.07-.11,.29-.11,.6-.03,.9-.16,.14-.32,.29-.49,.43-1.96,1.71-3.91,3.42-5.94,5.04-1,.79-2,1.58-3.02,2.35-.53,.4-1.04,.8-1.55,1.22-.49,.4-1.01,.77-1.47,1.21-.46,.43-.91,.87-1.38,1.3-.62,.59,.06,1.54,.83,1.21,.58-.25,1.17-.51,1.74-.77,.55-.25,1.07-.6,1.6-.9,1.14-.67,2.22-1.43,3.3-2.19,2.07-1.47,4.09-3,6.07-4.58,.47-.38,.94-.77,1.41-1.16,.74,.05,1.48,.15,2.22,.27,.02,0,.04,0,.07,0,0,0,.01,0,.03,0,.12,.02,.24,.05,.35,.08,.27,.06,.54,.14,.81,.22,.5,.16,1,.32,1.49,.51,.11,.04,.22,.09,.34,.14,.04,.02,.08,.04,.12,.05,.07,.06,.23,.11,.3,.15,.12,.07,.25,.14,.37,.21,.15,.09,.3,.19,.44,.29-.06,.03-.13,.06-.19,.08-.04,.02-.08,.03-.12,.04-.29,.09-.58,.18-.88,.25-.04,.01-.28,.03-.38,.06-.07,0-.14,0-.21,0,0,0,0,0,0,0-.01,0-.03,0-.04,0-.01,0-.04-.01-.07-.03-.1-.06-.19-.12-.29-.17-.15-.68-.86-1.14-1.53-1.08-.68,.06-1.35,.64-1.33,1.37,0,.46,.09,.88,.28,1.3,.02,.05,.05,.12,.09,.17,0,.01,.01,.03,.02,.04-.09-.34-.07-.28,.08,.16,.12,.28,.29,.53,.52,.74,.68,.58,1.6,.87,2.49,.83,.92-.04,1.74-.3,2.59-.61,.74-.27,1.44-.7,1.96-1.3,.71-.81,.95-1.95,.45-2.95-.38-.76-1.11-1.27-1.82-1.7-1.39-.85-2.9-1.42-4.52-1.6-.22-.03-.45-.05-.69-.06,2.28-2.08,4.47-4.27,6.6-6.5,1.44-1.5,2.88-3.02,4.51-4.33,.25-.2,.52-.38,.78-.57,.03,.2,.12,.41,.24,.57-.03-.04-.06-.07-.07-.1,0,.01,.01,.02,.02,.04,.06,.11,.13,.24,.21,.34,.1,.12,.21,.22,.35,.3,0,0,0,0,0,0,0,.04,.02,.14,.03,.2,0,0,0,0,0,.01,0,.05,0,.1-.01,.15-.02,.05-.03,.1-.05,.15h0s-.03,.07-.05,.09c-.01,.02-.04,.08-.08,.13t0,0s-.08,.08-.12,.12c-.13,.13-.28,.25-.42,.36-.03,.03-.07,.06-.11,.09-.01,0-.04,.02-.09,.06-.36,.22-.71,.44-1.06,.67-.81,.54-1.54,1.11-1.99,1.99-.26,.51-.39,.98-.4,1.55,0,.35,.01,.71,.04,1.06,0,.09,.01,.17,.02,.26-.01-.08-.02-.09-.02-.02,0,.08-.01,.16-.02,.24,0,.16,0,.32,.01,.49,.03,.46,.12,.88,.28,1.31,.48,1.27,1.56,2.22,2.9,2.49,.79,.16,1.56,.12,2.31-.16,.07-.03,.15-.05,.21-.09,.04-.02,.05-.03,.05-.03,.29-.11,.49-.17,.74-.35,.08-.06,.16-.12,.23-.19,.07,.01,.14,.03,.2,.04,.41,.08,.86-.03,1.27-.08,.67-.09,1.14-.78,1.19-1.4,.12-1.6-1.54-2.75-3-2.09-.34,.16-.55,.57-.51,.93,0,.03,.01,.06,.01,.09-.09,.04-.23,.09-.21,.08-.31,.14-.5,.42-.62,.72,0,0-.03,.08-.05,.14,.03-.05,.06-.08-.01,.03,0,.03-.02,.05-.02,.05,0,0,0-.01,0-.03,0,0,0,0,0,.01-.07,.1-.14,.2-.22,.3,0,0-.02,.02-.02,.03-.05,.02-.11,.05-.16,.08-.01,0-.01,0-.02,.01-.01,0-.02,0-.03,0-.14,.03-.27,.06-.4,.08,.02,0-.24,.01-.29,0-.12,0-.23-.02-.34-.03,0,0-.23-.05-.29-.07-.08-.03-.16-.05-.23-.08-.04-.01-.07-.03-.11-.04-.13-.07-.25-.16-.37-.24,0,0-.02-.02-.04-.03-.05-.04-.1-.09-.14-.14-.19-.21-.25-.35-.33-.64-.04-.14-.07-.29-.08-.43,0-.04-.01-.18-.01-.18,0-.08,0-.16,0-.24,0-.08,.01-.16,.02-.24,0-.01,0-.03,0-.04,.08-.12,.22-.35,.16-.3,.2-.2,.43-.36,.63-.54,.07-.07,.13-.15,.2-.23,.06-.03,.12-.13,.16-.17,.14-.14,.28-.28,.42-.42,.76-.79,1.79-1.32,2.61-2.03,.94,1.26,2.32,2.23,3.79,2.7,1.3,.41,2.76,.47,4.05,.03,1.63-.55,2.89-1.79,3.08-3.55,.19-1.79-1.17-3.46-2.99-3.53-.98-.03-2.35,.46-2.64,1.51-.23,.84,.13,1.68,.96,2,.41,.16,.9,.11,1.29-.08,.11-.05,.17-.1,.26-.16-.02,0-.04,0-.06,0,.01,0,.05,0,.08-.02h.01s.06-.02,.07-.02h0s0,0,.01,0h0s0,.02,0,.02c0,0,.01,0,.02,0,0,0,0,0,0,.01h0s0,0-.01,0c0,.01,.01,.02,.02,.04,0,.03,.02,.09,.03,.13,0,.05,0,.11,0,.16,0,.02,0,.04,0,.06-.02,.05-.03,.11-.04,.12,0,.03-.02,.06-.03,.09,0,.01,0,.02,0,.03,0,0,0,.01,0,.02-.04,.07-.09,.13-.13,.2,0,0,0,0,.02-.01,0,0-.01,.01-.02,.02h0c-.04,.06-.08,.08-.08,.07-.02,.02-.04,.04-.06,.05-.02,.02-.05,.04-.07,.06-.02,.01-.15,.09-.19,.11-.06,.03-.13,.07-.19,.1,0,0-.06,.03-.12,.05-.06,.02-.18,.06-.18,.06-.07,.02-.14,.04-.21,.05-.14,.03-.29,.06-.43,.08,0,0-.1,0-.16,.02-.04,0-.08,0-.09,0-.33,0-.66-.05-.99-.07-.08-.02-.16-.04-.24-.06-.16-.04-.31-.09-.46-.14-.17-.06-.33-.13-.49-.19,0,0-.02,0-.03-.01-.06-.03-.12-.07-.18-.1-.28-.16-.55-.34-.81-.54-.05-.04-.1-.08-.15-.12,0,0-.01-.01-.02-.02,0,0-.02-.01-.03-.03-.12-.11-.23-.22-.34-.34-.11-.12-.21-.24-.31-.37-.04-.05-.08-.1-.12-.15-.02-.03-.05-.06-.06-.09-.13-.22-.25-.44-.38-.66,.07-.77-.09-1.59-.48-2.23-.33-.54-.75-.93-1.32-1.19,.02-.01,.04-.02,.06-.03,.11-.05,.22-.1,.34-.15,.11-.04,.53-.16,.1-.04,.48-.13,.94-.29,1.42-.39,.24-.05,.49-.09,.74-.12,.07,0,.51-.07,.27-.03-.22,.04-.01,0,.03,0,.1,0,.21,0,.32-.01,.59-.01,1.18,.02,1.77,.1,.15,.02,.3,.04,.44,.06,.06,0,.12,.02,.18,.03,.28,.06,.56,.12,.84,.19,.58,.15,1.15,.33,1.73,.5,1.06,.32,2.1,.69,3.12,1.1,.46,.18,.91,.38,1.36,.58,.1,.05,.21,.1,.32,.15,.23,.11,.46,.23,.68,.35,.88,.47,1.75,.98,2.57,1.55,.41,.28,.82,.58,1.21,.9,.07,.06,.14,.12,.21,.17,.04,.07,.2,.17,.25,.22,.1,.09,.2,.18,.3,.28,.68,.65,1.29,1.36,1.84,2.12,.06,.09,.12,.18,.18,.28,.13,.21,.25,.43,.37,.65,.22,.41,.4,.82,.57,1.26,.03,.1,.06,.2,.09,.29,.07,.24,.14,.49,.19,.74,.24,1.05,1.36,1.86,2.44,1.57,.98-.26,1.75-1.2,1.61-2.23,.39-.05,.78-.09,1.1-.12,.62-.05,1.43-.06,2.13-.08,.74-.03,1.49-.02,2.23,.04,.36,.03,.72,.07,1.08,.12,.14,.02,.28,.04,.41,.07,.02,0,.05,.01,.07,.02,.12,.03,.25,.05,.37,.08,.66,.15,1.31,.36,1.93,.62,.13,.06,.26,.11,.39,.17,.04,.03,.09,.05,.14,.07,.3,.16,.59,.33,.87,.51,.24,.15,.47,.31,.7,.48,.11,.08,.23,.17,.34,.26,.05,.04,.11,.09,.17,.13,0,0,.01,.01,.02,.02,.41,.44,.86,.83,1.23,1.31,.04,.06,.08,.11,.13,.16,0,0,.01,.02,.02,.03,0,0,.07,.09,.09,.13,.04,.07,.09,.15,.14,.22,.18,.29,.33,.6,.47,.91,.03,.07,.05,.12,.08,.19,0,0,0,.01,0,.02,.02,.15,.1,.31,.14,.45,.11,.4,.19,.79,.33,1.17-.05,0-.09-.01-.15-.01-.18-.01-.35,.02-.52,.09-.17,.04-.32,.13-.45,.25-.08,.09-.16,.18-.23,.27-.14,.21-.21,.44-.22,.69,.01,.12,.02,.23,.03,.35,.05,.23,.16,.44,.31,.62,.09,.09,.18,.19,.28,.24,.11,.05,.22,.1,.33,.16,.12,.02,.24,.04,.36,.07,.01,0,.03,0,.04,0,.03,0,.05,0,.07,0,.05,0,.1,0,.14,.01,.2,0,.39-.03,.57-.12,.14-.07,.25-.15,.34-.28,.11-.11,.19-.24,.23-.39,.06-.2,.07-.39,.03-.6,0-.05-.01-.1-.02-.16,0-.03,0-.05,0-.08,0-.01,0-.03,0-.04,0,0,0,0,0-.01-.01-.03-.02-.06-.03-.09,.27,.07,.54,.09,.79,.02,.57-.15,1.01-.54,1.21-1.06,.75-.31,1.56-.52,2.39-.63,.11-.01,.21-.03,.31-.04,.05,0,.1-.01,.16-.02h0c.24,0,.48-.02,.73-.03,.47,0,.95,.02,1.42,.06,.97,.09,1.94,.13,2.91,.29,.1,.02,.2,.04,.31,.06,.01,0,.03,0,.05,0,.25,.05,.5,.1,.75,.16,.49,.11,.97,.24,1.44,.37,2.11,.59,4.21,1.35,6.23,2.21,.27,.12,.54,.24,.81,.36,.07,.03,.14,.06,.21,.09,0,0,.02,.01,.13,.06,.08,.04,.16,.08,.24,.12,.55,.28,1.08,.57,1.6,.89,.52,.32,1.02,.66,1.5,1.02,.18,.14,.36,.27,.53,.42,0,0,.03,.02,.05,.03,0,0,0,0,.01,.01,.1,.09,.2,.17,.29,.26,.43,.4,.83,.82,1.21,1.27,.18,.22,.36,.44,.52,.66,.03,.05,.07,.09,.1,.14,.02,.02,.06,.09,.08,.12,.04,.06,.08,.12,.11,.18,.06,.09,.11,.18,.16,.27-1.2-.14-2.37,.05-3.52,.47-.42,.15-.82,.36-1.2,.59-.11-.03-.21-.06-.31-.09-.49-.16-.96-.36-1.43-.57-.22-.09-.45-.16-.67-.24-.1-.03-.18-.07-.27-.11,0-.29,0-.58-.02-.86,.71,.26,1.58,.12,2.01-.58,.44-.74,.32-1.8-.47-2.28-1.93-1.17-4.54-.7-5.83,1.18-.42,.6-.37,1.56,.15,2.1,.18,.18,.4,.33,.65,.44,0,.13,0,.26,0,.38,.06,.75,.25,1.43,.81,1.97,.5,.49,1.14,.75,1.8,.94,.05,.02,.1,.03,.15,.04-.55,.34-1.12,.65-1.71,.89-.99,.41-2.05,.68-3.09,.92-.55,.12-1.1,.22-1.65,.29-.14,.02-.27,.03-.4,.04-.02,0-.07,0-.1,0-.03,0-.07,0-.1,0-.3,.02-.61,.04-.91,.02-.08,0-.16-.01-.24-.02-.02,0-.05-.02-.08-.03,.05,.03,.03,.05-.05,0,0,0-.02-.01-.03-.02,0,0,0,0,0,0,0,0,0,0,0,0,0,0-.01,0-.02-.01s-.04-.04-.06-.07h0s-.04-.09-.07-.13c-.01-.02-.02-.04-.03-.05,0-.05-.01-.1-.02-.15,0,0,0-.01,0-.02h0s0-.01,0-.02c0-.01,.01-.03,.01-.04,0,0,0-.01,0-.01t0,0s0-.01,.01-.02h0s0,0,0-.01c0,0,0,0,0,0,.08-.04,.23-.12,.25-.13,.13-.08,.23-.14,.33-.24,.03-.02,.07-.04,.08-.05,.02-.01,.1-.06,.17-.1,0,0,.01,0,.02,0,.12,0,.24,.02,.36,0,.05,0,.11-.02,.16-.03,.02,.02,.04,.03,.06,.05,.24,.23,.6-.01,.47-.32-.03-.06-.06-.13-.09-.19-.01-.02-.01-.03-.02-.04-.01-.14,.02-.25-.06-.41-.14-.28-.43-.49-.7-.66-.03-.02-.04-.02-.03-.02,0,0-.01-.01-.02-.02-.07-.06-.14-.12-.21-.18-.14-.1-.32-.17-.49-.21-.53-.14-1.01-.12-1.5,.14-1.5,.78-1.92,2.79-1.04,4.19,.46,.74,1.2,1.18,2.04,1.32-.18,.17-.35,.34-.51,.52-.95,1.06-1.75,2.38-1.69,3.86,.03,.79,.2,1.51,.64,2.18,.43,.65,.96,1.2,1.62,1.61,1.14,.71,2.53,1.06,3.87,.97,.79-.05,1.54-.18,2.29-.43,.71-.23,1.48-.48,2.12-.88,.15-.1,.32-.19,.48-.29,.48,.38,1.02,.7,1.6,.93,1.94,.76,4.16,.5,5.97-.47,.46-.25,.87-.53,1.23-.91,.33-.34,.68-.62,1.04-.93,0,0,.02-.01,.02-.02-.06,.83-.12,1.67-.19,2.5-.39,4.71-.92,9.41-1.51,14.1-.17,1.32-.35,2.64-.54,3.96,0,0,0,.02,0,.03-1.29-1.76-2.67-3.46-4.08-5.13-1.93-2.28-4.12-4.3-6.77-5.71-4.48-2.38-9.58-3.65-14.64-3.9-2.36-.12-4.73,0-7.07,.34-2.31,.33-4.51,.95-6.67,1.81-1,.4-1.98,.85-2.92,1.37-.46,.25-.91,.51-1.35,.78-.38,.24-.73,.49-1.08,.77,0-.11,0-.22,0-.33-.05-.91-.34-1.77-.78-2.56,.4,.11,.82,.03,1.14-.24,.48-.4,.54-1.12,.25-1.64-.17-.3-.38-.59-.59-.86-.77-1-1.85-1.63-3-2.09-1.23-.49-2.61-.62-3.91-.37-.86,.16-.78,1.6,.13,1.55,.53-.02,1.06,.01,1.5,.12,.25,.06,.5,.14,.74,.23,.13,.05,.26,.1,.38,.16h0c.09,.05,.17,.09,.26,.14,.15,.09,.3,.19,.45,.29-.6-.32-1.25-.53-1.93-.54-.83-.02-1.62,.26-2.24,.74-.01-.01-.02-.03-.03-.04-.3-.34-.87-.39-1.21-.07-.54,.5-.96,1.1-1.25,1.77-.35-.78-.79-1.5-1.27-2.21,.08-.14,.16-.28,.23-.43,1.58-.19,3.09-1.11,3.93-2.46,.89-1.44,1.07-3.33,.44-4.91,1.38-1.96,2.57-4.08,3.63-6.23,.63-1.29,1.23-2.6,1.77-3.94,.26-.64,.5-1.3,.74-1.95,.12-.3,.23-.61,.35-.91,.06-.15,.12-.3,.19-.45,.03-.06,.06-.13,.08-.19,0-.01,0-.02,.01-.03,0,0,0,0,0,0,.28-.53,.57-1.03,.94-1.5,.02-.02,.07-.08,.1-.13,.05-.06,.14-.15,.16-.18,.19-.2,.4-.39,.61-.57,.09-.08,.19-.15,.29-.22,.1-.07,.43-.26,.03-.03,.23-.13,.44-.28,.67-.4,.22-.12,.44-.22,.66-.32,.11-.05,.22-.1,.34-.14,.04-.01,.08-.03,.11-.04,.5-.15,.99-.27,1.5-.35,.07,0,.14-.02,.21-.02,.06,0,.15-.01,.18-.01,.26-.01,.52,0,.78,0,.24,.01,.49,.04,.73,.07,.01,0,.02,0,.03,0,.13,.03,.26,.06,.39,.09,.24,.07,.48,.14,.71,.23,.12,.04,.24,.09,.35,.14,.05,.02,.1,.04,.15,.06,.49,.26,.96,.55,1.39,.89,.05,.04,.09,.08,.14,.12,.09,.08,.17,.16,.26,.24,.21,.2,.4,.41,.58,.63,.09,.1,.17,.21,.25,.31-.43,.36-.81,.77-1.08,1.24-.43,.75-.85,1.5-1.26,2.26-.32,.59-.62,1.18-.92,1.77-.01-.01-.03-.03-.04-.04-.24-.2-.49-.39-.75-.55-.57-.35-1.18-.63-1.83-.8-.38-.11-.85,.08-.96,.49-.04,.16-.04,.31,0,.45-.14-.02-.28-.04-.42-.06-.1-.08-.21-.15-.36-.2-.27-.09-.62-.07-.87,.06-.57,.32-.76,.95-.5,1.54,.27,.61,.89,.8,1.47,.98,.31,.09,.61,.21,.9,.34,.28,.14,.56,.3,.81,.49,.04,.04,.09,.09,.13,.13,.02,.02,.05,.07,.07,.09,.02,.03,.03,.05,.03,.04,.18,.26,.43,.43,.71,.51-.92,2.21-1.73,4.46-2.45,6.75-.34-.31-.69-.6-1.06-.86-.77-.55-1.66-.96-2.57-1.2-.47-.12-1.03,.09-1.17,.59-.14,.51,.11,.98,.6,1.17,.1,.04,.19,.08,.28,.12,.01,0,.02,0,.03,.01,.03,.01,.05,.03,.08,.04,.18,.09,.35,.19,.52,.3,.17,.11,.34,.23,.49,.35,.07,.06,.18,.12,.24,.19-.12-.1-.13-.12-.04-.04,.04,.04,.07,.07,.11,.1,.15,.14,.28,.29,.41,.44,.07,.08,.13,.16,.19,.24,.02,.03,.04,.06,.06,.09,.11,.24,.31,.46,.47,.66,.17,.23,.32,.43,.56,.57-.11,.42-.22,.83-.33,1.24-.02-.03-.04-.06-.06-.09-.53-.65-1.22-1.18-1.84-1.74-.63-.56-1.26-1.13-1.89-1.69-.34-.31-.88-.43-1.25-.08-.34,.33-.41,.88-.08,1.25,.58,.63,1.17,1.26,1.75,1.88,.62,.67,1.22,1.38,1.94,1.95,.31,.24,.74,.22,1.08,.04-.09,.41-.17,.81-.26,1.22-.07,.36-.18,.76-.2,1.13-.02,.47,.13,.9,.33,1.32,.44,.97,1.83,1.2,2.6,.5,.44-.4,.71-.84,.88-1.39,.71-.25,1.42-.5,2.13-.75,.41-.15,.82-.29,1.23-.43,.5-.17,.97-.4,1.46-.61,.38-.17,.73-.38,.95-.75,.18-.29,.36-.63,.38-.97,.03-.54-.36-1.03-.86-1.19-.37-.12-.79-.21-1.17-.13-.12,.02-.25,.07-.38,.12-.08-.16-.06-.1-.09-.22,0,0-.03-.18-.03-.18-.01-.42,.19-.89,.47-1.33,.69-1.08,1.68-1.99,2.64-2.83,.4,.15,.74,.23,1.14-.01,.23-.14,.44-.32,.65-.48,.41-.3,.82-.6,1.23-.9,.81-.6,1.63-1.2,2.46-1.77,.36-.25,.37-.83,.14-1.15-.03-.04-.06-.08-.09-.11,.33-.17,.65-.35,.99-.52,1.41-.72,2.83-1.41,4.32-1.96,.46-.17,.68-.79,.59-1.23-.11-.48-.55-.86-1.04-.88-2-.09-4-.02-5.99,.21-.43,.05-.85,.09-1.28,.13,.09-.07,.19-.14,.28-.21,.09-.07,.42-.23,.06-.04,.22-.11,.43-.28,.64-.41,.84-.51,1.73-.94,2.65-1.29,.02,0,.08-.03,.13-.05,.06-.02,.23-.08,.27-.09,.19-.06,.37-.13,.56-.2,.07-.02,.13-.05,.2-.08,.11-.04,.08-.04,.03-.03,.17-.09,.42-.12,.6-.18,.26-.08,.52-.15,.78-.21,.52-.13,1.03-.29,1.55-.43,.27-.07,.55-.14,.82-.2,.3-.06,.54-.19,.8-.35,.33-.18,.36-.64,.05-.86-.21-.15-.42-.3-.67-.37-.29-.08-.61-.13-.91-.18-.5-.09-1.03-.19-1.54-.17-1.09,.05-2.21,.14-3.26,.46-.88,.26-1.74,.59-2.56,.98,.32-.94-.21-1.91-.71-2.69-.15-.23-.3-.46-.46-.68-.03-.04-.06-.08-.09-.13-.04-.05-.06-.07-.06-.08-.18-.27-.36-.53-.56-.78-.76-.96-1.72-1.81-2.76-2.44-2.22-1.34-4.84-1.83-7.38-1.29-2.45,.52-4.65,1.94-6.2,3.9-.9,1.14-1.47,2.53-1.98,3.88-.51,1.34-1.02,2.68-1.62,3.98-.08,.19-.17,.38-.26,.57-.03,.06-.06,.12-.09,.19-.01,.03-.02,.05-.03,.07,0,0,0,.02-.01,.03-.17,.35-.35,.7-.53,1.05-.37,.72-.76,1.43-1.16,2.12-.15,.25-.3,.5-.45,.75-.17-.17-.34-.33-.55-.43-.16-.08-.33-.16-.49-.24-.64-.36-1.28-.7-1.98-.94-.39-.14-.83,.07-1,.43-.18,.37-.07,.83,.28,1.05,.3,.2,.59,.41,.86,.64,0,0-.01-.01-.02-.02,0,0,.02,.02,.03,.03,0,0,0,0,0,.01,.05,.04,.05,.04,.03,.02,0,0,.01,.01,.03,.02,.06,.06,.13,.12,.19,.18,.11,.1,.2,.22,.29,.33,.09,.15,.19,.32,.3,.45,.1,.11,.22,.21,.33,.32,.09,.1,.19,.21,.29,.32-.25,.38-.51,.76-.76,1.13-.29,.43-.32,.9-.19,1.34-.43-.54-.93-1.16-1.55-1.47-.68-.35-1.39-.59-2.17-.57-.35,0-.67,.2-.79,.54-.1,.3,0,.75,.32,.9,.12,.06,.24,.12,.36,.2,.07,.05,.14,.1,.21,.15,.01,.01,.02,.02,.03,.02,0,0,0,0,0,.01,.1,.09,.19,.19,.28,.3,.06,.07,.11,.14,.16,.21,.07,.09,.07,.09,0,0,.22,.31,.47,.59,.7,.9,0,0,.04,.05,.06,.09,.02,.03,.05,.08,.06,.09,.09,.14,.18,.28,.26,.42,.33,.56,.62,1.16,.96,1.72,.11,.19,.24,.37,.37,.56-.06,.02-.11,.05-.17,.07-.02,0-.04,.02-.05,.03-.05,.01-.11,.02-.14,.03-.07,.02-.2,.06-.32,.08,0,0-.02,0-.09,0-.1,0-.21,0-.31,0-.52-.02-.93,.21-1.19,.58-.21-.29-.43-.59-.64-.88-2.73-3.7-5.67-7.21-9.14-10.24-3.76-3.28-8-5.96-12.8-7.43-2.48-.76-5.14-1.16-7.74-1.2-.57,0-1.14,0-1.7,.04-.69,.04-1.45,.04-2.12,.21,0,0-.84,.31-.38,.13,.29-.11,.09-.03,.02-.02-.14,.04-.28,.09-.42,.13-.4,.13-.79,.27-1.18,.41-.52,.19-.96,.54-1.48,.76-.94,.4-1.85,.78-2.73,1.3-.94,.56-1.83,1.2-2.65,1.92-1.57,1.38-2.88,3.12-3.81,5-.05,.1-.09,.2-.14,.3-.01,0-.03,0-.04,0-1.44,.2-2.63,1.28-3.5,2.38-.27,.33-.43,.76-.59,1.15-.11,.26-.2,.52-.26,.79-.11,.43-.19,.87-.23,1.3-.01,.14-.02,.29-.02,.43,0,.06,0,.12,0,.17,.01,.46,.11,.78,.27,1.19,.11,.15,.21,.31,.32,.47,.03,.04,.06,.07,.09,.1-1.78,1.51-3.49,3.09-5.23,4.63-.51,.45-.99,.92-1.46,1.42-.23,.24-.47,.49-.7,.74-.14,.15-.28,.29-.41,.44-.05,.06-.1,.12-.16,.18,.14-.16,.16-.18,.07-.08-.06,.07-.13,.15-.19,.22-.45,.51-.9,1.02-1.35,1.53,0,0-.02,.02-.03,.03-.34,.17-.67,.35-.98,.56-.65,.42-1.23,.91-1.75,1.48-.35,.39-.78,.81-.96,1.32-.02,.06-.04,.11-.05,.17-1.2,1.11-2.4,2.22-3.59,3.32-.5,.46-.93,1-1.37,1.51-.19,.21-.27,.49-.09,.75,.15,.22,.48,.34,.73,.19,.41-.24,.81-.48,1.22-.72,.44-.26,.83-.58,1.23-.89,.77-.58,1.55-1.17,2.32-1.75,.16-.12,.33-.25,.5-.37,.15,.04,.31,.06,.47,.05,.38-.03,.67-.21,.89-.47,.16-.1,.3-.21,.44-.33,.21-.18,.46-.33,.66-.51,.03-.02,.05-.04,.08-.05,.11-.07,.22-.13,.32-.19,.24-.13,.48-.26,.72-.38,.24-.12,.49-.24,.74-.35,.12-.05,.24-.1,.36-.14,.03-.01,.04-.02,.06-.02,0,0,0,0,0,0,.51-.17,1.03-.3,1.55-.4,.13-.02,.26-.05,.38-.07,.02,0,.03,0,.04,0,.27,0,.55,.02,.82,.04,.58,.04,1.18-.04,1.77-.02,.31,0,.62,.04,.93,.04,.62-.01,1.14-.26,1.7-.47,.03-.01,.06-.03,.1-.04,.12,0,.29-.1,.4-.14,.19-.06,.45-.1,.6-.22,.03-.03,.08-.07,.07-.07,.08-.02,.19-.01,.27-.02,.32-.03,.65-.03,.96-.09,.17-.03,.35-.09,.52-.1,.22-.01,.43,.07,.64,.13,.72,.22,1.43,.48,2.12,.79,.07,.03,.13-.09,.06-.13-.61-.35-1.24-.66-1.88-.93-.36-.15-.69-.28-.98-.55-.27-.25-.54-.45-.85-.63-.14-.08-.29-.16-.43-.25-.02,0-.05-.04-.07-.06-.04-.04-.08-.09-.12-.13-.29-.27-.63-.49-.96-.7-.26-.17-.53-.33-.8-.48-.38-.21-.74-.3-1.12-.35,.71-.55,1.41-1.12,2.12-1.68,.72-.02,1.44-.03,2.16-.03,1.18,0,2.33-.05,3.5,.12,.04,0,.18,.03,.22,.04,.14,.03,.29,.06,.43,.1,.28,.07,.55,.15,.83,.24,.59,.2,1.18,.44,1.77,.67,.3,.12,.61,.24,.91,.36,.37,.15,.72,.22,1.12,.28,.3,.05,.61,.12,.91,.12,.15,0,.31-.04,.46-.05,.16,0,.3,.02,.46,.05,.54,.08,.64-.64,.3-.92-.24-.2-.37-.45-.59-.67-.25-.25-.56-.47-.83-.69-.5-.41-1.12-.66-1.7-.94-.66-.32-1.31-.63-2.02-.85-.67-.21-1.38-.35-2.08-.44-.78-.11-1.6-.15-2.41-.12,.71-.55,1.44-1.09,2.18-1.6,.88-.57,1.77-1.07,2.76-1.44,1.32-.44,2.68-.76,4.06-.91,1.52-.09,3.05,.01,4.56,.26,3.38,.67,6.64,1.8,9.75,3.27,.6,.3,1.2,.59,1.83,.85,.53,.22,1.06,.44,1.59,.67,1.65,.81,3.28,1.66,4.84,2.62,.87,.54,1.74,1.1,2.58,1.67,.44,.3,.88,.6,1.31,.91,.59,.42,1.17,.74,1.84,1.05-.19-.09-.39-.19-.58-.28,.79,.6,1.57,1.21,2.32,1.85,.51,.45,1.02,.91,1.5,1.39,.55,.54,1.06,1.12,1.62,1.64,.55,.5,1.01,1.11,1.46,1.69,.14,.18,.28,.37,.41,.56-.23,.39-.37,.84-.44,1.33,0,.05-.01,.1-.02,.15-.26,.9-.53,1.79-.81,2.69-.01-.01-.02-.03-.04-.04-.11-.11-.2-.21-.29-.33-.05-.06-.09-.12-.14-.17-.06-.05-.12-.11-.18-.16,0,0-.01-.01-.02-.02-.06-.1-.21-.21-.28-.28-.12-.12-.22-.25-.32-.39-.38-.53-.8-1.04-1.26-1.51-.52-.54-1.11-1.02-1.69-1.48-.31-.24-.42-.34-.78-.65-.29-.25-.59-.49-.89-.73-.61-.48-1.21-.95-1.89-1.32-.72-.4-1.43-.83-2.23-1.03-.32-.08-.73,.26-.52,.6,.32,.51,.7,.9,1.12,1.34,.41,.43,.82,.85,1.26,1.25,.9,.81,1.8,1.64,2.52,2.62,.09,.12,.18,.24,.26,.37,.04,.05,.07,.1,.11,.15,0,0,.01,.02,.02,.03,.08,.12,.16,.25,.24,.37,.08,.12,.16,.24,.25,.36h0c.3,.46,.59,.92,.84,1.41,.02,.04,.04,.07,.05,.09,.02,.11,.05,.22,.08,.32,0,.14,.02,.28,.06,.41,.02,.07,.04,.14,.06,.21-.02-.32-.02-.41-.01-.25,.05,.69,.09,1.37,.14,2.06-.02-.22-.04-.44-.05-.65,.03,.4,.01,.84,.09,1.22,.05,.22,.1,.44,.15,.66,.04,.22,.07,.44,.11,.67,.06,.4,.24,.78,.38,1.16-.07-.21-.15-.41-.22-.62,.14,.41,.29,.81,.44,1.22,0,.02,.01,.04,.02,.06-.04-.1,.02,.11,.04,.19,.02,.09,.03,.18,.04,.26,.05,.26,.16,.48,.29,.7-.06,.24-.13,.49-.19,.73-.13-.28-.27-.56-.41-.85-.27-.53-.54-1.05-.84-1.55-.12-.21-.26-.4-.4-.6-.01-.02-.03-.06-.05-.09-.01-.03-.02-.06-.03-.07-.12-.29-.26-.57-.39-.86-.53-1.1-1.11-2.2-1.85-3.18-.38-.51-.81-.97-1.29-1.39-.29-.25-.58-.5-.91-.71-.4-.26-.82-.35-1.26-.26-.32,.07-.63,.45-.51,.79,.21,.6,.56,.86,1.06,1.27,.16,.14,.19,.16,.37,.34,.17,.16,.32,.33,.48,.51,.15,.18,.3,.36,.43,.55q.15,.21,.3,.46c.25,.4,.47,.83,.67,1.26,.02,.05,.04,.1,.06,.14,0-.02-.04-.12,0,0,.04,.11,.07,.23,.11,.34,.07,.23,.14,.46,.19,.7,.06,.24,.11,.48,.16,.72,.02,.11,.02,.3,.04,.09-.01,.13-.03,.27-.03,.4-.05,.94-.06,1.88-.14,2.83-.06,.7,.09,1.41,.18,2.1,.09,.67,.24,1.33,.31,2,.02,.22,.05,.43,.09,.65,.02,.1,.04,.19,.05,.29,0,.02,0,.03,0,.05,0,.19,0,.38,0,.57,0,.04,0,.07-.01,.11,.06-.33,.05-.25-.04,.22,0,.08,.07,.76,.03,.32,.03,.42,.12,.76,.46,1.04,.25,.22,.56,.33,.88,.33-.6,2.12-1.26,4.22-2.05,6.29-.23,.59-.46,1.19-.71,1.78-.25,.59-.53,1.16-.71,1.77,0,.01,0,.02-.01,.03-.11-1.02-.32-2.03-.62-3.02-.78-2.57-1.94-5.03-3.35-7.31-.75-1.2-1.54-2.39-2.31-3.57-.44-.67-.87-1.33-1.31-2-.52-.79-1.01-1.61-1.59-2.36l-1.4-1.81c-.12-.15-.23-.3-.36-.44-.23-.25-.47-.41-.75-.55-1.16-1.24-2.46-2.35-3.86-3.33-.26-.18-.5-.38-.74-.58-.12-.1-.24-.2-.36-.3-.06-.05-.12-.1-.18-.15,0,0,0,0,0,0-.07-.06-.14-.12-.22-.19-.53-.38-1.16-.68-1.74-.98-1.26-.66-2.55-1.27-3.86-1.81-2.5-1.03-5.04-1.91-7.66-2.62-2.8-.76-5.66-1.26-8.52-1.75-1.34-.23-2.68-.46-4.04-.62-1.57-.18-3.12-.18-4.69-.04-2.99,.27-5.8,1.6-8.03,3.59-2.18,1.95-3.84,4.52-4.77,7.29-1.05,3.12-1.19,6.44-.77,9.69,.37,2.85,1.35,5.64,2.66,8.19,.68,1.32,1.46,2.61,2.39,3.77,.8,1,1.66,1.94,2.56,2.85,1.93,1.93,4.09,3.67,6.4,5.13,1.22,.77,2.42,1.56,3.69,2.25,1.45,.8,2.95,1.51,4.48,2.16,2.8,1.21,5.67,2.2,8.63,2.96,2.95,.76,5.96,1.39,8.99,1.69,2.94,.3,5.88,.37,8.78-.23,2.82-.59,5.44-1.84,7.64-3.69,2.13-1.79,3.85-4.25,4.55-6.96,.05-.19,.09-.38,.13-.58,.15-.02,.3-.09,.42-.22,.81-.86,1.59-1.76,2.33-2.68,.37-.45,.69-.89,.96-1.41,.27-.5,.53-1.01,.79-1.51,1.08-2.16,2.04-4.38,2.91-6.62,.84-2.17,1.65-4.37,2.33-6.6,.68-2.21,1.34-4.44,2.03-6.65,.38-1.24,.77-2.48,1.18-3.71,.37-1.13,.74-2.26,1.17-3.37,.06-.1,.12-.2,.18-.3,.52-.85,.55-1.86,.18-2.69,.21-.06,.4-.14,.57-.24,.39-.23,.78-.5,1.1-.81,.73-.7,1.14-1.62,1.5-2.54,.09-.21,.17-.42,.21-.66,.83,.55,1.82,.88,2.85,.95,.45,.03,.92,0,1.38-.08-.04,.06-.09,.13-.13,.19-.3,.41-.6,.84-.87,1.27-.06,.11-.12,.22-.17,.33,0,.01,0,.02-.01,.03-.03,.06-.06,.12-.09,.18,0,0-.05,.11-.09,.19-.14,.29-.27,.58-.39,.87-.36,.85,.8,1.46,1.43,.94,.17-.14,.33-.28,.51-.41,.08-.06,.16-.12,.24-.18,.07-.05,.29-.24,.11-.1,.4-.31,.78-.64,1.18-.95,.17-.14,.35-.26,.52-.4,.13-.11-.12,.08-.11,.08,.06-.09,.28-.19,.36-.25,.09-.07,.18-.15,.27-.22,.34-.27,.7-.52,1.06-.78,0,0,0,0,0,0h0c.08-.06,.17-.11,.25-.17,.18-.12,.36-.23,.54-.34,.37-.23,.75-.41,1.14-.59,.11-.05,.21-.09,.32-.14,.02,0,.13-.04,.14-.06-.01,.03-.75,.26-.07,.02,.29-.1,.55-.26,.82-.41,.38-.21,.77-.41,1.16-.6,.82-.4,1.68-.75,2.53-1.06,2.62-.89,5.39-1.47,8.14-1.72,2.86-.2,5.73-.06,8.55,.44,2.56,.5,5.08,1.27,7.44,2.38,1.31,.66,2.56,1.45,3.69,2.39,2.14,1.91,3.93,4.24,5.7,6.48,.43,.55,.86,1.11,1.28,1.68,.21,.28,.4,.56,.61,.85,.02,.03,.04,.06,.07,.1,.1,.16,.21,.32,.31,.48,.76,1.2,1.45,2.46,1.98,3.78,.03,.08,.06,.15,.09,.23,0,.02,.02,.06,.04,.1,.03,.1,.06,.19,.1,.29,.12,.37,.22,.74,.31,1.11,.16,.64,.27,1.29,.34,1.95,.03,.44,.03,.87,.02,1.31-.31-.88-.67-1.74-1.1-2.58-2.06-4-5.49-7.12-9.46-9.18-2.14-1.11-4.38-2-6.7-2.67-.62-.18-1.24-.34-1.86-.5,.04-.03,.08-.07,.12-.1,.12-.1,.24-.21,.36-.3,.22-.18,.4-.38,.57-.61,.09-.12,.19-.24,.27-.37,.16-.22,.23-.45,.3-.7,.1-.38,.04-.76-.23-1.07-.27-.3-.66-.41-1.05-.35-.25,.04-.49,.09-.71,.22-.13,.08-.26,.16-.39,.24-.24,.15-.46,.3-.66,.5-.11,.11-.22,.22-.33,.34-.48,.48-.95,.96-1.43,1.43,0,0-.01,.01-.02,.02-.68-.15-1.35-.29-2.03-.43-.14-.03-.28-.06-.41-.09,.18-.16,.36-.32,.56-.46,.04-.03,.07-.05,.11-.08,.01,0,.02-.01,.03-.02,.07-.04,.13-.08,.2-.12,.16-.1,.31-.21,.47-.32,.02-.02,.04-.03,.07-.05,0,0,0,0,0,0,.25-.16,.51-.3,.74-.49,.28-.22,.39-.51,.53-.82,.14-.3-.03-.81-.34-.97-.13-.07-.27-.13-.4-.19-.26-.11-.53-.1-.8-.06-.31,.04-.62,.19-.9,.32-.3,.14-.57,.31-.83,.5,.14-.22,.18-.46,.25-.7,.08-.29,.14-.56-.03-.83-.29-.43-1.24-.71-1.7-.59-.6,.16-1.15,.57-1.65,.91-.44,.3-.79,.74-1.13,1.15-.44,.53-.81,1.12-1.12,1.74-.36-.05-.71-.09-1.07-.13-.76-.09-1.52-.13-2.29-.15,.08-.15,.17-.29,.26-.43,.14-.2,.32-.39,.45-.6,.02-.02,.04-.05,.07-.07,.08-.09,.17-.17,.26-.26,.17-.16,.33-.35,.49-.53,.01,0,.03-.03,.04-.05,.23-.25,.53-.47,.72-.76,.17-.26,.22-.59,.32-.88,.14-.43-.11-1.03-.58-1.14-.33-.07-.68-.16-1.02-.13-.47,.04-.84,.31-1.22,.56-.39,.26-.69,.49-1,.86-.19,.22-.36,.45-.52,.69-.57,.87-.96,1.83-1.19,2.83-.58,.06-1.15,.13-1.73,.23-2.06,.35-4.07,.97-5.97,1.85-1.83,.85-3.52,2.13-4.98,3.52-.1,.1-.19,.19-.28,.29-.08-.28-.25-.51-.53-.64-.34-.16-.82-.14-1.1,.14-.39,.4-.77,.82-1.08,1.29-.28,.43-.48,.94-.71,1.4-.49,1-.97,2-1.4,3.03-.56,1.34-1.12,2.68-1.68,4.02-.05,.07-.11,.13-.16,.2-.33,.41-.53,.86-.72,1.35-.09,.24-.11,.5-.07,.75-1.46,3.56-2.76,7.19-4.31,10.71-.22,.5-.45,1-.68,1.5,0,0,0,.02-.01,.03-.06,.14-.13,.27-.2,.4-.12,.25-.25,.49-.38,.73-.26,.49-.53,.96-.81,1.43-.29,.48-.66,1.02-.83,1.58-.43,.65-.81,1.33-1.16,2.02-1.74,3.56-2.16,7.51-1.67,11.42-.02-.27-.04-.53-.07-.8,.11,1.68,.64,3.28,1.23,4.84,.42,1.11,.95,2.18,1.6,3.19,.86,1.35,1.81,2.65,2.9,3.83,.62,.68,1.33,1.28,2.03,1.88,.51,.44,1.04,.87,1.59,1.25,1.29,.9,2.68,1.76,4.11,2.43,4.19,2.51,8.82,4.24,13.42,5.84,5.2,1.8,10.57,3.37,16.02,4.22,4.98,.78,10.25,.56,14.8-1.77,2.23-1.14,4.18-2.75,5.69-4.75,1.55-2.06,2.41-4.59,2.61-7.14,.13-1.6-.03-3.19-.37-4.74,.37-.57,.61-1.25,.77-1.77,.28-.97,.44-1.98,.6-2.98,.29-1.76,.57-3.53,.86-5.29,.29-1.79,.6-3.58,.87-5.37,.26-1.77,.48-3.54,.72-5.3,.14-1,.32-2,.41-3.01,.05-.56-.08-1.17-.14-1.73-.02-.19-.05-.38-.09-.56,.13-.18,.24-.37,.29-.58,.09-.39,.22-.81,.22-1.21,0-.47-.12-.91-.24-1.37-.15-.6-.29-1.2-.44-1.8-.13-.52-.25-1.04-.38-1.56,.89-.02,1.68-.56,2.01-1.46,1.53-4.23,.63-8.71-1.31-12.64,.04-.08,.07-.16,.08-.25,.29-1.29,.6-2.57,.82-3.88,.19-1.16,.37-2.31,.55-3.47,.35-2.36,.7-4.73,.94-7.1,.24-2.35,.44-4.7,.6-7.06,.17-2.36,.35-4.72,.29-7.08,0-.07,0-.13,0-.2,.85,.46,1.88,.38,2.68-.28,.02-.01,.03-.02,.05-.04,.15-.1,.31-.21,.46-.32,.51-.34,1.01-.67,1.51-1.01-.17,.12-.35,.23-.52,.35,2.68-1.81,5.65-3.11,8.67-4.2,2.91-1.02,5.87-1.94,8.83-2.81,3.47-1.01,6.9-2.2,10.24-3.6,3.2-1.33,6.31-2.84,9.28-4.62,3.17-1.9,6.29-3.96,9.12-6.34,2.89-2.43,5.55-5.23,7.65-8.37,.99-1.47,1.82-3.03,2.63-4.6,.93-1.81,1.78-3.67,2.53-5.57,1.3-3.28,2.43-6.65,3.35-10.06v-.02ZM65.15,118.11s-.01,0-.02-.01c0,0,.01,0,.02,.01Zm.02,.02c.06,.04,.09,.06,0,0h0Zm2.37-.05s.03,.03,.02,.03c0,0-.01-.01-.02-.03Zm7.65-13.8s-.1,.07-.14,.09c.01,0,.1-.06,.14-.09Zm3.06,7.48s0,0,0,0c0,0,0,0,0,0Zm-1.76,.58c.07-.04,.13-.11,0,0h0Zm-.63-8.64c-.04,.05-.07,.1-.09,.1,.04-.04,.07-.08,.09-.1Zm9.92,1.59s-.01,0-.02,0c0,0,0,0,0,0,.03-.01,.04,0,.03,0h0Zm-.07-.01s0,0,0,0c0,0-.02-.02-.03-.03,.01,0,.03,.02,.04,.03h0Zm0,.02h0s0,0-.01,0c0,0,0,0,0,0Zm.01-.02s0,0,0,0c0,0,0,0-.01,0,0,0,0,0,0,0h0Zm0-.03s0,0,0,0c0,0,0-.01,0-.02,0,0,0,.01,0,.02h0Zm0,.05s0,0,0,0c0,0,.01,0,.02,0h0s-.01,0-.02,0h0Zm.06,.04s.02,.02,.03,.03h0s-.02-.02-.03-.03Zm.02,.09s0,.01,0,.02c0,0,0-.02,0-.02Zm0,.08s.01,.06,.01,.06c0,0-.01-.03-.01-.06Zm.03-.13s0-.02-.01-.03c.01,0,.01,0,0,0,0,0,0,0,0,0,.11,.03,.09,.07,.01,.04h0Zm50.79,19.53c.05,0,.11,0,.17,0-.01,.01-.07,.02-.18,0,0,0,0,0,.01,0Zm-.48,.22s.08-.07,.12-.1h0c-.06,.06-.1,.09-.12,.1h0Zm-7.93,6.16l-.02-.03s.01,0,.02,.03Zm-.11-.46h0s0,0,0,0h0s0,0,0,0Zm0,.04s-.01,.02-.02,.03c0,0,.01-.01,.02-.03Zm0-.02s0,0,0-.01c0,0,0,0,.01-.01,0,0,0,.01-.01,.02h0Zm.06-.09s.04-.05,.04-.05c-.01,.02-.03,.03-.04,.05Zm-.03,.03s0,0,0,0c0-.01,0-.02,0-.02,0,0,0,0,0,.01h0Zm-.02,.02h-.01s0-.03,.01,0Zm-.04,.09c-.05,.07-.03,.04,0,0h0Zm.01,.04s0,0,0,0c0,0,0,0,0,0,0,0,0,0,0-.01Zm.01,.04s.01,.07,0,.06c0,0,0-.03,0-.06Zm.03,.16s.04,.09,.04,.09c-.02-.01-.03-.05-.04-.09Zm.11,.18s-.05-.04-.05-.04c0,0,.02,.02,.05,.04Zm.01,.01s.02,.05,0,0h0Zm.25,.09s.05,.02,0,0h0Zm-18.86,10.12s-.04-.05,0,0h0Zm3.57-6.51c-.2,.15-.43,.29-.61,.45-.34,.31-.33,.69-.29,1.09-.7,.48-1.41,.93-2.15,1.36-.72,.43-1.41,.87-1.95,1.52-.48,.59-.61,1.47-.45,2.2,.05,.22,.13,.44,.23,.65-.2,.11-.41,.22-.61,.33-.23,.13-.46,.26-.69,.38,.06-.23,.11-.45,.17-.68,.42-1.63,.89-3.25,1.42-4.86,.7-2.14,1.49-4.26,2.33-6.35,.36,.3,.89,.42,1.44,.18,.21-.09,.41-.21,.62-.31,.07-.04,.01-.02,.15-.05,.13-.03,.25-.06,.38-.1,.46-.11,.93-.22,1.4-.32,.33-.07,.66-.13,.99-.2-.75,.29-1.44,.62-2.14,1.01-1.02,.57-1.19,2.06-.16,2.73,.22,.15,.47,.26,.72,.34-.27,.2-.55,.39-.81,.6Zm.5-9.21c-.31,.21-.62,.43-.92,.65-.1,.08-.2,.16-.3,.24,.18-.4,.36-.8,.55-1.2,.02,.01,.04,.03,.06,.04,.2,.13,.4,.21,.6,.26Zm-9.94-5.85s.03-.01,.05-.02c-.01,0-.03,.01-.05,.02Zm-.07,.02c-.13,.04-.07,.03,0,0h0Zm-37.84,77.56c-.02-.06-.04-.12-.07-.18,.03,.02,.05,.05,.08,.08,.03,.03,.07,.06,.11,.1-.03,.03-.06,.06-.09,.09,0-.03-.01-.05-.02-.08h0Zm-18.93-28.75c1.54,.76,3.02,1.62,4.42,2.62,.67,.47,1.3,.99,1.93,1.5-.04-.03,.25,.22,.33,.29,.14,.13,.28,.26,.42,.39,.3,.29,.6,.58,.89,.88,.54,.56,1.06,1.14,1.55,1.75,.23,.28,.45,.57,.66,.86,.11,.15,.23,.31,.33,.46,.04,.05,.07,.1,.1,.15,.01,.02,.03,.05,.05,.07,.86,1.3,1.54,2.67,2.17,4.1,.01,.04,.03,.07,.04,.11-.15-.44-.13-.39,.05,.13,.07,.21,.14,.42,.21,.64,.12,.39,.24,.79,.33,1.19,.2,.82,.36,1.66,.45,2.51,.05,.73,.03,1.47-.08,2.19-.08,.35-.19,.69-.33,1.03-.13,.23-.27,.44-.42,.65-.22,.23-.47,.44-.73,.63-.3,.18-.6,.35-.92,.49-.45,.07-.89,.15-1.34,.21-.1,0-.2,.01-.29,.02-.31,0-.61,.04-.92,.04-.43,0-.86-.02-1.28-.04-.75-.03-1.49-.11-2.23-.23-1.56-.31-3.12-.69-4.62-1.21-1.59-.55-3.14-1.22-4.66-1.93-3.49-1.72-6.76-3.87-9.73-6.39-.94-.84-1.83-1.73-2.69-2.65-.84-.9-1.66-1.82-2.38-2.82-.24-.39-.46-.79-.64-1.21-.09-.33-.16-.67-.21-1.01-.01-.38,0-.75,.05-1.13,.1-.43,.21-.86,.37-1.27,.17-.46,.27-.81,.33-1.33,.01-.12,.03-.23,.05-.35,.01-.04,.03-.08,.05-.12,.47-.96,1.01-1.85,1.62-2.73,.12-.18,.24-.35,.37-.51,.01-.02,.03-.03,.04-.05,.06-.06,.12-.13,.19-.2,.07-.06,.14-.12,.2-.17,.09-.04,.19-.08,.27-.12,.02,0,.03,0,.05,0,.02,0,.06-.01,.1-.02,.02,0,.04,0,.06-.01-.02,0-.04,0-.05,.01,.04,0,.08,0,.12,0,.04,0,.1,.01,.14,.02-.04-.01-.09-.03-.15-.04,.1,.03,.21,.05,.3,.07,.45,.12,.87,.29,1.31,.43,.52,.17,1.06,.32,1.6,.36,.16,.03,.33,.02,.49-.02,.42-.15,.48-.17,.18-.06,0,0,.17-.04,.31-.1,.24,.44,.94,.49,1.23,.05,.25-.39,.32-.83,.24-1.26,.43,.03,.86,.07,1.28,.14,1.43,.29,2.85,.71,4.23,1.18,1.54,.52,3.04,1.12,4.51,1.82h0Zm-18.66,1.18c.06-.15,.14-.29,.2-.43-.07,.14-.14,.28-.2,.43Zm7.36-3.19h0s.03-.01,0,0Zm.11-1.12s.03,0,.05,0c.06,0,.12-.01,.18-.02,0,0,.01,0,.02,0-.13,.02-.2,.02-.24,.03Zm-4.77,.55c.32-.11,.32-.11-.01,0,0,0,0,0,.01,0Zm18.23,34.33c-4.56-.87-9.12-2.13-13.32-4.11-.3-.15-.6-.3-.89-.45,0-.05,.01-.1,.02-.15,.04-.15,.08-.29,.14-.43,.02-.04,.04-.08,.07-.12,.26-.42,.18-1.05-.27-1.32-.46-.27-1.02-.17-1.32,.27-.17,.24-.31,.51-.41,.79-.26-.15-.51-.3-.76-.45,0,0,0,0,0,0,.04-.07,.08-.15,.13-.21,.2-.27,.12-.66-.12-.87-.11-.09-.25-.17-.4-.17-.16,0-.36,.04-.47,.17-.1,.11-.19,.23-.27,.36-.53-.36-1.06-.73-1.56-1.13,.02-.09,.05-.18,.09-.27,.02-.03,.03-.07,.04-.1,.03-.1,.05-.21,.06-.32,0,0,0,0,0-.01,.02-.1,.05-.19,.09-.28,.04-.08,.09-.15,.15-.22,.04-.04,.09-.09,.14-.12,.04-.03,.09-.05,.13-.07,.45-.22,.67-.84,.42-1.28-.12-.21-.31-.41-.56-.47-.26-.07-.48-.04-.73,.05-.54,.21-1.03,.66-1.31,1.17-.08,.15-.15,.29-.21,.45-.35-.33-.69-.67-1.02-1.02,.03-.06,.06-.12,.07-.18,.02-.09,.05-.18,.08-.27,.04-.12,.05-.24,.07-.37,.02-.09,.05-.18,.09-.27,.04-.08,.09-.15,.15-.22,.05-.05,.11-.1,.16-.14,.08-.05,.16-.09,.25-.12-.06,.02-.12,.04-.18,.06,.23-.08,.42-.17,.56-.39,.13-.19,.19-.48,.13-.71-.06-.23-.19-.45-.4-.58-.23-.14-.45-.17-.71-.13-.59,.08-1.18,.4-1.58,.84-.17,.18-.3,.36-.42,.55-.08-.1-.17-.2-.25-.31-.36-.45-.68-.92-1.02-1.37-.31-.52-.66-1.02-.96-1.55-.37-.64-.74-1.29-1.1-1.93-.65-1.17-1.21-2.39-1.68-3.64-.58-1.73-1-3.52-1.19-5.32-.08-1.32-.03-2.64,.18-3.95,.21-.98,.51-1.94,.91-2.87,.46-.89,1.01-1.74,1.65-2.52,.56-.6,1.18-1.15,1.85-1.64,.62-.39,1.27-.72,1.95-.98,.85-.27,1.74-.45,2.63-.54,1.71-.1,3.42,.02,5.13,.2-.37,.13-.72,.29-.97,.54-.15,.15-.29,.32-.4,.49-.31-.09-.62-.16-.95-.21-.71-.11-1.42,.04-2.07,.32-1.1,.47-1.91,1.42-2.65,2.32-.71,.86-1.43,1.72-2.1,2.61-.21,.18-.41,.36-.61,.55-.55,.52-.84,1.26-1.15,1.93-.29,.64-.52,1.31-.66,2-.23,1.15-.32,2.18-.16,3.36,.13,.9,.45,1.8,.84,2.62,.7,1.49,1.78,2.82,2.85,4.08,.99,1.18,2.05,2.3,3.15,3.38,2.35,2.3,4.87,4.44,7.6,6.28,2.67,1.8,5.55,3.4,8.57,4.51,1.72,.63,3.48,1.09,5.29,1.39,.76,.13,1.57,.13,2.34,.11,.5,0,1-.05,1.5-.09,.5-.04,1.03-.06,1.52-.17-.27,.02-.54,.04-.81,.07,.67-.05,1.26-.14,1.9-.32,.51-.15,1.05-.29,1.54-.52,.82-.28,1.65-.74,2.35-1.25,1.98-.95,3.56-2.48,4.41-4.52,.81-1.94,.72-4.21,.36-6.23-.59-3.29-1.99-6.52-3.87-9.29-2.04-3.03-4.61-5.62-7.6-7.73-2.99-2.11-6.32-3.75-9.77-4.97,.95,.13,1.91,.29,2.85,.46-.18-.03-.37-.07-.56-.1,.23,.04,.45,.08,.68,.13,2.41,.45,4.76,1.08,7.04,1.97,.27,.11,.55,.22,.82,.33,.13,.05,.25,.11,.38,.16,.07,.03,.14,.06,.21,.09,.07,.03,.12,.05,.13,.06-.01,0-.05-.02-.11-.06,.33,.18,.71,.27,1.07,.4,.13,.04,.25,.09,.38,.14,.07,.03,.14,.05,.21,.08-.24-.09,.22,.12,.2,.1,.02,.01,.04,.02,.04,.02,.07,.04,.14,.07,.21,.11,.14,.08,.27,.15,.41,.23,.27,.16,.54,.32,.8,.48,.36,.22,.72,.46,1.07,.7-.04,.09-.06,.19-.08,.29-.04,.33-.08,.67-.11,1.01-.07,.61,.1,1.14,.36,1.7,.3,.65,.63,1.3,.94,1.94,.64,1.32,1.44,2.56,2.18,3.82,1.26,2.15,2.52,4.28,3.68,6.49,.56,1.07,1.07,2.18,1.5,3.32,.36,1.07,.62,2.16,.75,3.28,.05,.83,.02,1.65-.11,2.47-.15,.67-.37,1.33-.64,1.96-.36,.68-.78,1.31-1.26,1.91-.14-.09-.27-.19-.4-.3-.15-.14-.29-.28-.42-.44-.21-.25-.64-.28-.88-.05-.12,.11-.21,.27-.21,.44,0,.05,0,.11,.01,.16,.01,.06,.04,.12,.07,.17-.23-.26-.45-.51-.68-.77-.23-.26-.69-.3-.94-.06-.27,.26-.29,.65-.06,.94,.24,.3,.48,.6,.72,.91,.11,.14,.23,.29,.34,.43,.09,.12,.18,.23,.31,.3,.05,.03,.09,.05,.14,.08-.07,.05-.13,.1-.2,.15-.26,.17-.53,.33-.8,.49-.02,0-.05-.02-.07-.03-.04-.01-.07-.01-.1-.02-.02-.04-.04-.07-.05-.11-.07-.14-.15-.28-.26-.39-.1-.11-.26-.2-.42-.2-.05,0-.1,0-.15,.01-.08,.01-.15,.05-.21,.1-.05,.02-.08,.06-.11,.1-.06,.06-.1,.12-.12,.2-.01,.05-.02,.1-.03,.16,0,.07,0,.12,.02,.18,.02,.07,.03,.14,.04,.21,0,.02,0,.04,0,.06,0,.06,0,.12,.01,.18,.02,.05,.04,.11,.06,.16,0,0,0,.02,.01,.03,0,.01,.02,.03,.02,.05-.41,.19-.83,.37-1.25,.53-1.37,.44-2.78,.72-4.21,.86-2.67,.19-5.3-.07-7.93-.54h0Zm-21.51-11.85s.02,0,.03-.01c0,0,0,0,.01,0-.01,0-.03,0-.04,.01Zm68.98-38.18s-.02-.06-.04-.08c.01,.03,.03,.05,.04,.08Zm-1.75-2.09s-.07-.03-.1-.05c.06,.02,.1,.04,.1,.05Zm-.73,.34c-.08-.13-.04-.15,0,0h0Zm.26-.54s-.01,.02-.02,.03c0,0,0,0-.01,0,0,0,0,0,0,0h0s.01-.01,.02-.02h0Zm.03-.05h0s.02-.03,.03-.04c0,.02-.02,.03-.03,.04h0Zm-45.29-20.81s-.11,.04-.11,.04c.02-.02,.07-.03,.11-.04Zm-24.68,27.75s.08-.04,.11-.06c.02-.01,.03-.02,.05-.04-.05,.05-.11,.08-.16,.1Zm.38-.39s.05-.1,.08-.15c-.02,.04-.04,.1-.08,.15Zm-.05,.09s0,0,0-.01c0,0,0,0,0,.01Zm43.14-15.93c-.12-.08-.24-.17-.37-.25,.36-.09,.72-.16,1.08-.21,.03,0,.06,0,.09-.01-.27,.15-.54,.3-.81,.46h0Zm-1.78,5.98c.07,.03,.14,.07,.21,.1-.07-.03-.14-.07-.21-.1h0Zm17.47,6.76c-1.36-1.6-2.86-3.06-4.45-4.43-.8-1.01-1.96-1.79-3-2.56-.92-.69-1.86-1.35-2.81-2-.83-.56-1.65-1.13-2.47-1.7,.43-.18,.86-.36,1.29-.53,.35-.14,.6-.35,.86-.61,.26-.27,.5-.51,.64-.87,.11-.29,.04-.74-.2-.95-.21-.19-.39-.33-.67-.41-.11-.04-.24-.06-.35-.09-.23-.05-.47-.12-.71-.12-.29,0-.52,.06-.79,.14-.2,.06-.39,.12-.58,.19,.03-.07,.06-.15,.06-.24,0-.23-.1-.49-.31-.61-.09-.05-.18-.1-.27-.15-.3-.15-.53-.24-.87-.2-.23,.03-.45,.07-.68,.12-.54,.11-1.06,.29-1.57,.48-.37,.14-.73,.32-1.08,.52-.34-.16-.69-.31-1.03-.47-.41-.19-.82-.38-1.24-.56,.11-.05,.22-.1,.33-.15,.06-.03,.33-.09,.36-.14,.06-.02,.12-.04,.19-.06,.28-.1,.52-.26,.74-.46,.38-.35,.56-.86,.45-1.37-.1-.46-.48-.95-.96-1.06-.36-.08-.67-.15-1.04-.08-.13,.03-.25,.07-.37,.11-.36,.12-.72,.25-1.07,.4-.6,.26-1.14,.64-1.64,1.06-.16,.13-.31,.27-.46,.41-.58-.19-1.16-.37-1.74-.53,0,0,.01,0,.02-.01,.08-.06,.17-.12,.25-.18,.05-.03,.09-.07,.14-.1h0c.13-.09,.28-.17,.38-.28,.1-.1,.18-.22,.27-.33,.03-.03,.05-.06,.08-.09,.01-.01,.02-.02,.02-.02,0,0,.02-.02,.03-.03,.07-.08,.15-.17,.22-.25,.23-.25,.14-.76-.27-.75-.5,0-1.03,0-1.49,.22-.41,.19-.81,.4-1.19,.64-.29,.19-.56,.42-.81,.66-.25-.04-.49-.09-.74-.12-.81-.12-1.61-.19-2.42-.22,.14-.09,.28-.2,.41-.31,.22-.2,.46-.39,.67-.6,.48-.47,1.02-1.09,1.22-1.75,.14-.47-.11-.86-.54-1.05-.31-.14-.67-.15-1.01-.16-.48-.02-.86,.08-1.3,.23-.78,.28-1.46,.72-2.06,1.31-.23,.23-.45,.46-.66,.7-.18,.21-.36,.41-.54,.62-.16,.2-.26,.43-.36,.67-.06,.14-.12,.27-.18,.41-.03,.04-.06,.1-.09,.15-.81,.11-1.63,.27-2.44,.5,.18-.21,.36-.41,.54-.6,.56-.59,1.15-1.14,1.77-1.65,.32-.27,.65-.52,.99-.76,.17-.12,.35-.23,.51-.36,.34-.28,.53-.72,.55-1.16,.03-.49-.33-1.1-.84-1.21-.48-.11-.93-.1-1.35,.18-.21,.14-.39,.29-.57,.46-.33,.29-.64,.59-.94,.91-.65,.67-1.27,1.38-1.83,2.12-.79,1.04-1.48,2.16-2.05,3.33-.09,.04-.18,.09-.27,.14-1.05,.57-2.06,1.21-3.03,1.9,0-.01,0-.02,0-.04,.07-.27,.16-.53,.23-.8,.08-.28,.17-.55,.29-.82,.12-.22,.24-.43,.39-.63,.05-.06,.12-.13,.16-.2-.05,.05-.1,.11-.15,.17,.11-.11,.21-.23,.31-.36,.09-.13,.18-.26,.28-.39,.16-.2,.22-.46,.21-.72,.4-.66,.85-1.29,1.35-1.89,.02-.03,.16-.19,.17-.2,.08-.09,.15-.17,.23-.25,.18-.19,.36-.38,.54-.56,.39-.38,.79-.75,1.21-1.09,.41-.33,.83-.64,1.26-.95,0,0,0,0,0,0,0,0-.01,0-.02,.01,0,0,.02-.01,.03-.02,.02-.01,.04-.03,.06-.04,.02-.01,.04-.02,.05-.03,.11-.07,.22-.14,.33-.21,.22-.14,.45-.27,.68-.4,.47-.26,.96-.5,1.46-.71,.24-.1,.49-.19,.73-.29,.01,0,.02,0,.03-.01,.01,0,.02,0,.03,0,.14-.05,.28-.09,.43-.14,.15-.05,.3-.08,.46-.11,.06-.01,.12-.02,.18-.03t.01,0c.15,.03,.33,.03,.48,.03,.07,0,.22,0,.35-.02,.05,0,.12-.01,.14-.01,.33-.02,.65-.03,.98-.03,.5,0,.99-.04,1.49-.08-.18,.01-.37,.03-.56,.05,2.01-.16,4.03-.02,6.01,.32,2.46,.48,4.87,1.26,7.15,2.32,2.62,1.3,5.03,2.96,7.25,4.86,2.46,2.16,4.67,4.59,6.8,7.08,1.1,1.29,2.16,2.6,3.21,3.94,.51,.65,1.02,1.29,1.51,1.96,.1,.14,.41,.7,.1,.13,.08,.15,.2,.3,.29,.45,.22,.35,.42,.71,.6,1.08,.09,.19,.18,.38,.26,.58,.04,.09,.06,.18,.1,.26-.02-.04-.03-.06-.04-.09,0,0,0,.02,.01,.03,.11,.38,.17,.77,.24,1.16,.01,.07,.02,.13,.03,.2,0,0,0,.01,0,.02,0,.14-.04,.32-.04,.46-.05,.2-.12,.41-.13,.62,0,.07,.01,.13,.02,.2-.02,.11,0,.25,0,.36-.03,.58,.41,1.18,.98,1.35,0,.2-.03,.4-.06,.6-.09,.42-.2,.84-.34,1.24-.05,.14-.1,.28-.15,.42-.1-.24-.23-.46-.37-.68-.27-.45-.55-.89-.85-1.32-.23-.33-.45-.67-.69-.99-.01-.09-.13-.22-.18-.29-.36-.59-.78-1.12-1.23-1.65h.02Zm-19.66-15.31s.1-.03,.15-.05c-.04,.02-.34,.11-.15,.05Zm-5.33-1.95s.03-.02,0,0h0Zm37.49,17.45c-.08,.1-.32,.18-.43,.24-.07,.03-.19,.11-.27,.12,.05-.02,.1-.04,.15-.05-.06,.02-.12,.04-.19,.06-.16,.05-.32,.08-.48,.11-.08,.01-.17,.04-.26,.04-.03,0-.07,0-.09,0-.2,0-.4,0-.59-.02-.08-.01-.15-.02-.23-.03,0,0,0,0-.02,0-.19-.05-.38-.1-.57-.17-.06-.02-.12-.05-.18-.07-.03-.01-.05-.02-.07-.03-.03-.01-.05-.03-.08-.04-.16-.09-.31-.18-.46-.29-.04-.03-.08-.06-.11-.09,0,0-.13-.11-.15-.13-.12-.12-.22-.25-.33-.37-.02-.02-.03-.03-.04-.04,0-.01,0-.02-.02-.04-.06-.11-.13-.22-.19-.34-.03-.06-.06-.12-.08-.17-.01-.03-.1-.28-.09-.25-.05-.17-.1-.34-.13-.51,0,0,0-.01,0-.02,.24,.34,.58,.6,.99,.72,.03,0,.05,.02,.08,.02,.05,.02,.66,.12,.3,.05,0,0,0,0,0,0,.14,.02,.27,.06,.42,.07,.8,.05,1.48-.8,1.24-1.55,0-.04,0-.09,0-.15,0-.09,0-.19-.02-.28-.03,.08-.07,.08-.04,0,0,.03,.01,.03,.03-.05,0,0,0,0,0,0,0,0,0,0,0-.01,0,0,0,0,0-.01,0,0,0,0,0,0,0,0,0,0,0,0,0,0,0,0,0,0,0,0,0,0,0,0,0-.05,.01-.12,0-.16,0,.04,.01,.07,.01,.1,.01-.04,.03-.08,.04-.12-.02,.05-.03,.09-.04,.13,0,.01,0,.02,0,.04,.01-.03,.03-.06,.04-.09-.04,.04-.02-.02,.05-.09h0s0,0,0,0c0,0,.01,0,.02,0,0,0,0,0,0,.01,.02,0,.05,0,.06,0,.02,0,.03,0,.04,0,.02,0,.05,.01,.07,.02,.01,0,.1,.03,.19,.06,.05,.03,.1,.05,.15,.08,.17,.11,.33,.23,.49,.35,0,0,0,0,.01,0,0,0,.02,.02,.03,.03,.08,.09,.17,.17,.25,.26,.16,.17,.31,.35,.45,.53,.01,.02,.04,.04,.06,.07,.04,.05,.07,.12,.1,.17,.12,.2,.22,.4,.31,.62,.02,.04,.03,.07,.04,.08,.02,.1,.03,.22,.05,.29,0,.01,0,.02,0,.03,0,0,0,0,0,0,0,.09-.01,.18-.01,.26-.02,.06-.04,.14-.06,.2-.04,.04-.08,.1-.1,.13-.02,.03-.03,.05-.04,.06-.06,.06-.13,.11-.18,.16-.06,.05-.12,.1-.18,.15-.13,.1-.12,.09,.03-.02h0Zm15.57,3.77s.03-.03,.04-.05c-.06,.07-.16,.17-.04,.05Zm5.78,1.43c.33-.3,.71-.54,1.05-.83,.16-.14,.33-.27,.51-.4,.02-.01,.03-.02,.05-.04,.01,0,.03-.01,.04-.02-.51,.51-.94,1.06-1.3,1.67-.21-.04-.41-.08-.62-.12,.09-.09,.18-.18,.28-.27Zm-33.95,44.77s.08,0,.13-.01c-.04,0-.08,0-.13,.01h0Zm47.37,23.06c-1.26,.41-2.56,.67-3.88,.8-2.61,.18-5.22-.08-7.8-.53-2.94-.56-5.86-1.31-8.73-2.15-2.99-.86-5.95-1.82-8.84-2.97-1.32-.53-2.62-1.09-3.9-1.7-1.14-.56-2.26-1.15-3.35-1.8-1.04-.62-2.01-1.39-2.94-2.18-.31-.28-.62-.56-.93-.84-.82-.83-1.65-1.63-2.45-2.49-.7-.75-1.35-1.54-1.94-2.38-.35-.54-.68-1.1-.98-1.67,.06-.02,.11-.04,.17-.07,.38-.14,.81-.32,1.05-.67,.24-.35,.16-.94-.24-1.15-.2-.11-.38-.15-.6-.18-.09,0-.18-.02-.27-.02-.19,0-.38,0-.57-.02-.15,0-.3,0-.45,0-.08-.26-.16-.52-.23-.79,.02,0,.04,0,.06-.01,.23-.04,.46-.1,.69-.16,.27-.08,.53-.16,.76-.34,.23-.18,.38-.44,.43-.73,.02-.03,.03-.07,.05-.1,.06-.14,.03-.38-.04-.51-.08-.14-.19-.23-.32-.3-.22-.2-.51-.31-.8-.32-.21,0-.41,.05-.61,.1-.23,.05-.46,.08-.7,.1-.08-.46-.14-.93-.19-1.39-.01-.18-.02-.35-.02-.53,.08,0,.17,0,.25,0,.15-.01,.31-.08,.45-.12,.14-.04,.26-.15,.26-.31,0-.16-.09-.27-.23-.33-.12-.05-.25-.12-.37-.16-.1-.03-.21-.03-.32-.04-.02,0-.03,0-.05,0,0-.48,.04-.95,.09-1.42,.01,0,.02,0,.04,.01,.14,.04,.27,.06,.41,.09,.42,.09,.89,.25,1.31,.11,.19-.06,.38-.11,.53-.26,.07-.07,.13-.14,.18-.22,.06-.09,.12-.18,.14-.29,.06-.33-.12-.71-.34-.93-.22-.21-.43-.35-.73-.42-.14-.04-.29-.07-.43-.11-.14-.04-.28-.08-.43-.11-.08-.02-.15-.03-.22-.04,.15-.48,.32-.94,.52-1.41,.38-.73,.81-1.41,1.33-2.04,.51-.55,1.07-1.05,1.68-1.49,.82-.53,1.7-.95,2.62-1.3,1.46-.48,2.98-.78,4.51-.98-.12,.06-.24,.11-.35,.18-1.22,.68-2.22,1.64-3.04,2.76-.75,1.02-1.27,2.21-1.73,3.38-.39,1.01-.66,2.07-.91,3.13-.34,1.47-.61,3.03-.59,4.55,.02,1.74,.36,3.38,1.12,4.95,1.28,2.64,3.51,4.72,5.77,6.53,2.22,1.78,4.68,3.15,7.25,4.36,2.34,1.11,4.78,2,7.25,2.76,2.5,.77,5.04,1.4,7.58,1.99,2.38,.56,4.84,1.07,7.29,1.14,.72,.02,1.43-.03,2.15-.09,.7-.07,1.39-.2,2.06-.42,1.14-.38,2.05-.81,3.02-1.5,1.74-1.23,2.89-3.34,3.07-5.46-.04,.22-.08,.45-.12,.67,.27-1.4,.27-2.77-.04-4.16-.28-1.22-.74-2.42-1.32-3.53-.25-.48-.52-.95-.82-1.4-.08-.12-.15-.23-.23-.35,0,0-.52-.77-.22-.33,.3,.44-.22-.32-.23-.33-.16-.23-.32-.46-.49-.69-.66-.9-1.36-1.76-2.1-2.6-3.06-3.42-6.6-6.37-10.67-8.51-.28-.15-.57-.3-.86-.44,.26-.13,.46-.35,.54-.63,.18-.64-.14-1.15-.72-1.42-.63-.29-1.26-.54-1.89-.83-.15-.13-.29-.26-.44-.4-.29-.26-.56-.45-.94-.59-.2-.07-.4-.14-.6-.2-.69-.23-1.39-.45-2.09-.65-1.35-.4-2.72-.75-4.09-1.05-.84-.18-1.67-.34-2.52-.5-.31-.06-.62-.11-.94-.16h0s-.07-.01-.1-.02c-.08-.01-.11-.03-.11-.04-.2-.05-.39-.1-.59-.14-.34-.08-.69-.17-1.03-.25,.02,0,.04,0,.06,0,.66,.03,1.32,.08,1.98,.14,.33,.03,.55,.02,.9,0-.55,.04-.03,.01,.09,.01,.33,0,.66,0,.99,0,.31,0,.61,0,.92,.01,.17,0,.35,0,.52,.02-.54-.02,1.01,.03,.52,.02,.71,.02,1.25,.06,1.94,.14,1.28,.15,2.52,.56,3.74,.96,.32,.1,.68-.08,.79-.4,.11-.35-.09-.64-.4-.78-1.19-.55-2.43-.99-3.61-1.55-.59-.28-1.13-.53-1.75-.81-.08-.04-.16-.07-.24-.11,.02,0,.03,.01,.05,.02,.17,.05,.07,0-.28-.15-.14-.05-.29-.1-.44-.15-.3-.13-.61-.24-.92-.36-.64-.24-1.31-.55-1.98-.68-.72-.13-1.44-.25-2.16-.35-1.29-.18-2.59-.29-3.9-.35-1.28-.05-2.56,0-3.83,.09-1.36,.1-2.71,.23-4.05,.49-1.23,.24-2.43,.59-3.58,1.06,.53-1.22,1.03-2.46,1.53-3.7,.29-.73,.59-1.45,.88-2.18,.08-.06,.16-.11,.24-.16,.81-.51,1.6-.82,2.49-1.04,.47-.12,.94-.2,1.42-.26,.55-.07,.86-.07,1.46-.11,1.13-.07,2.25-.11,3.38-.15,.7-.03,1.47,0,2.15-.17,.29-.07,.58-.15,.87-.24,.44-.13,.75-.31,1.07-.64,.45-.48,.29-1.1-.29-1.38-.2-.1-.58-.24-.9-.24s-.64-.01-.96-.02c-.35-.02-.7,.03-1.05,.06-.01,0-.02,0-.03,0-.07,0-.14,.01-.22,.02-.15,.01-.3,.02-.46,.03-1.28,.08-2.57,.11-3.83,.29-1.46,.21-2.93,.65-4.26,1.33,.22-.56,.45-1.13,.67-1.69,.02-.02,.04-.03,.07-.05,.06-.04,.12-.08,.18-.12,.02-.01,.02-.02,.03-.02,.2-.13,.4-.27,.59-.42,.26-.2,.51-.4,.78-.59,.12-.08,.24-.16,.35-.25-.62,.44-.02,.02,.12-.07,1.09-.69,2.26-1.28,3.39-1.91,.58-.32,1.18-.59,1.78-.88,.02,0,.04-.02,.06-.02-.05,.02-.12,.04-.23,.08,.07-.02,.14-.05,.21-.07,.02,0,.05-.01,.07-.02,.03-.01,.04-.01,.04-.01,.12-.04,.24-.08,.36-.12,.33-.1,.66-.19,.99-.28,.63-.16,1.27-.29,1.91-.39,.3-.05,.6-.09,.91-.12,.12-.01,.24-.02,.37-.04,.1,0,.21-.01,.31-.02,.36-.02,.72-.03,1.08-.03,.48,0,.9-.1,1.36-.19,.35-.07,.71-.12,1.05-.21,.26-.07,.52-.13,.74-.32,.04-.04,.14-.14,.18-.18,.04-.03,.08-.07,.09-.07,.17-.14,.22-.41,.11-.6-.03-.05-.05-.1-.08-.15,0,0,0,0,0,0-.01-.04-.03-.08-.05-.14-.11-.21-.28-.36-.47-.49-.35-.24-.74-.4-1.12-.56-.29-.12-.58-.24-.89-.34-.45-.14-.94-.15-1.41-.17-1.48-.06-2.99,.04-4.46,.27-1.32,.21-2.66,.53-3.94,.91-.6,.18-1.2,.39-1.79,.62,.15-.43,.3-.87,.44-1.31,.18-.57,.38-1.15,.54-1.72,.02-.08,.04-.16,.05-.25,.11,.06,.23,.1,.34,.12,.29,.04,.56,.08,.85,.02,.32-.07,.62-.28,.91-.41,.48-.24,.98-.45,1.47-.65,.23-.1,.47-.18,.7-.27,.06-.02,.11-.04,.16-.06,.18-.07,.14-.05-.1,.03,.05-.05,.24-.08,.32-.11,.25-.08,.5-.16,.75-.23,.19-.05,.38-.11,.57-.18,.03-.01,.06-.02,.08-.03,.04-.01,.07-.02,.11-.04,1.88-.63,3.86-1.06,5.85-1.26,2.71-.19,5.45,.08,8.11,.55,2.73,.52,5.46,1.16,8.15,1.84,2.65,.67,5.29,1.47,7.77,2.63,1.63,.82,3.17,1.79,4.58,2.95,.97,.87,1.85,1.84,2.61,2.9,1.05,1.63,1.82,3.44,2.48,5.26,.42,1.21,.81,2.44,1.19,3.67,.23,.73,.46,1.46,.68,2.18,.12,.36,.23,.73,.34,1.09,.13,.41,.26,.78,.5,1.13,.16,.23,.33,.41,.52,.61,.04,.04,.09,.08,.13,.12-.11,.22-.21,.44-.31,.66-.08,.17-.18,.35-.23,.53-.08,.25-.11,.54-.15,.81-.3-.37-.63-.72-1-1.05-.48-.43-.97-.88-1.51-1.22-.49-.31-1.01-.6-1.53-.86-1.08-.54-2.2-1.07-3.34-1.47-.57-.2-1.15-.37-1.74-.51-.63-.15-1.22-.13-1.87-.09-.52,.04-.71,.73-.17,.93,.53,.2,1.03,.43,1.58,.57,.54,.14,1.08,.3,1.61,.49,1.07,.38,2.05,.86,2.98,1.51,.87,.61,1.78,1.35,2.53,2.03,.7,.64,1.39,1.25,2.05,1.93-.17,.94-.34,1.87-.51,2.81-.11-.1-.21-.21-.32-.31-.13-.13-.26-.25-.4-.38-.4-.37-.76-.59-1.26-.8-.15-.06-.32-.13-.48-.14-.02,0-.03,0-.04,0-.05-.05-.12-.09-.18-.14-.34-.27-.68-.53-1.02-.79-.64-.48-1.28-.94-1.93-1.4-1.33-.93-2.69-1.79-4.07-2.62-.75-.45-1.52-.9-2.35-1.18-.42-.14-.88-.18-1.32-.12-.45,.06-.79,.37-1.15,.62-.28,.2-.17,.73,.17,.81,.29,.07,.49,.29,.76,.41,.03,0,.4,.17,.26,.11,.23,.11,.46,.21,.69,.32-.16-.07,.23,.13,.26,.14,.14,.08,.28,.16,.41,.25,.3,.19,.58,.4,.87,.6,1.24,.9,2.44,1.85,3.61,2.83,.14,.12,.28,.24,.42,.35,.02,.01,.06,.05,.08,.07,.05,.04,.1,.08,.14,.12,.29,.25,.58,.51,.86,.77,.25,.23,.5,.46,.75,.69,.13,.12,.26,.25,.4,.37,.06,.05,.11,.11,.17,.17,0,.01,.01,.04,.05,.11,.02,.07,.05,.15,.09,.24,.04,.08,.07,.15,.11,.23,.15,.27,.31,.54,.53,.76,.27,.27,.58,.51,.86,.77,.52,.47,1.05,.97,1.49,1.52,0,0,.05,.05,.09,.1,.03,.04,.05,.09,.08,.13,.15,.23,.29,.45,.47,.65-.24,1.56-.48,3.11-.72,4.67-.12,.76-.23,1.53-.35,2.3-.71-1.14-1.51-2.23-2.37-3.25-.39-.46-.9-.92-1.4-1.31-1.09-1.24-2.26-2.41-3.41-3.59-1.26-1.27-2.48-2.57-3.77-3.81-2.61-2.53-5.43-4.94-8.68-6.61-.54-.28-1.09-.55-1.65-.8-.57-.25-1.12-.36-1.73-.47-.57-.1-1.07-.18-1.65-.05-.34,.07-.78,.13-1.12,.3-.32,.07-.59,.27-.71,.61-.13,.4,.06,.94,.45,1.14,.1,.12,.22,.22,.34,.35,.35,.35,.68,.66,1.11,.9,.33,.19,.64,.39,.97,.58,.41,.24,.87,.41,1.31,.61,1.15,.57,2.25,1.24,3.3,1.97,.57,.4,1.13,.82,1.68,1.25,.27,.22,.55,.44,.81,.67,.1,.09,.2,.17,.31,.26,.08,.07,.16,.14,.24,.21,2.11,1.88,4.06,3.92,5.92,6.04,.96,1.1,1.9,2.21,2.82,3.35,.29,.54,.62,1.06,.96,1.57-.15,.02-.29,.05-.44,.12-.13,.06-.25,.14-.36,.21-.28,.18-.48,.42-.5,.77-.02,.31,.14,.64,.41,.8,.14,.09,.28,.17,.42,.24,.23,.11,.48,.14,.73,.17,.28,.03,.56,.08,.84,.1,.14,.01,.29,0,.44,0,.2,.34,.38,.69,.56,1.04-.02,0-.03,0-.05,0-.37,.07-.74,.13-1.11,.2-.38,.07-.64,.46-.61,.83,.03,.38,.35,.71,.74,.72,.38,0,.75,.01,1.12,.02,.24,0,.47,0,.71-.06,.07,.16,.13,.32,.19,.49,.05,.16,.11,.33,.16,.49-.03-.02-.06-.04-.09-.07-.17-.13-.35-.22-.58-.23-.23-.01-.52,.08-.69,.24-.4,.38-.43,.96-.08,1.38,.36,.44,.85,.75,1.38,.95,.2,.07,.41,.12,.62,.16,.03,.18,.05,.37,.07,.55,.05,.9,.01,1.79-.12,2.68-.16,.7-.38,1.38-.66,2.04-.35,.66-.77,1.29-1.24,1.88-.65,.7-1.38,1.32-2.16,1.89-.98,.63-2.02,1.14-3.11,1.56h.02Zm-24.03-32.17s.02,0,.03,0c.06,.01,.11,.02,.17,.03,.32,.06,.65,.13,.97,.19,.54,.11,1.08,.24,1.61,.36-.03,.05-.05,.11-.07,.17-.14,.42,.04,.86,.39,1.12,.78,.58,1.54,1.21,2.44,1.6,.41,.18,.82,.35,1.24,.53,.18,.08,.37,.17,.56,.26,0,0,.01,0,.02,0,.11,.05,.22,.11,.33,.16,1.6,.8,3.13,1.73,4.58,2.77,.2,.14,.4,.3,.6,.45-.44-.02-.89,0-1.35,.05-.74,.07-1.49,.12-2.21,.25-1.45,.26-2.9,.58-4.34,.89-1.44,.31-2.88,.64-4.31,1.05-1.42,.41-2.84,.84-4.25,1.28-1.59,.5-3.13,1.1-4.67,1.75-.4,.17-.14,.72,.24,.67,1.45-.18,2.9-.32,4.33-.56,1.43-.24,2.87-.47,4.31-.68,2.88-.42,5.75-.94,8.62-1.36,.83-.12,1.63-.3,2.44-.47,.86-.18,1.73-.37,2.47-.86,.23-.15,.4-.34,.48-.58,0,0,0,0,.01,0,.02,.1,.37,.33,.45,.4,.33,.3,.66,.61,.97,.92,1.28,1.25,2.46,2.6,3.5,4.05,.07,.1,.14,.2,.21,.3,.03,.04,.05,.07,.08,.11,.12,.18,.24,.37,.36,.56,.26,.41,.52,.82,.76,1.25,.45,.78,.83,1.59,1.15,2.42,.25,.75,.43,1.51,.52,2.29,.01,.41,0,.81-.05,1.21-.05,.18-.11,.35-.18,.52-.11,.2-.24,.39-.38,.57-.17,.17-.35,.33-.53,.48-.19,.11-.39,.21-.59,.29-.38,.11-.77,.19-1.16,.24-1.22,.06-2.44-.04-3.65-.24-1.02-.21-2.03-.47-3.04-.73-1.35-.34-2.71-.61-4.06-.94-2.7-.66-5.39-1.4-8-2.35-1.32-.48-2.62-1.01-3.89-1.61-2.26-1.13-4.4-2.47-6.33-4.1-.87-.79-1.69-1.63-2.39-2.57-.26-.42-.49-.86-.69-1.31-.1-.35-.18-.71-.23-1.07-.03-1.08,.12-2.14,.25-3.22,.11-.92,.18-1.84,.33-2.75,.02-.08,.04-.17,.05-.25,.17-.78,.4-1.54,.72-2.27,.15-.28,.32-.54,.51-.8,.16-.16,.34-.32,.52-.46,.22-.13,.44-.24,.67-.34,.34-.09,.69-.16,1.04-.2,.52-.02,1.03-.02,1.55-.04,.69-.02,1.38-.03,2.07-.02,1.41,0,2.8,.24,4.19,.48,.18,.03,.37,.07,.56,.1h0Zm22.36,23.39s-.02,.02-.03,.03c0,0,.02-.02,.03-.03Zm-.14,.16s.07-.08,.11-.13c-.04,.04-.07,.08-.11,.12h0Zm-32.68-23.27h0c.04-.06,.09-.11,.14-.16-.05,.05-.09,.11-.14,.16h0Zm44.77,5.13s-.04-.05-.05-.08c.03,.04,.05,.07,.05,.08Zm-16.7-3.51s0,0-.01,0c0,0,0,0,.01,0Zm21.48-139.64c.6,.62,1.62,.8,2.44,.97,.8,.17,1.6,.3,2.4,.4-.22-.04-.43-.08-.65-.12,1.1,.22,2.23,.19,3.35,.11,1.09-.07,2.18-.18,3.26-.36,1.85-.3,3.68-.75,5.48-1.25,1.97-.55,3.93-1.18,5.89-1.77-.24,.2-.39,.49-.4,.81-.02,.55,.03,1.12,.15,1.66,.07,.32,.18,.63,.29,.94,0,.03,.02,.05,.03,.07-1.32,.33-2.65,.64-3.98,.91,0-.18-.03-.35-.06-.53,0-.09-.02-.19-.02-.28-.03-.14-.08-.27-.17-.38-.04-.09-.11-.15-.19-.21-.1-.1-.23-.18-.37-.22-.19-.05-.38-.06-.57-.03-.28,.05-.52,.25-.68,.47-.15,.2-.25,.42-.35,.64-.11,.23-.12,.5-.1,.75,0,.09,.01,.17,.02,.26-.76,.13-1.53,.25-2.3,.35,0-.01,0-.03,0-.05,.04-.24,.09-.48,.13-.72,.02-.13-.06-.3-.14-.39-.09-.1-.25-.18-.39-.18-.31,0-.54,.22-.57,.52-.03,.24-.05,.47-.07,.71,0,.08-.02,.16-.02,.24-.03,0-.05,0-.08,0-.17,.02-.34,.03-.51,.05-.02,0-.04,0-.07,0-.02,0-.05,0-.13,0-.34,.02-.69,.05-1.03,.06-.66,.03-1.32,.04-1.99,.04-1.33-.02-2.65-.12-3.96-.34-.09-.01-.56-.1-.23-.04-.14-.03-.29-.06-.43-.09-.32-.07-.65-.15-.97-.23-.64-.17-1.28-.37-1.9-.6-.29-.11-.58-.22-.87-.34-.13-.06-.26-.12-.4-.18-.01,0-.07-.03-.12-.06-.04-.02-.12-.06-.13-.07-.35-.18-.68-.31-1.06-.42-.01,0-.03,0-.05-.02,.08-.24,.16-.49,.23-.74,.11-.39,.22-.78,.32-1.17,.32,.28,.64,.54,.97,.8h0Zm24.63-.24c.08,0,.16,0,.24,.01,.03,0,.06,0,.09,.01,.08,.02,.15,.04,.23,.07,.07,.02,.15,.05,.22,.08-.02,0-.04-.02-.05-.03,.02,.01,.04,.02,.05,.03h0c.1,.04,.06,.03,0,0,.01,0,.03,.02,.04,.02,.15,.08,.29,.18,.43,.29,.01,.01,.03,.03,.04,.04,.06,.06,.12,.12,.17,.18,0,0,0,0,.01,.01-.4,.1-.81,.2-1.21,.31-.05-.16-.09-.33-.16-.47-.06-.11-.14-.22-.2-.34-.04-.07-.07-.15-.11-.22,.04,0,.08,0,.12,0-.26,.02,.01,0,.08,0h0Zm.33,.03c-.09-.02-.05-.01,0,0h0Zm.02,0s.03,0,.04,0c-.01,0-.03,0-.04,0Zm-13.31,3.6s-.07,0-.09,0c.02,0,.06,0,.09,0Zm-21.85,2.05c-.3,0-.6-.02-.9-.02-.27,0-.55,.08-.75,.26-.11,.09-.19,.2-.24,.33-.07,.12-.11,.26-.11,.4,0,.27,.07,.55,.26,.75,.04,.04,.08,.07,.12,.11-.63,.65-1.29,1.28-1.98,1.87-.13-.09-.25-.15-.38-.22l.17,.08c-.29-.15-.58-.34-.88-.46-.18-.07-.36-.14-.54-.22-.12-.06-.25-.11-.39-.11-.2-.01-.4,.05-.56,.17-.3,.2-.48,.59-.39,.96,.05,.21,.12,.42,.2,.63,.04,.13,.09,.27,.15,.4,.09,.16,.22,.32,.33,.47,.01,.02,.03,.04,.04,.05-1.9,1.24-3.95,2.28-6.08,3.07-1.57,.53-3.18,.92-4.82,1.17,3.52-1.24,6.61-3.45,9.22-6.08,.71-.72,1.39-1.47,2.04-2.24,.14-.17,.28-.34,.42-.51,.12-.15,.28-.32,.47-.54,.31-.37,.62-.74,.91-1.12,1.16-1.47,2.22-3.04,3.16-4.66,.26-.44,.5-.88,.74-1.33,.04-.06,.09-.11,.13-.18,.09-.15,.16-.31,.21-.48,.1-.2,.21-.4,.31-.6,.21-.42,.4-.84,.59-1.27,.31,.17,.62,.31,.96,.38,.23,.05,.46,.09,.69,.13,.09,.01,.63,.08,.18-.02,.54,.11,1.12,.02,1.54-.3-.3,1.01-.64,2.01-1.04,2.99-.42-.11-.84-.21-1.27-.31-.37-.09-.72-.1-1.08,.08-.31,.16-.6,.48-.7,.82-.1,.35-.1,.75,.08,1.07,.19,.34,.46,.55,.82,.7,.26,.12,.53,.23,.8,.34-.72,1.21-1.52,2.37-2.43,3.46h0Zm-33.95-1.57c-.02-.05,.05-.24,.06-.29,.02-.1,.04-.19,.06-.29,.01-.03,.02-.06,.02-.1,.06-.39,.08-.46,.05-.22,.03-.11,.21-.48,.23-.52,.04-.09,.08-.18,.12-.27,0,0,0-.01,0-.02,0,0,0-.01,0-.02,.08-.15,.15-.29,.23-.44,.21-.38,.43-.75,.66-1.11,.2-.3,.41-.6,.63-.89,.12-.16,.25-.31,.37-.47,.04-.05,.08-.09,.12-.14,.04-.05,.08-.09,.12-.14,.57-.62,1.19-1.19,1.85-1.71,.77-.61,1.21-.91,2.04-1.37,.81-.45,1.65-.85,2.51-1.21,.4-.17,.8-.32,1.2-.47,.02,0,.2-.07,.22-.08,.08-.03,.16-.05,.24-.08,.22-.07,.45-.15,.67-.22,.9-.28,1.81-.53,2.73-.76,1.8-.44,3.62-.78,5.45-1.1,1.03-.18,2.05-.34,3.09-.45,.21-.02,.42-.04,.63-.06,.07,0,.21-.02,.24-.02,.13,0,.27-.02,.4-.03,.53-.03,1.06-.04,1.59-.03,.57,0,1.13,.05,1.69,.11,.13,.02,.26,.03,.38,.05,.09,.01,.65,.06,.21,.03,.24,.02,.51,.11,.74,.17,.58,.15,1.13,.36,1.68,.6,.25,.11,.07,.02-.02-.01,.14,.05,.29,.16,.42,.23,.26,.15,.51,.31,.75,.48,.71,.51,1.36,1.1,2.03,1.66-.03,.09-.05,.15-.04,.13-.08,.21-.16,.43-.25,.64-.8-.46-1.66-.85-2.52-1.18-.97-.37-1.97-.65-2.99-.85-2.25-.43-4.48-.49-6.75-.25-4.35,.46-8.64,1.87-12.5,3.9-2.04,1.07-4.1,2.29-5.82,3.84-1.08,.98-2.06,2.16-2.67,3.49,0-.02,0-.04,0-.06,0-.06,.02-.13,.03-.19,0-.06,0-.09,0-.09,.02-.09,.04-.19,.05-.28,.03-.16,.02-.13-.02,.09h0Zm27.35,1.12s-.01,.01-.03,.04c-.45,.49-.91,.97-1.39,1.43-.94,.92-1.94,1.78-2.99,2.57-.24,.18-.48,.36-.73,.53-.07,.05-.14,.1-.21,.14-.02,.01-.04,.03-.07,.05-.12,.08-.25,.17-.38,.25-.55,.35-1.11,.69-1.69,.99-.54,.29-1.11,.53-1.66,.81-.03,.01-.06,.03-.09,.04,.26-.08,.2-.06-.18,.07-.06,.02-.12,.05-.18,.08-.15,.07-.29,.13-.44,.19-.28,.11-.56,.24-.85,.33,.07-.02,.19-.07,0,0-.08,.02-.15,.05-.23,.08-.14,.05-.27,.09-.41,.13-.3,.09-.61,.18-.92,.25-.62,.16-1.24,.28-1.88,.36-.28,.04-.57,.09-.86,.1,.39-.01-.14,0-.22,.01-.16,0-.32,.02-.48,.02-.65,.01-1.31,0-1.96-.07-.29-.03-.58-.06-.87-.11,0,0-.03,0-.06,0-.04,0-.09-.02-.13-.03-.15-.03-.3-.07-.46-.1-.6-.15-1.18-.35-1.75-.59-.07-.03-.18-.06-.28-.1-.02-.02-.04-.04-.08-.06-.07-.04-.14-.07-.21-.11-.28-.15-.55-.31-.81-.48-.23-.15-.46-.31-.68-.48-.07-.05-.17-.11-.25-.18,0-.01-.02-.03-.05-.06-.08-.07-.15-.14-.23-.22-.2-.2-.4-.41-.58-.62-.08-.1-.17-.21-.25-.31,0,0-.04-.04-.06-.08-.01-.02-.03-.05-.06-.1-.14-.22-.26-.45-.37-.69-.01-.03-.06-.2-.11-.3,.01,.06,0,.1-.02-.01,0-.02-.01-.05-.02-.07,0,0-.01-.01-.02-.02,0,0,.01,0,.02,.01-.02-.07-.04-.14-.06-.22-.03-.13-.06-.25-.08-.38-.01-.06-.02-.12-.03-.18,0,0,0,0,0,.01,0,0,0-.01,0-.02,0-.01,0-.02,0-.03-.02-.13,0-.13,0-.09,0-.1-.02-.23-.02-.26,0-.17,0-.33,.02-.5,0-.08,.02-.17,.03-.25,0-.02,0-.03,0-.04,0,0,0,0,0-.01,.05-.18,.09-.36,.14-.53,.06-.19,.14-.38,.22-.57,0-.01,0-.02,.01-.03,.05-.1,.1-.19,.15-.28,.21-.36,.44-.69,.69-1.01,.03-.04,.07-.08,.1-.12,.01-.02,.03-.04,.05-.06,0,0,0-.01,.01-.01,0,0,0,0-.01,0,0,0,.01-.01,.01-.01,.17-.18,.35-.37,.53-.54,.59-.57,1.23-1.07,1.89-1.55,.17-.12,.34-.24,.51-.36,0,0,.02-.01,.02-.02,.09-.06,.17-.11,.26-.17,.34-.22,.68-.44,1.03-.65,.63-.38,1.27-.75,1.93-1.1,1.36-.72,2.75-1.36,4.19-1.9,.15-.06,.31-.11,.46-.17-.02,0,.29-.1,.36-.12,.37-.13,.74-.24,1.12-.36,.73-.22,1.46-.41,2.21-.57,.74-.16,1.48-.27,2.23-.34,.08,0,.17-.02,.25-.02,.19-.01,.37-.03,.56-.04,.38-.02,.76-.03,1.13-.03,.73,0,1.46,.03,2.19,.1,.35,.03,.7,.08,1.05,.13,.08,.01,.15,.02,.22,.04,0,0,.03,0,.06,0-.18-.03,.12,.02,.15,.03,.11,.02,.22,.04,.32,.07,.68,.15,1.36,.34,2.02,.58,.35,.12,.69,.26,1.04,.4,.14,.06,.27,.12,.41,.18,.09,.05,.18,.09,.26,.14,.58,.3,1.12,.65,1.66,1.01-.26,.48-.53,.95-.82,1.42-.69,1.14-1.44,2.25-2.24,3.32-.2,.26-.39,.52-.6,.77-.1,.12-.19,.24-.29,.36-.05,.07-.11,.13-.16,.2-.02,.03-.04,.05-.07,.08h.01Zm-5.46,4.77s-.02,.01,0,0h0Zm-13.42,3.47s.08,.02,.12,.02c-.05,0-.12-.01-.12-.02Zm-2.1-11.6c-.14,.1-.06,.04,0,0h0Zm-6.42,2.51s0-.03,0-.05c-.01,.09-.03,.26,0,.05Zm-44.48-20.54c.14-.17,.28-.33,.42-.5,.02-.02,.03-.04,.05-.05,.1-.12,.21-.24,.32-.35,.71-.77,1.44-1.52,2.21-2.23,.77-.71,1.57-1.38,2.4-2.02,.41-.31,.82-.62,1.24-.92,.1-.07,.2-.14,.3-.21,0,0,.02-.01,.03-.02,.25-.17,.5-.33,.75-.49,1.9-1.2,3.92-2.24,5.98-3.15,1.03-.45,2.08-.88,3.14-1.27,.26-.1,.52-.19,.78-.29,0,0,.01,0,.02,0,.15-.05,.3-.11,.45-.16,.52-.18,1.05-.36,1.58-.53,2.11-.69,4.25-1.31,6.4-1.86,4.32-1.11,8.73-1.93,13.17-2.39,.45-.05,.89-.09,1.33-.12,4.71-.37,9.47-.35,14.17,.2,.03,0,.06,0,.09,.01-.02,.05-.05,.1-.06,.15-.25,.79-.21,1.73,.2,2.46,.23,.41,.57,.81,1,1.02,.27,.13,.51,.22,.82,.15,.25-.05,.54-.23,.67-.45,.29-.48,.19-1.03-.2-1.39-.04-.04-.08-.08-.12-.13-.01-.02-.02-.05-.04-.07-.01-.05-.02-.09-.03-.14,0-.07,0-.15,0-.21,.02-.08,.05-.16,.08-.23,.05-.09,.11-.18,.17-.26,.05-.05,.1-.1,.15-.16,.09-.1,.16-.22,.25-.32l-.03,.03s.02-.02,.03-.04c.23,.04,.47,.08,.7,.12,.87,.16,1.74,.35,2.6,.55-.16,.27-.3,.55-.44,.84-.25,.53-.5,1.05-.75,1.58-.11,.23-.06,.64,.07,.85,.12,.22,.29,.38,.52,.49,.46,.22,1.16,.11,1.42-.38,.27-.52,.54-1.03,.82-1.55,.17-.33,.33-.65,.47-1,.03-.09,.07-.17,.1-.26,1.69,.49,3.35,1.06,4.97,1.75-.53,.44-1.06,.87-1.59,1.31-.37,.3-.41,.94-.08,1.28,.36,.37,.88,.39,1.28,.08,.58-.45,1.16-.91,1.74-1.36,.18-.14,.36-.28,.54-.42,2.15,1.12,4.2,2.44,6.04,4.01,1.45,1.29,2.79,2.68,3.91,4.26,.59,.89,1.1,1.83,1.54,2.81,.11,.25,.23,.5,.33,.76,.06,.14,.11,.27,.16,.41,.03,.09,.22,.59,.08,.2-.19-.54,.16,.44,.23,.62,.01,.04,.05,.14,.08,.23,.03,.08,.06,.17,.07,.21,.02,.07,.04,.13,.06,.19,.04,.11,.07,.23,.12,.33,.12,.33,.12,.32-.03-.04,.12,.64,.63,1.18,1.24,1.42,.06,.08,.11,.16,.17,.24,.15,.21,.3,.45,.48,.65,0,.04-.02,.09-.02,.13-.01,.11,0,.22,0,.33-.01,.2-.02,.4-.04,.6-.1,1.5-.27,2.99-.53,4.47-.07,.38-.15,.76-.24,1.14-.15-.48-.48-.9-1-1,.06,.01,.45,.24-.03,0-.05-.02-.1-.05-.16-.07,0,0,0,0-.02-.01-.05-.03-.11-.06-.15-.09-.1-.06-.2-.13-.3-.19-.1-.06-.22-.11-.32-.16,0,0,0,0,0,0,0,0-.02-.01-.05-.03-.15-.09-.29-.17-.44-.26,.05-.15,.09-.3,.13-.45,.17-.62,.34-1.3,.33-1.95-.02-1.23-.31-2.41-.76-3.55-.76-1.92-2.14-3.61-3.65-5-1.57-1.45-3.3-2.7-5.11-3.83-3.48-2.19-7.23-3.99-11.11-5.38-3.92-1.4-8.01-2.37-12.14-2.91-3.98-.52-8.02-.63-12.02-.32-4.14,.31-8.22,1-12.21,2.16-3.97,1.16-7.82,2.73-11.43,4.73-3.98,2.21-7.74,5.04-10.82,8.4-.04-.06-.08-.12-.12-.18-.09-.13-.18-.26-.28-.39-.1-.14-.19-.25-.35-.33-.09-.04-.18-.08-.27-.11-.35-.14-.78,.17-.78,.54,0,.06,0,.11,0,.17,0,.14,.02,.27,.08,.39,.02,.04,.04,.07,.06,.11,.08,.12,.16,.24,.24,.36,.13,.2,.27,.41,.4,.61-1.3,1.54-2.46,3.18-3.46,4.92-.03-.01-.07-.02-.1-.03-.07-.02-.14-.05-.21-.07-.16-.09-.3-.18-.45-.3-.11-.1-.22-.21-.34-.3-.05-.04-.1-.07-.15-.11-.11-.11-.21-.22-.3-.34-.08-.07-.16-.14-.24-.21-.05-.03-.1-.06-.15-.08,.88-1.54,1.85-3.02,2.92-4.42,.32-.42,.66-.84,1-1.25h0Zm-4.33,9.2c.3,.22,.65,.39,1,.54-.27,.58-.51,1.18-.73,1.78-.12-.12-.23-.23-.35-.35-.23-.23-.46-.46-.69-.69-.19-.19-.43-.32-.7-.34-.1,0-.2,.01-.3,.04,.16-.41,.33-.81,.51-1.21,.1-.24,.21-.47,.32-.7,0-.02,.02-.04,.03-.06,.09,.18,.21,.36,.35,.5,.18,.17,.37,.34,.58,.49h0Zm-2.44,2.71c.02-.07,.05-.14,.08-.21,.03,.04,.05,.08,.08,.11,.23,.23,.46,.46,.69,.69,.11,.11,.23,.22,.34,.34,.17,.17,.32,.32,.56,.4,.11,.04,.23,.05,.35,.05-.1,.34-.2,.67-.29,1.01-.03-.03-.07-.05-.1-.08-.4-.31-.79-.63-1.18-.95-.21-.17-.6-.22-.86-.16-.02,0-.05,.02-.08,.03,.13-.41,.26-.82,.4-1.23Zm-.71,3.23c.41,.28,.82,.56,1.23,.84,.2,.14,.39,.27,.59,.4,.06,.04,.13,.1,.2,.14-.38,1.99-.58,4.02-.61,6.05-.24-.07-.51-.08-.76-.11-.3-.03-.59-.08-.89-.02-.21,.04-.43,.09-.64,.13-.25,.05-.46,.22-.57,.44,.09-1.77,.28-3.53,.59-5.28,.18-.94,.39-1.88,.64-2.8,.06,.08,.14,.15,.23,.21h0Zm12.57,46.89c-1.43-4.06-3.83-7.59-6.1-11.21-.75-1.19-1.47-2.4-2.15-3.64,.1-.02,.2-.04,.3-.07,.26-.07,.52-.14,.77-.24,.09-.04,.17-.08,.25-.13,.04-.02,.08-.05,.12-.07,.19-.12,.25-.17,.38-.32,.21-.24,.44-.47,.47-.81,.03-.35-.22-.68-.55-.79-.14-.05-.3-.04-.44-.05-.09,0-.17-.02-.26-.03-.18,0-.35,.03-.53,.07-.19,.03-.36,.09-.55,.14-.34,.1-.69,.17-1.04,.22-.4-.83-.77-1.68-1.12-2.53,.21-.1,.43-.19,.66-.28,.19-.08,.36-.14,.51-.29,.04-.04,.08-.08,.12-.12,.06-.06,.13-.12,.17-.19,.06-.09,.1-.19,.12-.29,.08-.15,.11-.32,.05-.5-.07-.19-.2-.3-.38-.37-.15-.11-.31-.17-.51-.18-.05,0-.11,0-.17,0-.27,0-.5,.08-.75,.18-.18,.08-.36,.16-.54,.24-.01-.04-.03-.08-.04-.11,.01,.03-.19-.52-.23-.63,0,.02,.01,.04,.02,.06-.06-.19-.13-.37-.19-.55-.06-.17-.11-.33-.16-.5,.02-.01,.05-.03,.07-.04,.15-.08,.3-.16,.45-.24,.02,0,.03-.02,.05-.03,.05-.03,.09-.06,.14-.09,.08-.04,.15-.1,.21-.18,.1-.1,.18-.22,.22-.36,.02-.09,.03-.19,.05-.28,0,0,0-.02,0-.03,0-.05,0-.09,0-.13,.02-.27-.12-.55-.35-.69-.03-.02-.07-.05-.11-.07-.01,0-.02-.01-.03-.02-.09-.04-.17-.08-.26-.12-.1-.02-.19-.04-.28-.05-.09,0-.18,.01-.28,.02-.09,.03-.18,.06-.27,.1-.02,0-.03,.01-.05,.02-.07,.03-.13,.06-.2,.09-.14-.51-.28-1.03-.41-1.55-.45-1.86-.79-3.74-1.01-5.64-.03-.27-.06-.54-.09-.81,0-.08-.01-.15-.02-.23,0-.03,0-.06,0-.09-.04-.53-.07-1.06-.1-1.59-.04-1.05-.05-2.1-.02-3.15,0-.04,0-.07,0-.11,.06,.15,.17,.29,.31,.38,.18,.12,.36,.23,.55,.34,.27,.16,.55,.22,.85,.3,.29,.07,.61,.19,.91,.17,.1,0,.2-.02,.3-.02,0,0,0,0,.01,0,.01,.34,.03,.67,.06,1,.33,4.52,1.3,8.95,2.76,13.24,1.47,4.3,3.54,8.35,5.79,12.29,1.05,1.84,2.13,3.67,3.09,5.56,.49,.96,.94,1.92,1.35,2.91,.1,.23,.19,.45,.27,.68,.05,.12,.1,.25,.14,.37,.02,.05,.04,.11,.06,.16,0,.01,.03,.08,.05,.13,.01,.04,.04,.11,.04,.12,.02,.06,.04,.11,.05,.16,.04,.11,.07,.21,.11,.32,.08,.27,.17,.53,.24,.81,.49,1.72,.73,3.28,.71,4.95-.51,.53-1.02,1.05-1.54,1.56-.33,.33-.67,.65-1.01,.98,.31-2.73-.16-5.55-1.06-8.14h0Zm-7.61-35.52s0-.03,0-.05c-.02-.26,0-.04,0,.05Zm0,0s0,.03,0,.03c0,0,0-.02,0-.03Zm21.12,37.77l.03,.03h0s-.03-.03-.03-.03Zm18.84-2.47c-1.88-1.13-3.9-2.04-5.96-2.78-2.4-.85-4.97-1.52-7.54-1.39-2.39,.12-4.65,.89-6.68,2.15-1.91,1.19-3.58,2.69-5.15,4.29-.45,.46-.89,.92-1.34,1.38-.36-4.25-2.19-8.28-4.1-12.08-1.21-2.41-2.51-4.77-3.6-7.24-.56-1.26-1.08-2.53-1.57-3.81-.12-.3-.23-.61-.34-.91-.03-.07-.05-.14-.08-.21,0,0,0-.01,0-.02-.09-.27-.18-.54-.28-.81-.12-.32-.24-.64-.36-.97,0,0,0,0,0-.01-.01-.04-.04-.12-.05-.15-.06-.17-.12-.35-.18-.52-.9-2.62-1.63-5.31-2.14-8.04-.24-1.32-.44-2.66-.56-4,0-.06,0-.12-.02-.18,0-.14-.02-.29-.03-.43-.02-.35-.04-.7-.06-1.06-.03-.66-.04-1.32-.04-1.98,.01-1.33,.1-2.67,.26-3.99,.04-.32,.08-.65,.13-.97,.02-.15,.05-.3,.07-.46,.01-.07,.02-.13,.04-.2,0,0,0-.01,0-.02,.13-.64,.27-1.28,.43-1.91,.33-1.27,.75-2.52,1.25-3.73,.12-.29,.24-.57,.38-.86,.04-.09,.08-.18,.12-.27,.01-.03,.04-.12,.06-.15,0,.01-.01,.04-.03,.09-.08,.25,0,.01,.03-.06,.05-.09,.09-.18,.13-.27,.32-.63,.66-1.24,1.03-1.84,.71-1.17,1.51-2.29,2.39-3.34,.11-.13,.23-.25,.33-.39-.06,.07-.22,.25-.04,.05l.05-.05s.01-.01,.02-.02c0,0,0,.01-.01,.02,.04-.04,.07-.08,.11-.13,.24-.27,.49-.54,.74-.8,.48-.5,.97-.98,1.47-1.45,1.01-.94,2.07-1.83,3.18-2.66,.28-.21,.56-.41,.84-.62,.2-.14,.41-.34,.64-.48,0,0,.06-.01,.12-.05,.08-.06,.17-.11,.25-.17,.14-.09,.27-.18,.41-.27,.31-.2,.62-.39,.93-.59,2.19-1.34,4.47-2.54,6.83-3.57,1.05-.46,2.11-.86,3.18-1.26,.01,0,.03-.01,.06-.02,.07-.02,.13-.05,.2-.08-.06,.02-.1,.04-.14,.05,.07-.02,.14-.05,.19-.07,.15-.05,.31-.11,.46-.16,.29-.1,.58-.19,.88-.29,.6-.19,1.21-.37,1.82-.54,2.39-.67,4.83-1.18,7.29-1.53,.61-.09,1.22-.16,1.84-.23,.29-.03,.58-.06,.87-.09,.14-.01,.28-.02,.43-.04,.05,0,.1,0,.16-.01,1.25-.1,2.5-.15,3.76-.16,2.49-.03,4.98,.1,7.45,.39,1.23,.14,2.45,.32,3.67,.54,.04,0,.18,.03,.28,.05,.09,.02,.19,.04,.22,.04,.32,.06,.64,.13,.96,.19,.6,.13,1.21,.26,1.81,.41,2.41,.59,4.79,1.34,7.1,2.24,1.15,.45,2.28,.93,3.4,1.46,.02,.01,.11,.05,.2,.09,.08,.04,.25,.12,.28,.14,.29,.14,.58,.29,.88,.44,.55,.28,1.09,.57,1.63,.88,2.15,1.21,4.29,2.54,6.19,4.13,.05,.04,.1,.08,.14,.12,.08,.07,.16,.14,.25,.22,.24,.22,.48,.44,.7,.68,.44,.45,.85,.92,1.23,1.41,.07,.09,.14,.19,.21,.29,.03,.04,.05,.08,.08,.13,.17,.27,.32,.54,.47,.82,.13,.26,.26,.53,.36,.8,0,.02,.02,.04,.02,.07,0,0,0,0,0,0,.05,.15,.09,.3,.13,.45,.07,.29,.14,.58,.18,.88,.02,.12,0,.34,.05,.46,0,.05,0,.11,.02,.18-.15-.11-.29-.22-.44-.32-1.98-1.34-4.34-1.95-6.71-2.04-2.3-.09-4.61,.25-6.86,.69-1.96,.39-3.92,.81-5.85,1.34-3.93,1.07-7.71,2.61-10.98,5.06-1.43,1.07-2.68,2.37-3.69,3.85-.52,.76-.95,1.56-1.34,2.38-.08,.17-.16,.34-.23,.51,0,0-.02,.03-.04,.06-.06,.1-.11,.2-.16,.3-.13,.26-.26,.52-.38,.78-.17,.38,.19-.38-.06,.13-.07,.15-.14,.3-.2,.45-.16,.37-.29,.75-.42,1.14-.06,.18-.11,.37-.16,.55-.01,.04-.03,.09-.04,.14,0,0-.15,.79-.06,.33,.09-.46-.06,.33-.06,.33-.01,.06-.02,.13-.03,.19-.06,.41-.09,.82-.1,1.24,0,.19,0,.38,0,.57,0,.09,0,.19,0,.28,0,.02,.08,.84,.03,.35-.05-.48,.02,.25,.01,.19,.07,.86,.2,1.69,.47,2.51,.32,.95,.71,1.78,1.21,2.63,.24,.41,.46,.83,.72,1.22,.65,1.11,1.61,2.21,2.65,2.93,1.04,.72,2.19,1.29,3.35,1.79,2.14,.92,4.43,1.41,6.75,1.6,4.46,.37,8.97-.3,13.18-1.79,2.06-.73,4.05-1.63,5.88-2.84,1.99-1.32,3.85-2.78,5.49-4.51,.9-.96,1.78-1.96,2.57-3.01,.64-.86,1.18-1.81,1.68-2.74,.63-1.18,1.23-2.38,1.75-3.61,.11,.1,.23,.21,.36,.29,.18,.11,.36,.21,.54,.31,.76,.42,1.54,.79,2.34,1.12,1.52,.62,3.1,1.02,4.71,1.32,3.27,.59,6.59,.55,9.9,.23,1.59-.15,3.18-.48,4.74-.81,1.58-.33,3.16-.71,4.73-1.08,3.13-.75,6.27-1.52,9.47-1.99,.86-.13,1.73-.23,2.6-.31,.12,0,.23-.02,.35-.02,.21-.01,.43-.03,.64-.04,.4-.02,.81-.03,1.21-.04,1.5-.01,3.01,.14,4.49,.4,1.82,.36,3.6,.92,5.29,1.7,1.39,.7,2.75,1.55,3.95,2.55,.44,.4,.86,.82,1.25,1.27,.21,.24,.41,.5,.61,.75,.1,.13,.19,.26,.29,.39,.01,.01,.03,.05,.06,.08,.01,.02,.03,.05,.04,.06,.38,.59,.71,1.2,1,1.84,.13,.29,.26,.58,.37,.88,.03,.09,.24,.57,.1,.26-.14-.31,0,0,.01,.07,.03,.1,.06,.2,.09,.31,.18,.65,.33,1.31,.44,1.97,.05,.32,.1,.63,.13,.95,.02,.16,.03,.32,.05,.48,0-.03,0-.06,0-.1,0,.04,0,.09,0,.13,0,0,0,.01,0,.02,0,.05,0,.12,.01,.14,0,0,0,.02,0,.03,.09,1.39,.07,2.78-.03,4.16-.1,1.42-.28,2.84-.5,4.25-.11,.69-.22,1.38-.35,2.07-.06,.32-.11,.65-.18,.97-.01,.07-.03,.14-.04,.21-.03,.14-.17,.84-.08,.4-.03,.13-.06,.27-.09,.4-.72,3.38-1.49,6.77-2.79,9.98-.16,.4-.33,.79-.51,1.18-.04,.09-.29,.63-.14,.29-.09,.2-.2,.4-.3,.6-.4,.78-.85,1.54-1.35,2.27-.44,.65-.92,1.28-1.42,1.89-.05,.06-.11,.13-.16,.19,0,0,0,0,0,0-.14,.15-.27,.3-.41,.45-.28,.3-.56,.59-.85,.87-1.11,1.09-2.31,2.08-3.56,3.01-.3,.22-.6,.44-.9,.65-.17,.12-.34,.24-.51,.35-.07,.05-.14,.1-.21,.14,0,0-.02,.01-.02,.01-.01,0-.03,.02-.05,.03-.65,.44-1.32,.86-1.98,1.28-5.66,3.54-11.54,6.78-17.59,9.61-1.55,.72-3.11,1.4-4.7,2.02-.37,.14-.74,.29-1.12,.42-.17,.06-.35,.12-.52,.19,.58-.24-.12,.04-.25,.09-.74,.26-1.48,.5-2.22,.75-1.57,.52-3.13,1.06-4.67,1.67-.74,.3-1.47,.62-2.19,.97-.08-1.59-.29-3.16-.63-4.7-.41-1.86-1.02-3.69-1.79-5.44-.76-1.74-1.74-3.44-2.98-4.89-2.53-2.96-6.07-4.72-9.91-5.19-3.46-.43-7.14,.6-10.04,2.48-1.7,1.1-3.14,2.47-4.3,4.14-.41,.59-.79,1.21-1.14,1.84-.26-.46-.55-.91-.85-1.34-.95-1.38-2.14-2.57-3.51-3.54-2.88-2.03-6.54-2.98-10.05-2.61-1.03,.11-2.07,.4-3.05,.8,.02-.24,.05-.47,.06-.71,.13-1.85,.08-3.73-.26-5.55-.65-3.52-2.49-6.79-5.54-8.78-5.34-3.49-12.52-3.23-18.03-.28-.77,.41-1.5,.88-2.21,1.39-.32,.22-.66,.45-.93,.73-.34,.35-.66,.72-.97,1.1-.47,.57-.95,1.15-1.38,1.74-.48,.66-.8,1.48-1.09,2.25-.27,.7,.73,1.4,1.27,.83,.21-.22,.42-.43,.64-.64,.1-.09,.19-.19,.3-.27,.05-.04,.11-.08,.16-.12-.24,.18,.16-.12,.24-.19,.43-.4,.83-.82,1.29-1.18,.06-.04,.21-.15,.25-.17,.13-.08,.25-.16,.38-.24,.26-.16,.53-.3,.79-.45,.13-.07,.69-.39,.35-.22h0s.04-.01,.04-.02c.13-.08,.26-.17,.39-.25,.26-.16,.53-.31,.8-.46,.55-.3,1.11-.56,1.69-.79,.14-.06,.29-.12,.43-.17,.04-.01,.08-.03,.12-.04,.29-.1,.57-.19,.86-.27,.6-.17,1.21-.31,1.82-.41,.31-.05,.62-.1,.92-.14,.14-.02,.27-.03,.41-.04,.04,0,.07,0,.11,0,1.3-.08,2.59-.03,3.88,.18,1.23,.25,2.42,.65,3.56,1.16,.77,.39,1.51,.85,2.18,1.4,.42,.4,.8,.83,1.14,1.29,.4,.64,.74,1.31,1.01,2.01,.33,1,.54,2.03,.65,3.07,.09,1.37,.03,2.75-.11,4.12-.05,.46-.11,.93-.17,1.39-1.51-2.11-3.55-3.86-5.8-5.22h0Zm66.76,23.65c-.1,.04-.07,.02,0,0h0Zm-54.36-17.69s.2-.02,0,0h0Zm8.71,3.29c-2.62-1.74-5.93-2.26-9.02-2.04-.61,.04-1.22,.13-1.82,.24,0-.06,.02-.13,.03-.19,.05-.33,.1-.65,.14-.98,.26-.06,.52-.11,.78-.16,.38-.06,.76-.12,1.15-.16,0,0,.02,0,.02,0,.11,0,.23-.01,.34-.02,.19,0,.38-.01,.57-.01,.79,0,1.58-.01,2.37,.06,.17,.02,.35,.04,.52,.06,.09,.01,.51,.01,.57,.09-.06-.01-.11-.02-.17-.03,.06,.01,.11,.02,.17,.03,.1,.02,.19,.04,.28,.06,.21,.05,.41,.1,.62,.16,.35,.1,.7,.21,1.05,.33,.18,.07,.36,.14,.54,.21,.07,.03,.14,.06,.21,.09,.02,0,.09,.04,.16,.07,.05,.02,.16,.08,.18,.09,.07,.03,.13,.07,.2,.1,.16,.09,.33,.18,.49,.27,.34,.2,.66,.41,.98,.64,.28,.2,.56,.42,.83,.64,.06,.06,.12,.11,.18,.16,.15,.14,.3,.28,.44,.43,.54,.54,1.06,1.1,1.52,1.71,.08,.1,.32,.32,.33,.45-.04-.06-.08-.12-.12-.18,.04,.06,.08,.12,.12,.19,.06,.1,.12,.19,.18,.28,.22,.35,.41,.71,.59,1.07,.18,.37,.35,.74,.5,1.12,0,.02,.02,.06,.03,.1,0-.03-.01-.05-.02-.09,.07,.28,.2,.53,.38,.76-.26,.12-.51,.26-.76,.4-.12-.39-.27-.78-.42-1.13-.29-.69-.68-1.32-1.11-1.93-.8-1.14-1.88-2.12-3.03-2.89h0Zm26.42,13.28s.1,.08,.12,.1c0,0-.07-.06-.12-.1Zm3.45-1.32c-1.82-1.88-4.02-3.24-6.38-4.33-2.15-1-4.41-1.78-6.7-2.38-2.1-.56-4.28-.97-6.46-.98-.67,0-1.37,.1-2.05,.24,0-.1-.01-.21-.03-.31,.1-.16,.18-.33,.28-.49,.34-.55,.73-1.04,1.11-1.56-.16,.22,.09-.1,.15-.16,.11-.12,.23-.24,.35-.36,.22-.23,.45-.44,.68-.66,.47-.43,.98-.81,1.48-1.21,.24-.19,.48-.36,.72-.53,.05-.03,.1-.07,.15-.1,.14-.09,.28-.18,.43-.26,.54-.32,1.11-.61,1.69-.87,.15-.07,.31-.13,.47-.19,.06-.02,.56-.21,.25-.1-.3,.12,.19-.06,.25-.08,.18-.06,.36-.11,.54-.16,.3-.08,.59-.15,.89-.21,.15-.03,.3-.05,.45-.07,.07-.01,.15-.02,.23-.03,.03,0,.1-.01,.16-.01,.09,0,.19-.01,.28-.01,.19,0,.38-.01,.57-.01,.36,0,.72,.03,1.09,.04,.62,.02,1.23,.08,1.83,.17,.99,.21,1.95,.52,2.88,.93,.79,.41,1.54,.9,2.23,1.47,.75,.7,1.41,1.49,2.01,2.32,.89,1.36,1.59,2.82,2.16,4.34,.66,1.92,1.09,3.91,1.29,5.94,.1,1.39,.07,2.77-.04,4.15-.04-.1-.08-.19-.12-.29-.2-.5-.44-.99-.71-1.45-.59-1.01-1.3-1.97-2.12-2.81h0Zm-5.29,10.06s-.02-.01-.02-.01c0,0,0-.01,0-.01,0,0,0,0,0,0,0,0,0,0,0,0,0,0,0,0,0,0,0,0,0-.01,0-.02,0,0,0,0,0-.01,.04,.01,.04,.03,.01,.03,.2,.08,.1,.09,.01,.03h0Zm-2.09,4.69s-.04-.03-.07-.05c.02,.02,.05,.03,.08,.05,0,0,0,0-.01,0h0Zm.05,.04s0,0,0,0c0,0,0,0,0,0,0,0,0,0,0,0h0Zm.14,.05s.03,.02,.02,.03c0,0-.01-.01-.02-.02h0Zm.06,.07s0,0-.01-.01c.02,.02,.04,.03,.07,.05-.02-.01-.04-.02-.05-.03Zm1.63-4.95s.02,0,.04,.01c0,0,0,0,0,0h0s0,0,0,0h0c-.05,0-.1,0-.15,0,.05,0,.1,0,.14,0-.01,0-.02,0-.04-.01h0Zm.15,.05h0s-.01,0-.02,0c0,0,.01,0,.02,0h0Zm-10.38,3.23s-.03,.02,0,0h0Zm-1.33,2.33s0,0,0-.01c-.01,.08-.07,.23,0,.01Zm2.96,2.6s-.03,0,0,0h0Zm1.93-.5c-.07,.03-.15,.06-.22,.09-.01,0-.03,.01-.04,.02-.04,.02-.1,.04-.12,.04-.1,.03-.19,.06-.29,.09-.3,.09-.62,.16-.93,.21-.07,.01-.14,.02-.22,.03-.15-.01-.32,.02-.47,.01-.14,0-.27-.01-.4-.03-.03,0-.06,0-.09-.01,0,0,.01,0,.02,.01,0,0-.02,0-.03-.01-.03,0-.07,0-.1-.01-.09-.01-.1-.03-.07-.04-.07-.01-.14-.02-.19-.04-.15-.04-.29-.09-.43-.15-.03-.01-.06-.03-.09-.04-.1-.06-.21-.12-.31-.18-.09-.06-.17-.12-.26-.19-.04-.04-.09-.09-.13-.13-.04-.05-.08-.09-.12-.14-.02-.09-.17-.3-.2-.37-.04-.08-.1-.19-.14-.29,0-.02,0-.05,0-.07-.02-.09-.04-.17-.06-.26,0,0,0,0,0-.01,0-.05-.01-.15-.01-.18,0-.07,.07-.42,.05-.5,.02-.07,.04-.15,.06-.22,.05-.16,.1-.31,.17-.46,.01-.03,.03-.07,.05-.1,.01-.03,.09-.18,.1-.19,.09-.15,.18-.3,.28-.44,.21-.31,.43-.61,.68-.88,.01-.01,.03-.03,.06-.06,.07-.07,.14-.15,.21-.22,.12-.13,.25-.26,.38-.38,.27-.26,.54-.51,.83-.75,1.09-.3,2.15-.72,3.14-1.27,.92-.51,1.81-1.08,2.66-1.72-.23,.85-.24,1.75,.11,2.55-1.76,.53-3.05,2.28-3,4.16,.01,.57,.12,1.12,.3,1.64-.09,.04-.17,.07-.25,.11-.3,.13-.58,.27-.89,.39h0Zm11.89-1.52c-.24,.19-.49,.38-.74,.57-.07,.05-.15,.1-.22,.16h0s0,0,0,0h0s-.14,.08-.06,.03c-.04,.02-.08,.04-.12,.07,0,0-.01,0-.02,.01-.01,0-.03,0-.05,.01-.39,.12-.77,.24-1.14,.4-.07,.03-.13,.06-.19,.08-.04,.01-.32,.17-.1,.04,.21-.13-.05,.02-.1,.03-.1,.03-.2,.06-.29,.08-.27,.07-.54,.11-.82,.15-.06,0-.12,0-.18,0-.18,0-.37,0-.55-.02-.04,0-.44-.02-.15,0,.25,0,0,0-.08-.02-.18-.04-.37-.1-.54-.16-.08-.03-.16-.06-.24-.09,0,0-.01,0-.02,0-.18-.1-.37-.2-.54-.31-.14-.09-.28-.18-.42-.28,0,0-.01-.01-.01-.02-.02-.01-.04-.03-.09-.07,0,0-.01,0-.02-.01-.03-.02-.05-.04-.07-.04,.01,0,.03,0,.04,.01-.1-.1-.2-.2-.29-.31,0-.01-.07-.1-.11-.15-.07-.13-.13-.26-.2-.4-.01-.05-.02-.09-.04-.14-.01-.06-.02-.12-.04-.18,0-.06,0-.12,0-.18h0c.01-.05,.03-.11,.04-.15-.02,.02-.01-.04,.04-.11,.01-.03,.03-.07,.04-.11,0,0,0,0-.01,.01,0,0,0,0,.01-.01,0-.02,.02-.05,.03-.07,0,.03-.01,.04-.02,.07,.01,0,.03-.02,.04-.03,.02-.03,.04-.06,.06-.09,0,0,0-.01,.02-.03,.03-.04,.06-.05,.06-.04,0,0,0,0,0,0,.01,0,.03-.01,.04-.02,0,0,.01,0,.02,0h0s0,0,0,0h0s0,0,0,0c0,0,0,0,0,0,0,0,0,0,0,0,.02,0,.04,.01,.05,.02,0,0,0,.02,.01,.03,0,0,0,0,0,0,0,0,0,0,0,0,0,0,0,0,0,0,0,0,0,0,0,.01h0s.03,.1,.04,.14c.03,.17,.27,.77,.12,.37-.12-.3,0,.02,0,.1,.1,.63,.69,1.11,1.28,1.22,.64,.12,1.24-.15,1.62-.67,.66-.89,.59-1.89,.13-2.75,.28-.11,.54-.28,.75-.5,.58-.62,.79-1.56,.25-2.27,.01,.02-.02,0-.06-.06,0,0,0,0,0,0-.02-.02-.03-.04-.05-.06,.01,.01,.02,.03,.03,.04-.05-.09-.11-.17-.17-.25-.17-.22-.43-.3-.69-.28-.44-.11-.92-.04-1.38,.07,0-.06,0-.13,.01-.19,0-.03,.02-.05,.03-.08,.03-.09,.06-.17,.09-.25,.04-.07,.08-.16,.12-.22,.13-.2,.29-.38,.43-.58-.25,.37-.04,.05,.07-.05,.1-.1,.2-.19,.31-.29,.15-.13,.36-.25,.5-.39,.02-.01,.04-.03,.07-.04,.11-.06,.21-.12,.32-.18,.2-.1,.4-.19,.61-.27,.02,0,.05-.02,.08-.02,.13-.04,.26-.08,.4-.11,.19-.04,.38-.07,.57-.1,.03,0,.07,0,.09,0,.13,0,.26,0,.39,0,.12,0,.24,.02,.36,.04,.01,0,.03,0,.04,0,.12,.03,.24,.07,.35,.11,.05,.02,.1,.04,.15,.06,0,0,0,0,.01,0,.08,.04,.15,.07,.23,.11,.09,.07,.21,.12,.31,.19,.02,.02,.05,.04,.07,.06,.04,.04,.07,.07,.11,.11,.05,.04,.1,.09,.15,.13,.01,.01,.02,.02,.04,.04,.36,.34,.9,.52,1.37,.26-.16,.67-.27,1.34-.34,2.02-.12,1.17-.25,2.33-.38,3.49-.04,.38-.09,.76-.14,1.14-.45,.41-.91,.82-1.39,1.2h.02Zm62.04-42.82c-.44,1.16-.93,2.3-1.44,3.43-1.15,2.21-2.52,4.31-4.13,6.22-2.06,2.29-4.51,4.22-7.02,5.98,.22-.15,.43-.3,.66-.44-1.02,.69-2.01,1.41-3.01,2.11-.13,.09-.26,.17-.4,.26-.02,0-.03-.01-.05-.02-.09-.02-.18-.03-.28-.05-.19,0-.36,.03-.52,.11-.13,.06-.23,.14-.31,.25-.1,.1-.17,.22-.21,.36-.03,.09-.04,.19-.04,.28-.26,.16-.51,.32-.77,.48,0-.01,0-.02-.01-.03-.21-.45-.49-.88-.78-1.28-.12-.14-.25-.24-.42-.3-.15-.09-.32-.14-.5-.14-.11,0-.23,.02-.34,.03-.17,.03-.32,.1-.45,.21-.23,.16-.44,.39-.51,.67-.02,.12-.04,.23-.06,.35,0,.21,.03,.41,.12,.61,.12,.37,.21,.76,.25,1.15,0,.11,.01,.21,.04,.32,0,.01,0,.03,.01,.04-.19,.11-.38,.22-.56,.33-.05-.07-.09-.15-.13-.22-.08-.14-.17-.28-.27-.41-.07-.11-.13-.23-.18-.36-.01-.04-.02-.07-.03-.11-.02-.11-.11-.34-.15-.44-.03-.07-.09-.14-.14-.21-.15-.24-.3-.46-.56-.62-.24-.16-.5-.24-.79-.26-.27-.01-.53,.04-.78,.16-.12,.08-.23,.16-.35,.23-.09,.1-.18,.21-.27,.31-.01,.02-.02,.04-.04,.07-.08,.17-.18,.34-.25,.52-.04,.08-.05,.16-.05,.25-.02,.08-.04,.17-.04,.25,0,.03,0,.06,0,.09,.01,.2,.03,.4,.05,.6,.05,.38,.18,.73,.32,1.09,.11,.3,.28,.6,.5,.85-1.2,.66-2.4,1.3-3.63,1.9-.18-.36-.36-.73-.54-1.1-.1-.2-.3-.37-.51-.44-.21-.07-.48-.06-.68,.05-.2,.11-.38,.29-.44,.51-.06,.22-.06,.46,.05,.67,.18,.35,.37,.69,.55,1.04-1.01,.47-2.03,.94-3.06,1.38-1.56,.66-3.14,1.24-4.72,1.84-5.48,1.76-11.16,3.27-16.17,6.16-.82,.47-1.6,.99-2.38,1.52-.57,.39-1.06,.86-1.57,1.3-.02-.46-.04-.92-.09-1.37,0,0,0,0,.01,0,1.1,.2,2.48-.43,2.75-1.61,.13-.58,.24-1.16,.33-1.75,.11-.09,.22-.17,.34-.26,.11-.08,.22-.16,.34-.24,0,0,0,0,.01,0,0,0,.02-.01,.03-.02,.26-.17,.54-.32,.82-.47,1.1-.59,2.24-1.1,3.4-1.57,.57-.23,1.15-.45,1.74-.66,.28-.1,.56-.21,.85-.31,.15-.05,.3-.11,.45-.16,.05-.02,.1-.03,.14-.05,0,0,0,0,.01,0,0,0,0,0-.01,0,.03-.01,.06-.02,.08-.03-.01,0-.02,0-.04,.01,1.29-.45,2.57-.9,3.84-1.39,5.21-2.02,10.06-4.74,14.82-7.65,2.33-1.43,4.66-2.85,6.98-4.28,2.29-1.41,4.56-2.89,6.66-4.58,2.05-1.66,3.94-3.56,5.46-5.72,1.67-2.38,2.87-5.09,3.76-7.85,.42-1.3,.76-2.61,1.07-3.93,.11,.35,.4,.67,.79,.65,.5-.02,1.01-.05,1.52-.07,.3-.01,.59-.02,.89-.05,.12-.01,.25-.02,.38-.04,.16-.03,.3-.11,.45-.17,.22-.1,.35-.37,.33-.6-.02-.26-.19-.43-.42-.54-.17-.07-.3-.13-.49-.15-.13-.02-.26-.03-.38-.04-.24-.02-.48-.02-.71-.03-.49-.02-.99-.04-1.48-.06-.26,0-.51,.1-.69,.29,.13-.56,.25-1.11,.37-1.67,.02,0,.04,.02,.06,.03,.3,.08,.56,.04,.85-.06,.04-.02,.09-.03,.14-.05,.11-.04,.09-.03-.07,.02,0-.02,.24-.08,.27-.09,.18-.06,.37-.12,.55-.17,.35-.1,.7-.19,1.05-.27,.35-.08,.71-.14,1.06-.2,.19-.03,.38-.05,.57-.08,.27-.03,.5-.12,.74-.24,.39-.19,.61-.63,.57-1.04-.03-.4-.32-.82-.73-.93-.09-.02-.17-.04-.26-.06-.21-.04-.39-.06-.61-.03-.05,0-.09,.01-.14,.02-.19,.03-.38,.05-.57,.09-.39,.07-.78,.15-1.17,.24-.62,.15-1.23,.34-1.83,.56,.43-1.89,.85-3.78,1.17-5.69,.1-.01,.19-.04,.28-.09,.33-.18,.68-.33,1.03-.46,.46-.16,.93-.3,1.4-.41,.35-.08,.72-.11,1.06-.26,.38-.16,.74-.27,1-.63,.25-.36,.22-.94-.09-1.26-.25-.25-.51-.35-.84-.41-.1-.02-.19-.03-.29-.04-.29-.04-.57-.03-.85,.04-.47,.11-.92,.26-1.37,.43-.35,.13-.66,.32-.96,.52,.46-4.26,.19-8.68-1.74-12.57-1.14-2.31-2.89-4.24-4.94-5.78-1.38-1.04-2.99-1.82-4.65-2.4,.01-.01,.02-.03,.04-.04,.1-.11,.19-.22,.29-.34,.05-.06,.1-.11,.14-.17,.1-.13,.16-.3,.21-.46,.02-.1,.04-.2,.05-.3,.01-.15-.01-.29-.07-.43-.08-.22-.22-.44-.43-.56-.17-.11-.36-.17-.57-.19-.29-.03-.58,.11-.8,.28-.13,.1-.25,.22-.34,.36-.04,.06-.07,.11-.1,.17-.07,.13-.15,.26-.23,.4-.12,.2-.21,.41-.23,.64-.86-.22-1.73-.4-2.6-.53,.04-.1,.07-.21,.11-.31,.11-.3,.22-.6,.33-.9,.09-.26,.06-.6-.07-.84-.12-.24-.38-.47-.64-.55-.27-.08-.58-.08-.84,.06-.25,.14-.46,.35-.55,.64-.09,.31-.18,.61-.27,.92-.06,.23-.16,.48-.16,.72-1.83-.15-3.67-.14-5.51,0,.02-.06,.04-.12,.06-.18,.05-.15,.07-.3,.04-.45,0-.15-.04-.29-.11-.42-.07-.14-.16-.25-.28-.34-.11-.11-.24-.19-.39-.23-.1-.02-.2-.04-.3-.06-.2,0-.39,.03-.57,.12-.08,.06-.16,.11-.24,.16-.15,.14-.26,.3-.33,.5-.05,.19-.11,.38-.16,.57-.05,.14-.07,.29-.04,.44,0,.04,0,.07,.02,.11-.74,.1-1.48,.21-2.21,.34-.02-.35-.05-.69-.07-1.03-.02-.25-.06-.45-.23-.64-.15-.17-.41-.3-.64-.31-.23,0-.47,.06-.65,.23-.17,.16-.31,.39-.3,.63,.02,.41,.04,.82,.06,1.23v.23c-.95,.2-1.91,.41-2.87,.63-.07-.12-.15-.23-.23-.34-.26-.36-.61-.67-.97-.92-.79-.54-1.76-.77-2.71-.61-.1,.02-.19,.06-.27,.11-.1-.15-.22-.28-.35-.36-.15-.09-.32-.15-.48-.17,1.46-.43,2.93-.83,4.42-1.16,2.18-.48,4.39-.82,6.62-1.02,3.51-.25,7.05-.13,10.52,.48,2.33,.46,4.63,1.12,6.79,2.12,2.18,1.09,4.22,2.44,6.09,4.02,1.78,1.59,3.41,3.36,4.78,5.31,1.01,1.54,1.85,3.18,2.5,4.89,.58,1.73,.99,3.49,1.18,5.3,.15,2.17,.02,4.33-.26,6.48,0-.01-.02-.03-.03-.04-.14-.18-.34-.26-.54-.34-.16-.07-.32-.13-.48-.19-.35-.11-.68-.07-1.04-.03-.19,.02-.38,.06-.56,.1-.8,.17-1.58,.48-2.28,.91-.26,.16-.46,.35-.56,.65-.09,.26-.07,.61,.07,.85,.29,.51,.96,.8,1.51,.49,.28-.16,.57-.28,.86-.4,.41-.13,.84-.22,1.27-.27,.07,0,.15,0,.22-.01,.24-.01,.46-.07,.67-.15,.02,0,.08-.04,.11-.05,0,0,.01,0,.02,0,.01,0,.02,0,.04-.01-.01,0-.02,0-.03,.01,.06-.02,.13-.04,.19-.06,.14-.04,.25-.09,.37-.17-.05,.33-.11,.66-.16,.99-.43,2.23-.99,4.43-1.61,6.62-.66,2.36-1.39,4.71-2.26,7h0Z"/>
        <path class="cls-3" d="M104.1,63.66h0s.03,.05,.04,.08c0-.03-.02-.06-.04-.08Z"/>
        <path class="cls-3" d="M80.17,31.18s-.04,.01-.06,.02c-.02,0-.04,.02-.06,.02-.03,.01,0,0,.12-.04Z"/>
        <path class="cls-3" d="M103.94,62.76c0,.05,0,.1,0,.12h0s.01-.09,0-.12h0Z"/>
        <path class="cls-3" d="M61.36,43.26s0,0,0,.01c0,0,0,0,0,0h0Z"/>
        <path class="cls-3" d="M105.34,59.09h0s-.03,.04-.05,.06c-.03,.03-.03,.04,.05-.06h0Z"/>
        <path class="cls-3" d="M161.67,124.04s.03,0,.04-.01c-.01,0-.02,0-.04,.01Z"/>
        <path class="cls-3" d="M203.45,71.39c0-.05,0-.11-.01-.16,0,0,0-.02,0-.03,.01,.18,.02,.22,.02,.19Z"/>
        <path class="cls-3" d="M211.03,80.62s0,0,0,0c-.04,.02-.09,.04-.13,.05-.02,0,.01,0,.14-.06Z"/>
        <path class="cls-3" d="M99.02,100.39c-.3-.3-.6-.59-.91-.89-.35-.33-.7-.59-1.1-.84-.76-.47-1.52-.94-2.32-1.34,.13-.25,.1-.59-.08-.8-.13-.16-.27-.3-.42-.43,.84-.24,1.69-.47,2.55-.67,.51-.11,.55-.72,.19-1.02-.26-.22-.49-.47-.74-.7-.3-.28-.59-.33-.98-.34-.25,0-.49,.23-.41,.49,.1,.34,.19,.59,.46,.81-.96,.24-1.92,.46-2.89,.67-.3,.07-.47,.35-.48,.62-.3-.14-.59-.29-.89-.43-.32-.16-.61-.32-.97-.38-.17-.02-.42,.02-.58-.04-.76-.33-1.53,.82-.9,1.38,.06,.05,.11,.1,.17,.14h0s.05,.04,.08,.07c0,0,.02,.02,.03,.03,.1,.1,.2,.25,.29,.33,.25,.22,.53,.34,.83,.48,.42,.19,.83,.39,1.25,.58,.83,.39,1.67,.77,2.5,1.16,.81,.38,1.65,.66,2.49,.95,.46,.16,.88,.28,1.36,.34,.44,.05,.89,.11,1.33,.15,.16,.02,.26-.2,.15-.32h0Z"/>
        <path class="cls-3" d="M95.53,120.09c1.13,.06,2.09-1.25,1.47-2.28-1.16-1.96-2.55-3.76-4.27-5.27-.45-.4-.92-.79-1.39-1.15-.45-.34-.95-.61-1.43-.89-.97-.58-1.99-1.08-3.03-1.52-.89-.37-1.48,.97-.72,1.49,1.73,1.17,3.07,2.44,4.51,3.99,.05,.05,.09,.1,.13,.15-.99,.01-2.04,.42-2.53,1.34-.62,1.15-.35,2.54,.58,3.45,.05,.05,.1,.1,.15,.14-.51,.22-1,.5-1.48,.83-.49,.34-.54,1.29-.1,1.69,.17,.15,.32,.31,.46,.49,.04,.05,.08,.1,.12,.15,0,.02,.11,.18,.13,.22,.1,.18,.18,.37,.26,.55,0,.01,0,.02,.01,.03,0,0,0,0,0,.02,.03,.11,.07,.23,.1,.34,.05,.2,.08,.41,.11,.61,0,.03,0,.04,0,.06,0,.03,0,.06,0,.08,0,.09,0,.18,0,.27,0,.21-.02,.42-.04,.62,0,.05-.06,.3-.04,.25-.01,.06-.03,.12-.04,.18-.06,.22-.13,.43-.21,.63-.02,.05-.04,.09-.06,.13,.03-.07-.09,.17-.12,.21-.05,.08-.1,.15-.15,.22-.03,.04-.15,.18-.16,.2-.11,.12-.23,.23-.36,.34-.08,.07-.17,.12-.25,.19-.02,.02-.03,.02-.04,.03-.07,.05-.14,.09-.21,.14-.21,.17-.39,.38-.55,.6-.45,.64-.67,1.57-.09,2.21,.5,.54,1.65,.63,2.03-.14,.09-.18,.28-.48,.24-.72,.01-.02,.03-.05,.05-.07,.41-.29,.76-.71,1.07-1.11,.56-.76,.96-1.69,1.14-2.62,.29-1.54,.08-3.21-.72-4.55,0,0,.02,0,.02-.01,0,0,.12-.04,.17-.07,.05-.02,.17-.06,.19-.06,.09-.03,.18-.05,.28-.08,.34-.09,.68-.15,1.03-.19,.03,0,.09,0,.13,0,.1,0,.19,0,.29,0,.19,0,.38,.01,.57,.03,.91,.1,1.4-.81,1.21-1.56,.46,.23,.95,.38,1.5,.41h0Zm-4.03-2.07c-.13-.06-.25-.13-.36-.21-.04-.03-.12-.1-.15-.12-.04-.04-.09-.08-.13-.13-.01-.02-.03-.04-.04-.05,.04,0,.08,0,.12,0,0,0,.01,0,.03,0,.1,.03,.2,.06,.29,.1,.01,0,.03,.01,.04,.02,.07,.04,.16,.08,.22,.12,.07,.04,.14,.1,.21,.15,.05,.04,.1,.09,.16,.13,.09,.09,.19,.18,.29,.27-.15-.06-.3-.12-.44-.19,0,0-.19-.08-.23-.1h0Z"/>
        <path class="cls-3" d="M140.12,144.06s0,0,.01,0t-.02,0s.01,0,.02,0c.02,0,.05-.01,.03,0,.01,0,.03,0,.04-.01,.07-.02,.14-.03,.21-.03,.24-.02,.41-.31,.39-.53-.02-.24-.22-.46-.47-.46-.37,0-.74,.08-1.06,.27-.12,.07-.31,.18-.41,.3-.04,.01-.08,.02-.11,.04-.12,.05-.23,.15-.32,.24-.59,.56-.98,1.38-.98,2.21,0,.56,.32,1.2,.71,1.59,.41,.41,.93,.74,1.49,.87,1.18,.28,2.38-.01,3.39-.65,.35-.22,.85-.49,1.05-.87,.23-.41,.5-.93,.39-1.41-.13-.55-.64-.89-1.19-.85-.15,.01-.29,.06-.44,.1-.05,.01-.1,.02-.15,.04-.29,.07-.5,.17-.74,.35-.06,.04-.12,.09-.19,.14-.29,.18-.6,.35-.92,.48-.14,.04-.28,.07-.42,.1-.07,0-.13,0-.2-.01-.05-.02-.1-.03-.15-.05-.04-.02-.07-.05-.11-.07,0,0-.01-.01-.02-.02-.01-.02-.03-.04-.04-.07-.06-.12-.11-.22-.18-.33,.03,.05,.07,.1,.1,.15-.04-.06-.06-.11-.09-.17,.04,.1,0,.06-.02-.02,0-.02-.01-.04-.02-.07,0-.02-.02-.04-.03-.06,.01,.02,.02,.04,.03,.06,0,0,0-.01,0-.02-.02-.06-.03-.12-.04-.18,0-.01,0-.02,0-.03,0-.05,0-.1,0-.14,0-.07,0-.14,.02-.21,0,0,0-.01,0-.03,.02-.07,.08-.24,.1-.36,.03-.03,.07-.06,.1-.09,.02-.02,.13-.08,0-.01,.02-.01,.04-.03,.07-.04,.06-.03,.12-.06,.19-.09h0Zm-1.17-.51s-.02,0-.04,.01c.07-.03,.14-.04,.04-.01Z"/>
        <path class="cls-3" d="M140.14,144.06s.03-.01,.04,0c-.01,0-.02,0-.04,0Z"/>
        <path class="cls-3" d="M139.74,145.35s-.03-.06-.04-.1c0,0,0,0,0,0,.01,.03,.03,.06,.04,.09Z"/>
        <path class="cls-3" d="M79.8,119.92s.03-.03-.04,.04c0,0,0,0,.01,0,0-.01,.02-.02,.03-.03Z"/>
        <path class="cls-3" d="M75.49,118.95s.07-.03,.09-.07c-.01,0-.02,.01-.03,.01-.02,.02-.04,.04-.06,.06h0Z"/>
        <path class="cls-3" d="M75.59,118.87s0-.01,0-.02c0,0,0,0-.01,.01h0s0,0,0,0Z"/>
        <path class="cls-3" d="M75.58,118.89s.03-.01,.04-.02c-.01,0-.02,0-.03,0,0,0,0,.01,0,.02Z"/>
        <path class="cls-3" d="M76.4,120.27s0,0,0,0c0,0-.01,0-.02,0,0,0,0,0,0,0h0Z"/>
        <path class="cls-3" d="M75.62,118.87s.08-.01,.11-.04c0,0-.02,0-.03,0-.02,.01-.05,.03-.08,.04Z"/>
        <path class="cls-3" d="M75.49,118.96s-.03,0-.03,0c0,0,0,0,0-.01,0,0,.02-.02,.05-.03,0,0,.02,0,.03-.01,.01-.01,.02-.03,.03-.03,0,0,0,0,.01-.01,0,0,0,0,0,0,0,0,0,0,0,0,.01,0,.03,0,.05-.01,0,0,.03,0,.05,0,.02,0,.03-.02,.03-.02h0s0,.01-.01,.02c0,0,.02,0,.03,0,0,0,.01,0,.02,.01,.57,.45,1.56,.22,1.92-.39,.42-.7,.21-1.42-.39-1.92-1.51-1.25-4.04-.12-4.53,1.63-.56,1.98,.97,3.75,2.69,4.48,1.56,.66,3.53,.46,4.98-.38,1.52-.87,2.51-2.35,2.55-4.12,.02-.92-.16-1.78-.81-2.47-.56-.59-.97-1.22-1.71-1.63-.3-.16-.56,.23-.29,.44,.39,.31,.89,.83,1,1.33,.05,.23,.01,.51,0,.74-.02,.27,0,.54,0,.81,0,.15-.02,.29-.04,.44,0,.01-.01,.06-.01,.08,0,.05-.02,.1-.03,.14-.03,.13-.07,.25-.11,.37-.02,.06-.05,.12-.07,.18,0,.03-.01,.04-.02,.06,0,.01-.01,.03-.03,.04-.07,.11-.13,.22-.2,.33-.02,.03-.17,.22-.17,.22-.19,.21-.4,.41-.61,.58-.04,.03-.07,.05-.1,.08,0,0-.02,.02-.03,.03,0,0-.02,.01-.03,.02,0,0,0,0,.02-.01,0,0-.02,.01-.02,.01-.12,.07-.23,.14-.36,.2-.14,.07-.28,.12-.42,.19h0c-.08,.02-.16,.05-.25,.07-.15,.04-.3,.07-.45,.09-.07,.01-.14,.02-.2,.03-.31,0-.6-.01-.91-.04-.06-.02-.11-.03-.17-.04-.15-.04-.29-.09-.44-.14-.01,0-.07-.03-.12-.05,.07,.04,.15,.1,0,0-.03-.01-.05-.02-.05-.02,0,0,.02,0,.04,.01-.14-.08-.28-.17-.41-.26-.04-.03-.07-.06-.1-.08,0,0,0,0-.01-.01-.09-.1-.18-.19-.26-.29-.02-.02-.03-.03-.04-.04-.01-.03-.03-.06-.04-.07-.03-.06-.05-.11-.09-.17,0,0,0,0,0-.01t0,0c-.01-.06-.03-.12-.04-.18h0s0,0,0-.01c0,0,0-.04,0-.08,0,0,0,0,0,0,.02-.02,.05-.04,.08-.07h0Zm.23-.14s0,0-.01,0h0s0,0,0,0Zm.05,.02s0,0,.01,0c.04,.01,.07,.02,.07,.02-.03,0-.06,0-.08-.02Zm-.06-.03c-.06-.04-.04-.03,0,0h0Zm-.29,.16s0,0-.01,.01c0-.03,0-.05,0-.05,0,0,0,.01,0,.04Z"/>
        <path class="cls-3" d="M128.09,130.95s.02-.07,.02-.11c0,.01,0,.03-.02,.05,0,.02,0,.04,0,.06Z"/>
        <path class="cls-3" d="M128.37,131.4s-.04-.01-.08-.02c.02,0,.05,.01,.08,.02Z"/>
        <path class="cls-3" d="M130.65,139.73c.07,.01,.13,.03,.18,.05,0,0,0,0,0,0-.08-.04-.15-.06-.18-.05h0Z"/>
        <path class="cls-3" d="M140.77,111.07c-.02-.05-.03-.1-.05-.15-.06-.18-.12-.35-.21-.52-.17-.31-.46-.55-.73-.78-.4-.33-.85-.58-1.34-.78-1.04-.43-2.12-.34-3.14,.07-.46,.19-.64,.79-.48,1.22,.1,.28,.29,.47,.53,.56-.87,.19-1.73,.46-2.55,.82-.33,.14-.52,.54-.49,.88,.04,.38,.27,.63,.62,.79,.5,.22,1.03,.39,1.57,.5,.2,.04,.4,.08,.61,.11-.01,.37,.22,.72,.6,.88,.41,.16,.76,.06,1.13-.12,.27-.13,.33-.44,.23-.71-.03-.07-.05-.15-.09-.22,.01-.06,.03-.12,.04-.18,.09-.38-.14-.94-.62-.9-.15,.01-.32,0-.48-.04,.23-.04,.45-.07,.68-.1,.03,0,.27-.03,.27-.03,.12,0,.25-.02,.38-.02,.27-.01,.54-.02,.8,0,.27,.02,.54,.04,.8,.08,.13,.02,.27,.04,.4,.06,.01,0,.02,0,.03,0,.06,.01,.12,.02,.18,.03,.44,.09,.84,.03,1.15-.32,.28-.32,.35-.81,.15-1.2-.05-.11-.05-.1-.01,.03Z"/>
        <path class="cls-3" d="M105.08,114.2c.1-.03,.21-.06,.32-.08,.22-.05,.43-.08,.65-.11,.03,0,.05,0,.07-.01,.02,0,.03,0,.06,0,.11,0,.22,0,.33,0,.2,0,.4,0,.61,.02,.22,.02,.44,.04,.66,.06,.1,.01,.2,.03,.31,.05,.04,0,.09,.02,.13,.03,.45,.1,.89,.25,1.31,.43,0,0,.2,.09,.22,.1,.09,.05,.18,.1,.27,.14,.22,.12,.44,.26,.65,.4,.21,.14,.42,.29,.62,.45,.09,.07,.17,.14,.26,.21,.02,.02,.17,.15,.18,.16,.37,.35,.72,.72,1.05,1.11,.41,.49,1.26,.55,1.72,.1,.49-.47,.53-1.19,.1-1.71-1.46-1.79-3.46-3.32-5.75-3.81-1.1-.24-2.18-.27-3.28-.02-.52,.12-1.04,.29-1.52,.51-.58,.27-.96,.66-1.35,1.16-.42,.56,.18,1.48,.88,1.28,.2-.06,.4-.1,.6-.14,.25-.05,.49-.15,.73-.24-.03,.01,.19-.06,.19-.06h0Z"/>
        <path class="cls-3" d="M88.97,133.38s.04,.04,.06,.05c-.01-.01-.03-.02-.04-.04,0,0,0,0-.02-.01Z"/>
        <path class="cls-3" d="M122.08,172.54c.28,.1,.6,.2,.91,.31-.15,.04-.31,.07-.46,.12-.46,.14-.96,.24-1.4,.46-.57,.28-.46,1.1,.1,1.3,.51,.19,1.02,.37,1.53,.56-.29,.1-.6,.17-.83,.25-.7,.26-1.31,.63-1.67,1.3-.38,.71-.41,1.52,0,2.23,.4,.71,1.21,1.2,2.03,.93,.49-.16,.85-.54,.8-1.08-.05-.48-.39-.83-.85-.92-.02-.02-.05-.04-.07-.06,0-.01,0-.02,0-.02,0,0,0-.01,0-.02,.02-.04,.03-.06,.03-.07,0,0,.01-.01,.02-.03,.11-.15,.27-.36,.33-.43,.3-.33,.67-.58,1.01-.87,.37-.31,.66-.68,.97-1.04,.27-.33,0-.74-.31-.88-.4-.19-.8-.38-1.2-.56,.01,0,.02-.01,.03-.02,.41-.24,.78-.49,1.16-.78,.23-.18,.06-.54-.2-.56-.56-.05-1.16-.37-1.69-.56-.56-.2-1.13-.41-1.69-.61-.54-.2-1.08-.41-1.62-.63,1.8,.03,3.59,.11,5.38,.39,2.23,.35,4.59,.88,6.56,1.85,.5,.25,1.07,.26,1.46-.21,.34-.4,.4-1.07,0-1.47-.49-.49-.96-1-1.53-1.4-.52-.36-1.05-.7-1.59-1.03-1.16-.69-2.37-1.24-3.62-1.74-.57-.23-1.14-.45-1.71-.66-.53-.2-1.07-.44-1.62-.59-.45-.09-.53-.1-.23-.04-.13-.02-.26-.05-.39-.07-.15-.02-.29-.05-.44-.07-.26-.03-.51-.04-.77-.03-.66,.03-1.29,.15-1.88,.45-1.18,.6-.55,2.57,.79,2.23,.02,0,.17-.04,.25-.05,.05,0,.25,0,.28,0,.11,0,.22,.03,.32,.04-.31-.02,0,0,.07,.02,.24,.06,.46,.14,.69,.23,.05,.02,.11,.04,.16,.06-.28-.14-.21-.1,.21,.1,.11,.04,.22,.08,.32,.12,.69,.26,1.38,.54,2.06,.83-2.17,.04-4.35,.19-6.52,.34-.36,.03-.52,.54-.12,.67,1.12,.36,2.24,.71,3.34,1.12,.54,.2,1.08,.4,1.62,.6h0Z"/>
        <path class="cls-3" d="M57.32,149.11c.5,.57,1.18,.89,1.87,1.16,.22,.09,.45,.14,.68,.18-1.34,.26-2.8,.71-3.83,1.61-.28,.25-.34,.66-.19,.99,.34,.73,1.12,.8,1.72,1-.05,.05-.11,.13-.14,.15-.1,.09-.21,.18-.31,.27-.22,.19-.44,.37-.65,.56-.25,.22-.38,.48-.55,.76-.26,.44,.18,.92,.65,.72,.35-.15,.65-.29,.93-.55,.27-.24,.54-.47,.8-.72,.44-.41,.87-.93,.73-1.58-.11-.51-.51-.83-.97-1.02,0,0-.01,0-.02,0,.34-.24,.68-.48,1.07-.67,.35-.18,.7-.33,1.07-.46,.36-.12,.76-.23,1-.56,.49-.68-.15-1.28-.79-1.42-.18-.04-.36-.08-.54-.14,.85,.09,1.69,.26,2.52,.4,.71,.12,1.42,.24,2.14,.27,.74,.04,1.48-.05,2.14-.09,1.09-.07,1.47-1.26,.64-1.96-1.04-.88-2.26-1.53-3.47-2.13-.6-.3-1.2-.6-1.81-.9-.68-.34-1.34-.69-2.08-.9-.55-.16-1.13,.07-1.38,.59-.26,.54-.06,1.09,.39,1.45,.53,.42,1.11,.72,1.71,1.04,.44,.24,.88,.48,1.32,.72-1.4-.22-2.79-.4-4.2-.15-.63,.12-.85,.91-.45,1.37h0Zm.4,4.99s0,0,0,0c0,0,0,0,.01,0t0,0h0Z"/>
      </g>
    </g>
  </g>
</svg>