<?xml version="1.0" encoding="UTF-8"?>
<svg id="Layer_2" data-name="Layer 2" xmlns="http://www.w3.org/2000/svg" xmlns:xlink="http://www.w3.org/1999/xlink" viewBox="0 0 216 174">
  <defs>
    <style>
      .cls-1 {
        fill: none;
      }

      .cls-2 {
        clip-path: url(#clippath);
      }

      .cls-3 {
        fill: #faf8f4;
      }
    </style>
    <clipPath id="clippath">
      <rect class="cls-1" width="216" height="174"/>
    </clipPath>
  </defs>
  <g id="Layer_1-2" data-name="Layer 1">
    <g class="cls-2">
      <g>
        <path class="cls-3" d="M95.05,80.82l-3.98-.02c-1.08,0-1.42-.69-1.41-1.61l.05-4.3c.01-.82,.07-2.25,.84-2.71,1.33-.41,2.86-.28,4.22-.15,.86,.08,1.29,.86,1.25,1.63-.11,2.13-.13,4.12-.05,6.23,.02,.61-.36,.94-.92,.93h0Zm-.29-4.91v-2.6c-1.27-.26-2.12-.22-3.43-.16l-.25,2.78,3.67-.02h0Zm-.17,2.38v-1.43s-3.43,0-3.43,0l.05,1.51,3.37-.07Zm-.05,1.66c.12,0,.21-.54,.09-.55-.08,0-.36-.04-.44-.04l-3.17,.06,.02,.43c0,.09,.39,.21,.48,.2l3.01-.11h0Z"/>
        <path class="cls-3" d="M86.2,76.52c.01,.32-.06,.79-.2,.96-.14,.16-.63,.29-.87,.28l-8.47-.12c-.63,.29-1.48-.14-1.49-.84l-.09-9.81c0-.81,.71-.88,1.37-.88h7.73c.55,0,1.48-.36,1.74,.37,.38,1.07,0,2.27,0,3.4,0,1.27,.1,2.5,.16,3.75l.13,2.88h0Zm-1.59-.22c.14-2.34-.23-4.26-.19-6.42l.05-2.42-7.8,.08,.15,3.11,.36,5.57,7.44,.09Z"/>
        <path class="cls-3" d="M216.01,170.13c-.32-.55-.72-.65-1.14-.63-5.19,.26-9.61,.01-14.84-.47-1.03-2.24,.42-2.27-.18-5.71-.29-1.69-.23-3.42-.04-5.11l.78-.42c-1.57-.23-.38-3.78-.58-4.61-.42-1.71-.24-3.3-.08-5.01,.14-1.53-.92-3.58,.14-5.29-.2-.77-.5-1.71-.38-2.51l.45-3.19c.18-1.26-.35-2.61-.07-3.92,.36-1.65,.12-3.15,.06-4.82-.05-1.37,.13-2.73,.08-4.08l-.18-4.89c-.05-1.27-.12-2.35-.07-3.6,.12-2.94,.19-5.86,0-8.71-.09-1.42-.36-2.83,.05-4.26,.34-1.19-.55-1.5-.09-4.97,.01-.09,.35-.35,.43-.4,.18-.12-.8-.29-.74-1.67l.09-2.17,.58-.31c.1-.05-.39-.28-.47-.37-.18-.2-.22-.77-.22-1.14l.04-2.2,.58-.27c.09-.04-.2-.18-.54-.32l-.12-2.08c-.07-1.26,1.04-1.54,.69-1.47-.07,.01-.48-.22-.49-.29l-.07-2.64c-.04-1.37-.2-2.73-.14-4.15l.4-8.99c.07-1.44-.19-2.87-.44-4.22,.71-.05,1.5-.13,1.86-.38,.31-.22,.62-1.01,.58-1.42l-.4-4.4c.77-.19,1.29-.38,1.95-.78l1.56-.1c.45-.03,.95-.3,.97-.72,.02-.34-.38-.89-.72-.95-.98-.17-1.36-.63-2.02-1.17l-2.89-2.35c-2.12-1.72-4.36-3.09-6.59-4.7-1.28-.92-2.34-3.16-5.11-4.52-1.85-.91-.24-2.1-3.25-4.02,.17-1.01,.11-2.1,.07-3.1l-.14-3.17-.15-4c-.18-4.94,1.17-6.37-.36-9.9,.54-.41,1.32-1.02,1.51-1.58,.64-1.9-2.22-3.39-2.7-3.3-.4,.08-.82,.2-.88,.01-.52-1.66,.08-3.53-.87-5.73-.42-.98-.35-1.54,.17-2.46,.24-.42-.74-1.31-1.25-1.32-1.83-.03-3.32-.05-5.21,.23,.68,.42,1.24,.44,1.81,.55-.47,.13-1.07,.48-1.12,.87l-.29,2.55c-.05,.34-.16,.65-.29,.19l-.46-2.57c-.06-.33-.08-.47,.02-1.02-.93-.37-2.31-.67-3.48-.61-.61,.03-2.6,.97-2.79,1.44-.08,.18,.39,.52,.59,.7l.24,3.29c.08,1.11,.15,2.09,.12,3.22l-1.26,.11c-.18,.59-.67,.64-1.29,.8-.62,.17-1.58,1.23-1.7,1.88-.2,1.07-.65,1.98-1.54,2.56-.23,1.22-.31,3.15,1.1,3.73,.52,1.14,.13,2.76,.15,4.06l.05,4.23c-1.56-.42-3.03,.13-4.53-.1-1.39-.21-2.6-.51-4.05-.33l-5.58,.68c-1.29,.16-2.89-.6-4.2-.09-1.49,.57-2.29-.47-3.93-.32-3.2,.28-6.29,.56-9.46,.29l-5.77-.5-7.02,.23c-2.74,.09-11.98-.2-13.88,.1-.96,.15-2.11-.09-3.04-.05-3.25,.15-7.6-.3-7.99-.27l-7.52,.65c-1.85,.16-3.48-.06-5.33-.19l-2.7-.18c-1.31-.09-2.45-.45-3.82-.11-2.92,.72-5.05-.48-7.5,.08-1.48,.33-2.69-.2-4.03-.15l-8.58,.28c-1.98,.06-3.85-.05-5.84,.04l-8.55,.37c-1.68,.07-3.18-.11-4.86,.04-.97,.09-2.03,0-3.08-.02l-.16-2.31c-.05-.75-.25-1.77-.2-2.49,3.44-5.21-1.57-5.98,1.08-7.47-.05-3.23-1.04-5.86-.32-9.16,.52-2.4-.32-2.83-.2-5.59l1.54-.58,.37,1.22c.19-.01,.51-.07,.52-.18l.02-.46c0-.22-.11-.83,.09-.88l.89-.25,.3,1.98c1.44,.45,.15-1.36,.61-2.35l3.33-.55-.08,1.05c0,.12,.29,.35,.35,.25l.25-.42c.12-.2,.14-.82,.36-.86,.49-.09,1.19-.19,1.73-.12,.15,.02,.2,.49,.25,.66,.73-.91,2.48-1.13,2.2-1.51-.45-.61-1.23,.03-1.39-.43l-.27-.77-.6,.93c-.38,.18-1.3,.19-1.82,.2l-.29-1.45c-.48,.41-.53,.83-.58,1.47l-3.42,.49-.21-1.97c-1.19-.05-.28,2.07-.86,2.24l-.89,.26-.21-1.06c-.02-.1-.08-.33-.16-.31-.06,.01-.21,.04-.4,.06l-.04,1.5-1.23,.45,.05-2.61c0-.31-.42-.8-.72-.81-.35-.01-.77,.47-.76,.83l.1,2.99-2.46,1.14c-.22,.1-.36,.74-.19,.89,.71,.63,1.29-.6,2.66-.63,.04,1.88,.15,3.48,.06,5.28-.08,1.66-.17,3.25-.02,4.91,.15,1.68,.09,3.33,.01,5.1-1.88-1.13-3.38-2.54-4.55-4.33,.02-.63,.06-1.37,.02-1.92l-.29-3.73c-.03-.33-.32-1.03-.63-1.12-.28-.08-.83-.05-1.19-.03l-2.83,.15c-1.81,.1-.11,1.94-.79,4.06-.53,.42-1.45,.92-2.11,1.24-.34-1.02,.19-2.02,.05-2.8-.17-.98-.3-2-.04-2.97,.32-.55,3.42,.26,2.58-.27l-.46-.29c.05-.03,.12-.06,.15-.07,.41,.13,.99,.2,1.16,.04,0-1.71-4.77-1.04-5.88-.61-.39,.15-.6,1.19-.32,1.41,.25,.19,.83,.27,1.33,.33v2.34c-.01,1.28-.07,2.43-.45,3.63l-2.51,.34c-.14,.02-.42,.41-.34,.51,.06,.06,.25,.25,.34,.25l2-.09,6.74-.27,1.34-.02,.02,3.71-3.5,.08,.6-.8c-.63-.24-1.53-.1-1.6,.81h-3.2s1.65-.56,1.65-.56c-1.46-.78-1.45,.57-3.66,.09l-.1-2.35c-.56,.15-.54,.49-.53,1,.02,1.84-1.39,1.33,.49,3.67,.06,1.7,.12,3.72,.03,5.48l-.15,2.76c-.12,2.21-.23,4.49,.12,6.63,.24,1.48-.5,1.94-1.21,2.94-.86,1.21-1.65,2.46-2.61,3.66-.99,1.25-1.81,2.78-3.09,3.72-.82,.6-1.1,1.14-1.64,2.03-.61,1.01-1.85,1.82-2.61,2.77-1.22,1.53-2.53,2.71-4.53,3.31,.05,.9,.43,1.69,1.39,2.1l-.88,.59-1.31-.85,.66-.91c-.2-.25-.97-.05-1.16,.33-.56,1.15,1.5,2.63,1.69,2.09l.22-.63c.11,1.74,2.01,1.41,2.01,2.38l-.03,14.44c0,.27-.37,.71-.42,.9-.05,.19,.46,.59,.46,.78v4.85s-.05,24.25-.05,24.25c-.49,.17-.99,.25-1.01,.52l-.08,1.08c-.1,1.28-.39,3.7,.99,4.25,.19,1.45,.12,3.07,.01,4.56-.03,0-.05,0-.08-.02,.01,2.81,.24,5.62,0,8.43,0,.08-.02,.17-.03,.25v1.59s-.86,.37-.86,.37c-.11,1.02-.23,2.04-.32,3.06,0,.02,0,.03,0,.05,.08,.04,.14,.09,.19,.18l.87,1.49c.19,.46,.22,1.32,.16,2.04,.03,.15,.04,.31,.04,.47v5.3c0,.41-.08,.76-.21,1.07l-.02,5.37c.11,.28,.17,.6,.17,.97,0,2.17-.05,4.34-.11,6.51l.03,2.65v3.33c-.05,0-.1,0-.14,.01,.01,.26,.03,.51,.04,.77,.07,0,.14,0,.21,.01v3.13c.14,1.49,.3,2.97,.46,4.45,.04,.34,.02,.75,.12,1.07,0-.02-.01-.03-.01-.05,.04,.13,.07,.25,.08,.32,.07,.38,.16,.74,.27,1.1h2.83v.42h-2.7c.08,.23,.15,.46,.24,.69,0,0,0,0,0,0,2.39,.25,5.09,.45,6.5,.25l-1.35-.48,3-.32c1.69-.18,5.61-.28,7.07,.4-1.35,.03-2.48-.06-3.78,.25,.85,.59,6.98,.31,8.07,.23,1.07-.07,2.03-.18,3.02-.31l-5.38-.29c1.29-.29,2.48-.27,3.77-.32,2.75-.12,5.47-.19,8.2-.02,3.95,.24,4.16-.03,7.61-.02h3.08c.78,0,1.59-.02,2.41,.03,1.14,.07,2.3,.17,3.46,.15l11.48-.19c2.32-.04,4.59-.29,6.87,.14,.95,.18,1.75,.3,2.77,.35l6.55,.31c.26,.01,.81-.34,.99-.45h11c.14,.01,.6,.09,.62,.22l.1,.66c1.85,.13,3.75,.06,5.81-.33l-4.02-.28c1.59-.21,3.27-.3,4.95-.17l3.86,.3c1.19,.09,2.29,.13,3.54,.12,.57,0,1.17,.29,1.68,.4,2.85,.56,5.66,.02,8.52-.32,1.66-.2,3.58,.86,5.95,.9,.12,0,.63-.32,.55-.39l-.41-.41,3.16,.05c.11,.22,.41,.72,.63,.72l3.88-.08c3.14-.06,4.21,.55,5.43,.56l8.35,.09c2.44,.03,4.87,.28,7.31-.18,.72-.14,1.34-.33,2.13-.2,6.59,1.04,2.52-.06,6.01,.02l6.67,.15-.32,.3c-.74,.69,6.45,.4,7.07,.38l4-.18c.07-.21,.14-.34,.03-.36-.1-.02-.5-.1-.67-.1h-9.48c1.3-.27,2.67-.39,3.97-.34,2.63,.1,5.11,.13,7.74-.06,.94-.07,1.8,.13,2.74,.32,.65,.13,1.83-.08,2.32,.26,.64,.43,1.06,.75,1.7,.92l1.41,.37c.23,.06,.57-.56,.49-.78-.29-.83-.62-1.37-1.58-1.62l.09-.29,1.18,.09,.37,.03c.11,.01,.25,.02,.36,.03l10.9,.3c.11,0,.44-.04,.51-.03l6.2,.5s1.33-.03,.93-.56l-4.54-1.23,10.74-.15,4.69-.14h0Zm-15.53-106.34c-1.12,0-6.83,.14-6.79-.78l.15-3.44,3.06-.42c1.14-.16,2.3-.13,3.43-.07l.15,1.58c.1,1.08,.24,1.84,0,3.12h0Zm-1.84,72.58c.11,.78-.24,1.71-.24,2.55l.02,4.56c0,1.01-.22,1.92-.07,2.96,.59,4.04-.62,2.82,.02,5.02,.4,1.37,.04,2.67-.05,3.99-.08,1.26,.47,2.53-.02,3.89-.28,.78-.21,2.05,0,2.89,.65,2.68-.06,2.41-.14,5.54,0,.19-.06,.65-.21,.65h-.58s-.14-2.13-.14-2.13c-.2-3.18,.1-7.67,.05-10.87l-.03-1.68c-.05-2.9,.1-5.66,.03-8.56-.05-1.99,.12-3.89,.27-5.85,.1-1.37-.15-2.8,.12-4.11,.1-.51,.05-.65-.04-1.16-.26-1.55-.07-3.17-.07-4.75l.03-11.09-.28-3.58c-.2-2.54,.1-4.95,.36-7.46-.08-.44-.29-1.24-.3-1.7l-.1-3.35,.08-2.13c.09-2.61-.18-5.97,.07-9.26,.08-1.02-.06-2.18-.02-3.23l.12-3.19,.02-5.66c0-1.36,.2-2.65,.28-4l.19-3.29c.11-1.91,0-3.74,.02-5.69l.68,2.39c.26,.94-.08,2.08-.12,3.09l-.28,7.5c-.04,.99-.24,1.79,0,2.79,.18,.76,.03,1.66,.03,2.45,0,.81,.3,1.82,.05,2.57-.26,.77-.09,1.23-.09,2.07v3.2c.02,1.2,.27,2.19,0,3.39-.13,.58,.16,1.36,.17,1.98,.04,1.79,.24,3.63,.14,5.38-.3,5.21,.36,4.65,.06,10.05-.13,2.24-.13,4.33,0,6.55,.15,2.55,.16,5.1,.1,7.67-.02,1-.19,1.82,.08,2.83,.6,2.29-.76,2.7-.2,6.79h0Zm3.35-78.95c-.72,.28-1.6,.13-2.52-.39-2.9,1.28-3.57-.12-5.4,.5-.19,.06-.43-.29-.52-.63l2.68-.24c1.85-.17,3.98-.16,5.91-.12,.18,.1,.06,.8-.14,.88Zm-1.3-2.51l-4.69,.16c-.88,.03-1.81,.33-2.65,.45l-3.19-3.38c5.75-.53,6.43-1.42,10.53,2.77Zm-17.38,2.66l-1.49,.68h-3.24c-.62,.01-1.13-.05-1.58-.49-.89,.34-1.84,.64-2.84,.5l-.65-.09c-.14-.02-.11-.18-.19-.57l-1.67,.58c-.69,.24-1.99-.01-2.67-.03l.48-.6c-3.03,.65-.49,.93-4.48,.6l.6-.52c-2.16-.18-1.26,1.01-4.15,.61-.13-.02-.48-.05-.49-.14l-.05-.56c-2.77,.9-1.57,1.04-4.46,.59,.38-.38,.46-.5,.07-.52-1.31,.67-2.61,.79-3.96,.49l.02-.43c0-.09-.48-.07-.62,.07-.66,.65-2.52,.3-3.47,.06-.95-.24-2.36,1.09-3.17,.01-.57-.77-1.46,.77-3.94,.26l-.14-.39c-.15-.43-2.06,.97-3.92,.33v-.33c-.02-.26-2.48,.62-4.67,.51l-2.56-.13c-.53-.03-1.44,.36-2,.2l-.3-.49c-.07-.11-.63,0-.75,.08-1.17,.73-3.6,.99-4.07,.09-4.2,1.6-3.46-.54-5.37,.39-1.2,.58-2.66-.06-3.89-.02-.98,.04-1.93-.06-2.66-.41-1.3,.43-2.6,.47-3.92,.15-.92-.22-2.19,.86-3.25,.22-.54-.32-.95-.19-1.61-.01-.89,.23-2.04,0-2.97,.18-.95,.19-1.87-.08-2.67,0l-2.6,.24c-1.15,.11-2.3-.17-3.35-.22-1.84-.09-5.85,.09-7.96-.18-1-.13-2.21,.16-3.17-.1-.53-.14-.88-.16-1.44-.1-4.36,.44-2.72-.5-6.76-.1-1.75,.17-3.71,.34-5.44,.12-.66-.09-.91-.31-1.63-.11-.71,.2-1.81,.14-2.56-.04-2.16-.52-3.08,.36-6.42-.08-3.89-.51-1.29,.59-5.63,.16l.54-.53c-2.77,.16-2.7,.96-6.18,.29-.73-.14-1.32-.2-2.02-.22l-1.63-.06-5.65,.05,.91,.38c-1.13,.25-1.92,.27-3.03,.15l1.51-.5c-.61-.06-1.67-.12-2.24,.14-1.2,.56-2.12,.17-3.2,.15-.95-.01-1.76,.04-2.74-.14-.64-.12-1.96,.52-2.61,.19-.15-.08-.32-.51-.46-.51-.94,.02-1.46,.86-3.66,.45l.07-.45c.02-.11-.44-.05-.55-.01-4.21,1.15-2.46-.37-3.66,.03-.76,.26-1.4,.14-2.14,.06-.88-.09-2.1,.53-2.98,.28-1.91-.53-.87,.04-2.67,.38-.17,.03-.17-.68-.15-1.04,4.05-.33,8.15-.27,12.37-.24l23.59,.2,28.58-.04,15.46,.23c5.03,.08,9.8,.06,14.83-.2,5.77-.3,11.33-.07,17.1-.02l13.44,.11,11.84-.19,29-.2c6.59-.05,11.82-.08,18.71,.39-.73,.57-1.51,.97-2.26,1.16l-1.51-.18-.03-.7-2.28,.76c-.55,.18-1.69-.03-2.27-.04l.04-.35c0-.09-.33-.28-.41-.24h0Zm-24.1,42.22c.26,.01,.47-.38,.75-.82,1,.05,2.79-.41,3.03,.63-.14-.6,2.62-.67,3.12-.54l-1.22,1.1h-5.33c-.72-.01-1.42-.1-2.12-.02-1.51,.17-2.88,.24-4.45,.09,2.83-1.82,1.31-1.1,4.86-1.24,.1,0,.52,.08,.51,.18l-.03,.58,.87,.05h0Zm13.09,.35h-2.87s.56-.8,.56-.8c-1.66,.71-2.8,1.32-4.5,.64l1.82-.97,6.48,.12-1.5,1.01h0Zm1.88-.98l1.38,.06c.12,0,.29,.34,.33,.47,.35,.99-2.27,.61-3.01,.52,.65-.4,.99-.52,1.3-1.05h0Zm-22.41,1.03c-.3,.15-5.03,.28-5.42,.07l2-1.33,4.31,.05,1.52,.06-2.4,1.15h0Zm-9.63,.05c2.9-1.78,1.31-1.43,5.51-1.33-3.37,1.78-1.44,1.44-5.51,1.33Zm-15.55-.44l1.44-.92c-1.11-.38-1.9,.69-2.82,.89-1.56,.34-3.23,.28-4.96,.18,3.24-2.21,4.9-1.23,9.26-1.42,2.25-.1,4.4,.03,6.73,.13l-2.51,1.42-3.18-.16,1.05-.71c-2.22-.38-.85,1.24-5.01,.58h0Zm-43.95-.13l.27-.47c-.53,.27-1.07,.5-1.62,.52l-4.64,.15-2.27,.1-2.93,.12-4.31,.04-4.67,.07-6.8-.02c.75-1.08,2.14-1.53,3.22-1.29l-.07,.83,1.38-.75,3.61-.18-.86,1.12c2.73-1.63,1.89-1.06,5.4-1.06-.46,.35-.75,.48-.9,1,1.55-1.05,2.87-1.1,4.56-1.08,1.8,.02,3.63-.12,5.45,.08,.65,.07,.98-.02,1.59-.16,2.04-.48,4.19-.32,6.29-.37l3.01-.08,.65,.43c.67-.42,1.71-.6,2.36-.37,.04,.13-.05,.66,.06,.61l.61-.31c.97-.5,2.15-.34,3.37-.13l-1.21,1.07-8.27,.12,.52-.9c-2.07,.4-.48,1.21-3.8,.9h0Zm-72.71,.84l.76-.97-2.04,.89c.56-1.47,3.06-1.05,4.49-1.08l-1.07,1.18-2.15-.02h0Zm.49,1.65l-2.18,2.11c-.06-.74-.09-1.36-.08-2.19,.74-.09,1.16-.11,2.25,.08Zm-2.83-10.47c.66-.64,1.39,.12,1.81-.72l-1.75-.22v-1.8c1.58,.03,3.02,.24,4.54,.16l7.24-.36c-1.54-1.03-3.06-.26-4.56-.25-1.45,0-2.93,.09-4.32-.03l-2.9-.26-.12-2.99,7.16-.08c.4,0,.87-.17,1.39-.37l-1.3-.41-.08-1.67c.99-.11,1.67-.14,2.71-.46-1.59-1.23-7.45-1.15-9.79-1.2v-3.29l1.9-.23c-.67-.35-1.15-.37-1.93-.43v-3.19c1.7-.06,3.05-.07,4.76-.36-.69-.4-1.25-.41-1.87-.4l-2.94,.04-.03-3.33,2.17-.37c.81-.14,1.55-.02,2.32-.49l-4.49-.06-.15-3.26,5.9-.25c-.58-.23-1.26-.35-1.91-.34l-3.94,.05-.19-3.68,2.68-1.54c.68-.39,1.37-.64,2.26-.4-1.19,1.03-2.9,1.22-3.73,2.85l4.27-2.35c.92-.51,1.92-.69,2.8-.52-1.18,1-2.77,1.09-3.38,2.65l3.72-2.15c.99-.57,2.02-.64,3.15-.35l-2.2,1.37c-.22,.14-.41,.71-.32,.89,2.86-1.57,3.2-2.77,6.5-2.27-.54,.54-1.1,.67-1.61,1.44l2.87-1.22c.23-.1,.82-.12,.94,.06,.44,.65-.05,2.58-.15,3.29,1.08,2.02,.06,2.33,2.42,2.71,.43,1.11,.5,2.48,.52,3.75l.28,14.26,.13,4.14,.12,3.11-1.99,.11c-.31,.02-.7,.44-.69,.76,.13,2.72-.57,3.8,.5,4.59,.54,.4,2.57-.39,1.84,.09l-.35,.23c-.47,.3-1,.13-1.43,.18l-2.29,.23,.24-.58c-1.03,.39-1.73,.6-2.79,.6l.44-.75-1.36,.63c-1.13,.52-.95-.36-3.44,.14l.7-1.04-2.25,1.05c-.49,.02-1.41-.04-2.04-.09,.62-.36,1.05-.49,1.28-1.43l-7.19-.05-.02-2.93c1.44-.05,2.67-.06,4.09-.28-.23-.4-4.94-.15-4.17-.89h0Zm0-10.06c1.6,.03,3.02,.03,4.56,.17l3.13,.29c-.25,.09-1.09,.26-1.11,.51l-.16,1.78-6.4,.14-.02-2.9Zm50.39-21.85c.87-.09,1.89-.04,2.8-.04-.65,.45-1.2,.67-1.73,1.28,1.35,0,2.25-1.08,3.56-1.24,.78-.09,1.74,0,2.61,.06-.55,.59-1.56,.27-1.52,1.35l3.35-1.39c.53-.22,1.66,0,2.3,.02-.34,.37-.49,.51-.77,.92l2.34-1.03-.02,1.56c.51,1.23-.81,3.97,.8,4.25l1.43,.25,.04,6,.12,2.53,.07,6.17,.08,5.29,.02,4.87c-1.02-.08-2.12,.3-2.45,1.45-.08,.26-.78,4.19,.65,4.2l11.71,.06,7,.13,.15-4.19c.01-.3-.1-.99-.33-1.1-.27-.12-.76-.28-1.19-.43-.25-.11-.22-.83-.23-1.2l-.1-2.94-.15-3.28-.35-9.29c-.06-1.5-.09-2.88-.05-4.42l.09-3.79,1.65-.33c.68-1.92-.35-3.42,.41-5.3l.65,.52c.38,.3,1.38-.76,2.79-.5l.06,.5c.01,.12,.39,.11,.51,.07l1.45-.4,.33,4.01c.02,.28-.07,.77,.05,.97,.14,.23,.77,.49,1.06,.52l.64,.07c.1,.01,.03,.3,.03,.45,.45,1.74,.6,3.49,.53,5.34l-.12,3.54,.1,5.04,.11,3.13,.17,2.9c.21,3.6,0,.9-.32,4.49-.45,.14-.94,.28-1.24,.42-.3,.14-.39,.98-.33,1.33,.37,2.09-.3,2.62,.24,3.45,.16,.25,.83,.39,1.14,.38h.49c.08-.01,.28,.22,.21,.26-.1,.06-.46,.26-.61,.25-6.27-.13-12.88-.01-19.17,.13l-4.78,.11,.19-.75c-1.56,.84-2.73,.46-4.3,.47l-2.81,.03c-.48,0-.85-.18-1.29-.07-.92,.22-1.63,0-2.56,0h-2.1c-.45,0-.8-.09-1.25-.06l-2.55,.15c-.24,.01-.66-.27-.88-.51-1.03,.86-2.27,.38-3.37,.31-.64-.04-2.01,.68-2.15-.29l.12-2.91c.03-.79,.33-2.23-.91-2.39l-2.45-.31c-.16-.58-.21-1.32-.11-1.94,.19-1.25,.05-2.37-.03-3.56l-.18-2.93-.1-3.57,4.29-.15c1.34-.05,2.62-.15,3.98-.36-1.3-.1-2.63-.35-3.97-.28l-4.32,.22-.34-4.87c-.07-1.04-.19-7.18,.36-7.4l1.15-.46c.23-.09,.32-.89,.34-1.25l.16-3.31,2.53-1.13c.15-.07,.83,.1,.96,.21,.13,.11,.12,.25,.22,.62,1.28-.52,2.51-1.11,3.74-1.09l-1.81,1.39c1.37,.05,1.99-1.1,3.17-1.23v.02Zm26.95,30.72l-3.87-.05-3.66-.13-.06-5.47-.23-4.48,5.17-.11c.87-.02,1.64-.03,2.56,0-.3,4.42,.33,6.16,.08,10.23h0Zm-2.84,1.53l6.94,.16v2.57s-9.74-.04-9.74-.04l-4.5-.04-2.55-.1c-.03-.52-.09-1.41,.12-1.85,.29-.61,1.37-.78,2.01-.77l7.73,.07h0Zm5.06-1.34c-.04,.1-.46-.05-.46-.15l-.1-1.78-.15-8.22c0-.44,0-.97-.17-1.29-.16-.29-.81-.53-1.27-.5-3.09,.22-6.1,.19-9.17,.07-.27-.01-.64,.59-.63,.87l.24,5.89c.02,.53,.43,4.66,.06,4.81-.15,.06-.42,.09-.59,.09-.16,0-.17-.5-.18-.73l-.25-17.83-.06-6.18,9.52,.02,2.67,.04,.03,2.51,.35,12.06,.3,5.86c.06,1.09,.11,3.75-.16,4.49h0Zm-13.36-26.41c-.56,0-1.2,.04-1.72,.01v-4.04c4.12-1.3,2.89,.7,4.6,.01,1.14-.46,2.53-.44,3.67,.09,1.1-.31,2.32-.42,3.43,.15,1.17-.37,2.46-.59,3.46,.13l1.49-.4-.07,4.03h-14.86Zm37.04,23.04l-.35,2.9-7.66-.02-.22-9.75,2.01-.16c1.88-.15,3.89-.23,5.91-.14l-.15,4.21c-.03,.84,.38,2.01,.45,2.95h0Zm4.17,4.61l.02,2.7-16.56,.14-.02-2.7,16.56-.14Zm-1.9-1.78c.04,.14-.36,.31-.49,.28-.17-.04-.25-.37-.26-.67l-.24-5.03c-.07-1.51-.2-2.87,0-4.42,.06-.45-.18-1.43-.71-1.49-1.39-.16-2.66-.09-4.03-.02l-2.96,.17c-1.09,.06-3.02-.17-3.46,.13-.65,.44,0,6.58,.14,7.94,.12,1.13-.07,2.32-.09,3.51l-.85-.02-.25-10.41-.2-14.18c1.71-.05,3.41-.07,5.17,.06-.44,.34-4.29-.19-4.47,.37-.06,.19-.1,.57-.09,.84l.22,4.33c.09,1.69,.09,3.32,.08,5.06,0,.62,.42,1.19,1.11,1.16l4.61-.19c1.27-.05,4.74,0,5.13-.15,.24-.1,.4-.74,.38-1.02l-.2-4.58c-.08-1.66-.11-3.19,.08-4.93,.03-.29-.4-.65-.8-.96l1.55-.02c.41,4.11-.28,3.97,.21,7.81,.17,1.38,.15,2.87,.1,4.43-.05,1.56,.26,2.92,.33,4.32l.25,5.39c.03,.56-.41,1.75-.25,2.29Zm-3.05-14.13l-3.52,.14-4,.09c0-3.57-.44-5.51-.4-8.69l3.96-.19c1.27-.06,2.63,.01,3.96,.05-.31,3.82,.56,4.69-.01,8.6Zm2.99-11.42c-1.05,.06-1.98,.06-3.03-.06-2.12-.24-4.26-.05-6.41-.04l-6.58,.04-.1-4.25,1.32-.15,.05,.43c.07,.56,2.45-.85,3.4-.68l.21,.6c.15,.43,2.38-.8,3.41-.68l.09,.53c.1,.57,1.89-.75,3.14-.51l.56,.57c1.47-.36,2.34-1.14,3.36-.01l2.47-.65c.04,1.16,.02,1.85-.04,2.85l-.12,1.9-1.73,.11h0Zm-69.79,30.42l-7.34-.08,1.71-.56-2.14-.11-.14,.68h-7.12c.62-.41,1.12-.68,1.67-1.36-.98,.34-1.59,.75-2.51,1.32l-.18-2.48c2.32-.22,4.39-.45,6.67-.43l11.66,.13,1.91,.08c.76,.03,1.45,.14,2.34,.32l.11,2.42-6.65,.05Zm5.53,1.6c-.45,.54-1.13,.78-1.97,.64,.47-.61,1.11-.91,1.97-.64Zm-12.23,.63c-.52,.23-1.3,.23-1.88,.1l1.04-1.01,5.05,.08c-1.07,.97-2.2,1.26-3.26,.93l.6-.78-1.55,.68Zm-1.55-.79c-1.03,1.05-2.38,1.1-3.69,.91,1.32-1.05,2.36-1.29,3.69-.91Zm-5.02,.83c-.47,.2-1.23,.16-1.87,.03,.48-.63,1.11-.88,1.77-.86l1.93,.03-1.83,.8h0Zm13.76-.71c-.86,.88-2.21,1.05-3.33,.62,1.1-.82,1.87-1.08,3.33-.62Zm.83-.11l2.08,.09c-.79,.92-1.96,.9-2.96,.67l.88-.75h0Zm-7.99-30.14l-5.84,.02c-.4,0-.98,.43-.97,.82l.22,9.29c0,.38,.01,.98,.24,1.18,.32,.29,.93,.29,1.38,.26l2.9-.16,4.6-.15c1.86-.06,3.56,0,5.47,.1,.33,.02,.75-.37,.74-.68-.06-2.44-.17-4.68-.01-7.04l.16-2.37c.05-.79-.29-1.44-1.13-1.46l-6.7-.12,5.15-.2c.97-.04,1.92-.02,2.95,0,.02,2.48-.05,4.88,.15,7.39,.25,3.19-.06,5.21,.21,7.53,.16,1.37,.3,2.61,.35,3.99,.03,.65,.21,6.15-.32,5.9l-.62-.29c.09-2.39,.1-4.91-.1-7.31-.23-2.74,.54-4.29-1.07-4.2l-2.51,.15-3.54,.11-3.97,.05c-1.73,.02-4.17-.77-4.12,.9l.33,10.24c0,.13-.07,.47-.09,.53-.03,.1-.26,.04-.49-.01l-.52-17.1-.33-7.76,7.94-.05-.45,.42h0Zm.32,7.52l-.11,2.38-4.87,.03-.26-3.64-.13-4.8,3.19-.23c.7-.05,1.45-.07,2.09-.09l.08,2.39c.05,1.35,.08,2.61,.01,3.96Zm6.88-.37l-.28,2.58-5.65,.11-.03-5.18-.11-3.53c1.23-.02,2.27-.04,3.41,.05l2.63,.19v2.19c0,1.17,.16,2.39,.03,3.59h0Zm-6.04,7.04l6.06-.1-.03,2.03c-.01,.85,0,1.83,.08,2.66,.38,3.78,.15,1.2,.03,5.23l-5.95-.14c.24-3.49-.32-6.16-.19-9.68h0Zm-.73,9.6l-4.86,.18-.14-9.71,4.9-.12,.1,9.64h0Zm10.91-27.83l-.33,2.3c-.41-.07-1.04-.24-1.42-.24l-5.19,.04-8.56,.36c-.67,.03-5.07-.14-5.73-.4-.27-1.1-.68-2.54-.29-3.44,.42-.98,2.33-.9,2.84-.13,.75-.3,1.62-.57,2.54-.48l.7,.07c.17,.02,.2,.36,.34,.81,1.18-1.1,2.57-.63,3.9-.54,.94,.06,2.43-.38,3.2-.06,.16,.07,.39,.49,.49,.42,1.64-1.27,3.69,.03,5.49-.36l1.86-.4c.05,.55,.23,1.51,.15,2.04ZM12.52,97.06c-.76,.29-1.45,.55-2.19,.31,2.04-1.37,1.22-1.2,4.15-1.06l-1.96,.75h0Zm-1.48-.56l-2.32,.93c.56-.75,1.29-1.6,2.32-.93Zm5.89,3c-1.36,1.49-1.72,1.13-4.2,.91,1.58-1.49,2.06-1.12,4.2-.91Zm4.63-.14c-.52,.33-.82,.55-1.2,1.18l-3.88-.02c1.34-1.55,2.88-1.1,5.08-1.16Zm3.99,.02l-1.06,1.08c-1.19,.15-2.33,.08-3.67-.02,1.42-1.57,2.74-1.24,4.73-1.05h0Zm3.28,0l-.86,.95,1.87-1c.46-.24,1.56-.07,2.17-.01l.12,.78,1.34-.87c1.13-.03,2.12,0,3.29,.11l-1.04,.89c1.63-.15,1.45-1.43,4.13-.96l-.12,.83,1.21-.93,2.79,.03-.92,.99,1.93-1.01,3.66-.12c-.54,.37-1.07,.79-1.52,1.32l-10.87,.12c-.39,0-.77,.03-1.2,.03h-9.69c1.18-1.71,1.78-1.19,3.7-1.12h0Zm23.31-.42l-.06,.86c2.03-1.4,1.36-.88,4.27-.85l-1.02,1.32h-7.98c1.84-1.3,2.75-1.65,4.79-1.33h0Zm44.46-.37c.79-.4,2.04-.34,3-.16-1.92,1.57-2.13,1.32-4.78,1.06l1.78-.9Zm3.44-.14l3.23-.03c-1.82,1.58-1.29,1.33-4.26,1.09l1.02-1.06h0Zm4.2-.08l3.8,.1c-2.05,1.52-2.12,1.34-5.27,1.12l1.47-1.22Zm7.53,.14c.09,1.82-3.16,1.09-4.53,1.13,1.6-1.34,2.5-1.43,4.53-1.13Zm1.45,.08l3.77,.03c-2.2,1.46-2.65,1.46-5.27,1.04l1.5-1.07Zm8.3,.06c-3.01,1.73-1.63,1.43-5.74,1.22,2.89-1.53,1.86-1.39,5.74-1.22Zm16.05,.04c.65-.03,1.69,.04,2.56,.1-2.65,1.07-2.26,1.79-5.46,1.25l2.91-1.35Zm5.75,.31l-2.27,1.22c-.69,.37-2.18,0-3.02-.04,2.34-.63,2.51-1.96,5.29-1.18Zm2.58-2.1c-.12,.09-.45,.37-.61,.37-5.05,.04-10.25,0-15.28-.28-1.69-.09-3.24-.13-4.87,.02-1.96,.19-3.67,.19-5.72,.17l-19.92-.15c-.15,0-.54-.18-.48-.26,.63-.83,2.99-.55,4.37-.55l9.82,.03,3.32,.22c.21-.61,.03-1.25-.02-1.9-.08-1.13,0-2.17,0-3.38,0-.54-1.05-.67-1.74-.6l-.03-2.77c3.24-.46,6.72,.05,9.56-.5-2.13-.28-4.16-.38-6.19-.23l-3.28,.24-.1-1.75,4.52-.22,3.14-.31-4-.29-3.67,.18c.05-1.11-.23-2.07-.27-2.98l-.3-6.43-.26-3.55c-.11-1.44,.18-2.96,.21-4.4l.04-1.63c.93,.06,1.94-.22,1.92-1.07-.02-1.13,0-2.12,.12-3.24,.17-1.52,2.11-1.82,3.09-1.64-.3,.31-.41,.37-.57,.88l2.72-.93c.33-.11,1.14,0,1.41,.03-.15,.24-.26,.45-.38,.86l3.16-1.02c.48-.15,1.23-.12,1.81-.22l-1.19,.97c1.89,.08,2.06-1.02,5.03-1.03-.47,.32-.82,.48-1.11,1.07,1.18-.21,1.93-.55,3.14-1.01,1.33,3.3-1.35,5.72,2.26,6.03,.61,.37,.15,1.69,.14,2.36-.04,1.91,.03,3.68,.1,5.54l.18,4.52,.14,4.86,.1,5.51c.01,.83,.08,1.67,.04,2.42l-2.45,.26c.15,1.54-.57,4.73-.06,5.17,.18,.16,.66,.03,1.08,.03l10.87-.08c.18,0,.32,.58,.21,.67Zm-10.65-2.15l.02-2.69,23.62,.14-.02,2.69-23.62-.14Zm4.47-14.23h6.11s.12,5.26,.12,5.26l.05,4.73c-1.55,.04-2.86,0-4.41-.08l-1.47-.07c-.68-2.24-.3-4.51-.22-6.89,.03-.94-.28-1.95-.19-2.95Zm13.4,6.28c.18,1.33-.07,2.58-.21,3.86l-5.9-.12c0-3.83-.49-6.04-.29-10.04l6.23-.08,.06,2.85c.03,1.19-.07,2.26,.1,3.53h0Zm2.66,.44l-.15,2.73c-.01,.19,0,.8-.17,.8h-.75c-.18-.01-.06-.62-.05-.81,.14-2.02,.12-3.95-.2-5.93-.42-2.65,.85-3.67-.08-4.89-.44-.57-1.25-.1-1.81-.1l-9.09,.04c-1.31,0-2.57-.05-3.86-.15-.4-.03-1.02-.17-1.28,.1-.21,.21-.26,.77-.25,1.16l.26,6.22c.06,1.34,.3,2.56-.03,4.13-.03,.13-.58,.18-.61,.05-.03-.13-.08-.45-.09-.63l-.21-6.08-.24-9.14c-.04-1.68-.27-3.4-.15-5.06l.29-4.06,1.34,.04c-1.09,.3-.53,6.69-.45,7.98,.11,1.65-.69,3.23,.02,3.93,.2,.2,.83,.14,1.19,.13l10.01-.23,3.77-.05,.5,.78c.96-.21,.91-.92,.9-1.68-.02-1.65,0-3.26,.06-4.88l.16-3.85,.04-1.1c.02-.65-1.93-.79-2.43-.8l-13.14-.15,16.06-.15c-.06,.95-.12,1.86-.1,2.87l.27,12.31c.05,2.16,.38,4.27,.26,6.41h0Zm-16.24-17.81l.18-2.14,5.99-.07,.25,4.14c.09,1.58-.04,3.13-.07,4.73l-6.09,.03-.28-3.93c-.07-.96-.05-1.86,.03-2.75Zm7.19-2.2c3.09-.11,3.7,.32,6.47,.28l-.05,6.17-.24,2.3-5.95,.13-.17-5.59-.07-3.29h0Zm2.59-2.98l-6.55-.09-7.86-.07,.05-3.76c.44-.75,1.81-.72,2.44-.61l-.53,.32c-.12,.07-.12,.27-.09,.58l2.44-.86c.6-.21,1.77-.07,2.35-.07-.43,.25-.85,.49-1.17,.74,1.14,.73,1.93-1.36,4.46-.67l-.83,.66c.94,.75,1.41-.98,3.62-.49l-.58,.36c-.1,.06-.06,.37-.02,.57l3.12-1.16c.49-.18,1.6,.11,2.03,.06-.46,.19-.89,.37-.95,.87l2.94-.87c.43-.13,1.38,.07,1.8,.17l-.54,.34c-.08,.05,.05,.42,.17,.38l2.36-.81c.28,1.47,.21,2.97-.26,4.5l-8.41-.08h0ZM5.32,138.4l.11-5.15,.51,.45c.08,.07,.29,.08,.4,.07,.14-.01,.16-.57,0-.63-.64-.26-1.44-1.4-.77-2.33,.36-.5,.82-.99,1.36-1.47l.04,8.14,.05,4.38,.06,4.55c-.06,.29-1.13,.37-1.14,.08l-.13-3.67-.1-2.38c-.03-.74,.22-1.55,.49-2.08l-.9,.05h0Zm1.47-16.81l-1.35,1.36c-.46-1.26,.13-2.26,1.32-2.99,.13,.23,.32,1.33,.03,1.63Zm.13,.66l-.03,2.61-1.47,1.37c-.44-1.56-.05-3.07,1.5-3.98h0Zm-1.55-1.79c-.1-1.19-.1-2.34,.01-3.65,.4-.54,1-1.2,1.53-1.69,.09,3.05,.54,3.54-1.54,5.33Zm.09-57.51l.11-.56c.03-.13,.67,.17,.65,.32l-.28,2.56c-.76-.74-.41-1.44-.47-2.32Zm-.02,32.67l-.02-2.75h.84s.02,2.74,.02,2.74h-.84Zm.88,1.37c.13,.97,.15,1.67-.81,1.91v-2.55c0-.15,.69-.28,.71-.13l.11,.78Zm-.8-12.44v-2.8s.67,0,.67,0v2.79s-.67,0-.67,0h0Zm.67,.9v2.74s-.66,.03-.66,.03l-.05-2.63c0-.2,.7-.3,.7-.13h0Zm-.71-4.34v-3.41s.68,0,.68,0v3.41s-.68,0-.68,0h0Zm.73,9.53c0,.16-.34,.14-.73,.15l.02-1.62c0-.12,.37-.33,.46-.25,.12,.1,.29,.53,.29,.7l-.04,1.03h0Zm-.64-19.87c.63,.3,.66,.87,.62,1.51l-.04,.83c0,.14-.67,.15-.68,0-.01-.56,.04-1.73,.09-2.35h0Zm-.09-1.84v-3.18h.68v3.18h-.68Zm-.02,4.94h.75s-.04,3.21-.04,3.21h-.75s.04-3.21,.04-3.21Zm-.03,31.03c.06-.33,0-1.04,.2-1.02l.86,.05c.21,.01,.35,.63,.32,.9-.05,.42-.27,.76-.5,.77-.46,.02-.95-.31-.88-.7h0Zm1.49,6.72c.09,1.12,.11,1.86,.04,2.86l-1.5,1.4c-.19-1.95-.38-3.13,1.46-4.26ZM191.32,47.85c.42,.44,.87,.9,1.31,1.2l2.83,1.96-4.17,.17c-.43,.02-1.01,.29-1.54,.55-1.16-1.17-2.23-2.39-3.24-3.73,1.68-.24,3.25-.31,4.81-.15h0Zm-.74-.68l-4.95,.14-2.45-2.7,4.14-.25c1.19,.86,2.27,1.82,3.26,2.8h0Zm-5.57-5.64c.25-.02,.76,.44,.9,.69l.93,1.65-4.51,.1-1.59-1.9c.96-.16,1.59-.3,2.42-.37l1.85-.17h0Zm-15.04-6.42v-1.76s2.9-.33,2.9-.33c.51-.06,.99,.03,1.41-.42-1.61-.12-2.96-.07-4.5-.02l-.1-6.69c1.78-.71,3.39,.15,5.32-.61l-5.23-.18-.11-1.69,2.49-.22c-.76-.44-1.41-.43-2.49-.48l-.08-1.82,7.1-.14,3.11,.1,4.34,.17v4.48s.04,10.22,.04,10.22c-1.3,0-2.17,.04-3.16,.12-1.71,.15-3.36,.05-5.09,.52,.46,.54,1.02,.44,1.56,.36,2.3-.33,4.34-.44,6.74-.41l.07,2.63c-2.33-.06-4.29-.21-6.47,.49,2.12,.33,4.52-.03,6.35,.09,.07,0-.05,.43-.12,.43h-2.99s-10.86-.16-10.86-.16c-.15-1.38-.18-2.56-.16-3.84,1.08-.09,1.77-.08,2.75-.53l-2.83-.31Zm7.43-28.1c1.08-.32,2.28-.38,3.32,.02l-.5,.95c-.11,.2,.32,.56,.47,.83,.66,1.21,.64,2.75,.52,4.15l-1.93,1.2c-.29,.18-.96,.84-1.41,.47-.67-.56-.08-1.81,.25-2.3l-.58-.34c-.1-.06,.05-.31,.19-.59,.1-.2-.12-.59-.18-.93-.21-1.12-.16-2.23-.14-3.44h0Zm3.89,7.81l-2.18-.14,2.11-1.07,.07,1.22Zm-5.18-3.71c.44,1.09,.61,2.29,.08,3.57-.19-1.26-.17-2.33-.08-3.57Zm-1.35,3.08c-.62,.11-1.41,.32-1.83,.22l-1.45-.34s-.18-.74,0-.86l.81-.59c.79-.57,1.35-.97,2.42-1.43,.16,1.15,.16,1.94,.06,3h0Zm-3.47-5.72c.86-.57,1.81-1.05,2.99-1.54l.39,3.85c-.41,.11-.99,.24-1.25,.42l-1.97,1.39c-.15-.55-.23-1.31-.09-1.72l1.66-1.48c-.74,.06-1.1,.39-1.7,.76-.18-.23-.41-1.44-.04-1.69h0Zm-2.41,7.4l1.39,.02c-.54,.43-.79,.5-1.18,1.18l2.3-1.01c.77-.34,1.91-.25,2.65,0l-.75,.86,2.22-.94c.44-.18,1.48,.06,1.88,.13-.43,.34-.76,.57-1.05,1.02l2.57-1.14,3.17,.09-.78,1.13,1.79-.97c.21-.11,.93-.22,.99,0,.06,.22-.04,.56-.15,1.08l.81-.24c.03,.27,.07,.9,0,1.2-.05,.29-.71,.47-1.03,.59l-1.48,.52c-1.52,.54-3.69,.07-5.48,.04l.71-.96c-1.7,.88-3.33,1.21-5.1,.64l.41-.8c-2.07-.39-.22,1.68-3.38,.94l1.23-.94-1.76-.06v-2.36s0,0,0,0Zm-.08,5.13l.11,1.77h-1.37c.41-.72,.68-1.1,1.26-1.77h0Zm-1.79,2.42l1.84-.08v1.86l-1.93,.09,.09-1.87Zm1.88,2.33c-.02,1.37-.01,2.42-.13,3.67-.06,.64,.02,1.23,.06,1.94l.3,6.36-1.67-2.9c-.18-.68-.53-1.62-.54-2.31l-.12-6.73,2.1-.04h0Zm-3.38-4.15c-.95-.69,.2-2.55,1.25-3.25l-.5,1.49c-.07,.56-.2,.95-.75,1.76Zm4.2,20.05c.15-.02,.27-.26,.43-.54,.23-.42,1.21-.53,1.39,.09l-.84-.11c-.24-.03-.41,.22-.47,.78l8.74,.17,.72,1.02c-1.15,.4-6.69,1.5-6.79,.06l-3.65-.46c-2.15-2.87-2.66-4.85-4.84-7.66,.19-.1,.73-.13,.82,.02,.48,1.01,3.44,6.8,4.49,6.64h0Zm-9.24-9.03c1.69-.38,3.25-.48,4.91-.06l.02,.92-2.46,.07-3.03,.13,.56-1.06Zm-1.05-.61c.21,.38-.13,1.49-.54,1.6l-3.38,.15-3.69,.08c-.4-1.59,6.98-2.31,7.61-1.83Zm-8.07,.76l-.56,1.11-3-.05-2.92,.1c-.55-1.86,5.48-1.38,6.48-1.16Zm-12.32-.19c2.12,.14,2.82-.63,5.28-.25,.04,.48-.16,1.15-.46,1.55l-2.87-.05-4.43-.08c.44-1.06,1.47-1.23,2.48-1.16h0Zm-6.76-.22l3.74,.14c.04,.24-.04,.65-.15,.84-.11,.18-.68,.38-.95,.36l-2.7-.12-3.53-.16c.44-1.67,2.59-1.11,3.59-1.07Zm-11.42,.17l2.53-.21,4.9-.34c-.11,.66-.33,1.22-.65,1.47l-3.49,.13-3.58,.03c.01-.17,.18-.81,.29-1.07h0Zm-4.28-.26c1.11-.09,2.12-.18,3.27-.15,.04,.36-.07,.98-.25,1.23-.3,.42-6.15,.55-7.5,.39,0-1.78,3.13-1.37,4.47-1.48h0Zm-11.18,.07l5.64-.33c.24-.01,.73,.39,.66,.56l-.42,1c-1.07,.19-2.45,.06-3.66,.01l-3.19-.12c-.21-.48,.33-1.08,.97-1.12h0Zm-5.71-.3l3.86,.15c.23,0,.2,.66,.05,.84-.15,.18-.7,.39-.96,.39l-5.82-.06-.03-1.41c.93,0,1.91,.04,2.9,.08Zm-7.16,.27l3.44-.32c.02,.35-.02,.8-.1,1.01-.09,.22-.69,.32-.97,.32l-6.74-.11c1.13-1.2,2.87-.76,4.38-.9h0Zm-7.43,.44c.68,.14,1.48,.04,2.47,.08-.11,.35-.56,.45-1.04,.46l-6.09,.09c.14-1.98,3.15-.93,4.66-.63h0Zm-10.77-.2c3-.23,3.67-1.08,5.47-.49,.23,.11-.06,1.17-.33,1.18l-6.14,.11c0-.63,.49-.76,1-.79h0Zm-7.22-.25l2.86-.17c1.01-.06,1.81-.08,2.87,0-.16,.45-.32,.86-.48,1.12l-3.47,.1c-1.22,.04-2.16,.12-3.32,0,.26-.74,.88-1.02,1.55-1.06h0Zm-7.51-.22c2.32,.21,3.73-.46,5.72-.15l-.53,1.43-2.95,.07-3.97,.15c.29-.96,.95-1.25,1.73-1.51h0Zm-7.57,.2h5.49s-.4,1.21-.4,1.21l-2.34,.13c-1.35,.08-2.58,.13-4.05,.1,.16-.52,.78-1.45,1.3-1.45Zm-5.61,.39l3.8-.18-.4,1.17-6.2,.26c.51-1.27,1.7-1.21,2.8-1.26h0Zm-3.45,.13l-.34,1.09-5.53,.02c.27-1.68,4.59-1.13,5.87-1.11h0Zm-6.56,.13l-.45,1.13-2.56-.08,.15-1.01,2.85-.05Zm-2.9-10.41c.38,.4,.06,1.6-.2,2-.41-.28-.69-.46-.83-.6-.14-.14,.03-.61,.11-.98l-.95,.21-1.08-1.09c.28-.31,.79-.78,1.21-1.09,.68,.53,1.17,.96,1.75,1.56h0Zm-4.92,13.01c-.19-.7,.13-1.43,.71-2.01l2.28-2.29c-1.29,.27-1.85,1.1-2.93,1.84-.51-2.49,1.15-2.55,2.78-4.28-1.15-.12-1.73,.92-2.7,1.51-.54-2.4,.98-2.44,2.43-4.07-1-.06-1.55,.63-2.35,1.27-.83-1.27,1.24-2.25,2.19-2.92,.4,.57,1.2,1.27,1.28,1.9,.24,2.08,.03,4.09-.11,6.16-1.3,.87-2.37,1.79-3.56,2.9Zm2.98-1.86l-.9,1.63c-.57,1.03-1.21,1.86-2.1,2.84-.07-.55-.11-1.15-.11-1.67l3.11-2.8Zm-1.82-10.11c.17-.06,.68,.51,.56,.66-.3,.4-1.11,.95-1.59,1.17-.24-1.31,.41-1.6,1.03-1.84Zm1.75-2.87l-1.29,.8c-.26,.16-1-.36-.89-.63l1.12-1.25,1.06,1.08h0Zm-1.48-1.51c-.36,.43-.8,.83-1.43,1.24l-.15-2.6,1.58,1.36h0Zm-5.1-3.74l-.04-4.2,2.46-.21,.13,4.28-2.56,.13h0Zm-6.1,13.93c.99-.04,1.63-.08,2.39-.38l-2.34-.14,.09-2.46,4.93-.18c.09,0,.48-.36,.41-.36l-.41-.02-4.87-.22v-1.53s1.21-.67,1.21-.67l-1.24-.28v-1.22s7.85-.04,7.85-.04l-.02,6.95-4.21-.13c-.51-.02-.94-.03-1.27,.51l5.42,.17-.02,2.66-4.44,.36c.35,.77,1.03,.32,1.62,.31l2.85-.04-.19,5.32-3.04,.11c-.13,0-.53,.26-.45,.33,.08,.06,.34,.29,.46,.3l2.85,.09,.12,1.16-7.74-.11,.08-1.27c.9,.14,1.46,.52,2.1-.49l-2.14-.31,.02-3.09,4.77-.18,.27-.35-5.14-.14,.09-4.65h0Zm-5.25,15.74c1.3,0,2.53-.05,3.8-.33l8.9-.03c.53,0,1.29,.24,1.88,.35v2.07c-1.51,.21-2.95,.03-4.61-.04l-6.14-.24-4.78-.28,.96-1.5h0ZM3.43,55.9c1.19-1.5,2.64-1.4,4.41-1.57l-2.05-.41,2.02-2.14c1.71-.09,3.41-.02,4.97-.29,3.96-.68,3.6,.98,7.37,.08-4.47-.82-6.59-.84-11.32-.66l.99-1.46,7.06-.12,2.83,.04c-.28-.36-.6-.39-1.07-.38-2.27,.05-4.94-.53-7.62-.34l.82-1.33,7.62,.24c3.73,.12,7.26,.19,11,.08-.49-.47-.93-.37-1.64-.46v-2.1c4.11,.1,5.45-.67,9.64-.12,1.47,.19,2.87,.31,4.25-.12l-6.74-.68c-3.22-.33-3.8,.73-8.57,.31-5.41-.47-7.55-.29-12.82-.19l1.45-1.73c4.01-.1,8.06,.06,12.08-.32-4.07-.77-7.83-.15-11.73-.3,.21-.55,.7-1.19,1.08-1.22l.6,.64c.14,.15,.67-.27,.92-.27l7.67,.1c.25,0,.85,.27,1.06,.29,.26,.03,.44-.52,.65-.79l1.77-2.39c3.67,.6,3.81-.36,5.2-.28,3.01,.17,5.23-.03,8.25-.46-1.2-.84-2.57-.43-3.86-.23-1.95,.31-3.77,.3-5.69,.29l-3.28-.03,1.69-2.42,6,.11h1.9s6.26-.1,6.26-.1l5.09-.05,2.86-.1,6.82-.15,8.19-.11,11.46-.13,17.31-.04h3.39s6.48,.05,6.48,.05l3.09,.27,4.2,.05c2.71,.03,5.33,.04,8.02-.1,2.34-.12,4.59-.01,6.94,.05l13.52,.37,14.31-.13,4.81-.07,1.67,2.65-3.91,.22-10.88,.68c1.19,.54,2.37,.34,3.54,.33,3.25-.02,6.35-.17,9.59-.59,.61-.08,1.44-.07,1.98-.06l1.37,2.73c-4.08-.11-4.86,.45-9.19,.45-.13,0-.38,.04-.47,.05-.09,.01,.21,.33,.33,.33l4.07,.05c2.05,.03,3.7-.5,5.65-.47l1.9,2.4-.98,.56c1.36,.24,2.52,.22,3.9,.22l9.7-.02,2.45,2.69h-2.99c-1.34,0-2.81-.78-4.13,.45l7.85,.16,3.21,3.48-3.36,.11c-2.45,.08-4.81,.11-7.2,.43,1.39,.9,2.73,.13,4.05,.15l7.16,.11,2.88,3.47-5.87-.09-3.54-.08-18.25,.1-4.8,.17c-2.44,.09-4.87,.08-7.32,0l-5.24-.17c-7.94-.26-13.29,.41-20.79,.31l-11.11-.15c-3.05-.04-6.02-.22-9.09-.08l-2.3,.1-4.51,.25c-1.52,.08-2.99,.06-4.49,.04l-5.1-.08-5.17-.07-7.18-.15-20.92-.08-16.07,.1h-9.68s-4.75-.09-4.75-.09l-3.34-.13c-4.1-.15-8.04-.3-12.11,.02-2.12,.17-4.13,.29-6.2,.33h0Zm.59,2.37c-.18-.92,.77-.89,1.36-.97l.5-.06c.2-.03,.34,.99-1.85,1.04h0Zm.35,51.53l-.05-2.25c.05-.3,.94-.11,1.13,.16l1.05-.29c.11,1.22-.77,2.28-2.14,2.38Zm2.46,15.64l.12,3.2-1.43,1.39c-.82-2.29-.58-2.7,1.31-4.6h0Zm-1.61,23.5l1.75-1.82,.12,3.51-1.78,1.65c-.09-1.06-.13-2.16-.09-3.34h0Zm1.83,2.36l.1,4.47-1.73,1.65c-.31-1.74-.26-5.33,1.63-6.12h0Zm-.96,14.76c-.01-.39,.61-.94,1.04-1.2l.02,2.98c-.63-.44-1.03-1.02-1.06-1.78h0Zm1.03-1.62l-1.41,.86c-.86-4.56,.35-2.37,.59-4.67l-.83,.4-.15-2.66,1.72-1.95c.12,1.61,.19,2.39-.18,3.7-.03,.11,.38,.33,.38,.45l-.11,3.86Zm.07-63.98c-.08-.14-.03-.64,.09-.76,.26-.28,.85-.3,1.44-.18l-.87,.95c-.11,.12-.58,.13-.65,0Zm1.78,59.93l-.05-2.96,.95-1.49-.91,.75c.08-1.92-.43-2.76,.66-4.27l-.68,.04c.06-4.26-.66-2.14,1.53-5.37l-1.56,1.28-.03-3.57,.54-1.1-.54-.03-.05-7.91c0-.87-.47-1.98-.06-2.79,.37-.73,.63-1.28,.83-2.08l-.97,.97-.07-12.43c.95-.15,1.88-.19,2.94-.13l.15,13.03,.24,9.53,.05-21.29-.07-1.28,1.76,.17-.1,12.05c-.01,1.84-.05,3.59-.02,5.45l.22,15.61,.18,5.78,.19,4.24-2.26-.03c-.07,0-.19-.35-.26-.33l-.47,.1-.53,.11c-.13,.03-.21-.17-.38-.41l-1,.46c-.28-.9-.12-1.61,.5-2.4l-.7,.3h0Zm.29,7.89l1.59-2.62-1.63,1.26c.26-1.17,1.24-.89,1.61-2.18l-1.69,1.27-.04-2.11h5.07l-1.04,1.54,.89-.54c.3,.56,.09,1.26-.33,1.48,.36,.31,.51,.63,.54,1.09,.09,1.33-3.88,.88-4.96,.8h0Zm6.47-45.06c.45,.79,.14,1.69-.61,2.24-.22-.81-.07-1.62,.61-2.24Zm-.64-2.04l.07-1.55c0-.13,.31-.37,.42-.46,.11-.09,.46,.48,.41,.64-.17,.51-.54,1.04-.89,1.37h0Zm.76,4.52c.28,1.05-.16,1.86-.83,2.46-.24-.99,.11-1.85,.83-2.46Zm-.03,2.55c.42,.9,.2,1.92-.82,2.69-.25-.94,.15-1.78,.82-2.69Zm0,3c.42,1.02,0,2.08-.84,2.93-.39-1.19,0-1.99,.84-2.93Zm.2,2.85c.1,1.6-.72,1.22-.77,2.46l.78-.55c.07,.33,.12,1.14-.09,1.44l-.96,1.35-.1-2.41c-.04-.93,.08-1.77,1.14-2.29h0Zm-.95,5.23l.9-.84c.45,1.14-.23,2.04-.97,2.68-.06-.53-.25-1.54,.07-1.84Zm-.16,2.24l1.15-.64,.16,4.02-.89,.44,.83,.09,.09,7.56c.01,.92-.22,1.61-.97,2.1-.27-3.14-.27-6.16-.32-9.34l-.07-4.24h0Zm.65,17.02c.02,.19-1.03-2.88,.66-3.55,.11,1.28,.27,2.46-.01,3.65-.12,.5-.06,.69,.01,1.17l.43,2.66c-.18,.03-.76,.09-1.13,.12-.49-1.44,.16-2.84,.03-4.05Zm9.92,10.6l2.55-.35,3.09-.02,2.07,.38h-7.71Zm22.69-.23l-6.27-.02,.18-.78-1.49,.65-3.42-.1,.46-.86-1.72,.88c-3.85-.43-9.62-.52-13.39-.18-1.89,.17-3.64,.19-5.62,.15,.08-.92,.46-1.31,.98-1.97l-1.06,.45,.12-1.43,11.89,.02h7.57s12.48,.09,12.48,.09c.36,2.42,.18,1.62-.73,3.1h0Zm-7.63-4.26l-10.67-.1-13.63-.13-.2-.76c-.03-.13,.51,0,.66,0l16.72-.32,5.03-.13c3.63-.1,7.15-.08,10.65,.12l-1.02,.53c.68,.6,1.06-.25,1.38,.7l-8.93,.09Zm-23.09-35.64l.29,3.98,.28,13.19,.14,12.77c-.13-.63-.3-1.44-.32-2.1l-.13-5.03-.17-12.54c-.05-3.52-.33-6.87-.09-10.26h0Zm-.06-11.1l16.43-.24c5.07-.08,9.98,.05,15,.41,.13,0,.61-.11,.59,.01l-.08,.65c-.33-.25-.79-.33-1.24-.32-1.58,.05-4.16-.15-4.69,.36-.25-.18-.72-.37-1.19-.37l-10.77,.11c-.52,0-1.11,.2-1.42,.33-1.43-.57-1.58-.23-3.95-.19l-3.36,.05-4.1,.06-.8,.04c-.22,0-.43-.54-.42-.9h0Zm1.13,44.58c.29-.76,1.16-.34,1.81-.35,3.29-.07,6.36-.25,9.7,.14-3.77,.43-7.51,.12-11.51,.21h0Zm18.67-.28c3.52-.34,8.34-.66,12.13-.1-3.95,.29-8.05,.17-12.13,.1Zm12.36-7.2l-.12,6.38-8.68,.05-9.93,.09,.75-1.28c-.58,.39-.93,.75-1.4,1.29l-9.24,.06,2.67-3.56c-1.3,.99-2.18,2.22-3.22,3.51l-1.7,.1c-.42-3.95,.86-2.69,1.79-5.51l-1.72,1.9c-.09-.58-.37-1.78-.07-2.2l4.11-5.86c-1.66,1.53-2.82,3.23-4.16,4.99l-.11-5.56,2.01-3.09c-.81,.66-1.24,1.33-2.01,2.2l-.1-11.02c.36-.52,.59-.88,.89-1.46l-.98,.79-.37-7.52c-.14-2.82-.12-5.48-.06-8.42l.66,1,1.69-.71-.07,.88c.82-.44,1.32-.69,2.01-.9l.08,.78c.99-.51,1.68-.72,2.6-.71l-.37,.74c1.26-.71,2.26-1.03,3.48-.76l-.05,.59c.96-.49,1.77-.86,2.81-.7-1.55,2-3.7,3.16-5.06,5.33,1.81-.86,5.63-5.49,6.96-5.5l3.84-.04c-1.33,1.57-3.08,2.28-3.96,4.21l4.6-4.2c1.94-.11,3.52-.02,5.55,.03l3.43,.08-3.75,3.76c-.65,.66-1.16,1.25-1.55,2.23,.74-.09,1.07-.3,1.46-.65l5.69-5.18c.24-.22,.68-.26,1.1-.11l-1.89,1.83c-1.71,1.66-3.46,3.24-5.07,5.11,1.81-.69,2.71-2.27,4-3.46l2.78-2.58c.47,.66,.24,1.38-.3,1.91-1.75,1.73-3.51,3.31-5.14,5.26,1.11-.3,1.62-1.25,2.39-1.94,1.04-.93,1.92-1.87,3.01-3.04,1.68,2.27-3.32,4.14-4.1,6.59l4.31-4.12,.23,1.77-3.23,3.4s-.17,.23-.19,.27c-.03,.05,0,.2,.06,.19,.09,0,.42-.11,.51-.19l2.6-2.7c1.34,2.25-1.49,3.18-2.05,4.9,1.05-.51,1.44-1.28,2.36-2.06l.15,5.66,.05,7.27,.09,3.56c.06,2.14,0,4.18-.04,6.33h0Zm2.79,13.63c-.22,.2-.76,.31-.97,.22-.22-.09-.36-.62-.33-.91,.11-.98-.11-1.84-.11-2.73l-.08-7.75,.02-10.14-.11-16.12-.17-6.18-.12-3.91,1.44-.2,.16,12.58,.1,5.65,.11,13.28,.11,8.22-.04,7.99h0Zm-.84-49.94l-.45-.04c-.11-.01-.37,.31-.4,.21l-.13-.45c-.03-.1,.35-.26,.46-.24l.78,.13c.71,.12-.38,1.66-1.18,2.25l-.03-.9c-.02-.56,1.8-.87,.95-.95h0Zm1.34,6.99l11.3,.02,5.26,.06,.3,1.29c-1.73,.17-3.5,.3-5.37,.32l-11.48,.08c-.06-.6-.08-1.11-.03-1.76h0Zm16.49-6.81c-.64-.55-1.41-.27-3.19-.3l-4.05-.06c-.41,0-.87,.35-.99,.64-.51-1.07-1.58-.41-2.35-.45-.95-.06-3.47-.21-4.57,.21-.33-.12-.8-.46-1.18-.88l9.68,.06h6.68c.07,.15,.02,.79-.03,.78h0Zm.04,5.6l-15.27,.08c-.17-1.81-.38-2.1,.75-3.17,.53-.5,1.3-.36,1.85-.05,.8-.16,1.6-.2,2.45-.24l3.85-.18,2.66,.1c.79,.03,1.68-.14,2.48-.05l1.22,.14,.02,3.37h0Zm-7.14,43.91l.4-.52c-.74,.21-1.57,.68-2.21,.66l-4.42-.15,1.02-1.05c-.51,.09-1.24,.1-1.56,.26l-1.81,.91c-.74-3.02,.44-1.79,1.04-3.53l-1.19,.76-.16-7.09-.26-20.62-.17-9.04,10.28-.23,5.54-.13-.18,.79,1.2-.91,.25,10.22,.09,10.19c-.33-.63-.69-1.09-1.38-1.47l-.11-6.68-.18-3.2c-.11-2.06-.14-4.07-.07-6.05l-.56-1.2c-.09,.19-.49,.6-.75,.59l-6.23-.06-5.54-.13c-.26,0-.77,.14-.93,.32-.2,.22-.05,.75-.01,1.14,.3,2.74-.08,3.46,.09,5.66,.13,1.69,.22,3.35,.23,5.08l.03,21.45,11.19,.06,3.77-.08c.72-.54-.22-1.21-.69-1.58l-.21-6.45c-.06-1.77-.05-3.51-.01-5.2,.6-.39,1.06-.9,1.37-1.59l.08,5.83,.02,8.37,.06,4.72c-3.1-.21-5.03,.06-8.04-.05h0Zm-6.39-25.1c1.77-1.94,3.82-3.52,5.36-5.48-2.27,1.2-3.52,3.21-5.21,4.92-1.92-1.16,5.2-5.82,5.99-7.58-1.73,.71-2.86,2.21-4.16,3.42l-2.02,1.88c-.18-.37-.12-.89,.16-1.17l3.16-3.14c.98-.98,2.31-1.64,2.82-3.03-2.15,.87-5.26,5.34-6.57,5.41,1.92-2.48,4.11-4.39,6.31-6.33,.68-.6,1.75,.06,2.43,.06h3.08s-.01,1.7-.01,1.7c-1.94,1.99-3.85,3.76-5.64,6.08,2.16-1.42,3.56-3.5,5.63-5.38l.19,5.49c.08,2.42,.16,5.05,.08,7.41-.78,.49-1.41,1.08-1.42,1.88-.02,.92,.62,1.42,1.57,1.68l.11,11.91-11.7,.05-.12-9.79c.15-3.32,.19-6.46-.04-9.97h0Zm1.24-9.76l-1.4,1.54c-.51-.53,2.47-3.73,3.13-2.99l-1.73,1.44h0Zm2.65-1.36c.23-.23,1-.19,1.22-.1l-5.18,4.91c-.24-.29,.05-.78,.39-1.13l3.57-3.68Zm7.66,17.17c0-.39,.32-.71,.71-.71s.71,.32,.71,.71-.32,.71-.71,.71-.71-.32-.71-.71Zm5.49,19.47c0,.25-.5,.45-.77,.43-.3-.02-.57-.49-.56-.89l.08-6.33-.19-15.22-.22-5.88-.11-7.23-.27-5.92c-.05-1.01-.14-1.91-.13-2.97v-3.29c0-.15,.19-.5,.27-.61,.88-1.23,.39,4.3,.85,6.42,.13,.6,.35,1.02,.37,1.56l.09,4.31,.1,4.38,.11,3.76,.28,7.26,.13,14.07-.04,6.14h0Zm5.04-48.13l3.55,.03-1.28,1.56c.72-.43,1.21-.96,1.87-1.46,.8-.29,2.04-.11,3.01-.06l.06,3.21h-2.43s1.55-1.97,1.55-1.97c-1.21,.31-1.36,1.32-2.23,2.04h-2.95s.66-1.35,.66-1.35l-1.3,1.44-5.57,.04-.07-2.92c0-.14,.25-.46,.37-.46,.15,0,.21,.23,.37,.53l.92-.56,2.41,.04-.88,1.12,1.94-1.22h0Zm7.31,4.94c.12,.1-.32,.54-.47,.47l-.64-.3c-.11-.05-.22,.1-.49,.31l-10.9,.21c-.21,0-.24-.82-.04-.86l5.39-.18c1.28-.04,6.55-.17,7.14,.34Zm-10.6-7.3c-.7-.09-1.6,.77-2.2-.28l4.1-.09c-.58,.68-1.23,.45-1.9,.36Zm-1.13,9.26l1.51,.1-1.42,1.39-.09-1.49h0Zm.22,5.72l3.58-4.24c-1.3,1.14-2.38,2.33-3.63,3.73l-.05-3.14c1.96-2.15,1.82-2.35,4.76-2.06l-.89,1.21c.85-.87,1.46-1.48,2.74-1.36l1.48,.14c.88,.08,1.74-.47,2.65,.14-.33,1.11-3.72,3.94-2.92,4.22l3.34-3.76,.11,7.24c-.52,.72-.93,1.27-1.34,2.12l1.27-1.19v8.34c-.62,.87-1.31,1.49-1.75,2.56l1.66-1.69,.16,2.9c.1,1.9,.08,3.72-.11,5.64-.11,1.12,.34,2.49-.13,3.48l-.89,1.88,1.03-.86c.1,.23,.2,4.09-.37,3.61l.58,.48-9.12-.08c1.26-1.37,2.33-2.29,3.24-3.84-1.16,.89-2.14,2.04-3.07,3.37-.33,.47-1.07,.57-1.76,.3l.02-4.1,3.84-4.69c-1.7,1.04-2.38,2.64-3.84,3.99l-.03-5.44c1.62-2.29,3.76-3.89,5.26-6.34l-5.27,5.65-.42-9.17-.13-9.03h0Zm56.61,38.13l-2.35-.31c1.43-.11,2.79-.11,4.36,.08-.67,.37-1.37,.32-2.01,.24Zm6.15,.14l-.73-.39c2.01,0,3.02-.58,5.35-.25,.63,.31,1,.43,1.9,.74-2.09,.09-4.28,.05-6.52-.1h0Zm8.94-.54c-.02-.06-.21,.08-.2,.14l.04,.36c-.58-.37-.97-.47-1.97-.65l5.19-.11c.36,0,.78,.07,.86,.54-1.04,.17-3.6,.7-3.91-.28h0Zm13.92,.41c-.11,0-.38-.04-.45-.05-.07,0,.34-.33,.4-.33l5.62-.05c.46,0,.8,.17,.98,.54l-6.56-.12h0Zm1.22-2.07c-.67-.05-1.6,.19-2.26,.1-.84-.12-1.71-.39-2.52-.25-2.23,.39-4.27,.22-6.49,.02-3.77-.35-9.46,.43-11.84,.2-.59-.06-1.3-.29-1.92-.26l-7.32,.35-11.6,.08c-.48-.32-.99-.38-1.72-.19-1.59,.41-3.39,.13-5.05,.06l-6.04-.26c-2.23-.09-4.41-.27-6.6-.02-2.8,.31-5.52,.23-8.31-.1-2.34-.27-4.59-.13-7.02-.04l1.3-1.56-2.34,1.7-3.17-.14c-.52-1.29-1,.43-2.71-.29l.97-1.04-1.87,.69,.07-2.09,5.21,.07c.41,0,.76,.06,1.19,.01,2.9-.3,5.71,.09,8.64,.25l5.64,.31c2.11,.12,5.39-.11,8.16-.04,5.72,.14,11.28,.29,16.96,.07l4.47-.17,3.91-.12,13.75-.22,4.43-.12,7.72-.19,7.81-.16,5.47-.06,.07,3.32c-4.15-.29-1.89,.46-7.01,.07h0Zm8.24-.18l-.12-3.9-1.89-.5c-.1-.02-.29-.33-.32-.42-.05-.15-.36,.6-.6,.61l-13.14,.21-15.43,.28-6.35,.13-7.81,.17-9.51,.28-11.28-.23h-7.43c-3.3-.01-4.27-.42-7.18-.48l-6.63-.14-6.34-.05c-.16,0-.66-.08-.66-.23l-.03-.6c0-.15,.56-.23,.71-.23l13.83,.27,17.48,.21h12.73s4.71-.12,4.71-.12l20.71-.32,3.57-.09,9.64-.32,9.9-.11c-.05,.41-.15,.93,.04,.94l.96,.04c.22,.01-.03-.68,.32-.97,.4,1.87,.35,3.72,.14,5.56h0Zm-80.81-6.26l-1.24,.05-.16-3.74-.08-17.67v-8.79l-.04-11.85,1.53-.15v19.02l-.05,2.2,.04,20.94h0Zm-1.52-42.5l.14-1.52,1.5-.21c-.19,.91-.8,1.37-1.64,1.73Zm39.17,.48c1.26-.06,2.63-.21,4.03-.18l2.97,.05h3.13s.05,5.8,.05,5.8l-4.89,.12-9.03,.11-7.41,.08c-.27-.86-.28-1.6-.26-2.48l.05-2.73c0-.21,.44-.61,.64-.58,.19,.04,.25,.18,.56,.63,.93-1.18,2.08-.31,2.81-.37,.89-.07,2.04-.84,2.78,.17,.56-.64,1.24-.4,1.75-.5,.91-.17,1.94-.08,2.85-.12h0Zm-2.08-2.47c0-.09,.49-.5,.68-.5l2.33,.05-1.1,.43-1.91,.02h0Zm6.76-.52l4.8-.11c.06,0,.44,.06,.44,.12l-.05,.47-2.11,.31-.29-.5c-.19-.33-2.13,1.25-2.76-.23-.96,.59-1.92,.48-3.31,.45,.92-.51,2.03-.68,3.3-.45,0-.02-.01-.03-.02-.05h0Zm-7.27,18.51l.16,1.35-1.43-.09c.15-.56,.16-1.31-.28-1.34-.43-.03-.35,.78-.25,1.33l-2.18,.14,.13-1.83-2.71-.04c.4,.92,.44,1.23,.25,2.25l6.82-.08,.03-1.61c.08-.17,.8-.18,.85-.02l-.02,4.48h-9.16s-.04-8.6-.04-8.6l9.18,.05,.04,3.53-2.85,.04c.45,.69,.77,.38,1.46,.44h0Zm-4.24,.07l-.04,1.3-1.59-.04,.04-1.3,1.59,.04Zm5.66,7.53l.08,8.47-9.21,.09-.08-8.47,9.21-.09h0Zm-5.87,9.67c.96-.16,2-.65,2.89,.15l-6.07,.06c-.18,0-.68,.31-.68,.18,0-.16,.02-.56,.02-.47l3.84,.08h0Zm-2.59,5.44c-.12-1.43-.35-2.88,.36-4.35,0,1.69-.07,2.57-.36,4.35Zm-1.06,.43c.71,.78,.11,1.73,.37,2.48,.11,.31,.84,.72,1.17,.71l3.18-.12,2.91-.29,.39-.04c.12-.01-.04-.59-.19-.6-1.74-.13-4.06-.17-5.98-.17-.02-1.49,.1-2.9,.25-4.44,1.21-.12,2.31-.22,3.49-.16l3.94,.21-.03,4.54c0,.28,.29,.84,.53,.82,.24-.02,.73-.54,.73-.78l.04-6.99c0-.21-.08-.64-.25-.69l-.82-.26c.85-.13,1.15-.89,1.09-1.79,.09-.42,.11-.48,.06-.02l.26,1.27c.06,.3,.67,.39,1.12,.59l-1.25,.07-.04,7.57c0,.34,.19,.79,.38,.98,.19,.19,1.1,.12,1.12-.17,.12-1.6,.01-3.43-.16-5-.07-.68,.17-1.19,.75-1.38l.48,1.11,5.18,.14c.32,0,1.21-.03,1.06-.3l-.67-1.19c.41,.04,.92,.19,1.22,.41,.29,1.61,.36,3.41,.22,5.07-2.26-.04-5.2,0-7.28,.29-.2,.03-.26,.65-.13,.69,.12,.04,.46,.22,.59,.21l6.22-.13c.51-.01,1.01-.02,.88,.67l-15.45,.14c-1.04,0-2.02-.14-3-.04l-2.51,.24,.14-3.63h0Zm12.02-6.91l.05-8.59,8.43,.05-.05,8.58-8.43-.05Zm7.42,1.02v.21h-6.37v-.21h6.37Zm-7.52-12.68v-8.6s8.51,0,8.51,0v8.6s-8.51,0-8.51,0Zm-5.53-22.56c-.9,.08-1.77,.36-2.55-.19-.91,.51-1.97,.7-2.93,.16-.8,.41-1.69,.54-2.18-.26-.82,.49-1.61,.75-2.35,.14l-1.42,.33c-1.13-1.25-2.27,.83-2.82-.58l3.21-.03,13.16-.06c-.65,.45-1.36,.43-2.11,.5Zm-7.94,44.75l-1.45,.05-.12-8.13-.09-33.89c.52,.11,.76,.13,1.42,.07l.18,3.08c.04,.62,.03,1.09,.03,1.89l.03,36.93h0Zm-5.81-42.24c.4,.03,1.24-.17,1.64,.01,.32,.15,.71,.31,1.5,.16l.02,5.73-5.62,.16c-4.36,.12-8.69,.15-13.01-.02-.69-.03-1.49,.14-2.22,.04l1.55-2.05c-.78,.36-1.11,.72-1.93,1.3-.09-1.43,.99-1.54,1.2-2.66l-1.25,.92,.03-3.54c.44,.21,.87,.46,1.05,.33,.56-.41,1.53,.15,2.02,.07,.71-.12,1.65-.13,2.42-.13h2.2c3.08,.03,2.7-.24,5.47-.27l2.53-.03c.77,0,1.54-.08,2.4-.03h0Zm-7.95,37.72l.28,4.09c.05,.12,.29,.46,.18,.49l-.44,.13c-.11,.03-.26-.36-.26-.48l.02-2.47c0-.65-.39-1.26,.21-1.76h0Zm-.61-5.4l-.03-5.88c0-.66-.43-1.37,0-1.93,.35,1.88,.13,3.63,.28,5.45,.18,2.26-.17,1.78,.57,3.26-.92,.97,.39,3.66-.55,4.41-.09-1.2-.08-2.36-.23-3.55-.08-.61-.05-1.1-.06-1.76Zm-.87-21.49c.15,0,.74-.35,.73-.19-.01,.16-.06,.62-.06,.84l-.07,7.82c-.47-2.89-.37-4.94-.37-7.9-.1-.2-.39-.57-.23-.57Zm.37-4.03c.28-1.76,.61,2.54,.29,2.4-.38-.2-.34-2.1-.29-2.4Zm1.56,13.34l-.12-8,2.31-.18c2.51-.19,4.81-.35,7.4-.17l.12,8.01-9.72,.34h0Zm7.05-12.24l.7,.07c.15,.01,.15-.55,.19-.9l.78,.63-1.25,1.02-.43-.81h0Zm1.1,13.19l-1.27,.2c-1.26,.2-2.54,.38-3.81-.21h5.08Zm1.53,2.42l-.08,8.3-9.06,.3-.32-8.56,9.46-.04h0Zm-8.51,11.13c.43,.59,.4,.89,.35,1.73l1.44,.15c1.95,.2-.03,.52,2.94,.88,.62,.07,1,.15,1.35,.58l3.02-2.09,.11,5.9-5.5,.11-.87-.29-3,.02-.08-4.9c0-.73,.05-1.35,.24-2.08h0Zm-4.03-22.44l.12,7.9-7.3,.05-.12-8.15c2.46-.14,4.79-.14,7.3,.21Zm-5.33-5.16l1.2-.11c.08,1.39,.11,2.49,0,3.89l-.23-2.26c-.08-.81-.27-1.13-.96-1.53Zm3.84,1.35l-.27-1.28-.77,1.99-.09-2.22,1.27,.22-.14,1.28h0Zm.61,1.11v.83c0,.19,.33,.33,.69,.52h-1.64c.29-.48,.59-.91,.95-1.35h0Zm-6.05,12.57l7.65,.13-8.52,.09c.07-.14,.21-.44,.31-.41l.55,.19Zm4.12,1.6l3.13-.08,.25,3.32-.02,5.3c-2.63-.19-4.96-.26-7.63,.09l-.16-8.64h4.43s0,.01,0,.01Zm-4.32,17.24l.37,.96c.17,.44,3.32-.02,4.53,.44-.22,.06-4.97,.28-4.95-.32l.04-1.08Zm3.72,.35l1.25-.44-.62-.19c-.11-.03-.27-.34-.32-.47l-.81,.49,.27,.6-2.09-.11-.1-4.25,5.56,.03,1.04-.36,.09,4.92c-1.54,.06-2.88,.01-4.27-.22h0Zm7.53-43.66c-.64,.07-1.53-.33-2.24,.13-.8-.27-1.45-.26-2.22-.03l-1.58,.04-1.82-.1c-.89-.05-1.72,.04-2.56-.03-.63-.05-1.46,.57-1.77-.53l13.9,.03c.36,0,.94,.12,1.22,.19l-2.93,.3h0Zm35.7,2.32c.23-.03,.8-.1,.85-.1l.14,3.63,.09,5.38,.12,18.67,.08,14.28-1.29,.13-.02-8.54-.12-9.51-.1-22.89c0-.33,0-1.01,.24-1.05h0Zm7.46-.01c.99,0,2.01-.11,2.99,.11,1.38-.25,3.38-.35,4.58,.08,1.21-.13,2.68-.46,3.86,.21,.93-.41,2.01-.47,2.99-.03,1.14-.34,2.38-.27,3.53-.05l1.31-.15-.03,5.62-5.79-.02-18.83,.12-.11-5.67c1.02-.44,2.11-.23,3.14-.23h2.36s0,.01,0,.01Zm-.33-2.92l20.05,.15c.02,.23-.23,.78-.47,.8-.27,.02-.69-.18-1.07-.33-.4-.17-1.21,.18-1.78,.29-.76,.15-1.91-.33-2.63-.12-.89,.25-1.73,.38-2.47-.35-2.05,.05-.83,.99-3.31,.12-2.55,.55-1.77-.11-4.55,.17l-.5-.47c-.44-.41-2.63,1.5-3.27-.25h0Zm18.92,44.73l-.75-.29c.29-.19,.55-.66,.55-1.11l.04-5.73c0-.36-.39-.99-.61-1.21l.92-1.42c.22,3.63-.26,6.11-.15,9.76Zm.05-14.82l-.07-3.99c0-.2-.13-.59-.25-.71-.12-.12-.42-.12-1.14-.22,1.04-.3,1.44-1.29,1.44-2.4v-7.34c.01-.52-.15-1.19-.29-1.62l.29-.79c.08-.21-.5-.36-.85-.53l.83-.36c0-.47-.02-.84,.38-1.05l.05,18.52c0,.14-.33,.47-.39,.48h0Zm-7.57,14.76l-3.1,.11c.11-.34,.34-.87,.33-1.16l-.07-4.27,1.84-.96,.03,2.38c1.83-2.18,2.38-1.49,5.82-1.32,.14,0,.45,.29,.57,.24l.7-.3-.11,3.99c-3.55-.32-4.53-.15-8.01,.51,.47,.63,1.08,.49,2.01,.79h0Zm-3.17-9.42l-.06-8.85,9.46-.07,.06,8.85-9.46,.07Zm-1.11,6.81c.29,3.92-.49,2.71-.45,2.41,.15-1.13,.15-2.99,.15-4.18,0-1.01,.24-3.48-.52-3.65-.11-.03,.4-.35,.41-.47,.38-2.92-.13-3.01,.02-5.41,.04-.59-.47-1.5,.27-1.88l.09,6.95c0,.1,.49,.5,.58,.46,.09-.04-.54,.31-.54,.41-.12,1.35-.13,3.84-.01,5.37h0Zm-.27-16.65l-1.71-.46,1.16-.15,.22-2,.53,1.81c.05,.17,.64,.31,.82,.37l-1.02,.43h0Zm-9.53,18.36c.24-2.21-.2-3.06-.01-4.87h4.82l3.35-.17,.03,5.97-5.4,.05c1.1-.64,2.23,.19,3.46-.75l-6.24-.24h0Zm-.97-8.27l-.03-9.03,9.23-.03,.03,9.03-9.23,.03Zm8.63-10.59l-1.76,.29c-.74,.12-6.91,.07-7.96-.33l9.72,.04Zm-8.74-10.29c4.09-.64,5.27,.54,8.73,.06l.13,8.41h-8.7s-.15-8.48-.15-8.48Zm11.59,4.25c-.01-1.18,.07-2.5,.13-3.64,.81-.05,1.39-.09,2.27-.24l-1.76-.3c3.01-.39,6-.38,9.24-.27l-.08,8.43-6.04,.24c-1.2,.05-2.24,.07-3.71,.08l-.04-4.3h0Zm9.04,6.09l-3.89,.18c-.58,.03-1.09,.03-1.57,.01l-3.36-.2h8.81Zm-19.79-24.78c-.62,.22-1.18,.39-1.7,.42l-.49,.03c-.12,0-.15-.66,.01-.66h4.79c-.63,.87-1.97,.96-2.61,.21h0Zm24.32,23.76c-.37,.66,.27,1.03,.29,1.38,.22,3.08,.29,6.09,.11,9.19l-.21,3.75-.19,3.35c-.06,.99,0,1.8,.26,2.79l-1.4,.06-.04-8.11,.26-23.54,.35-9.86,.47,11.96,.28,5.07c.04,.8-.02,1.57-.13,2.32-.06,.42,.17,1.26-.05,1.64h0Zm3.32,3.86l-.15,5.34,.05,4.36,.2,6.66c-.19,.17-.89,.18-1.22,.09l-.1-4.54-.32-19.4-.12-2.75-.17-5.43c-.07-2.22-.18-4.36-.11-6.57l.16-5.24,.33,.41c.05,.06,.14,.41,.19,.35l.32-.41,.26-.34c.06-.07,.35,.3,.35,.44l-.06,5.53c-.03,2.33-.13,4.53-.02,6.87l.15,3.15,.28,4.5c.09,1.44,.21,2.61-.05,4.09-.15,.85,.07,1.98,.04,2.89h0Zm-6.03-29.03l-36.92-.1-39.87,.07-39.96-.05c-1.49-.12-2.77-.21-4.21-.21h-10.42s-10.17,.18-10.17,.18l-12.71,.11-.06-2.79,1.01-1.4-.97,.25,.07-3.77,.08-2.74c-.21-.23-.59-.69-.6-.98-.01-.38,.33-.95,.63-1.19l1.52-1.26,.52-.86,4.64-.05,3.03-.02,5.19,.03,13.8-.04,33.75-.43,5.14-.23c11.78-.53,23.5-.25,35.38,.03,4.34,.1,8.37,.27,12.63,.05,3.55-.18,6.99,.06,10.56,.36,.75,.06,1.58,.17,2.3,.17l12.63-.1,20.97-.07,4.53,.16c.61,4.68,.96,9.38,1.09,14.24-1.29,.43-2.56,.68-3.93,.68h-9.65s0,0,0,0Zm8.99,2.52c-.66,1.22-1.03,1.68-1.89,2.6l-.13-2.41c.83-.11,1.18-.17,2.02-.19Zm2.04,50.38l-3.57-.02,.03-1.79-.03-5.16,.99-1.94-1.03,.45-.12-5.38c-.02-1.06-.06-2.07-.05-3.15l.05-4.32c.01-1.17,.1-2.17,0-3.34-.12-1.3-.05-2.67,.04-4.02l.82-1.64-.79,.52-.2-3.52c-.12-2.23-.24-4.43-.18-6.67,.99-.92,2.09-1.94,2.51-3.17-1.41,.41-1.51,1.71-2.54,2.51l.06-6.08,1.96-2.95c.36-.54,.77-.97,1.5-.82l-.05,1.28c-.82,.89-1.83,1.6-2.14,2.79l2.16-2.03,.21,9.05,.05,3.78c0,.53-.06,1.02,.03,1.52,.35,1.88-.1,3.7-.08,5.57,.02,1.22,.51,2.45,.19,3.72-.18,.73-.07,1.46-.05,2.21l.15,6.84,.07,6.67c0,.81,.14,1.7,.07,2.5-.06,.63-.39,1.53-.22,2.09,.47,1.57,.54,2.91,.17,4.45h0Zm.87-51.57l1.53-.07c.23,1.81,.27,3.29,.28,5.4l-1.79,.12-.02-5.45Zm.12,12.28c-.03-1.68-.13-3.33-.05-5.04,.13-.45,1.65-.46,1.72,0,.15,.9,.15,1.97,.08,2.85l-.81,1.38,.82-.22v4.38c-.46,.18-1.09,.26-1.68,.2l-.07-3.54h0Zm1.56,38.55c-1.46,.32-1.19-5.47-1.18-6.36,0-.78-.14-1.73-.06-2.46,.09-.74,.14-1.23,0-1.96-.29-1.58-.32-3.48,1.27-4.47,.24,2.18,.33,4.06,.23,6.14l-.11,2.37c-.06,1.38,.5,4.28-.17,6.75h0Zm-1.26-14.6l-.14-6.02-.02-4.22-.05-8.59,1.79-.04c-.02,1.26-.12,2.18-.37,3.01,.95,.33-.01,5.11-.12,5.02,.42,.64,.23,1.91,.33,2.98,.2,2.06,.37,1.78-.62,3.61-.05,.09,.33,.03,.54,0,.6,1.45,.33,3.32-1.34,4.24h0Zm2.14-48.56l-.23-2.11,2.7-.05,.02,2.19-2.49-.03Zm2.78,57.89c-.89,2.23,.38-.51,.05,4.37l-.13,1.95-1.44-.04c-.21-1.32-.37-2.66,.18-3.84l.21-.46c.04-.08-.27,0-.5,0-.09-1.16-.05-2.33,.24-3.44-.63-1.05-.35-2.4-.06-3.4-.64-1.25-.58-3.26,.71-4.74l-.96,.62c-.34-1.46-.37-2.93,.58-4.37l-.7,.33c-.19-1.14-.18-2.38,.51-3.4l-.46-.17c-.12-.04-.18-.49-.17-.65l.36-7.34c.08-1.57-.45-2.98,.43-4.51,.03-.05,.02-.27-.04-.25l-.52,.12,.08-3.19,.93-1.6-.99,.83c0-1.2-.22-2.7,.1-4l.86-1.46-.89,.67c-.46-1.74,.06-3.63-.13-5.44-.14-1.35-.69-2.73-.15-4.12,.51-1.3-.91-3.47-.04-5.84l.19-.51c.05-.12-.28-.1-.51-.12l-.15-2.23h1.43s.12,1.14,.12,1.14c.13,1.26,.11,2.44,.13,3.7,.05,2.78,.44,3.77,.38,6.18-.07,2.94,.07,3.6-.03,6.43-.04,1.15,.29,2.48,.12,3.62-.08,.54-.13,.91-.06,1.43,.23,1.68,.08,3.32,.15,5,.05,1.25,.23,2.49,.15,3.77l-.2,3.34,.1,3.55-.05,4.81,.1,4.6,.18,4.23c.04,.85,0,1.57-.15,2.5-.08,.48,.2,1.49,.03,1.92h0Zm3.31,4.85c0,.15-.12,.46-.17,.55-.08,.12-.5-.2-.49-.37l.04-3.64c.4,0,.66,.44,.65,.79l-.03,2.67h0Zm3.46,.55l-2.23-.14c-.34-2.01,.65-3.86-.47-4.75l1.92-.45-4.72-.37,.07-2.91c.02-.81,.11-1.74,.05-2.46-.13-1.63-.12-3.15-.12-4.78,0-1.4-.29-2.81-.07-4.25l6.51-.29c-2.11-.64-4.04-.29-6.42-.22l-.11-1.91,1.94,.08c-.4-1.07-1.14-.71-2.02-.81l.08-7.83,3.1-.08,5.85-.15c-1.3-.57-2.44-.21-3.7-.36-1.66-.21-3.3-.08-5.09,0-.44-1.53-.07-3.15-.08-4.74,0-1.28-.52-2.57-.2-3.91,.18-.77-.02-1.57-.04-2.4l-.11-4.71c-.02-.87-.66-1.47-.01-2.29,.6-.76-.13-2-.19-4.27l-.07-2.7c-.04-1.41-.07-2.65-.26-4.06-.17-1.26,1.4-1.65,1.05-5.42-.06-.62-.99-.86-1.49-.86l-3.37,.03,1.14-1.39c.22-.43,.33-1.75-.04-2.16l-1.42-1.58c-1.33-.09-2.55-.12-3.83,.03-2.17,.26-6.39,.17-8.65,.03-1.28-.08-2.79,.38-4.02,0-2.77-.84-3.28-.03-4.26,0l-8.39,.2c-.27,0-.68-.05-.72-.23-.06-.28,.22-.7,.5-.7h11.93c.83,0,1.18-.57,1.21-1.26l.12-2.73c.02-.46-.15-1.17-.67-1.19l-2.54-.1,.1-2.58c.07-1.79-.15-3.53-.18-5.35l-.13-6.89-.13-2.42,4.42-.24c1.24-.07,2.6-.22,3.86-.05,2.04,.27,3.94,.47,5.88,.1l-3.53-.44c-1.1-.14-2.23-.43-3.38-.34l-7.28,.53c-.16-2.67-.15-5.2,.28-7.65,.62-.05,1.2-.1,1.55-.26,.34-.15,.57-.94,.59-1.35l.13-2.32,.04-1.99,1.56-.04c-.55,.26-1.21,.27-1.32,1.08,1.09-.27,2.05-.84,3.04-.97l2.01-.26c.07,0,.37,.02,.43,.02,.06,0-.07,.1-.17,.19-.52,.22-1.01,.26-1.09,1.06l3.05-1.15c.69-.26,1.79-.11,2.65-.02-.59,.32-1.04,.4-1.49,.96,2.72-.21,2.51-1.44,5.45-1.02-.48,.4-.65,.5-.97,.94,1.83-.25,2.26-1.19,3.98-.86l-.26,.4s.04,.19,.1,.43l1.97-.67c.37-.13,1.07-.16,1.42-.16-.47,.29-.71,.41-.81,.83,2.24-.27,3.12-1.66,4.82-.77l-.58,.28c-.09,.05,.09,.48,.2,.44l3.12-1.1c.6-.21,1.52-.05,2.02,.03-.45,.32-.79,.47-.91,1l3.87-1.28c.19-.06,.71,.15,.85,.24,.13,.09-.23,.49-.35,.66l.26,1.83,.22,1.57c.05,.33,.02,.96,.22,1.13,.2,.17,.7,.33,1,.36l3.04,.35c-.79,.75-3.31-.26-3.9,.66,1.67,.71,1.07-.54,3.94,.14l.08,3.82-.11,3.24h-2.15c-1.03,.02-1.93-.15-2.88,.5l1.57,.35c.29,1.04,.37,2.21,.26,3.43l-6.49,.04c-1.06,0-2.16,.21-3.2,.52,1.02,.89,2.07,.17,3.08,.18l9.56,.02-.02,4.09-7.75-.23c-1.98-.06-3.92-.22-5.84,.57,1.14,.4,2.21,.12,3.34,.07,1.79-.08,3.56-.03,5.32,.04l4.92,.21-.14,2.41-1.11,.52,1.02,.47-.02,2.62-5.45,.09c-1.57,.03-3.1,.13-4.6,.57,.84,.65,1.68,.17,2.55,.14,1.79-.06,3.58-.14,5.32-.03l2.37,.15c-.05,1.06-.16,2.17-.32,3.16l-3.17,.19c-.08,0-.38,.23-.46,.26-.11,.06,.35,.34,.5,.34h3.2s-.12,3.33-.12,3.33l-1.48,.38,1.43,.6c.13,1.11,.41,2.89-.15,3.9-.06,.1,.78,.53,.31,2.55-2.71,.04-6.89-.08-9.57,.66,.86,.6,1.69,.09,2.57,.06,2.43-.09,4.74-.03,7.09,.05,.26,.99,.43,1.71,.29,2.77l-7.2,.02c-1.05,0-2.16,.19-3.28,.48,1.45,.71,2.88,.06,4.32,.11l5.99,.2c-.02,.98-.15,1.8-.37,2.83-1.48,.25-2.71-.15-4.16,.67,1.61,.25,2.83,.16,4.45,.15,.27,3.5-.18,2.82-.43,3.54-.06,.17,.23,.49,.3,.74,.41,1.58,.43,4.42-.01,6.04-.38,1.4,1.22,2.81,.19,6.16-1.97,.01-3.56,.05-5.47,.4,.65,.92,1.48,.3,2.25,.29l3.27-.06v2.95s.02,2.82,.02,2.82c-1.69,.3-3.86-.29-5.32,.48,.78,.41,1.46,.1,2.23,.08l3.12-.05v3.64c.01,.77-.91,1.46-.38,2.37,.81,1.4-.2,3.06-.06,4.38,.12,1.11,.23,2.11,.2,3.16l-.1,3.86-2.81,.18c-1.3,.09-2.53,.05-3.79-.07l-2.92-.26c-1.11-.1-2.2-.08-3.35,.4,.71,.11,1.39,.15,2.15,.13,1.38-.03,2.65,.18,4.01,.28,2.21,.15,4.38,0,6.69,.03l-.09,3.3-3.79,.11c-2.71,.08-5.32,.14-7.91,.67,.48,.35,1.02,.47,1.43,.39,3.46-.63,6.75-.69,10.28-.45l-.02,2.08-2.98,.12-7.83-.03c-1.12,0-2.15,.06-3.29,.39,1.2,.4,2.26,.12,3.51,.12l7.49-.02c.14,0,.54,.13,.65,.2,.14,.1,.19,.45,.21,.7l.09,1.87-5.65,.16c.35,.9,1.01,.5,1.57,.5l6.05-.02,.15,1.64c.1,1.03,.19,1.97,.18,3.08-2.11,.93-6.78,.33-9.14,.18h0Zm9.66-95.31l-.17,3.66h-2.04s-.43-3.5-.43-3.5l2.64-.16h0Zm-.61,87.12l-.09,2.67-1.52,.05-.02-2.74,1.63,.02Zm-.03,10.18l2.72-.45,1.85,.69-4.57-.24h0Z"/>
        <path class="cls-3" d="M38.26,113.68l-.09-2.34h-3.68l-1.99,3.17c-.17,.27-1.17,.07-1.26-.3l3.14-5.14,3.12-4.85c.26-.41,1.47-.43,1.73-.02,.09,1.85,0,3.95,.37,5.71,.12,.59,.22,.62,.04,1.26-.38,1.39,.31,2.34-.46,2.87-.19,.13-.92-.1-.93-.36h0Zm-.04-3.6l-.25-4.26-2.76,4.18,3.02,.08h0Z"/>
        <path class="cls-3" d="M52.3,113.32c0,.35-.48,.72-.79,.67-.96-.14-.03-2.64-.76-5.22-.15-.54-1.19-.66-1.58-.49-.43,.18-1.08,.81-1.09,1.33l-.1,4.12c0,.3-1.18,.36-1.18,.05l-.19-9.43c0-.31,.29-.78,.53-.81,.34-.05,.75,.42,.75,.78l.05,3.38c.87-.42,1.68-.85,2.63-.68,.95,.17,1.68,1.19,1.69,2.14l.05,4.16h0Z"/>
        <path class="cls-3" d="M63.76,110.94c-.19,2.04-1.47,3.31-3.28,3.32-1.76,.01-3.05-1.35-3.27-3.22-.16-1.39,.24-2.73,1.38-3.54,1.02-.72,2.55-.81,3.64,0,1.09,.8,1.66,1.99,1.52,3.44h0Zm-2.23-2.42c-.53-.37-1.37-.46-1.92-.13-.92,.53-1.15,1.54-1.07,2.52,.06,.78,.51,1.68,1.42,2.04,.67,.27,1.55-.08,1.93-.52,1-1.16,.69-3.18-.35-3.9Z"/>
        <path class="cls-3" d="M69.09,109.92c-.01-.72-.39-1.51-.88-1.64-1.28-.34-2.2,.73-2.2,1.92v3.55c0,.35-1.23,.41-1.23,.03l-.02-6.37c.08-.19,.78-.44,.89-.28l.47,.65c.72-.61,1.74-.97,2.68-.7,.88,.25,1.52,1.23,1.53,2.33l.06,4.12c0,.18-.35,.49-.52,.52-.17,.03-.73-.21-.73-.38l-.05-3.75h0Z"/>
        <path class="cls-3" d="M71.95,113.83c-.3-.19-.54-.56-.57-.76-.03-.24,.46-.79,.69-.69,.63,.34,1.64,.9,2.42,.5,.25-.12,.57-.47,.61-.68,.05-.21-.28-.7-.49-.79l-2.07-.89c-.53-.22-1.01-1-1.03-1.5-.02-.56,.36-1.32,.89-1.6,1.18-.62,3.33-.72,3.56,.38,.06,.29-.4,.98-.66,.84-.65-.5-2.04-.93-2.37,.19-.15,.5,.87,1.03,1.44,1.13,1.17,.22,2.46,1.38,1.99,2.65-.62,1.69-2.91,2.16-4.42,1.19h0Z"/>
        <path class="cls-3" d="M41.04,113.62c-.45-.33-.27-1.32,.09-1.26,.93,.45,1.74,1.06,2.76,.54,.22-.11,.56-.5,.58-.72,.07-.81-1.4-1.1-2.72-1.72-.9-.43-1.29-1.68-.65-2.44,.91-1.1,2.58-1.38,3.83-.77,.17,.08,.43,.56,.44,.75,.01,.23-.33,.64-.54,.64-.47-.2-1.09-.45-1.46-.54-.37-.09-1.28,.42-1.17,.79,.23,.75,1.17,.98,1.85,1.13,1.25,.27,2.31,1.59,1.6,2.8-.93,1.59-3.13,1.87-4.62,.78h0Z"/>
        <path class="cls-3" d="M55.31,111.96c0,.36,.13,.84,.3,.87l.8,.14c.23,.04,.42,.08,.54,.11,.12,.03,.03,.58-.05,.69-.3,.42-1.28,.54-1.87,.29-.62-.26-.97-.97-1-1.73l-.12-4.02c-.69-.07-1.1-.2-1.13-.48-.14-1.39,1.23-.1,1.2-1.55,0-.33-.08-.81,.11-.84l.81-.12c.23-.04,.34,.64,.35,.89l.03,.68c.02,.5,1.52-.22,1.61,.7,.03,.34-.27,.67-.64,.65-.25-.01-.94,.12-.95,.31v3.4s.02,0,.02,0Z"/>
        <path class="cls-3" d="M26.92,167.04c-.7,.12-1.4,.68-1.97-.01l3.87-.68c.09,.16,.21,.39,.19,.35l-2.08,.35h0Z"/>
        <path class="cls-3" d="M157.16,137.87c.48-.14,.83-.49,1.34-.41l-.71,.38,2.01,.39c-1.04,.31-5.73,.3-6.24-.03-.4-.26-.31-1.47,.02-1.9l5.6-.07c.17,0,.38,.49,.28,.49l-.59-.02c-.61-.02-5.04-.07-5.04,.16l-.02,1.02c.99,.21,2.25,.36,3.35,.03h0Z"/>
        <path class="cls-3" d="M161.13,137.5c-.57-1.29-.45-2.69-.07-4.18,.22,1.45,.19,2.73,.07,4.18Z"/>
        <path class="cls-3" d="M144.68,136.97c-.86,.09-1.71,.06-2.79,.09l.33,.71c-.04,.1-.66,0-.68-.21l-.08-.93,5.98,.04-2.77,.29Z"/>
        <path class="cls-3" d="M147.81,137.76c-1.65,.15-3.37,.22-5.24-.07,1.67-.08,3.28-.06,5.24,.07Z"/>
        <path class="cls-3" d="M116.95,149.26c-.01,.38,1.96,.69,2.36,.02,.67,.76,3.33-.29,3.94,.63l-6.79,.02c0-.53,.01-1.17,.07-1.84,1.2-.32,2.34-.11,3.56-.06,.51,.02,1.14-.05,1.65,.01l1.91,.23-6.67,.07-.03,.91h0Z"/>
        <path class="cls-3" d="M107.89,149.5c.31-.91-.5-2.16,.01-2.03l.53,.13-.03,2.52h-3.6s-2.88,.05-2.88,.05l.02-2.69,4.5-.06c-.27,.57-.76,.61-1.2,.59l-2.59-.1v1.56s2.18,.07,2.18,.07l3.07-.03h0Z"/>
        <path class="cls-3" d="M131.23,136.71l-2.62-.03-.32-.02c-4.81-.28,7.07-.74,5.26-.37-.69,.4-1.61,.43-2.33,.42Z"/>
        <path class="cls-3" d="M128.19,137.37c2.18,.31,3.02-.31,5.25,.23l-4.72,.07c-.16,0-.54,.11-.63,.14-.09,.04-.04-.33-.02-.48,.01-.19-.05-.53,.13,.03h0Z"/>
        <path class="cls-3" d="M133.48,138.12c-.62,.3-1.24,.28-1.92,.24l-3.15-.19c1.68-.13,3.25-.12,5.07-.05h0Z"/>
        <path class="cls-3" d="M159.86,150.61h-6.18s-.02-2.25-.02-2.25l2.47-.11c1.25-.06,2.48,.02,3.76,.03l-.04,2.33Zm-.39-.43l-.04-1.44-2.62-.15c-.23-.01-2.58,.03-2.61,.35l-.11,1.21h3.14s2.24,.03,2.24,.03h0Z"/>
        <path class="cls-3" d="M107.39,138.35l-6.26,.07,.08-2.1,6.5-.05-.32,2.07Zm-.45-.59l-.08-1.06-1.94,.03,.06,.59c-.32-.28-.86-.69-1.17-.67l-2.14,.17,.29,.88,2.12,.2,.14-.97,.38,.94c.91-.15,1.54-.18,2.35-.12h0Z"/>
        <path class="cls-3" d="M148.59,150.64l-6.97,.02,.52-2.32,6.47-.09v2.39s-.01,0-.01,0Zm-2.31-1.87l-.3,1.11c-.07-.41-.08-.56-.06-.99-.6-.33-3.82-.77-3.73,.47,.03,.46,.41,.72,.82,.72l4.8,.03,.05-1.32-1.58-.02h0Z"/>
        <path class="cls-3" d="M94.54,147.85c-.18,.54-.99,1.36-1.52,1.46-.08,.01-.22-.35-.15-.37l.5-.16c.06-.05,.07-.51-.06-.62l-.68-.55,1.27-.02,.02,.43c0,.06,.11,.14,.16,.11l.45-.29Z"/>
        <path class="cls-3" d="M133.74,150.46l-5.48,.03-.02-2.26c.98-.1,1.77-.24,2.56-.21l2.99,.12-.06,2.32h0Zm-.38-.43l-.1-1.54-4.47,.02,.03,1.43,2.05,.03,2.49,.05h0Z"/>
        <path class="cls-3" d="M93.86,137.02l-2.11,.13c.73-.38-.16-.35-.3-.27l-.43,.28h-.36c-.11,0-.23-.3-.14-.37,1.02-.78,3.59-.26,5-.12-.38,.79-1.13,.31-1.66,.35h0Z"/>
        <path class="cls-3" d="M94.44,138.01c.56,.07,1.04,.03,1.42,.43-7.01,.54-4.88-.54-5.11-.62l.51,.17c1.14,.34,2.62-.46,4.02-.33l-.83,.36h0Z"/>
      </g>
    </g>
  </g>
</svg>