<?xml version="1.0" encoding="UTF-8"?>
<svg id="Layer_2" data-name="Layer 2" xmlns="http://www.w3.org/2000/svg" viewBox="0 0 244 262">
  <defs>
    <style>
      .cls-1 {
        fill: #faf8f4;
      }
    </style>
  </defs>
  <g id="Layer_1-2" data-name="Layer 1">
    <path class="cls-1" d="M117.6,148.31c.05,.21,.14,.39,.28,.55,.15,.16,.33,.28,.54,.35,.21,.07,.42,.07,.64,.03,.21-.05,.39-.14,.55-.28,.06-.07,.12-.13,.18-.19,.18-.16,.31-.37,.39-.6,.07-.24,.09-.47,.03-.71-.11-.47-.46-.85-.92-1-.46-.15-.97-.04-1.33,.28-.18,.16-.31,.37-.39,.6-.08,.24-.09,.47-.04,.71,.01,.09,.03,.18,.04,.26h0Z"/>
    <path class="cls-1" d="M123.43,145.3h0c.01,.13,.02,.25,.04,.38h0c.04,.12,.08,.23,.12,.35,.08,.17,.19,.31,.34,.42,.09,.1,.19,.16,.31,.2,.17,.1,.35,.15,.55,.15,.12-.01,.25-.02,.37-.03,.11-.04,.23-.08,.34-.12,.11-.05,.2-.12,.29-.21,0,0,.01,0,.02-.01,.1-.09,.19-.19,.27-.3,.14-.22,.22-.46,.23-.73,0-.12-.02-.25-.03-.37-.06-.25-.17-.46-.33-.65-.13-.15-.28-.26-.46-.32-.17-.1-.36-.15-.55-.15-.25,0-.49,.04-.72,.16-.23,.12-.41,.28-.55,.49,0,0,0,0,0,.01-.01,.03-.16,.32-.17,.35,0,0,0,.01,0,.02,0,.01-.07,.37-.07,.38h0s0,0,0,0Zm2.53,.95s.08-.09,.11-.14c0,0-.01,.02-.01,.03-.03,.04-.06,.08-.1,.11Zm-.06,.07s-.05,.06-.07,.08c0,0-.01,0-.02,.01,.03-.03,.06-.06,.09-.1h0Z"/>
    <path class="cls-1" d="M150.19,154.11c-1.59-.51-2.39,1.96-.79,2.47,1.59,.51,2.39-1.96,.79-2.47Z"/>
    <path class="cls-1" d="M198.13,175.1c-.03-.47-.29-.87-.78-.96-.47-.09-.9,.19-1.06,.63-.15,.4-.35,.79-.24,1.22,.1,.41,.42,.73,.85,.8,.4,.07,.85-.09,1.06-.45,.16-.27,.21-.52,.19-.82,0-.14-.02-.28-.02-.42h0Z"/>
    <path class="cls-1" d="M139.27,78.58c1.57,1.01,3.72,.51,5.05-.58,.9-.74,1.68-1.3,1.66-2.6-.01-1.1-.58-2.16-1.4-2.88-.62-.54-1.4-.47-1.95-.11-1.1-.62-3.34,.1-4.04,.85-1.35,1.46-1.02,4.23,.67,5.31h0Zm1.38-4.12c.25-.42,.37-.7,.87-.83,.16-.04,.32-.05,.46-.05,.01,.3,.13,.61,.43,.9,.32,.31,.5,.61,.62,1.04,.1,.37,.35,.94,.3,1.32-.08,.65-1.14,1.13-1.75,1.03-.5-.08-.79-.6-1.02-1-.08-.14-.14-.28-.19-.42,.1,.19,.24,.38,.42,.48,.27,.16,.61,.25,.92,.17,.29-.08,.6-.25,.75-.52,.02-.04,.04-.08,.07-.11,.16-.29,.24-.6,.17-.92-.07-.28-.26-.6-.52-.75-.27-.16-.61-.25-.92-.17-.29,.08-.6,.25-.75,.52-.02,.04-.04,.08-.07,.11-.12,.21-.19,.43-.19,.66-.04-.49,.11-.95,.41-1.47h0Z"/>
    <path class="cls-1" d="M146.8,84.43c.19-.95-.64-1.75-1.58-1.34-.42,.19-.78,.31-1.22,.45-.5,.16-.9,.47-1.38,.66-.88,.33-1.89,.46-2.79,.18-.83-.25-1.69-.83-2.29-1.45-.71-.72-.9-1.94-1.76-2.45-.53-.31-1.07-.15-1.45,.3-.95,1.13,.1,3.34,.78,4.38,.9,1.37,2.15,2.34,3.73,2.83,3,.93,7.26-.11,7.96-3.57h0Z"/>
    <path class="cls-1" d="M132.67,114.41c-.16,.6-.3,1.14-.37,1.74-.1,.86-.52,1.53-.79,2.33-.5,1.46-.79,3.03-1.17,4.52-.07,.26,.32,.39,.41,.13,.48-1.4,1.04-2.79,1.43-4.21,.2-.74,.23-1.52,.52-2.24,.28-.68,.57-1.3,.8-2.01,.46-1.43,.85-2.87,1.49-4.23,.54-1.16,.97-2.4,.6-3.67-.04-.15-.22-.22-.35-.11-.94,.8-1.29,1.99-1.48,3.18-.25,1.56-.67,3.04-1.09,4.57Z"/>
    <path class="cls-1" d="M128.56,111.57c-.39-.13-.77-.22-1.19-.11-.19,.05-.37,.13-.56,.19-.35,.12-.63,.31-.75,.68-.12,.37-.02,.71,.21,.99,.12,.14,.24,.29,.36,.43,.29,.32,.63,.47,1.04,.57,.65,.15,1.25-.03,1.65-.58,.25-.34,.24-.71,.2-1.1-.05-.49-.53-.92-.97-1.06h0Z"/>
    <path class="cls-1" d="M142.26,95.59c.11-.07,.21-.15,.32-.22,.09-.1,.17-.2,.26-.3,.15-.23,.23-.49,.25-.77,0-.02,0-.03,0-.05,.01-.25-.04-.49-.16-.71-.12-.22-.28-.4-.49-.54-.01-.01-.03-.02-.04-.03-.17-.12-.36-.19-.57-.21-.13-.04-.26-.05-.39-.02-.2,0-.38,.05-.56,.15-.11,.07-.21,.15-.32,.22-.09,.1-.17,.2-.26,.3-.12,.17-.19,.36-.21,.57-.04,.13-.05,.26-.02,.39,0,.2,.05,.38,.15,.56,.07,.11,.15,.21,.22,.32,.1,.09,.2,.17,.3,.26,.17,.12,.36,.19,.57,.21,.13,.04,.26,.05,.39,.02,.2,0,.38-.05,.56-.15h0Z"/>
    <path class="cls-1" d="M144.77,135.37c-.3-.11-.61-.21-.91-.31-.48-.16-.72,.6-.24,.75,.31,.09,.61,.18,.92,.27,.27,.08,.56,.22,.84,.12,.2-.07,.26-.27,.14-.44-.17-.24-.49-.29-.76-.39Z"/>
    <path class="cls-1" d="M160.96,85.34c1.85,1.58,5.06,1.31,6.71-.44,1.74-1.84,1.84-4.65-.04-6.33-.16-.32-.38-.61-.72-.85-.6-.41-1.3-.66-2.01-.76-1.4-.2-2.79,.28-3.84,1.21-2.03,1.8-2.24,5.34-.1,7.17h0Zm2.11-5.09c.46-.35,1.13-.58,1.71-.56,.39,.01,.69,.17,1.05,.3,.07,.02,.14,.04,.21,.07,.73,.94,1.22,2.49,.49,3.49-.43,.6-1.26,.95-1.98,.96-.83,.01-1.26-.4-1.71-1.05-.71-1.04-.88-2.36,.23-3.2h0Z"/>
    <path class="cls-1" d="M163.08,81.86c-.02,.15,.04,.37,.11,.5,.1,.19,.27,.34,.46,.44,.28,.13,.6,.13,.87,0,.21-.03,.41-.12,.57-.27,.02-.02,.04-.04,.06-.05,0,0-.02,.01-.02,.02,.07-.05,.13-.1,.18-.16,.05-.06,.09-.11,.12-.15,.01-.03,.01-.03,0-.03,.01-.01,.02-.02,.03-.04-.01,.02-.02,.04-.03,.06,.02-.03,.03-.06,.05-.09,.07-.11,.11-.24,.12-.37,.04-.67-.57-1.21-1.23-1.18-.47,.02-.98,.27-1.13,.76-.09,.18-.13,.37-.17,.58Zm2.24,.41h0s.01-.01,.02-.02c0,0,0,.01,0,.02Z"/>
    <path class="cls-1" d="M169.66,92.13c.47-.71,.39-1.37,.44-2.15,.03-.39-.45-.73-.8-.51-.41,.25-.97,.3-1.41,.5-.45,.21-.85,.48-1.33,.63-.9,.28-1.91,.52-2.86,.36-2.18-.37-3.91-2.1-3.93-4.36-.01-1.1-1.51-1.11-1.67-.07-.49,3.14,1.35,6.88,4.52,7.82,1.69,.5,3.58,.37,5.12-.52,.7-.41,1.49-1.02,1.94-1.7h0Z"/>
    <path class="cls-1" d="M158.78,131.65c.68-1.62,1.36-3.26,1.76-4.98,.38-1.62,.68-3.39,1.31-4.93,1.29-3.17,2.05-6.73,1.96-10.16-.05-1.77-.11-3.53-.25-5.3-.07-.85-.13-1.71-.25-2.56-.12-.89-.46-1.47-.93-2.22-.21-.32-.68-.32-.82,.07-.2,.56-.35,1.03-.42,1.54-.26-.24-.68-.3-.88,.09-1.3,2.55-1.65,5.58-2.33,8.32-.34,1.37-.76,2.73-1.17,4.09-.2,.68-.44,1.35-.62,2.03-.2,.76-.25,1.54-.54,2.28-1.07,2.72-1.67,5.55-2.79,8.25-.57,1.37-1.25,2.68-1.9,4.01-.63,1.31-1.34,2.56-1.36,4.04-.01,.59,.74,1,1.19,.56,1.98-1.93,2.35-5.28,3.21-7.8,.51-1.49,1.01-2.94,1.7-4.36,.63-1.29,1.01-2.65,1.33-4.04,.32-1.36,1-2.65,1.39-4.02,.41-1.43,.8-2.86,1.19-4.3,.38-1.4,.93-2.71,1.16-4.14,.11-.68,.26-1.37,.39-2.06v.29c-.01,1.7-.12,3.4-.36,5.09-.47,3.23-.66,6.48-1.04,9.72-.16,1.38-.63,2.75-1.18,4.05-.01-1.05-.19-2.11-.43-3.06-.24-.93-1.52-.6-1.42,.32,.23,2.21-.55,4.28-.45,6.45,.01,.27,.23,.52,.48,.57-.14,.32-.28,.64-.42,.95-.24,.51-.49,1.02-.75,1.53,.32-.95,.21-2.2,.18-3.04-.03-.78-1.06-.99-1.35-.24-.46,1.19-1.43,3.23-.32,4.32,.15,.15,.36,.19,.56,.1,.25-.12,.45-.29,.6-.5-1.21,2.28-2.61,4.5-4.07,6.6-1.16,1.65,1.49,3.38,2.62,1.71,2.01-2.95,3.63-6.02,5.02-9.3h0Z"/>
    <path class="cls-1" d="M156.5,107.82c-.06-.06-.12-.11-.19-.16-.07-.03-.15-.07-.22-.1-.16-.06-.33-.05-.49-.02-.02,0-.05,.01-.07,.01-.29,.06-.54,.29-.63,.58-.09,.28-.03,.61,.18,.83,.02,.02,.03,.04,.05,.05,0,0,0,0,.01,.01,.08,.1,.17,.17,.29,.21,.11,.06,.22,.09,.35,.1,.08,0,.16-.01,.24-.02,.15-.03,.29-.11,.4-.21,.12-.11,.21-.24,.26-.39,.05-.15,.05-.31,.02-.47-.03-.15-.11-.29-.21-.4h0Z"/>
    <path class="cls-1" d="M165.77,107.95c.45-.14,.9-.29,1.35-.43,.47-.15,.94-.21,1.15-.7,.08-.19-.03-.46-.2-.57-.44-.26-.83-.03-1.28,.12-.42,.14-.85,.29-1.27,.43-.3,.1-.52,.37-.45,.7,.07,.29,.4,.54,.7,.44Z"/>
    <path class="cls-1" d="M171.77,82.32s0-.02,0-.02c-.12,.02-.25,.04-.37,.06-.01,0-.01,.02,0,.02,.12-.02,.25-.04,.37-.06Z"/>
    <path class="cls-1" d="M170.03,85.93c.24-.09,.47-.17,.71-.25,.29-.1,.63-.17,.72-.5,.04-.13,.02-.32-.09-.42-.15-.13-.29-.2-.5-.17-.12,.02-.25,.04-.37,.07-.24,.05-.49,.11-.73,.16-.3,.07-.5,.38-.43,.68,.06,.27,.39,.54,.68,.43h0Z"/>
    <path class="cls-1" d="M210.49,100.47c.26,.23,.52,.37,.88,.33,.35-.03,.57-.2,.79-.46,.23-.28,.45-.56,.68-.83,.22-.26,.22-.76,.05-1.04-.18-.3-.4-.51-.71-.66-.4-.19-.8-.19-1.21-.02-.25,.1-.47,.38-.54,.66-.01,.01-.02,.03-.04,.04-.12,.15-.19,.32-.24,.51-.13,.5-.04,1.12,.36,1.48Zm1.14-.67h-.04c.17-.01,.19-.02,.04,0Zm.04,.2c.07-.02,.13-.04,.19-.07-.06,.03-.12,.05-.19,.07Z"/>
    <path class="cls-1" d="M213.58,108.26c-.9,.32-1.92,.4-2.85,.15-.93-.24-1.82-.78-2.49-1.47-.7-.72-1.1-1.64-2.07-2.04-.25-.11-.64,.03-.77,.27-1.38,2.57,2.59,5.32,4.67,5.84,2.49,.62,6.27-.05,7.68-2.45,.62-1.04-.54-2.7-1.73-1.91-.84,.55-1.49,1.27-2.45,1.61h0Z"/>
    <path class="cls-1" d="M209,118.51c-.44-.14-.65,.54-.22,.68,.44,.14,.65-.54,.22-.68Z"/>
    <path class="cls-1" d="M213.7,123.59c.62-.04,1.24-.07,1.86-.13,.61-.06,1.16-.37,1.71-.61,.52-.23,.27-.96-.22-1.01-.58-.06-1.16-.16-1.74-.05-.58,.1-1.16,.29-1.74,.43-.72,.18-.69,1.42,.12,1.37h0Z"/>
    <path class="cls-1" d="M196.85,147.06c-.01-.06-.05-.11-.07-.16,0-.06,0-.11-.02-.17-.07-.26-.22-.51-.45-.65-.08-.04-.17-.08-.25-.12-.18-.06-.36-.07-.55-.02-.22,.08-.37,.12-.54,.29-.17,.16-.25,.3-.34,.52-.11,.3-.08,.68,.07,.96,.2,.38,.59,.65,1.02,.66,.1,0,.21,0,.31-.02,.17-.03,.37-.13,.5-.25,.24-.22,.32-.47,.36-.77,0-.09-.01-.17-.02-.25h0Z"/>
    <path class="cls-1" d="M187.58,95.43c1.57,1.01,3.72,.51,5.05-.58,.9-.74,1.68-1.3,1.66-2.6-.01-1.1-.58-2.16-1.4-2.88-.62-.54-1.4-.47-1.95-.11-1.1-.62-3.34,.1-4.04,.85-1.35,1.46-1.02,4.23,.67,5.31h0Zm1.38-4.12c.25-.42,.37-.7,.87-.83,.16-.04,.32-.05,.46-.05,.01,.3,.13,.61,.43,.9,.32,.31,.5,.61,.62,1.04,.1,.37,.35,.94,.3,1.32-.08,.65-1.14,1.13-1.75,1.03-.5-.08-.79-.6-1.02-1-.08-.14-.14-.28-.19-.42,.1,.19,.24,.38,.42,.48,.27,.16,.61,.25,.92,.17,.29-.08,.6-.25,.75-.52,.02-.04,.04-.08,.07-.11,.16-.29,.24-.6,.17-.92-.07-.28-.26-.6-.52-.75-.27-.16-.61-.25-.92-.17-.29,.08-.6,.25-.75,.52-.02,.04-.04,.08-.07,.11-.12,.21-.19,.43-.19,.66-.04-.49,.11-.95,.41-1.47h0Z"/>
    <path class="cls-1" d="M195.11,101.28c.2-.95-.64-1.75-1.58-1.34-.42,.19-.78,.31-1.22,.45-.5,.16-.9,.47-1.38,.66-.88,.33-1.89,.46-2.79,.18-.83-.25-1.69-.83-2.29-1.45-.71-.72-.9-1.94-1.76-2.45-.53-.31-1.07-.15-1.45,.3-.95,1.13,.1,3.34,.78,4.38,.9,1.37,2.15,2.34,3.73,2.83,3,.93,7.26-.11,7.96-3.57h0Z"/>
    <path class="cls-1" d="M185.43,119.28c.52,1.05,.86,2.14,.96,3.32,.26,2.91-.59,5.8-1.86,8.38-1.41,2.85-2.83,5.68-4.17,8.56-.56,1.21-1.12,2.43-1.69,3.64-.03-.17-.07-.34-.13-.52-.06-.18-.23-.23-.38-.12-1.14,.81-1.41,2.11-1.79,3.39-.43,.19-.73,.44-1.04,.92-.62,.95-.11,2.07,.88,2.47,3.47,1.4,5.09-3.86,6.1-6.06,1.65-3.59,3.32-7.17,4.79-10.84,1.33-3.32,2.75-6.78,2.3-10.42-.18-1.45-.62-2.98-1.41-4.22-.71-1.12-1.88-2.53-3.33-2.44-.53,.03-.98,.45-.85,1.02,.26,1.1,1.14,1.91,1.63,2.92h0Z"/>
    <path class="cls-1" d="M183.89,123.63c-.04-.15-.22-.22-.35-.11-.94,.8-1.29,1.99-1.48,3.18-.25,1.56-.67,3.04-1.09,4.57-.16,.59-.3,1.14-.37,1.74-.1,.86-.52,1.53-.79,2.33-.5,1.46-.79,3.03-1.17,4.52-.07,.26,.32,.39,.41,.13,.48-1.4,1.04-2.79,1.43-4.21,.2-.74,.23-1.52,.52-2.24,.28-.68,.57-1.3,.8-2.01,.46-1.43,.86-2.87,1.49-4.23,.54-1.15,.98-2.4,.6-3.67Z"/>
    <path class="cls-1" d="M176.87,128.42c-.39-.13-.77-.22-1.19-.11-.19,.05-.37,.13-.56,.19-.35,.12-.63,.31-.75,.68-.12,.37-.02,.71,.21,.99,.12,.14,.24,.29,.36,.43,.29,.32,.63,.48,1.04,.57,.65,.15,1.25-.04,1.65-.59,.25-.34,.24-.71,.2-1.1-.05-.49-.53-.92-.97-1.06h0Z"/>
    <path class="cls-1" d="M191.39,111.11c.01-.25-.04-.49-.16-.71-.12-.22-.28-.4-.49-.54-.01-.01-.03-.02-.04-.03-.17-.12-.36-.19-.57-.21-.13-.04-.26-.05-.39-.02-.2,0-.38,.05-.56,.15-.11,.07-.21,.15-.32,.22-.09,.1-.17,.2-.26,.3-.12,.17-.19,.36-.21,.57-.04,.13-.05,.26-.02,.4,0,.2,.05,.38,.15,.56,.07,.11,.15,.21,.22,.32,.1,.08,.2,.17,.3,.26,.17,.12,.36,.19,.57,.21,.13,.04,.26,.05,.39,.02,.2,0,.38-.05,.56-.15,.11-.07,.21-.15,.32-.22,.09-.1,.17-.2,.26-.3,.15-.23,.23-.49,.25-.77,0-.02,0-.03,0-.05h0Z"/>
    <path class="cls-1" d="M98.53,178.07c-.38,.43-.65,.91-.81,1.43-.27,.89-.27,1.75,.01,2.57s.74,1.52,1.38,2.08c.64,.56,1.4,.99,2.29,1.27,2.99,.96,5.54,1.06,7.66,.31,.79-.24,1.49-.66,2.1-1.25,.61-.59,1.06-1.24,1.35-1.96,.29-.71,.38-1.48,.26-2.29-.12-.81-.47-1.55-1.05-2.2-.24-.28-.61-.62-1.12-1.03-.51-.41-.95-.81-1.31-1.21-.36-.39-.59-.82-.67-1.29-.03-.35,.07-.67,.29-.97,.22-.29,.5-.54,.83-.72,.85-.37,1.81-.58,2.9-.64,1.09-.06,1.92,.15,2.49,.65,.33,.28,.52,.62,.58,1.03,.05,.41-.07,.78-.36,1.11-.11,.1-.25,.17-.4,.21-.16,.03-.27-.02-.33-.16,.01-.09,0-.18-.05-.27,.03-.21,.02-.37-.06-.48-.1-.18-.26-.31-.5-.38-.24-.07-.44-.04-.61,.1-.42,.35-.6,.76-.54,1.25,.09,.59,.46,1.06,1.11,1.4,.82,.43,1.61,.4,2.38-.1,.39-.25,.7-.54,.93-.87,.23-.35,.39-.72,.48-1.13,.09-.48,.04-.98-.15-1.49-.27-.75-.75-1.37-1.45-1.84-.7-.47-1.46-.77-2.28-.9-.82-.13-1.63-.13-2.43,0-1.2,.16-2.11,.39-2.76,.7-.81,.36-1.44,.92-1.88,1.69-.44,.77-.54,1.59-.32,2.47,.16,.56,.43,1.08,.82,1.54,.39,.47,.86,.95,1.43,1.45,.57,.5,.98,.91,1.23,1.24,.27,.37,.4,.79,.39,1.28-.01,.49-.13,.95-.37,1.4-.34,.53-.78,.95-1.32,1.26-.54,.31-1.11,.5-1.71,.57-.6,.07-1.24,.08-1.92,.04-.67-.04-1.31-.16-1.9-.35-.59-.19-1.15-.39-1.69-.59-.65-.35-1.08-.77-1.29-1.27-.23-.6-.18-1.2,.14-1.79,.32-.6,.8-.95,1.44-1.05-.2,.32-.19,.66,.02,1.01,.21,.35,.51,.59,.88,.72,.6,.21,1.14,.15,1.61-.17,.48-.32,.74-.77,.8-1.35,.06-.58-.14-1.08-.61-1.51-.44-.37-.91-.65-1.42-.82-.51-.17-1.05-.22-1.62-.14-.56,.08-1.09,.23-1.58,.46-.49,.23-.92,.56-1.3,.99h0Z"/>
    <path class="cls-1" d="M153.75,187.93c-.27-.09-.53-.08-.8,.02-.26,.1-.43,.27-.51,.51-.07,.23-.05,.47,.07,.74,.16,.27,.38,.45,.66,.54,.28,.09,.55,.09,.82-.02,.26-.1,.44-.28,.52-.53,.07-.21,.04-.45-.07-.72-.16-.27-.39-.45-.68-.54h0Z"/>
    <path class="cls-1" d="M172.74,197.05c-.81,.24-1.58,.64-2.3,1.17-.18,.14-.35,.28-.5,.43-.11-.02-.21-.02-.32,0-1.64,.33-3.27,.35-4.9,.06-.32-.06-.53-.1-.63-.13h-.04c-.23-.09-.32-.18-.28-.31,.02-.06,.1-.17,.25-.34,.01,0,.02,0,.03-.03,.06-.04,.08-.07,.07-.09,.04-.02,.19-.14,.48-.36,.28-.22,.47-.38,.58-.48,.11-.1,.24-.25,.4-.46s.27-.42,.34-.64c.18-.58,.1-1.11-.27-1.6-.36-.49-.82-.82-1.38-1-.15-.05-.31-.09-.46-.11-.15-.03-.31-.04-.48-.04s-.3,0-.41,0c-.11,0-.26,.02-.45,.07-.19,.04-.33,.07-.41,.08-.08,.01-.23,.05-.44,.1-.21,.06-.34,.09-.39,.11-.5,.12-1,.25-1.5,.4,.25-.25,.47-.47,.66-.67,.06-.04,.1-.1,.12-.17,.05-.17,.02-.34-.09-.52-.11-.18-.27-.3-.46-.36-.24-.07-.46-.05-.68,.09-.56,.35-1.05,.68-1.46,1-.41,.33-.81,.65-1.21,.97-2.09,.12-3.43,.2-4.01,.24-.17,0-.5,.01-1.01,.06-.5,.05-.98,.08-1.43,.09-.45,.01-.82-.03-1.1-.12-.21-.07-.37-.16-.46-.29,.34-.46,1.17-1.1,2.51-1.9,.71-.46,1.12-.87,1.23-1.23,.12-.37-.12-.64-.71-.83-.13-.04-.25-.06-.38-.05-.11,0-.23,.02-.36,.06-.13,.04-.26,.09-.38,.13-.12,.04-.27,.11-.45,.2-.17,.08-.32,.16-.43,.22-.11,.07-.26,.15-.43,.27-.01,0-.02,.01-.03,.02-.11,0-.22,.02-.33,.05-.28,.08-.59,.21-.93,.4-.34,.19-.56,.29-.68,.32-.21,.09-.66,.19-1.35,.31-.69,.12-1.15,.15-1.37,.07-.09-.03-.12-.07-.09-.15,.04-.13,.1-.24,.17-.34,.07-.1,.17-.22,.32-.37,.14-.14,.23-.24,.28-.28,.91-.95,1.49-1.55,1.74-1.79,.94-.91,2.79-2.33,5.57-4.25,.13-.11,.22-.23,.26-.36,.06-.2,.03-.39-.09-.58-.13-.19-.29-.32-.5-.38-.27-.08-.52-.06-.75,.09-.45,.24-1.07,.62-1.85,1.12-.79,.5-1.32,.83-1.58,.99-.31,.19-.73,.49-1.26,.9-.53,.4-.93,.69-1.18,.85-.47-.52-1.02-.89-1.67-1.1-.86-.27-1.78-.28-2.77-.01-.99,.26-1.87,.71-2.64,1.33-.14,.1-.26,.18-.37,.26-.17,.02-.37,.05-.6,.11-.16,.02-.39,.07-.69,.15-.29,.07-.5,.13-.62,.15-2.03,.39-3.73,.37-5.11-.07-.7-.23-1.28-.56-1.75-1,.51,.05,.93,.09,1.26,.1,.33,.01,.73,0,1.21-.02,.47-.03,.9-.12,1.28-.27,.38-.15,.72-.36,1.01-.64,.21-.21,.36-.45,.44-.72,.18-.57,.1-1.14-.25-1.72-.35-.58-.81-.97-1.41-1.16-.73-.23-1.6-.26-2.62-.07-.1-.22-.28-.37-.53-.45-.28-.09-.53-.05-.76,.11-.57,.42-1.14,.85-1.71,1.29-.4,.19-.78,.4-1.14,.62-.14,.03-.29,.07-.47,.13-.55,.18-.85,.27-.9,.27-1.26,.23-2.06,.36-2.39,.37-.29,.03-.63,.02-1.02-.02l-.06-.02c-.15-.05-.19-.19-.12-.43,.01-.04,.03-.09,.06-.15,.03-.06,.04-.11,.06-.13,.18-.27,.52-.61,1.02-1.02,.5-.41,.85-.76,1.03-1.04,.04-.05,.08-.13,.12-.24,.07-.22,.04-.45-.09-.69-.13-.24-.32-.4-.58-.47-.05-.02-.11-.03-.15-.03,.07-.23,.02-.46-.15-.71-.17-.25-.38-.45-.61-.6-.2-.11-.39-.19-.57-.25-.97-.31-2.06-.28-3.26,.1-1.2,.38-2.28,.92-3.22,1.65-.68,.42-1.12,.95-1.33,1.6-.15,.47-.11,.9,.11,1.29,.22,.4,.65,.71,1.27,.92,1.12,.28,2.5,.21,4.15-.21-.03,.53,.12,1,.44,1.4,.33,.4,.75,.68,1.27,.85,.32,.1,.64,.15,.95,.14,.49,0,.97-.04,1.47-.11-.05,.06-.1,.12-.15,.18-.05,.08-.09,.15-.12,.22-.07,.23-.03,.44,.11,.64,.14,.2,.33,.34,.57,.42,.3,.1,.55,.05,.76-.13,1.33-1.05,2.09-1.66,2.3-1.82,.73,1.72,2.09,2.9,4.07,3.54,1.77,.57,3.69,.64,5.74,.22-.12,1.1,.36,1.83,1.45,2.18,.63,.2,1.37,.25,2.22,.13,.85-.12,1.57-.34,2.15-.66,.03,.49,.2,.9,.51,1.23,.31,.33,.71,.58,1.21,.74,.55,.17,1.11,.23,1.69,.17,.21-.01,.47-.05,.78-.1,0,.39,.11,.78,.37,1.15,.38,.54,.96,.94,1.73,1.18,.39,.13,.8,.2,1.23,.23,.74,.02,1.52,0,2.34-.03,.52-.02,1.1-.06,1.69-.09-.02,.02-.04,.03-.06,.05-.13,.11-.22,.25-.27,.4-.07,.21-.04,.42,.07,.63,.12,.21,.31,.35,.56,.43,.28,.09,.56,.05,.85-.12,.48-.28,.83-.49,1.08-.61,.17-.1,.35-.19,.53-.28,.18-.09,.35-.17,.51-.25,.15-.08,.34-.15,.55-.24,.21-.09,.39-.16,.52-.22,.13-.06,.33-.13,.57-.23,.25-.09,.42-.16,.53-.19,.11-.04,.3-.1,.59-.2,.29-.1,.47-.16,.55-.18,.08-.03,.27-.1,.57-.2,.3-.1,.49-.17,.56-.19,.22-.07,.62-.15,1.19-.24,.57-.09,.98-.09,1.24-.01,.21,.07,.29,.18,.24,.36-.04,.11-.13,.25-.27,.4-.12,.12-.3,.26-.55,.43-.25,.17-.43,.29-.53,.37-.5,.43-.82,.89-.97,1.36-.11,.34-.11,.67-.02,1,.22,.71,.79,1.21,1.7,1.5,.17,.05,.39,.11,.67,.17,1.55,.38,3.12,.51,4.72,.39,0,.2,.03,.4,.09,.61,.13,.45,.37,.83,.72,1.12,.6,.5,1.32,.89,2.16,1.15,1.1,.35,2.54,.53,4.33,.53,.06,0,.12,0,.18-.01-.29,.27-.51,.6-.64,1.01-.14,.84-.04,1.54,.32,2.12,.36,.57,.88,.97,1.55,1.18,.79,.25,1.58,.2,2.39-.16,.8-.36,1.38-.99,1.71-1.91,.29,.14,.59,.26,.89,.35,1.15,.37,2.34,.52,3.57,.46,1.23-.07,2.38-.35,3.45-.84,.54-.07,.87-.3,.99-.68,.1-.31,.06-.59-.11-.85-.17-.26-.4-.43-.68-.52-.37-.12-.84-.12-1.42,0-.58,.12-1.13,.27-1.65,.46-.52,.19-1.11,.33-1.77,.41-.66,.08-1.25,.04-1.77-.12-.41-.13-.81-.3-1.21-.5,0-.23-.04-.78-.13-1.62,.68,.11,1.35,0,2.01-.36s1.09-.82,1.28-1.43c.19-.6,.13-1.15-.19-1.65-.32-.49-.77-.83-1.35-1.01-.63-.2-1.22-.19-1.75,.04-.83,.35-1.4,1.02-1.71,2.01-.09,.28-.15,.57-.18,.85-.05,.06-.09,.13-.12,.22,0,.03-.01,.05-.02,.08-.08,0-.17,0-.27,.02-.13,.02-.23,.04-.3,.05-.07,.02-.18,.05-.35,.1-.16,.05-.26,.08-.3,.1-1,.22-2,.34-2.99,.35-1.57-.08-2.74-.25-3.53-.5-.84-.27-1.28-.63-1.3-1.09,.15,.07,.32,.12,.5,.18,.75,.24,1.55,.39,2.4,.47,.86,.07,1.72,.02,2.6-.17,.87-.18,1.53-.52,1.98-.99,.15-.17,.26-.36,.32-.57,.19-.59,.11-1.16-.25-1.71-.36-.55-.87-.93-1.55-1.15-.49-.16-1.05-.23-1.67-.21-.78,.03-1.58,.16-2.39,.41h-.02Zm-57-13.47c-.34-.05-.56-.09-.65-.14,.37-.77,1.23-1.43,2.59-1.99,1.36-.56,2.47-.7,3.34-.42,.11,.04,.23,.1,.37,.2,.13,.1,.21,.15,.24,.16-1.71,1.44-3.67,2.17-5.88,2.19h0Zm12.33,1.88c.11-.09,.27-.22,.5-.4,.97-.39,1.82-.6,2.52-.64,.35-.03,.66,0,.92,.08,.24,.08,.42,.19,.54,.34,.12,.15,.16,.29,.12,.43-.11,.34-.53,.53-1.27,.57-.54,.03-1.13,0-1.79-.08-.65-.09-1.17-.19-1.55-.31h0Zm15.67,3.45c-.23,.15-.37,.24-.41,.28-.05,.03-.17,.11-.37,.24-.2,.13-.34,.22-.42,.27-.09,.05-.22,.13-.39,.24-.18,.11-.32,.19-.43,.25-.11,.06-.24,.12-.4,.19-.15,.07-.3,.13-.45,.19-.5,.2-.99,.33-1.47,.39-.36,.04-.62,.04-.8-.02-.23-.07-.3-.21-.24-.42,.05-.15,.14-.31,.28-.48,.07-.09,.14-.16,.21-.23,.11-.05,.19-.12,.25-.21,.11-.09,.25-.18,.43-.31,.21-.15,.36-.25,.43-.3,1.21-.82,2.33-1.07,3.37-.74,.32,.1,.58,.24,.77,.41-.02,.02-.15,.11-.38,.26h0Zm36.28,14.79s-.08-.04-.13-.06c.05-.01,.1-.03,.13-.04,0,.05,0,.09,0,.1Zm-1.28,3.06c-.13,.02-.27,0-.43-.04-.2-.06-.35-.17-.46-.31-.11-.14-.13-.32-.06-.53,.08-.25,.28-.42,.59-.51,.31-.09,.61-.09,.9-.01,.18,.04,.37,.11,.61,.21-.23,.63-.61,1.02-1.15,1.19h0Zm3.86-6.46c.17-.1,.34-.13,.49-.08,.06,.02,.11,.06,.15,.12,.03,.09,.03,.18,0,.28-.08,.27-.23,.46-.44,.57-.21,.11-.39,.14-.56,.09-.21-.07-.28-.2-.22-.4,.06-.18,.25-.38,.58-.58h0Zm-6.25-1.87c.2,.06,.34,.16,.44,.29,.1,.13,.12,.27,.08,.41-.04,.14-.15,.25-.31,.32-1.34,.52-3.01,.57-5,.17,1.05-.87,2.31-1.32,3.77-1.33,.47,.03,.81,.07,1.02,.14h0Z"/>
    <path class="cls-1" d="M128.27,166.35c-.18-.91-.92-1.72-1.92-2.1-.93-.35-1.89-.26-2.57,.25-.26,.2-.32,.5-.15,.78,.12,.19,.33,.34,.58,.35-.12,.36-.23,.73-.33,1.08-.25,.08-.43,.25-.53,.5-.12,.32-.07,.7,.14,.99,0,0,0,.01,0,.02-.05,.19-.11,.4-.17,.6-.24,.82-.51,1.75-.2,2.54,.11,.29,.31,.49,.57,.57,.04,.01,.09,.02,.14,.03,.38,.06,.81-.13,1.07-.46,.21-.26,.28-.58,.22-.9,.04-.05,.06-.14,.08-.24,0-.04,.01-.07,.02-.1,.06-.17,.09-.35,.12-.52,.02-.09,.03-.18,.05-.27,.03-.16,.07-.31,.11-.47,.5,.01,.97-.07,1.32-.21,1.05-.43,1.65-1.44,1.45-2.46h0Zm-2.1-.28c.19,.18,.31,.38,.3,.56,0,.09-.03,.16-.09,.21-.1,.08-.25,.12-.41,.14,.07-.3,.13-.61,.2-.91h0Z"/>
    <path class="cls-1" d="M133.69,169.47c-.06-.91-.86-1.72-1.33-2.12-.5-.42-1.22-.64-1.9-.55-.11-.21-.3-.37-.55-.44-.33-.1-.67-.03-.9,.2-.61,.62-.85,1.45-1.08,2.25-.04,.14-.08,.28-.12,.41-.25,.83-.43,1.69-.57,2.77l-.02,.04h.01c0,.06-.01,.12-.02,.18-.07,.54,.3,.93,.76,1.07,.07,.02,.13,.04,.2,.05,.49,.08,1.07-.12,1.19-.74,.09-.28,.17-.56,.25-.84,.02,.01,.04,.02,.07,.03,.25,.12,.52,.17,.81,.18,.07,.17,.11,.37,.15,.56,.02,.12,.05,.22,.07,.3,.11,.37,.27,.8,.57,1.14,.62,.71,1.4,.82,2.1,.31,.19-.14,.27-.34,.25-.58-.03-.27-.24-.53-.49-.64-.52-.21-.66-.64-.83-1.13-.04-.13-.09-.27-.14-.4,.4-.21,.77-.49,1.05-.79,.35-.38,.52-.81,.49-1.28h0Zm-2.67-1.11c.34,.23,.57,.54,.74,.82,.09,.14,.15,.25,.13,.31-.01,.06-.09,.12-.24,.23-.42,.27-.84,.28-1.3,.3-.09,0-.19,0-.29,.01,.02-.08,.04-.16,.06-.25,.05-.19,.1-.39,.15-.58,.09-.34,.19-.68,.25-1.03,.13,0,.3,.06,.49,.19h0Z"/>
    <path class="cls-1" d="M139.12,171.42c.47-.04,.82-.55,.84-.98,.02-.44-.25-.83-.72-1.04-.3-.13-.61-.23-.91-.33-.48-.15-.92-.3-1.35-.56-.11-.17-.27-.3-.46-.35-.23-.06-.46,0-.64,.16-.62,.57-.85,1.52-1.04,2.35-.06,.25-.12,.49-.18,.7-.04,.14-.08,.29-.13,.43-.25,.8-.53,1.7-.29,2.54,.4,1.4,2.18,2.18,3.46,2.59,.42,.13,.79,.23,1.03,.29,.74,.19,1.24-.23,1.41-.72,.17-.5,.03-1.19-.69-1.49-.63-.27-1.29-.45-1.93-.63l-.47-.13c-.57-.16-.89-.27-.84-.79,.02-.15,.04-.31,.07-.46,.06,.03,.12,.07,.19,.08l.95,.33s.03,0,.05,.02c.37,.12,.66,.12,1.05,0,.22-.07,.38-.22,.44-.41,.07-.2,.02-.42-.11-.61-.25-.35-.48-.51-.89-.64l-.96-.31c-.1-.03-.2-.04-.29-.04,.03-.13,.07-.26,.11-.38,.02-.1,.05-.2,.08-.29,.32,.24,.66,.43,1.02,.54,.39,.13,.8,.17,1.22,.13h0Z"/>
    <path class="cls-1" d="M147.97,179.02c-.13,.49-.01,.95,.33,1.3,.37,.37,.93,.53,1.41,.4,.42-.11,.72-.43,.84-.88,.04-.17,.09-.34,.14-.51,.31-1.12,.66-2.4,.61-3.57-.06-1.22-.8-2.59-2.28-2.68-.74-.05-1.43,.15-2.04,.51-.16-.84-.59-1.56-1.46-1.96-.82-.38-1.77-.23-2.53,.14-.09-.13-.22-.21-.36-.26-.27-.08-.53,.02-.65,.25-.07,.15-.15,.3-.23,.44-.28,.54-.58,1.1-.78,1.7-.29,.83-.46,1.67-.6,2.45l-.02,.11h0c-.08,.7,.43,1.21,.96,1.34,.44,.11,1.03-.03,1.24-.76,.11-.37,.17-.76,.24-1.14,.1-.59,.2-1.2,.46-1.73,.17-.34,.65-.85,1.07-.89,.18-.02,.34,.06,.46,.22,.31,.41,.12,1.19-.01,1.71l-.02,.09c-.12,.49-.26,.98-.41,1.48-.21,.48-.37,.96-.48,1.4l-.04,.1h.02c-.11,.68,.32,1.13,.78,1.28,0,0,.01,0,.01,0,.45,.14,1.05,0,1.33-.6h.02s.02-.1,.02-.1c.25-.66,.74-1.93,.95-3.23,.08-.1,.17-.18,.27-.25,.31-.21,.69-.27,1.16-.18,.19,.04,.32,.11,.4,.23,.13,.2,.07,.53,0,.88-.11,.53-.29,1.05-.46,1.56-.12,.38-.25,.76-.36,1.15h0Z"/>
    <path class="cls-1" d="M151.64,181.43c.28,.09,.57,.11,.84,.03,.43-.11,.74-.43,.85-.9,.27-1.1,.4-2.22,.52-3.3,.06-.5,.12-1.01,.19-1.51,.05-.35-.12-.64-.45-.73-.35-.1-.83,.04-1.01,.44-.21,.46-.42,.92-.64,1.36-.44,.93-.9,1.88-1.24,2.9-.16,.48-.06,.93,.27,1.29,.18,.19,.41,.33,.66,.41h0Z"/>
    <path class="cls-1" d="M156.89,179.61l.07-.21c.28-.84,.53-1.57,.6-2.48,.01-.19-.1-.39-.28-.49-.17-.1-.36-.1-.51,0-.61,.41-1.07,.82-1.46,1.59-.35,.69-.63,1.48-.8,2.28-.31,1.41,.33,2.6,1.61,2.96,.83,.24,1.58,.15,2.24-.15,.02,.2,.07,.4,.14,.58,.24,.64,.78,1.14,1.42,1.34,.14,.05,.3,.08,.45,.1,.64,.07,1.21-.18,1.62-.65,.03,.3,.17,.56,.41,.75,.35,.29,.86,.36,1.27,.19,.38-.16,.61-.51,.65-.99,.1-.61,.24-1.22,.37-1.81,.04-.19,.09-.39,.13-.59,.21-.56,.51-1.07,.94-1.38,.36-.26,.78-.34,1.26-.23,.29,.07,.49,.2,.58,.39,.13,.24,.11,.58-.06,1-.19,.5-.43,1-.67,1.48-.15,.31-.3,.62-.44,.94-.01,.03-.03,.06-.04,.09l-.05,.11h0c-.07,.24-.04,.49,.07,.74,.15,.33,.44,.6,.77,.71h.01c.67,.22,1.22-.18,1.49-.7l.04-.09c.08-.18,.17-.36,.26-.54,0,0,0-.02,.01-.03,.34-.63,.78-1.18,1.31-1.61,.26-.22,.85-.6,1.18-.5,.11,.04,.19,.12,.23,.27,.12,.41-.13,1.13-.32,1.65-.07,.19-.13,.37-.17,.51-.06,.21-.13,.44-.21,.68-.27,.82-.58,1.76-.35,2.56,.13,.44,.49,.81,.92,.95,.02,0,.04,.01,.07,.02,.41,.11,.82,0,1.13-.3,.56-.55,.72-1.22,.89-1.92,.03-.13,.06-.25,.09-.38,.05-.22,.11-.44,.17-.66,.13-.51,.27-1.04,.38-1.57,.21-.98,.35-2.79-1.06-3.76-.81-.56-1.7-.71-2.63-.45-.27,.08-.53,.18-.78,.32-.35-1-1.26-1.68-2.41-1.73-.86-.04-1.57,.3-2.2,.8,.01-.07,.02-.14,.03-.21,.04-.28-.1-.52-.38-.63-.27-.11-.64-.06-.83,.23-.56,.84-1.01,1.55-1.33,2.43-.22,.6-.38,1.24-.52,1.86-.05-.07-.1-.14-.16-.2-.27-.26-.71-.41-1.15-.31,.01-.09,.01-.19,.01-.3,0-.15,0-.3,.04-.42,.25-1,.52-1.96,.8-2.86l.05-.11h-.02c.13-.6-.22-1.02-.64-1.17-.47-.18-1.06-.04-1.35,.52l-.04,.1c-.84,2.05-1.79,3.03-2.82,2.91-.17-.02-.28-.08-.34-.17-.16-.27,.04-.82,.19-1.22,.03-.09,.07-.18,.09-.25h-.02Z"/>
    <path class="cls-1" d="M102.89,231.01c-1.28-1.22-3.24-1.53-4.77-2.38-1.56-.86-3.01-1.99-4.41-3.09-1.11-.87-2.26-1.92-2.95-3.16-.65-1.18-.99-2.51-1.24-3.82-.56-2.96-.67-5.95-.02-8.91,.78-3.53,1.99-6.95,3.13-10.38,.67-2.03,1.35-4.05,2.03-6.08,.55-1.67,1.57-4.07,.99-5.82-.11-.32-.47-.59-.82-.38-1.53,.89-2.32,3.08-2.97,4.63-.77,1.85-1.55,3.69-2.32,5.54-1.53,3.66-3.25,7.29-4.29,11.13-.94,3.51-1.57,7.26-.72,10.87,.79,3.36,3.01,6.32,5.62,8.5,1.61,1.34,3.38,2.3,5.25,3.22,1,.49,1.99,.99,3,1.47,1.03,.49,2.17,1.16,3.33,1.09,1.13-.07,2.14-1.48,1.15-2.43h0Z"/>
    <path class="cls-1" d="M106.09,233.01c-.04-.06-.09-.12-.14-.18-.34-.45-1.03-.62-1.56-.5-.56,.12-1.02,.54-1.19,1.09-.18,.54-.05,1.15,.34,1.58,.38,.42,1,.63,1.56,.5,.07-.02,.14-.03,.21-.05,.51-.12,.93-.49,1.09-.99,.08-.25,.09-.51,.03-.77-.06-.25-.17-.48-.34-.67Z"/>
    <path class="cls-1" d="M172.8,247.37c-2.72,1.49-5.78,2.89-8.94,3.1-1.72,.12-3.36-.4-5.01-.84-1.43-.38-3.75-1.19-5.11-.41-.65,.38-.7,1.25-.09,1.69,.79,.57,1.92,.58,2.85,.87,.88,.28,1.75,.61,2.63,.89,1.79,.58,3.62,1.01,5.52,.87,1.78-.13,3.51-.58,5.22-1.08,1.66-.48,3.61-1.07,4.8-2.38,1.18-1.31-.1-3.68-1.87-2.71h0Z"/>
    <path class="cls-1" d="M176.35,245.22c-.1-.11-.22-.18-.36-.23-.14-.04-.28-.05-.42-.02-.11,.04-.23,.08-.34,.12-.17,.04-.32,.12-.45,.23-.13,.12-.23,.27-.28,.44-.11,.34-.03,.71,.21,.97,.24,.27,.61,.38,.96,.31,.35-.08,.62-.34,.73-.67,.04-.12,.08-.24,.12-.36,.09-.27,.02-.58-.17-.79h0Z"/>
    <path class="cls-1" d="M187.52,224.55c.23-1.1,.47-2.21,.65-3.32,.16-1,.37-2.21-.46-2.97-.15-.14-.38-.27-.6-.19-1.82,.63-2.04,3.5-2.5,5.11-.63,2.18-1.28,4.36-1.95,6.52-.66,2.14-1.26,4.32-2.03,6.42-.38,1.03-.83,2.01-1.41,2.94-.52,.85-1.31,1.54-1.37,2.57-.04,.73,.61,1.11,1.26,1.05,1.05-.11,1.75-1.14,2.37-1.9,.69-.85,1.25-1.76,1.74-2.74,1.07-2.14,1.85-4.38,2.54-6.67,.68-2.25,1.27-4.51,1.76-6.81Z"/>
    <path class="cls-1" d="M196.69,195.44c.32-.3,.35-.71,.2-1.09-.25-.64-1.02-.89-1.62-1.09-.63-.21-1.2-.34-1.86-.24-.54,.08-.73,.71-.54,1.15,.51,1.18,2.73,2.27,3.81,1.27h0Z"/>
    <path class="cls-1" d="M191.73,198.18c.54,.23,1.03,.48,1.54,.77,.66,.38,1.17,.5,1.86,.11,.42-.24,.58-.73,.38-1.17-.33-.72-.82-.92-1.57-.99-.58-.06-1.13-.14-1.7-.27-1.03-.23-1.47,1.15-.5,1.56h0Z"/>
    <path class="cls-1" d="M103.34,164.23c1.3,.1,1.66-1.59,.73-2.28-.51-.38-1.16-.52-1.77-.64-.71-.14-1.19-.18-1.78,.29-.18,.14-.23,.39-.19,.6,.2,1.17,1.93,1.95,3.01,2.03h0Z"/>
    <path class="cls-1" d="M102.15,167.42c.64,.07,1.24-.48,1.33-1.08,.11-.68-.26-1.21-.88-1.48-.82-.35-1.69-.58-2.51-.93-.55-.23-1.22,.13-1.45,.64-.26,.58-.07,1.15,.42,1.53,.93,.73,1.91,1.21,3.09,1.32Z"/>
    <path class="cls-1" d="M171.83,165.89c-.11-.51-.58-.86-1.1-.88-.52-.01-1.02,.31-1.16,.82-.08,.29-.05,.58,.09,.84,.14,.27,.38,.44,.65,.55,.22,.09,.44,.09,.66,.06,.11-.02,.22-.06,.32-.11,.22-.1,.45-.34,.5-.58,.02-.12,.03-.24,.03-.34,.03-.12,.03-.24,0-.37h0Zm-1.39-.34h0s0,0-.01,0h0Zm-.18,.93s-.03-.04-.04-.06c-.02-.05-.04-.1-.05-.15,.02,.07,.06,.14,.1,.21Z"/>
    <path class="cls-1" d="M243.4,161.19c-1.23-2.14-4.2-2.91-6.32-3.84-2.19-.95-4.35-2.02-6.76-2.23-2.29-.2-4.59,.67-6.25,2.25-1.88,1.79-2.93,4.12-4.39,6.22-1.27,1.82-2.9,3.14-5.25,2.73-.23-.04-.43-.02-.61,.04,.17-.99,.22-2-.12-2.93,5.46-13.74,12.04-27,17.43-40.76,1.39-3.54,2.71-7.11,4.02-10.68,1.14-3.09,2.24-6.2,2.97-9.41,1.19-5.3,2.36-11.08-.33-16.14-1.37-2.58-3.92-4.39-6.24-6.03-2.56-1.81-5.46-2.89-8.45-3.75-1.8-.52-3.57-1.12-5.34-1.74-1.88-.66-3.51-1.72-5.34-2.46-3.49-1.4-6.93-2.88-10.47-4.17-1.83-.67-3.68-1.27-5.51-1.96-1.76-.66-3.4-1.64-5.17-2.3-3.59-1.32-7.24-2.45-10.89-3.59-3.65-1.14-7.32-2.19-11-3.22-1.81-.51-3.71-.75-5.56-1.08-1.93-.35-3.93-.46-5.84-.9-6.22-1.42-12.45-4.07-18.94-3.67-2.86,.17-5.59,.97-7.87,2.75-2.37,1.85-3.69,4.44-4.79,7.18-.54,1.35-.99,2.75-1.41,4.14-.32,1.08,1.25,1.57,1.66,.53,2.03-5.1,4.61-10.63,10.61-11.62,2.63-.43,5.37-.02,7.94,.55,3.21,.71,6.38,1.6,9.54,2.46,3.49,.95,6.76,2.48,10.13,3.8,3.41,1.34,6.98,2.34,10.5,3.37,3.46,1.02,6.91,2.05,10.36,3.12,1.71,.53,3.46,1.07,5.21,1.45,1.86,.4,3.69,.66,5.51,1.22,3.45,1.06,6.87,2.2,10.34,3.18,1.73,.5,3.49,.92,5.21,1.44,.8,.24,1.59,.33,2.4,.48,.97,.17,1.92,.52,2.84,.86,3.17,1.17,6.24,2.54,9.32,3.91,2.7,1.2,5.31,2.27,7.25,4.59,3.51,4.19,2.98,9.99,1.24,14.77-1.01,2.79-2.51,5.39-3.7,8.09-1.45,3.29-2.82,6.63-4.19,9.95-2.78,6.71-5.3,13.49-7.64,20.36-2.34,6.86-4.85,13.66-7.36,20.45-.21,.57-.43,1.13-.65,1.69,0,0-.02,0-.03-.01-.71-.18-1.42-.38-2.12-.56,1.45-3.83,2.83-7.7,4.42-11.48,1.68-3.99,3.35-7.98,4.99-11.98,3.15-7.67,6.43-15.29,9.55-22.97,.7-1.73,1.49-3.47,1.88-5.31,.4-1.91,.71-3.85,.79-5.81,.06-1.59-.11-3.22-.44-4.83,.03-.03,.05-.05,.08-.09,.25-.36,.52-.61,.9-.81,.19-.1,.39-.17,.58-.28,.23-.12,.42-.31,.64-.44,.59-.36,.42-1.24-.29-1.31-.69-.06-1.24,.04-1.84,.42-.2,.13-.4,.27-.59,.41-.22-.74-.47-1.46-.75-2.16,.69-.38,1.32-.84,1.83-1.46,.19-.23-.04-.56-.3-.58-.77-.03-1.52,.12-2.24,.37-.31-.67-.67-1.31-1.05-1.92,.56-.25,1.16-.41,1.73-.64,1.01-.41,2.32-.71,3-1.61,.28-.37,.07-1.08-.42-1.17-1.22-.24-2.45,.57-3.4,1.28-.51,.38-.99,.83-1.46,1.3-.29-.43-.61-.84-.93-1.23,.74-.36,1.4-.91,1.96-1.47,.59-.59,.13-1.88-.81-1.57-.28,.09-.56,.18-.85,.27-.38,.13-.65,.32-.98,.54-.26,.18-.52,.35-.78,.53-.02,.01-.03,.02-.05,.04-3.5-3.47-8.14-5.73-12.88-7.31-3.91-1.3-7.84-2.49-11.73-3.87-4.05-1.44-8.11-2.87-12.23-4.13-4.12-1.26-8.17-2.68-12.27-4-4.1-1.31-8.19-2.63-12.26-4.03-6.55-2.26-14.02-5.2-21.05-3.54-.32,.08-.63,.17-.94,.27-.2-.76-.57-1.51-.84-1.99-.35-.63-1.36-.29-1.19,.43,.14,.64,.14,1.17,.08,1.81-.01,.15-.03,.31-.05,.48-.39,.17-.77,.35-1.14,.55,.42-1.21-.27-2.71-.92-3.72-.46-.71-1.75-.4-1.49,.54,.15,.56,.21,1.12,.33,1.69,.11,.55,.09,1.23,.41,1.71,.13,.19,.34,.35,.57,.43-.38,.24-.75,.49-1.11,.75,.25-1.36-.51-2.77-1.65-3.53-.84-.56-1.74,.56-1.12,1.31,.48,.58,.48,1.37,.34,2.08-.15,.76,.29,1.31,.84,1.47-3.25,2.96-5.6,6.98-7.17,11.13-1.48,3.93-1.46,8.21-2.78,12.17-1.37,4.1-2.82,8.18-4.19,12.27-2.76,8.2-5.54,16.38-8.19,24.61-.58,1.82-1.17,3.64-1.76,5.47-.88,.19-1.74,.45-2.57,.78,.1-.43,.19-.85,.31-1.24,.61-2.16,1.58-4.16,2.28-6.28,1.42-4.3,2.75-8.62,4.08-12.95,1.31-4.26,2.62-8.51,3.93-12.77,1.34-4.33,2.39-8.73,3.69-13.07,.72-2.41,1.44-4.82,2.09-7.25,.33-1.25,.65-2.51,.97-3.76,.29-1.11,.74-2.18,.5-3.34-.09-.45-.68-.64-1.02-.33-.72,.66-.96,1.5-1.31,2.4-.44,1.14-.88,2.28-1.32,3.43-.8,2.08-1.54,4.18-2.27,6.29-1.47,4.29-3.19,8.48-4.63,12.77-2.84,8.52-5.81,17-8.49,25.57-.75,2.4-1.21,4.9-2.04,7.27-.43,1.22-.96,2.4-1.4,3.62-.43,1.21-.95,2.58-.87,3.88h0c-.13,.19-.25,.38-.37,.57-1.77,2.87-2.37,6.39-1.2,9.59,.02,.05,.04,.1,.07,.15-.08,.07-.14,.15-.2,.25-1.18,2.13-1.95,4.46-2.86,6.72-.92,2.28-1.91,4.53-2.77,6.84-1.7,4.53-3.3,9.08-4.87,13.66-3.13,9.14-6.17,18.31-9.17,27.49-1.29,3.97-2.69,7.93-3.63,12-.86,3.71-1.46,7.67-.6,11.44,.84,3.66,2.71,7.06,5.54,9.55,2.9,2.56,6.58,4.24,10.14,5.67,4.2,1.69,8.55,3,12.68,4.86,4.41,1.98,9.03,3.46,13.61,4.99,9.2,3.07,18.47,5.87,27.74,8.71,4.59,1.41,9.18,2.87,13.83,4.11,3.99,1.07,8.11,1.99,12.24,1.4,3.95-.56,7.58-2.9,10.08-5.96,1.32-1.63,2.24-3.5,3.14-5.38,1.06-2.21,2.09-4.44,3.07-6.69,1.86-4.31,3.39-8.79,4.96-13.21,1.58-4.44,3.04-8.93,4.43-13.44,2.79-9.09,5.33-18.25,7.93-27.4,.3-1.08,.64-2.15,.92-3.24,.3-1.17,.4-2.39,.55-3.59,.04-.34-.06-.66-.25-.93,2.06-2.28,3.52-5.04,4.64-7.9,1.62,.46,3.24,.9,4.88,1.28,1.83,.43,3.96,1.18,5.8,.44,1.76-.7,2.96-2.54,4.18-3.9,1.03-1.14,2.06-2.28,3.09-3.42,.21,.19,.41,.38,.62,.56,.22,.19,1.05,.91,1.06,.96,.08,.28-.35,1.25-.45,1.54-.18,.53-.43,1.04-.66,1.56-.4,.91-.82,1.8-1.24,2.7-1.09,2.31-2.19,4.62-3.28,6.93-.21,.07-.39,.2-.54,.41-.18,.27-.21,.63-.11,.93-.41,.87-.83,1.73-1.25,2.6-1.02-.37-2.34-1.19-1.16-2.01,.74-.51,.55-1.82-.17-2.23-1.03-.6-2.37-1.65-3.59-1.2-.89,.33-1.67,1.03-2.25,1.76-1.21,1.52-1.68,3.67-1.18,5.55,.62,2.34,2.3,3.94,4.45,4.9,2.47,1.09,5.17,1.72,7.75,2.49,.84,.25,1.93-.05,2.4-.85,2.6-4.51,5.3-8.97,7.61-13.64,2.33-4.72,4.13-9.64,5.77-14.64,.59-1.78,.95-3.86-.04-5.58v-.02Zm-49.96,14.42c-1.38-.47-2.76-.94-4.14-1.4-.19-.61-.36-1.23-.57-1.83-.23-.62-.57-1.21-.63-1.88-.11-1.4,.33-2.91,.49-4.31,.01-.09-.11-.14-.18-.08-1.22,1.14-1.54,2.57-1.69,4.17-.08,.85-.32,1.74-.24,2.6,.01,.13,.04,.27,.07,.4-.71-.24-1.42-.48-2.13-.72,.08-.5,.04-1.04,.02-1.56-.05-1.02-.1-2,.1-3.01,.18-.93,.51-1.85,.98-2.68,.53-.93,1.21-1.66,1.49-2.7,.22-.8-.47-1.76-1.38-1.51-1.31,.38-2.08,1.32-2.73,2.5-.63,1.13-1.09,2.34-1.34,3.6-.21,1.04-.43,2.86-.13,4.34-4.84-1.64-9.68-3.29-14.53-4.93-.26-1.2-.61-2.29-.58-3.54,.02-1.19,.23-2.36,.6-3.49,.79-2.46,2.21-4.79,3.57-6.98,0-.02,.01-.03,.02-.06,1.31,.46,2.62,.9,3.93,1.34-1.34,.28-2.41,1.05-3.16,2.25-.49,.77-.83,1.63-1.06,2.52-.23,.89-.58,1.98-.3,2.88,.23,.73,1.15,.94,1.61,.29,.46-.64,.46-1.38,.63-2.13,.16-.71,.36-1.44,.65-2.11,.49-1.12,1.39-2.31,2.52-2.82,.24-.11,.31-.31,.27-.5,2.21,.71,4.44,1.39,6.68,1.99,4.32,1.14,8.65,2.21,13,3.21-.29,.32-.57,.66-.85,1.04-.91,1.2-1.27,2.39-1.75,3.79-.45,1.3-.88,2.59-1.17,3.94-.26,1.22-.69,2.79-.28,4,.38,1.13,1.76,1.19,2.25,.1,.46-1.04,.38-2.35,.64-3.46,.26-1.13,.64-2.3,1.21-3.32,1-1.8,2.76-3.31,3.47-5.28,1.02,.23,2.04,.44,3.06,.65-.96,.79-1.78,1.87-2.33,2.68-1.49,2.22-2.26,4.84-2.97,7.39-.54,1.93,2.39,2.89,2.98,.95,.66-2.16,1.35-4.32,2.52-6.28,.48-.8,1.04-1.53,1.67-2.21,.56-.62,1.27-1.07,1.65-1.8,.99,.2,1.99,.39,2.98,.58-1.15,1.01-2.05,2.51-2.85,3.77-1.96,3.11-3.46,6.58-4.31,10.16-.17,.7-.34,1.44-.45,2.18-2.39-1.01-4.83-1.87-7.3-2.71h0Zm-42.94-14.58c.02-.49-.04-1.02-.12-1.5-.08-.45-.37-.91-.55-1.33-.34-.79-1.4-.53-1.67,.14-.18,.44-.44,.88-.5,1.35-.01,.12-.03,.24-.04,.37-.69-.24-1.38-.48-2.07-.71,.41-1.25-.23-2.67-.32-3.95-.1-1.36-.07-2.76,.24-4.1,.3-1.35,.86-2.47,1.65-3.59,.65-.91,1.58-1.72,2.04-2.74,.86,.32,1.72,.63,2.58,.94-.57,.32-1.08,.74-1.55,1.38-.81,1.1-1.33,2.47-1.44,3.82-.16,1.86,2.9,2.47,3.3,.58,.37-1.71,.98-3.47,1.9-4.98,2.13,.77,4.26,1.52,6.4,2.25,1.73,.59,3.46,1.2,5.19,1.81-1.98,1.49-3.51,3.56-4.36,5.89-.57,1.58-.98,3.77-.63,5.43,.18,.84,.35,1.64,.47,2.49-.31-.11-.62-.21-.93-.31-3.19-1.08-6.38-2.17-9.58-3.25h.01Zm-8.13-23.25c-.27-.11-.54-.23-.82-.34,.03-.03,.06-.05,.08-.07,.51-.63,.99-1.18,1.24-1.96,.24-.74,.39-1.54,.59-2.3,.07-.27,.14-.54,.21-.82,.48,1.08,1.66,2.29,2.79,1.46,.23-.16,.18-.49,.04-.68-.26-.36-.68-.53-1.05-.74-.38-.22-.64-.53-.82-.93-.13-.28-.4-.36-.65-.3,.09-.33,.18-.67,.26-1,.51,.56,1.19,.97,1.95,1.3,1.17,.5,3.1,.64,3.82-.67,.17-.31,.15-.63-.07-.91-.62-.78-1.76-.99-2.66-1.3-.81-.28-1.56-.73-2.35-1.07,.46-1.75,.91-3.49,1.37-5.24,.15,.12,.31,.23,.46,.35,.3,.22,.54,.37,.92,.42,.65,.09,1.25-.8,.87-1.35-.14-.21-.26-.36-.48-.49-.09-.06-.19-.1-.28-.14-.22-.11-.44-.22-.66-.34-.12-.06-.25-.1-.39-.12,.07-.27,.14-.54,.21-.81,.02-.07,.04-.13,.06-.19,.25,.28,.54,.53,.88,.74,.76,.46,2.03,.96,2.66,.04,.11-.16,.12-.4,.03-.57-.33-.63-1.03-.67-1.61-.94-.58-.27-1.07-.72-1.41-1.25,.16-.58,.33-1.16,.49-1.74,.54,.81,1.26,1.5,2.14,2,1.19,.67,3.85,1.71,4.73,.08,.15-.28,.13-.57-.06-.82-.77-.99-2.49-.76-3.58-1.19-1.03-.41-1.96-1.03-2.74-1.81,.28-1.01,.56-2.02,.83-3.04,1.43,1.85,3.56,3.21,5.94,3.33,1.11,.05,1.5-1.73,.35-1.98-2.31-.52-4.32-1.34-5.87-3.18,.12-.65,.24-1.3,.39-1.94,.78,.93,2.19,1.98,3.38,1.61,.88-.27,1.06-1.31,.34-1.87-.71-.55-1.62-.54-2.29-1.25-.25-.26-.49-.55-.69-.87,.34-1.01,.69-2.03,1.06-3.03,.18-.51,.36-1.02,.55-1.53,.43,.23,.86,.46,1.3,.67,.7,.34,1.28,.67,2.08,.7,.49,.02,.81-.61,.46-.98-.81-.84-2.16-1.32-3.37-1.69,.12-.34,.24-.67,.36-1.01,.82,.77,1.82,1.24,3,1.5,1.2,.26,3.27,.31,3.9-.97,.15-.3,.11-.6-.17-.81-.84-.63-2.14-.44-3.14-.59-.98-.15-2.03-.53-2.95-.98,1.38-3.94,2.72-7.88,4.15-11.8,1.01-2.75,1.89-5.61,3.12-8.27,.86-1.84,2.4-3.63,4.59-3.75,.5-.03,1.05,.04,1.51,.26,.49,.24,.55,.6,.69,1.08,.3,1.06,.56,2.18,1.69,2.63,1.18,.46,2.62,0,3.04-1.1,.19,2.06-.23,4.06-.21,6.13,.02,2.23-.07,4.46-.25,6.67-.18,2.2-.67,4.35-1.11,6.51-.22,1.09-.44,2.18-.67,3.27-.89-.19-1.82,.1-2.71,.18-1.01,.1-2.06-.12-3.05-.27-.94-.14-1.1,1.12-.51,1.6,1.34,1.08,4.13,1.56,5.8,.57-.09,.39-.18,.79-.28,1.18h0c-.52-.05-1.08,.03-1.58,.08-.82,.09-1.8,.09-2.45,.66-.36,.31-.3,.89,.09,1.15,.72,.48,1.72,.36,2.55,.33,.32-.01,.66-.01,.99-.05-.21,1.5-.34,3.02-.73,4.49-.6,2.29-1.27,4.56-1.99,6.81-1.51,4.69-3.63,9.12-5.64,13.61-2.16,4.83-4.29,9.68-6.45,14.5-4.11-1.57-8.19-3.23-12.25-4.91h0Zm23.42,7.7c.47-1.48,.93-2.96,1.38-4.44,.04,.1,.09,.21,.18,.31,.92,1.13,2.19,1.97,3.61,2.33,1.21,.31,2.76,.32,3.48-.84,.19-.3,.17-.62-.07-.87-.19-.2-.33-.16-.59-.25,0,0-.57-.3-.83-.33-.74-.08-1.45,.02-2.2-.19-.75-.21-1.41-.6-1.97-1.13-.42-.4-.94-.35-1.29-.08,.26-.87,.51-1.75,.76-2.62,1.96,1.62,4.51,1.66,7.01,.91,.26-.08,.25-.48-.05-.49-.68-.03-1.36-.05-2.02-.24-.59-.17-1.11-.48-1.68-.7-.93-.36-1.88-.7-2.82-1.06,.19-.68,.38-1.37,.56-2.06,1.62,1.9,4.42,2.92,6.69,1.75,1.13-.58,.62-2.07-.49-2.24-1.18-.17-2.37-.23-3.45-.8-.76-.4-1.42-.89-2.02-1.46,.22-.86,.45-1.72,.68-2.57,.3,.3,.7,.5,1.09,.65,.83,.3,1.72-.31,1.86-1.13,.14-.81-.47-1.72-1.36-1.71h-.18c-.14-.04-.26-.06-.39-.07-.02-.01-.05-.02-.07-.03-.03-.04-.07-.08-.1-.12-.04-.05-.09-.09-.14-.13,.15-.52,.29-1.04,.45-1.56,.35,.29,.76,.53,1.18,.72,1.07,.47,2.22,.74,3.33,1.07,1.11,.32,2.42,.88,3.47,.15,.51-.35,.71-.85,.46-1.44-.6-1.42-2.47-1.62-3.79-2.01-.45-.13-3.64-.66-3.5-1.46,.05-.26,0-.51-.08-.72,.35-1.18,.69-2.37,1.03-3.55,.28-.98,.51-1.97,.74-2.96,.18,.65,.59,1.22,1.16,1.6,.63,.41,1.71,.65,2.18-.14,.17-.29,.15-.63-.07-.88-.54-.66-1.55-.32-1.98-1.15-.24-.46-.79-.46-1.11-.18,.24-.98,.49-1.97,.81-2.93,.38,.83,.91,1.58,1.68,2.13,.94,.68,2.87,1.3,3.78,.29,1.02-1.13-.18-2.07-1.31-2.25-1.23-.2-2.6-.58-3.44-1.55-.05-.06-.1-.1-.16-.12,.27-.69,.55-1.38,.85-2.07,1.05,1.38,2.63,2.4,4.16,3.11,.87,.4,1.75,.74,2.68,.99,.99,.27,2.22,.69,3.15,.09,.72-.47,.86-1.24,.36-1.93-.52-.72-1.39-.82-2.18-1.11-.82-.3-1.57-.71-2.3-1.18-1.46-.93-2.65-2.21-4.08-3.17-.08-.05-.16-.1-.24-.13,1.89-3.93,4.1-7.76,6.53-11.37,1.35-2,2.86-3.87,4.62-5.52,.65-.61,1.35-1.23,2.12-1.66,.37-.21,.6-.28,1-.41,.3-.1,.58-.27,.87-.41,1.57,.75,1.69,2.81,1.68,4.42,0,.51-.07,1.02-.06,1.52,.02,.73,.32,1.07,.76,1.58,.55,.65,.8,1.16,.87,2.02,.15,1.99-.39,4.02-.65,5.98-.34,2.51-.58,5.06-1.05,7.55-.55,2.94-1.18,5.88-1.99,8.77-.33-1.41-2.93-1.63-3.94-.98-.67,.43-.78,1.64,.15,1.87,.64,.15,1.31,.17,1.96,.3,.05,.01,.11,.01,.16,.02-.44,.16-1.1,.24-1.2,.24-.98,.01-.66,1.55,.25,1.14,.45-.2,1.38-.07,1.21,.69-.04,.2-.27,.38-.41,.49-.4,.32-.79,.37-1.01,.86-.09,.21,.05,.44,.2,.57,.04,.03,.08,.07,.12,.1,.18,.14,.48,.14,.68,.03,.05-.03,.09-.06,.13-.08-.05,.15-.11,.3-.16,.45-.91,2.38-1.92,4.7-2.72,7.11-.78,2.34-1.53,4.68-2.32,7.02-1.77,5.23-4,10.32-6.35,15.31-4.97-1.51-9.95-3.03-14.89-4.65-.08-.03-.16-.05-.24-.08,.39-.15,.71-.44,.86-.9h.01Zm27.1-28.46s.09-.04,.13-.06c-.21,.73-.44,1.45-.67,2.17-.16-.55-.53-1.06-1.02-1.39,.16-.2,.34-.4,.54-.53,.36,.03,.71-.02,1.03-.18h0Zm-30.14,48.17s.02-.09,.02-.14c.1-.87,.09-1.61,.35-2.45,.45-1.46,.43-3.01,.7-4.5,.46-2.55,1.14-5.1,3.18-6.79,.96,.34,1.93,.68,2.9,1.02-2.06,2.05-3.72,4.29-4.6,7.1-.6,1.93-.95,4.43-.37,6.5-.72-.25-1.45-.49-2.18-.74Zm45.31-70.91c.41-1.34,.74-2.75,1.28-4.06,.45-1.09,1.2-1.76,2.43-1.49,2.29,.5,3.15,3.2,3.77,5.13,0,0,0,0,.01,0,.03,.11,.06,.22,.1,.32,.51,1.39,2.91,.54,2.46-.89-.05-.15-.1-.3-.15-.45-.13-.62,.68-.47,.91,.15,.37,.99,.34,2.26,.44,3.31,.21,2.16,.09,4.4,.08,6.58-.04,4.42-.28,8.82-.77,13.21-.13,1.15-.28,2.29-.46,3.42-.6-.17-1.21,0-1.82,.12-.73,.15-1.44,.39-2.16,.58-.31,.08-.3,.62,.06,.6,.73-.05,1.47-.06,2.2-.15,.54-.06,1.11-.12,1.59-.36-1.24,7.5-3.53,14.73-6.44,21.79-2.04,4.97-4.51,9.74-7.04,14.47-.39,.73-.18,1.45,.27,1.93-1.66-.46-3.32-.92-4.97-1.39,.17-.19,.34-.38,.5-.58,.34-.08,.65-.22,.93-.44,.28-.23,.26-.57,.09-.82,3.02-3.91,5.32-8.4,7.03-13.01,1.1-2.98,1.54-6.33,1.72-9.48,.18-3.22-.02-6.42-.91-9.52-.28-.97-1.98-.98-1.9,.17,.22,2.95,.38,5.93,.19,8.89-.2,3.07-.91,5.97-1.63,8.95-.2,.81-.43,1.61-.69,2.4,.32-2.2-.05-4.6-.65-6.49-.13-.39-.68-.27-.63,.14,.22,1.66,.24,3.42,.05,5.09-.17,1.58-.69,3.13-.78,4.71-.02,.3,.36,.37,.52,.17,.03-.03,.05-.07,.07-.11-.5,1.07-1.06,2.11-1.68,3.12,.28-.94,.25-1.96,.29-2.95,.07-1.46,.08-2.9,.06-4.36,0-.74-1.04-.77-1.14-.05-.19,1.45-.35,2.89-.45,4.35-.09,1.26-.31,2.55,.18,3.75,.07,.17,.27,.25,.45,.22-.71,1.09-1.49,2.14-2.31,3.15,.05-.3,.1-.6,.15-.88,.26-1.27,.53-2.54,.78-3.81,.23-1.18,.46-2.36,.67-3.55,.24-1.34,.04-2.64,.04-3.99,0-.4-.51-.46-.66-.12-.52,1.21-1.19,2.29-1.52,3.57-.32,1.25-.57,2.53-.85,3.79-.26,1.2-.5,2.4-.75,3.6-.11,.55-.28,1.12-.4,1.7-.01,0-.03,0-.04-.02-.37-.17-.56,.39-.29,.61,.07,.05,.13,.11,.2,.16-.03,.22-.04,.44-.04,.67-2.23-.66-4.46-1.33-6.69-2.01,.56-1.08,1.01-2.21,1.41-3.36,.52,.62,1.21,1.08,2.01,1.3,1.09,.29,2.57,.29,3.29-.71,.23-.31,.07-.91-.35-.99-.79-.14-1.58,.11-2.38-.07-.78-.17-1.49-.52-2.06-1.08,.14-.45,.29-.89,.43-1.34,.13-.39,.25-.77,.38-1.15,.28,.28,.59,.52,.96,.62,.61,.16,1.26-.48,.92-1.08-.12-.21-.23-.4-.43-.55-.13-.09-.28-.16-.42-.24-.18-.1-.35-.19-.53-.29,.19-.58,.38-1.17,.57-1.76,1.21,1.18,2.78,2.03,4.39,1.49,.67-.22,.83-1.01,.26-1.45-.36-.28-.6-.53-1.03-.72-.41-.18-.83-.3-1.23-.51-.64-.34-1.16-.79-1.62-1.32,.05-.16,.1-.31,.14-.47,.84-2.96,1.68-5.93,2.57-8.88,.37,1.14,1.06,2.28,2.07,2.96,.93,.63,2.47,1.29,3.44,.44,.34-.3,.38-.87,.07-1.21-.59-.63-1.48-.56-2.21-.96-.81-.45-1.38-.96-1.77-1.81-.26-.55-.96-.54-1.35-.22,.25-.8,.5-1.61,.76-2.41,.35,.65,.78,1.25,1.31,1.81,1.17,1.2,2.98,2.33,4.7,1.78,.35-.11,.63-.6,.29-.91-1.01-.92-2.3-1.45-3.38-2.29-.87-.68-1.65-1.6-2.19-2.6,.12-.35,.24-.69,.36-1.04,.6-1.69,1.24-3.37,1.82-5.07,.36,.38,.8,.68,1.34,.85,1.03,.32,2.29,.33,3.17-.35,.3-.23,.07-.69-.26-.72-.83-.07-1.57-.04-2.34-.45-.5-.26-.99-.54-1.41-.9,.12-.38,.24-.76,.35-1.15,.15-.53,.28-1.06,.42-1.59,.3,.41,.64,.8,1.03,1.14,.63,.57,1.71,1.33,2.59,1.01,.39-.14,.75-.59,.48-1.02-.43-.68-1.27-.91-1.95-1.3-.68-.38-1.24-.88-1.73-1.46,.21-.82,.41-1.64,.63-2.46,.15,.29,.31,.56,.5,.83,.65,.95,1.46,1.8,2.47,2.38,2.1,1.2,4.74,1.65,7.02,.76,.53-.21,.75-.89,.66-1.4-.02-.1-.07-.21-.11-.3-.15-.38-.67-.71-1.08-.69-1.8,.11-3.5,.2-5.11-.77-.7-.42-1.37-.89-1.92-1.49-.29-.32-.54-.67-.82-1-.24-.28-.63-.45-.82-.73-.03-.04-.07-.07-.1-.11,.67-2.37,1.32-4.72,1.77-7.14,.14-.72,.31-1.44,.5-2.14-.02,1.66,.72,3.31,2.17,4.32,2.44,1.7,5.84,1,7.39-1.54,1.43-2.33,.88-6.82-2.19-7.54-.26-.06-.53-.01-.75,.12-.57-.27-1.22-.37-1.98-.34-1.43,.07-2.72,.74-3.58,1.88-.07,.09-.13,.19-.2,.29,.3-.91,.6-1.82,.89-2.74h.01Zm4.89,2.94c.61,1.17,1.5,2.28,.95,3.64-.62,1.53-2.36,2.2-3.82,1.4-1.43-.79-1.82-2.64-.87-3.97,.81-1.14,2.4-1.33,3.74-1.07Zm-8.38,83.01c-.05-.45,.02-.94,.08-1.35,.27-1.81,.84-3.62,1.48-5.33,.64-1.71,1.44-3.32,2.4-4.88,.47-.76,.97-1.5,1.51-2.22-.08,.67-.18,1.34-.33,1.99-.07,.31-.14,.62-.22,.92-.23-.08-.5-.07-.72,.1-1.53,1.15-2.59,3.45-2.14,5.38,.1,.41,.33,.65,.62,.75-.78,1.67-1.66,3.29-2.53,4.92-.03-.1-.08-.2-.14-.29h0Zm5.6-15.15c-.04-.05,.04-.15,0,0h0ZM127.83,83.05c.88-1.83,1.94-3.62,2.72-5.49,.75-1.79,1.46-3.56,2.41-5.25,1.6-2.84,3.41-5.56,6.13-7.45,5.42-3.78,12.58-2.52,18.55-1.04,3.87,.96,7.77,1.86,11.59,3,3.99,1.18,7.97,2.39,11.95,3.59,3.92,1.18,7.74,2.63,11.63,3.88,3.94,1.27,7.97,2.44,11.84,3.93,6.48,2.48,14.29,5.15,18.01,11.46,1.59,2.69,2.98,5.43,3.18,8.61,.23,3.56-.33,6.96-.91,10.45-.57,3.48-1.69,6.89-2.91,10.19,1.02-7.28,1.04-14.65-.26-21.97-.37-2.07-.12-5.71-2.56-6.59-.71-.26-1.46-.21-2.13,.08-.55-1.22-1.28-2.35-2.39-3.14-1.57-1.11-3.8-1.44-5.5-.43-2.18,1.3-2.66,4.47-3.38,6.68-.4,1.24-.77,2.48-1.12,3.74-.43,1.57-1.04,2.98-1.69,4.46-1.18,2.73-2.04,5.56-3.08,8.34-1.03,2.77-2.18,5.52-2.95,8.38-1.55,5.72-3.21,11.39-5.12,17.01-1.07,3.15-2.11,6.29-3.07,9.48-.8,2.68-1.79,5.39-2.14,8.18-.95-.29-1.9-.59-2.85-.88,1.82-3.84,3.54-7.72,5.11-11.67,1.68-4.23,3.67-8.45,4.71-12.9,1.05-4.48,1.85-9.01,2.81-13.5,.96-4.46,2.17-8.87,3.03-13.35,.64-3.36,1.7-8.17-.45-11.26,.19-2.52-.06-5.16-1.85-7.13-.79-.87-1.67-1.25-2.71-1.69-.47-.2-.89-.47-1.39-.6-.89-.23-1.71,0-2.52,.35-2.2,.93-3.65,2.81-4.92,4.75-1.58,2.4-3.22,4.77-4.74,7.21-3.02,4.86-5.44,10.05-7.6,15.33-1.12,2.74-2.61,5.33-3.65,8.09-1.09,2.87-1.91,5.85-2.72,8.81-.91,3.3-1.85,6.63-2.52,9.99-.67,3.39-1.15,6.82-1.62,10.24-.04,.28,0,.53,.1,.74-1.62-.55-3.24-1.13-4.85-1.72,2.03-4.25,4.12-8.5,5.93-12.85,.98-2.35,2.02-4.72,2.82-7.13,.76-2.29,1.47-4.59,2.32-6.86,.89-2.38,1.72-4.78,2.47-7.2,.66-2.12,1.68-4.17,2.26-6.31,.63-2.31,.87-4.82,1.16-7.19,.28-2.21,.33-4.44,.37-6.67,.04-2.63,.17-5.24,.06-7.86-.03-.65-.04-1.32-.11-1.97-.07-.66-.34-1.2-.51-1.83-.33-1.22-.52-2.6-.65-3.86-.03-.31-.38-.55-.67-.56-.47-.02-.91-.02-1.38,.03-.44,.05-.67,.63-.47,.99,.2,.36,.04,.77-.35,.92-.46,.18-.23,.18-.35-.15-.06-.16,.04-.43,.04-.6,0-.29-.08-.59-.13-.88-.19-1.14-.54-1.92-1.41-2.7-1.49-1.35-3.46-1.91-5.44-1.45-2.29,.52-3.74,2.56-4.81,4.53-1.33,2.44-2.25,5.14-3.24,7.73-2.18,5.69-4.42,11.43-6.11,17.28-.86,2.98-1.63,5.97-2.88,8.81-1.23,2.81-2.02,5.87-2.89,8.81-.99,3.31-1.96,6.62-2.84,9.95-.43,1.6-.82,3.21-1.21,4.81-.21,.84-.42,1.68-.6,2.52-.18,.81-.08,1.51,.07,2.28-1.25-.52-2.5-1.04-3.75-1.57,1.75-3.71,3.4-7.45,4.91-11.26,1.68-4.23,3.67-8.45,4.71-12.9,1.05-4.48,1.85-9.01,2.81-13.5,.96-4.46,2.17-8.87,3.03-13.35,.64-3.36,1.7-8.18-.45-11.26,.19-2.52-.06-5.16-1.85-7.13-.79-.87-1.67-1.25-2.71-1.69-.47-.2-.89-.47-1.38-.6-.89-.23-1.71,0-2.53,.35-2.2,.93-3.65,2.81-4.92,4.75-1.58,2.4-3.22,4.77-4.74,7.21-3.02,4.86-5.44,10.05-7.6,15.33-.14,.34-.28,.67-.43,1,.34-1.09,.68-2.18,1.02-3.28,.6-1.96,1.37-3.79,2.26-5.63h-.02Zm3.49,50.1c-.46-.2-.93-.4-1.4-.61,2.13-.81,3.3-4.39,4.09-6.11,1.65-3.59,3.32-7.17,4.79-10.85,1.33-3.32,2.75-6.78,2.3-10.42-.18-1.45-.62-2.98-1.41-4.22-.71-1.12-1.89-2.53-3.34-2.44-.53,.03-.98,.45-.85,1.02,.26,1.1,1.14,1.91,1.63,2.92,.52,1.05,.86,2.14,.96,3.32,.26,2.91-.59,5.8-1.86,8.38-1.41,2.85-2.83,5.68-4.17,8.56-.56,1.21-1.12,2.43-1.69,3.64-.03-.17-.07-.34-.13-.52-.06-.17-.23-.23-.38-.12-1.14,.81-1.41,2.11-1.79,3.39-.43,.19-.73,.44-1.04,.92-.25,.39-.31,.8-.23,1.19-.42-.17-.84-.35-1.27-.51,.52-.08,1-.27,1.36-.61,.29-.27,.16-.7-.18-.85-.93-.39-2.13-.4-3.12-.63-.94-.22-2.37-.59-3.12-1.26-.07-.06-.2,0-.14,.1,.37,.67,.45,1.22,1.03,1.74,.05,.04,.1,.09,.15,.14-.52-.14-1.04-.28-1.56-.39-.78-.17-1.59-.31-2.42-.41,.46-1.44,.91-2.89,1.35-4.33,.04,.1,.09,.21,.17,.31,.92,1.13,2.19,1.97,3.61,2.33,1.21,.31,2.76,.32,3.48-.84,.19-.3,.17-.62-.06-.87-.19-.21-.33-.16-.58-.25,0,0-.57-.3-.84-.33-.74-.08-1.45,.02-2.2-.19-.75-.21-1.41-.6-1.97-1.13-.43-.4-.94-.35-1.29-.08,.26-.87,.51-1.75,.76-2.62,1.96,1.62,4.51,1.66,7.01,.91,.26-.08,.25-.48-.04-.49-.68-.03-1.36-.05-2.03-.24-.59-.17-1.11-.48-1.68-.7-.93-.36-1.88-.7-2.82-1.06,.19-.68,.38-1.37,.56-2.06,1.62,1.9,4.42,2.92,6.69,1.75,1.13-.58,.62-2.07-.49-2.24-1.18-.17-2.37-.23-3.45-.8-.76-.4-1.42-.89-2.02-1.46,.22-.86,.45-1.72,.68-2.57,.3,.3,.7,.5,1.09,.65,.83,.3,1.72-.31,1.87-1.13,.14-.81-.47-1.72-1.36-1.71h-.18c-.14-.04-.26-.06-.39-.07-.02-.01-.05-.02-.07-.03-.03-.04-.07-.08-.1-.12-.04-.05-.09-.09-.14-.13,.15-.52,.29-1.04,.44-1.56,.36,.29,.76,.53,1.18,.72,1.07,.47,2.22,.74,3.33,1.07,1.11,.33,2.42,.88,3.47,.15,.51-.35,.71-.85,.46-1.44-.6-1.42-2.47-1.63-3.79-2.01-.45-.13-3.64-.66-3.5-1.46,.05-.26,.01-.51-.08-.72,.35-1.18,.69-2.36,1.03-3.55,.28-.98,.51-1.97,.74-2.96,.19,.65,.58,1.22,1.16,1.6,.63,.41,1.71,.65,2.18-.14,.17-.29,.14-.63-.07-.88-.54-.66-1.55-.31-1.98-1.15-.24-.46-.79-.45-1.11-.18,.24-.98,.49-1.97,.81-2.93,.38,.83,.91,1.58,1.68,2.13,.94,.68,2.87,1.3,3.78,.29,1.02-1.13-.18-2.07-1.31-2.25-1.23-.2-2.6-.58-3.44-1.55-.05-.05-.1-.1-.16-.12,.27-.69,.55-1.38,.85-2.07,1.05,1.38,2.63,2.4,4.16,3.11,.87,.4,1.75,.74,2.68,.99,.99,.27,2.22,.69,3.15,.09,.72-.47,.86-1.24,.36-1.93-.52-.72-1.39-.82-2.18-1.11-.82-.3-1.57-.71-2.3-1.18-1.46-.93-2.65-2.21-4.08-3.17-.08-.05-.16-.1-.24-.13,1.89-3.93,4.11-7.76,6.54-11.37,1.34-2,2.86-3.87,4.62-5.52,.65-.61,1.35-1.23,2.12-1.66,.37-.21,.6-.28,1-.41,.3-.1,.58-.27,.87-.41,1.57,.75,1.69,2.81,1.68,4.42,0,.51-.07,1.02-.06,1.52,.02,.73,.33,1.07,.76,1.58,.55,.65,.8,1.16,.87,2.02,.15,1.99-.39,4.02-.65,5.98-.34,2.51-.58,5.06-1.05,7.55-.55,2.94-1.18,5.88-1.99,8.77-.33-1.41-2.93-1.63-3.94-.98-.67,.43-.78,1.64,.15,1.87,.64,.15,1.31,.17,1.96,.3,.05,.01,.11,.01,.16,.02-.44,.16-1.1,.24-1.2,.24-.99,.01-.66,1.55,.25,1.14,.45-.2,1.38-.07,1.21,.69-.04,.2-.27,.38-.41,.49-.4,.32-.79,.37-1.01,.86-.1,.21,.04,.44,.2,.57,.04,.03,.08,.07,.12,.1,.18,.14,.48,.14,.68,.03,.05-.03,.09-.06,.13-.08-.06,.15-.11,.3-.16,.45-.91,2.38-1.92,4.7-2.72,7.11-.78,2.34-1.53,4.68-2.32,7.02-1.68,4.96-3.77,9.79-5.99,14.54-.27-.12-.54-.23-.8-.34h0Zm13.27-32.97s.09-.04,.13-.06c-.21,.72-.44,1.45-.67,2.17-.16-.55-.53-1.06-1.02-1.39,.16-.21,.34-.4,.54-.53,.36,.03,.7-.02,1.03-.18h0Zm-28.76,19.06c-.54,2.94-.95,5.9-1.37,8.86-.01,.09-.01,.18-.01,.26-.57,0-1.13,.03-1.7,.08,1.03-3.06,2.06-6.12,3.08-9.19Zm-7.14,14.78c1.79-1.09,3.67-1.55,5.64-1.62-.3,.32-.58,.66-.84,1.02-.98,1.34-2.01,3.51-1.88,5.2,.14,1.84-.43,3.72-.44,5.59-.01,1.82,2.8,1.96,2.85,.12,.03-1.26,.02-2.91,.62-4.06,.3-.57,.82-1.03,1.12-1.64,.29-.59,.55-1.17,.89-1.73,.51-.84,1-1.57,1.8-2.14,.83-.59,1.7-.75,2.59-1.13,.17,.05,.33,.04,.46-.02,.19,.06,.37,.13,.56,.2-.92,.55-1.71,1.3-2.36,2.15-.87,1.14-1.5,2.54-1.91,3.91-.44,1.48-.85,3.27,.19,4.57,.66,.82,1.12,.56,1.78-.17,1.01-1.12,.84-3.01,1.24-4.4,.71-2.45,2.5-3.67,4.64-4.62,.68,.3,1.35,.6,2.02,.9,.04,.02,.08,.03,.12,.05-.58,.35-1.1,.83-1.48,1.25-.97,1.04-1.77,2.49-1.86,3.92-.12,1.75,2.22,1.92,2.85,.51,.41-.93,.72-1.75,1.42-2.52,.61-.67,1.51-1.07,1.89-1.89,2.61,1.16,5.22,2.31,7.87,3.38,2.52,1.02,5.05,2,7.6,2.97-1.82,1.57-2.92,4.6-3.64,6.53-.58,1.56-.98,3.24-1.07,4.9-.05,.87-.07,1.82,.09,2.71-1.19-.41-2.38-.81-3.57-1.22-.19-.29-.37-.59-.48-.89-.31-.81-.46-1.69-.44-2.56,.02-1,.39-2.07,.32-3.04-.07-1.06-1.28-1.84-2.17-1.02-1.45,1.34-1.49,3.94-1.2,5.74,.02,.15,.05,.31,.09,.48-.4-.13-.8-.26-1.2-.38,0-.02,0-.03,0-.05,.07-1.33-.81-2.54-.95-3.84-.06-.59-.03-1.21,.08-1.78,.1-.5,.03-1.18,.17-1.58,.17-.51-.48-.91-.87-.56-.26,.23-.52,.27-.8,.47-.34,.25-.51,.61-.71,.96-.38,.7-.73,1.41-.92,2.19-.21,.84-.4,1.88-.34,2.86-.62-.18-1.23-.36-1.85-.54-3.75-1.08-7.65-2.04-11.18-3.73-2.55-1.21-5.26-2.18-7.57-3.8-1.94-1.37-3.32-3.24-3.11-5.76,.19-2.23,1.87-4.65,3.91-5.89h0Zm78.88,100.62c-1.68,4.1-3.5,8.17-5.41,12.17-1.59,3.35-3.31,7.08-6.54,9.18-2.93,1.9-6.81,1.55-10.05,.83-4.17-.93-8.29-2.2-12.4-3.33-9-2.48-17.91-5.24-26.79-8.14-4.44-1.45-8.86-2.92-13.28-4.43-4.43-1.5-8.94-2.63-13.34-4.22-6.56-2.36-14.85-4.67-18.08-11.55-1.38-2.93-1.18-6.58-.76-9.71,.48-3.56,1.63-7.02,2.73-10.43,2.84-8.86,5.84-17.66,8.91-26.44,1.54-4.42,3.1-8.85,4.59-13.3,1.49-4.46,2.7-8.99,3.95-13.51,.43-1.54,.91-3.08,1.26-4.65,.92,1.11,2.04,2.06,3.28,2.84-1.32,.9-1.74,3.03-2.25,4.44-.56,1.56-1.61,3.53-.36,4.99,.62,.73,1.83,.6,2.34-.18,.39-.6,.47-1.3,.68-1.97,.26-.8,.49-1.61,.73-2.42,.34-1.16,.93-2.57,.73-3.83,1.13,.58,2.32,1.11,3.51,1.46,1.67,.49,3.42,.63,5.08,1.15,3.86,1.21,7.62,2.65,11.4,4.1,7.67,2.93,15.56,5.28,23.36,7.85,7.73,2.55,15.46,5.11,23.19,7.66,3.83,1.26,7.66,2.53,11.49,3.79,3.89,1.28,7.76,2.74,11.71,3.82,.09,.02,.17,.04,.26,.07-.15,.26-.28,.53-.42,.81-.49,1-.97,2.02-1.34,3.08-.37,1.04-.65,2.14-.87,3.23-.2,1.03-.35,2.09,.42,2.91,.35,.37,.91,.48,1.37,.25,1.01-.51,1.24-1.53,1.49-2.54,.24-.95,.53-1.87,.82-2.8,.29-.93,.58-1.86,.93-2.77,.19-.49,.4-.95,.5-1.41,.17,.04,.35,.08,.52,.12,.04,.11,.06,.21,.1,.32,.38,.94,1.22,1.92,2.2,2.4-1.38,3.52-2.25,7.25-3.28,10.89-1.25,4.41-2.51,8.81-3.77,13.21-2.5,8.77-5.13,17.63-8.6,26.07h0Zm31.93-45.82c-.56-.3-.83-.5-1.02-1.11-.15-.48-.16-1.01-.07-1.5,.15-.84,.59-1.55,1.24-2.04,.04,.02,.08,.04,.11,.05-.21,.85-.1,1.78,.37,2.58,.88,1.55,2.63,2.15,4.29,2.43,.1,.02,.2,0,.31-.02,.38,.32,.76,.63,1.14,.95,.46,.38,1.01,.84,1.62,.93-.07,.12-.14,.25-.2,.37-2.66-.69-5.36-1.34-7.78-2.64Zm14.68-10.45c-1.86,3.72-3.79,7.41-5.79,11.06-.29-.44-.76-.79-1.18-1.09-.38-.27-.77-.55-1.16-.82,.34-.66,.68-1.33,1.02-1.99,.54,.31,1.1,.6,1.67,.84,1.18,.48,1.93-1.29,.94-1.97-.49-.34-1.03-.62-1.57-.89,.25-.48,.49-.95,.74-1.43,.08,.07,.17,.13,.26,.19,.21,.14,.4,.16,.65,.22,.72,.18,1.25-.62,.78-1.2-.13-.16-.21-.32-.38-.45-.15-.11-.34-.19-.5-.28,.89-1.7,1.78-3.38,2.69-5.07,.57-1.06,1.12-2.13,1.84-3.09,.7-.93,1.42-2.01,1.21-3.24-.03-.2-.09-.39-.15-.57,.23-.14,.46-.28,.68-.42,.71-.44,1.74-.99,1.96-1.85,.11-.44-.08-1.07-.6-1.16-.94-.17-1.71,.34-2.48,.85-.31,.21-.61,.41-.92,.61-.05-.05-.1-.1-.14-.15-.04-.04-.07-.07-.11-.11,.32-.24,.65-.47,.99-.68,.83-.51,1.87-.8,2.6-1.46,.25-.23,.11-.72-.26-.71-1.05,.03-2.03,.72-2.87,1.3-.4,.28-.77,.57-1.14,.89-.59-.59-1.18-1.17-1.8-1.72-1-.89-2.58-1.01-3.39,.26-.97,1.53-1.91,3.08-2.87,4.62,.02-.07,.04-.15,.05-.23,0-.16-.03-.35-.06-.51-.04-.34-.07-.68-.11-1.02-.06-.53-1-.46-.95,.09,.03,.34,.06,.68,.09,1.01,.01,.16,0,.35,.04,.51,.04,.16,.13,.3,.21,.44,.09,.17,.29,.22,.45,.16-.49,.78-.98,1.56-1.47,2.33-.08,.12-.16,.26-.24,.39-.36-.95-.81-1.83-1-2.85-.14-.74-1.27-.63-1.3,.12-.05,1.39-.13,2.8,.46,4.1,0,0,0,0,0,.01-.27-.03-.55-.12-.81-.24-.05-.19-.13-.38-.22-.51-.29-.45-.65-.82-1.07-1.15-.51-.39-1.08,.29-.82,.78-.42-.17-.85-.34-1.27-.51-1.29-.52-2.61-.99-3.93-1.44,.16-.59,.31-1.19,.44-1.79,.07,.11,.16,.22,.26,.3,1.68,1.36,3.79,1.19,5.7,.43,2.01-.81,3.48-2.42,4.71-4.14,1.09-1.51,2.02-3.2,3.54-4.34,1.36-1.02,2.72-.88,4.27-.36,2.13,.71,4.22,1.56,6.35,2.29,.48,.17,1.58,.33,1.83,.81,.24,.46-.08,1.32-.2,1.78-1.25,4.58-3.55,8.83-5.66,13.05Z"/>
    <path class="cls-1" d="M155.08,208.21c.47,.15,.94,.3,1.41,.45,1.64,.52,3.29,1.08,4.94,1.6,1.76,.63,3.51,1.2,5.31,1.69,1.73,.47,3.28,1.02,5.11,.99,.82-.02,.99-1.08,.25-1.39-1.31-.55-2.67-.97-4-1.47-1.46-.56-2.86-1.26-4.35-1.77-2.82-.96-5.64-1.9-8.46-2.88-5.49-1.9-11.01-3.73-16.49-5.66-5.6-1.97-11.34-3.99-16.53-6.91-2.34-1.32-4.49-3.02-6.88-4.22-2.51-1.26-5.76-1.14-7.9,.78-1.78,1.59-3.21,5.98,.25,6.52,.65,.1,1.3,.02,1.95,.06,.69,.04,1.34,.19,2.04,.18,1.38-.03,2.37-.33,3.54-1.05,.23-.14,.2-.59-.13-.57-1.13,.07-2.39,.06-3.52-.06-.61-.07-1.27-.15-1.79-.49-.17-.11-.32-.23-.47-.36,.41-.74,1.43-1.08,2.25-1.09,.9-.01,1.84,.32,2.71,.53,1.09,.28,2.14,.66,3.22,.98,4.4,1.33,8.61,3.16,12.85,4.91,2.56,1.06,5.13,2.1,7.71,3.12-2.14-.46-4.29-.88-6.43-1.24-3.88-.66-7.86-1.08-11.79-1.34-1.1-.07-1.35,1.54-.33,1.88,5.65,1.91,11.21,4.07,16.79,6.14,2.17,.81,4.36,1.59,6.55,2.39-.86,.09-1.69,.37-2.43,.95-1.5,1.18-2.07,3.43-.74,4.95,1.26,1.44,3.47,1.34,4.6-.16,.97-1.3-.68-2.7-1.94-2.12,.04-.07,.1-.16,.12-.18,.65-.76,2.13-.39,2.97-.32,2.64,.22,5.24,.47,7.87,.82,1.06,.14,1.3-1.5,.32-1.82-5.65-1.86-11.2-4.1-16.78-6.17-2.98-1.11-5.97-2.2-8.95-3.31,4.32,.65,8.62,1.38,12.9,2.23,4.78,.95,9.57,2.04,14.27,3.41h0Z"/>
    <path class="cls-1" d="M102.87,218.01c.1,.32,.37,.58,.68,.68,.03,0,.05,.02,.08,.02,.28,.06,.54-.02,.75-.23,.49-.51,.57-1.11,.67-1.73,.02-.12,.04-.25,.06-.38,.16-.95,.23-1.68,.21-2.43,0-.36-.32-.64-.61-.7-.28-.06-.53,.05-.65,.32-.38,.76-.64,1.43-.84,2.16-.04,.15-.09,.3-.14,.46-.19,.61-.4,1.23-.2,1.84h0Z"/>
    <path class="cls-1" d="M109.49,220.58c.11,.24,.29,.41,.53,.49,.1,.03,.2,.04,.31,.04,.43,0,.83-.28,.98-.67,.16-.43,.35-.85,.54-1.26,.26-.59,.54-1.2,.74-1.84,.13-.41,.03-.87-.25-1.18-.33-.35-.65-.45-1.15-.37-.39,.07-.74,.38-.89,.81-.08,.24-.16,.48-.23,.73-.35-.67-.72-1.34-1.11-1.99-.15-.24-.38-.38-.63-.4-.05,0-.11,0-.15,0-.17-.05-.35-.06-.51-.02-.32,.07-.55,.29-.66,.63l-.55,1.75c-.13,.33-.24,.67-.32,1.01l-.04,.11h.01c-.08,.56,.3,.96,.73,1.08,.42,.12,.93-.03,1.12-.61l.33-1.05c.23,.55,.48,1.09,.72,1.63,.16,.37,.33,.74,.49,1.1Z"/>
    <path class="cls-1" d="M121.75,218.38c-.53-.22-1.32-.32-1.92-.03-.24,.12-.43,.29-.56,.51-1.05-.04-1.95,.48-2.43,1.38-.5,.95-.47,2.01,.08,2.9,.4,.64,1.02,1.12,1.74,1.34,.34,.11,.71,.16,1.08,.15,1.24-.03,2.52-.68,3.27-1.66,.59-.77,.78-1.65,.56-2.53-.22-.88-.93-1.7-1.82-2.07h0Zm-1.06,2.83c.19,.24,.47,.3,.73,.15,.12-.07,.23-.19,.29-.33,.04,.18,.02,.37-.06,.56-.24,.53-.92,.93-1.44,1.04-.57,.12-1.18-.04-1.49-.38-.22-.25-.26-.56-.14-.94,.14-.41,.47-.55,.72-.6,.23-.04,.48-.01,.71,.06,.27,.09,.52,.24,.67,.44h0Z"/>
    <path class="cls-1" d="M125.51,223.71l.85-2.24c.15-.41-.1-.77-.43-.92-.31-.14-.73-.11-.94,.28-.17,.31-.34,.62-.52,.94-.36,.64-.72,1.31-1.05,1.98-.42,.87-.36,1.69,.17,2.3,.25,.29,.6,.51,1,.64,.31,.1,.65,.15,1.01,.14,.35-.01,.74-.08,1.24-.21,.25-.07,.46-.18,.66-.3,.16-.09,.32-.18,.49-.24,.06-.02,.11-.06,.16-.11-.15,.45-.26,.9-.17,1.43,.06,.35,.31,.66,.67,.82,.05,.02,.1,.04,.15,.06,.31,.1,.64,.07,.89-.08,1.85-1.12,1.55-4.4,1.45-5.48-.02-.18-.08-.35-.17-.48,.49,0,.85-.35,.99-.77,.17-.52-.01-1.16-.68-1.37-.31-.1-.61-.07-.87,.09-.22,.14-.39,.36-.48,.63-.11,.34-.07,.73,.16,1.01-.56,.02-1.17,.39-1.21,1.07-.05,.81-.19,1.54-.43,2.24-.05,.14-.1,.27-.15,.4,0,.01,0,.02-.01,.04,0-.19-.1-.37-.24-.46-.52-.32-.98-.47-1.39-.45-.14,0-.31,.05-.49,.1-.34,.09-.72,.2-.94,.05-.19-.12-.05-.45,.14-.83,.05-.1,.1-.2,.13-.29h0Z"/>
    <path class="cls-1" d="M133.41,223.58c-.28,.02-.59,.23-.63,.64-.1,1.14-.09,2.33,.05,3.89,.09,1.05,.53,1.76,1.19,1.97,.12,.04,.25,.06,.38,.07,1.39,.05,1.75-1.13,2.1-2.27,.23-.72,.43-1.41,.89-1.77,.34-.27,.43-.72,.22-1.14-.18-.36-.58-.67-1.09-.54-1.26,.31-1.62,1.22-1.9,2.24-.13-1-.28-1.78-.49-2.56-.11-.39-.45-.54-.73-.51h0Z"/>
    <path class="cls-1" d="M141.71,227.45c.48,.07,.97,.15,1.47,0,.37-.12,.64-.43,.7-.8,.05-.35-.1-.68-.4-.88-.47-.32-1-.39-1.52-.46-.09-.01-.18-.02-.27-.04l-1.81-.28c-.25-.04-.5,.04-.72,.22-.26,.21-.42,.53-.43,.83-.01,.34,.12,.6,.31,.78-.13,.39-.34,.75-.57,1.12-.24,.4-.49,.81-.63,1.26-.26,.88-.13,1.83,.33,2.53,.29,.45,.71,.76,1.21,.92,.3,.1,.63,.13,.98,.11,.65-.04,1.8-.3,2.32-.81,.31-.3,.39-.76,.2-1.11-.32-.59-.89-.83-1.74-.74-.18,.02-.35,.06-.51,.11-.06,.02-.12,.03-.18,.05-.09,.02-.15,.04-.21,.06-.03,.01-.07,.02-.07,.02,0,0-.01,0-.04-.04-.07-.08-.09-.2-.09-.33,.43-.01,.85-.03,1.28-.05,.9-.04,1.41-.37,1.42-.91,0-.19-.07-.36-.2-.5-.26-.26-.71-.35-1.05-.35-.31,0-.63,.02-.95,.05,.1-.3,.18-.6,.23-.9l.71,.1c.08,.01,.16,.02,.25,.04h0Z"/>
    <path class="cls-1" d="M150.03,235.6c.92,.29,1.96,.28,2.83-.02,.98-.33,1.69-1.05,1.97-1.97,.28-.91,.08-1.91-.54-2.74-.68-.9-1.84-1.43-3.03-1.4-.7,.02-1.32,.23-1.82,.6-.61,.21-1.12,.66-1.43,1.27-.4,.77-.43,1.68-.09,2.44,.41,.93,1.21,1.52,2.11,1.81h0Zm-.13-3.51c.21,.02,.42,.03,.62,.04,.37,.01,.72,.03,1.07,.11,.33,.08,.72,.35,.76,.6,.02,.14-.06,.26-.24,.38-.54,.35-1.49,.31-1.99-.08-.23-.18-.37-.55-.31-.85,.01-.07,.04-.14,.08-.2h0Z"/>
    <path class="cls-1" d="M157.71,232.65c-.42-.17-.83-.03-1.05,.36-.4,.73-1.23,2.53-.28,3.62,.13,.14,.28,.25,.45,.3,.14,.05,.3,.06,.46,.03,.38-.06,.71-.33,.86-.7,.14-.35,.1-.68,.06-1.01-.01-.11-.03-.23-.03-.34-.02-.38,.02-.75,.13-1.13,.15-.51-.19-.96-.59-1.13h0Z"/>
    <path class="cls-1" d="M161.21,235.21c.06-.16,.13-.31,.19-.46,.24-.59,.47-1.14,.58-1.79,.07-.4-.15-.73-.54-.83-.41-.11-.94,.05-1.12,.52-.16,.43-.43,.82-.7,1.2-.28,.41-.58,.83-.75,1.32-.35,1-.07,2.07,.71,2.71,.25,.21,.52,.35,.8,.44,.57,.18,1.2,.17,1.81,.11,.11-.01,.23-.02,.35-.03,.78-.06,1.66-.13,2.24-.63,.2-.17,.29-.47,.23-.71-.19-.65-.95-1.07-1.57-1.18-.4-.07-.79,0-1.17,.09-.34,.07-.66,.14-.98,.1-.13-.01-.21-.05-.25-.11-.07-.13,.03-.4,.13-.64l.04-.11h0Z"/>
    <path class="cls-1" d="M157.82,229.76c-.12,.05-.23,.12-.32,.21-.09,.09-.16,.18-.22,.26-.02,.02-.03,.05-.05,.07-.03,0-.06,0-.09,0-.07,.04-.11,.13-.07,.21l.02,.04c-.02,.05-.05,.1-.06,.15-.04,.12-.06,.26-.06,.38,0,.23,.04,.34,.12,.54,.05,.13,.18,.26,.3,.34,.06,.04,.13,.07,.19,.09,.11,.04,.23,.05,.35,.04,.15-.01,.28-.06,.39-.14,.07,0,.13-.01,.19-.03,.01,0,.02,0,.04,0h0c.54-.16,.89-.65,.83-1.2-.02-.24-.11-.46-.28-.66-.18-.22-.53-.38-.81-.38-.13,0-.26,.02-.38,.05l.07-.1-.17,.14h0Z"/>
    <path class="cls-1" d="M98.79,172.73c2.77,.88,4.15-3.42,1.38-4.3-2.77-.89-4.15,3.42-1.38,4.3Z"/>
    <path class="cls-1" d="M114.68,157.96s.02,.07,.04,.1c.34,.58,.97,.85,1.63,.75,.47-.07,.88-.38,1.14-.76,.33-.46,.33-1.08,.1-1.58-.14-.32-.43-.6-.7-.82-.46-.37-1.14-.42-1.66-.17-.53,.25-.9,.85-.9,1.43,0,.38,.13,.75,.35,1.05h0Z"/>
    <path class="cls-1" d="M120.36,158.81c1.9,.67,3.82,1.28,5.73,1.94,1.91,.66,3.76,1.48,5.65,2.19,3.78,1.42,7.61,2.69,11.41,4.05,7.59,2.73,15.3,5.15,22.99,7.59,2.2,.7,4.4,1.4,6.6,2.08,1.03,.32,2.06,.65,3.09,.97,1.08,.34,2.08,.75,3.23,.62,.64-.07,.97-1.06,.48-1.49-1.38-1.2-3.56-1.5-5.28-2.03-1.93-.6-3.85-1.2-5.77-1.81-3.85-1.21-7.69-2.44-11.53-3.69-7.68-2.49-15.38-4.88-23.05-7.37-2.19-.71-4.41-1.35-6.62-2.01-2.2-.66-4.36-1.54-6.53-2.28-.8-.28-1.2,.97-.4,1.25h0Z"/>
    <path class="cls-1" d="M180.35,178.23c.29,.37,.78,.58,1.25,.47,.14-.03,.27-.1,.38-.19,.03-.01,.06-.01,.09-.02,.67-.27,.81-1.16,.5-1.74-.16-.31-.44-.56-.78-.66-.3-.09-.65-.05-.94,.1-.52,.15-.9,.66-.85,1.23,.03,.32,.16,.59,.36,.83Z"/>
    <path class="cls-1" d="M164.5,243.01c.37-.59,.35-1.3,.68-1.92,.56-1.04,1.13-2.07,1.69-3.11,.8-1.49,1.63-3.17,1.62-4.9,0-1.48-1.04-2.74-2.15-3.61-1.23-.95-2.72-1.5-4.17-2.01-2.13-.76-4.27-1.51-6.41-2.27-9.59-3.4-19.32-6.35-28.92-9.69-1.23-.43-1.86,1.51-.62,1.93,7.89,2.68,15.63,5.77,23.53,8.4,3.96,1.32,7.92,2.64,11.88,3.96,2.71,.91,5.83,2.49,4.69,5.9-.28,.85-.67,1.65-1.03,2.46-.2,.45-.4,.89-.6,1.33-.19,.43-.39,1.2-.76,1.52-.47,.4-1.45-.16-2.01-.34-1.02-.34-2.05-.62-3.08-.93-4.04-1.22-8.09-2.39-12.15-3.53-7.99-2.23-16.13-4.21-23.91-7.08-4.33-1.6-8.52-3.61-12.87-5.15-2.04-.72-4.2-1.29-6.18-2.15-2.01-.88-3.99-1.88-5.83-3.09,.31-2,.77-4.1,1.86-5.81,.57-.9,1.39-1.72,2.46-1.98,1.21-.3,2.56,.17,3.72,.46,2.91,.75,5.82,1.54,8.74,2.23,2.9,.69,5.83,1.64,8.82,1.79,.5,.02,.83-.77,.32-1.01-3.09-1.5-6.67-2.18-10-3.03-1.67-.42-3.34-.84-5-1.26-1.51-.38-3.03-.88-4.58-1.03-5.75-.56-7.43,5.51-8.1,10.02-.04,.28,.16,.58,.38,.74,3.55,2.45,7.52,4.34,11.42,6.15,4.05,1.87,8.25,3.49,12.41,5.09,4.17,1.59,8.47,2.68,12.72,4,4.3,1.34,8.6,2.68,12.9,4.01,4.37,1.36,8.75,2.66,13.15,3.93,1.48,.43,4.24,1.71,5.34-.03h0Z"/>
    <path class="cls-1" d="M21.4,95.94c14.72,11.25,36.05,15.34,53.11,7.28,.8,2.04,3.3,2.5,5.02,3.56,4.35,2.13,8.85,4.55,13.77,4.89,4.92-.1,2.25-4.77,1.1-7.36-.81-2.33-2.23-4.73-2.06-7.25,12.43-6.87,19.52-14.53,23.11-28.39,5.26-19.83,.36-40.99-16.1-54.05C80.16-1.51,45.83,3.85,27.07,18.28c-5.7,4.54-11,9.79-14.44,16.28-4.46,8.98-7.43,19.06-6.77,29.15,.39,12.49,5.67,24.39,15.55,32.23h0ZM12.47,44c1.8-5.48,4.34-10.72,8.17-15.08,6.51-7.47,14.82-13.28,24.2-16.52,11.29-4,23.62-5.62,35.48-3.57,18.6,3.93,32.55,21.13,33.4,39.99,.5,10.93-1.91,22.13-7.6,31.53-2.75,3.91-6.36,7.11-10.27,9.82-2.35,1.91-5.73,3.17-6.87,6.18-1.01,4.03,3.87,9.45,5.25,13.36-4.19-2.03-7.94-4.88-12.08-7.02-1.28-.6-2.52-1.6-3.97-1.6-.12,0-.24,0-.36,.02-1.19,.15-2.62,.41-2.98,1.76-7.86,1.09-16.16,2.36-24.2,1-19.01-2.4-37.96-14.61-40.52-34.85-1.43-8.4-.55-17.02,2.37-25.02Z"/>
    <path class="cls-1" d="M101.43,71.99c.14,.04,.29,.06,.43,.06,.71,0,1.39-.5,1.58-1.2,.33-.97,.64-1.95,.97-2.92,.38-1.12,.86-2.21,1.19-3.34,.62-2.48,.9-5.05,1.3-7.58,.51-3.71,.72-7.47,.29-11.2,.07-.34-.24-.65-.58-.61-.31,.04-.55,.4-.41,.7,.35,5.16-1.18,10.26-3.16,14.98-.93,1.95-1.35,4.07-1.85,6.16-.27,.99-.56,1.97-.89,2.94-.26,.83,.3,1.8,1.14,2.01h0Z"/>
    <path class="cls-1" d="M103.45,75.02c-.38,.6-.13,1.43,.47,1.77,.24,.13,.47,.18,.67,.18,1.14,0,1.7-1.74,2.24-2.62,.76-1.39,.92-2.99,1.34-4.5,.16-.65,.26-1.32,.44-1.96,.2-.69-.88-.95-1.01-.2-.49,1.48-1.44,2.76-2.3,4.03-.68,1.06-1.17,2.24-1.86,3.29Z"/>
    <path class="cls-1" d="M12.44,56.37c-.06,4.49,.33,8.98,.94,13.42,.31,2.63,1.34,5.12,2.5,7.48,.35,.56,.84,.79,1.33,.79,1.08,0,2.11-1.12,1.43-2.4-.76-1.47-1.05-3.1-1.46-4.69-.29-1.09-.66-2.16-1.02-3.22-1.47-4.22-2.72-8.67-2.38-13.18-.01,.05-.04,.1-.06,.14,.28-.45-.03-1.08-.59-1.08-.51,0-.78,.5-.67,.93,.02,.61,0,1.22-.01,1.83h0Z"/>
    <path class="cls-1" d="M23.61,86c.31,.29,.7,.52,1.04,.78,.26,.2,.54,.29,.81,.29,1.01,0,1.87-1.23,1.1-2.21-.45-.51-.76-1.15-1.33-1.54-.78-.51-1.51-1.13-2.36-1.48-.46-.14-.88,.24-.9,.69-.02,.41,.14,.82,.29,1.2,.34,.81,.71,1.64,1.35,2.26h0Z"/>
    <path class="cls-1" d="M.38,75.82c1.84,6.31,4.67,12.31,7.96,17.98,.69,1.19,1.42,2.36,2.19,3.51,1.17,1.64,2.66,3.03,3.95,4.57,.4,.39,.85,.56,1.29,.56,1.37,0,2.57-1.63,1.52-3.02-.96-1.09-1.72-2.31-2.47-3.54-1.13-1.73-2.54-3.25-3.83-4.86-4.15-5.02-8.29-10.38-10.19-16.71-.06-.21-.28-.34-.5-.28-.2,.05-.35,.29-.28,.5,.14,.42,.24,.86,.36,1.29h0Z"/>
    <path class="cls-1" d="M86.25,1.77c1.58,.37,3.15,.83,4.63,1.48,3.02,1.32,5.62,3.38,8.1,5.51,2.31,1.81,4.99,3.13,7.17,5.11,.31,.27,.68,.38,1.05,.38,1.03,0,2.06-.93,1.86-2.07-.53-1.75-2.64-2.5-3.86-3.75-1.1-.88-2.12-1.88-3.3-2.65-4.63-2.98-9.81-5.14-15.33-5.68-.81-.12-2.18-.39-2.1,.84,.14,.94,1.12,.63,1.78,.81h0Z"/>
    <path class="cls-1" d="M40.7,38.25c.02,.09,.05,.25,.08,.49s.02,.54-.03,.92c-.03,.3-.05,.56-.07,.77-.01,.21-.01,.36,0,.46,.09,.76,.19,1.57,.31,2.43,.12,.86,.26,1.8,.39,2.8,.04,.28,.09,.56,.13,.86,.04,.3,.09,.58,.13,.84,.04,.26,.09,.49,.12,.69,.04,.2,.07,.33,.09,.4,.01,.05,.04,.11,.09,.17,.04,.06,.1,.13,.15,.2,.05,.07,.1,.13,.15,.19,.04,.06,.08,.12,.09,.17,.04,.15,.03,.3-.01,.48-.05,.17-.16,.36-.32,.55-.13,.17-.27,.3-.42,.41-.15,.11-.3,.19-.47,.25-.3,.08-.56,.07-.77-.03-.21-.11-.38-.25-.52-.44-.14-.19-.24-.39-.32-.62-.08-.23-.13-.41-.18-.57-.08-.3-.16-.6-.22-.88-.06-.28-.11-.56-.15-.83-.07-.45-.13-.97-.2-1.58-.06-.61-.13-1.25-.2-1.92-.01-.11-.02-.28-.04-.51-.02-.23-.04-.5-.07-.81-.02-.3-.05-.63-.08-.96-.03-.34-.05-.66-.08-.97-.02-.31-.04-.58-.06-.83-.02-.24-.03-.43-.05-.55-.02-.22-.03-.39-.05-.51-.01-.12-.02-.23-.03-.34,0-.1-.02-.22-.02-.35,0-.13-.02-.3-.03-.53v.02c-.02-.11-.01-.23,.02-.37s.08-.28,.14-.42c.06-.14,.14-.26,.24-.36,.1-.11,.2-.17,.32-.21,.27-.07,.51-.07,.73,0,.22,.07,.41,.18,.57,.33,.16,.15,.29,.31,.39,.5,.1,.19,.17,.36,.22,.51l.04,.14h0Z"/>
    <path class="cls-1" d="M45.47,36.17c.04,.18,.08,.4,.1,.67,.02,.27,.04,.58,.04,.95h0c.01,.69-.06,1.34-.22,1.94h0c-.08,.33-.2,.61-.37,.8-.17,.2-.38,.34-.62,.4-.14,.04-.28,.05-.42,.04-.14-.01-.27-.04-.38-.09-.12-.05-.22-.12-.3-.21-.09-.09-.15-.19-.18-.31-.02-.08-.03-.17-.02-.27,0-.1,.02-.21,.04-.31,.02-.11,.05-.21,.09-.3,.03-.1,.08-.17,.12-.24,.11-.16,.19-.32,.25-.47,.06-.15,.1-.3,.13-.46,.02-.16,.02-.32,0-.49-.02-.17-.05-.35-.11-.55-.04-.16-.13-.29-.25-.36-.1-.07-.19-.14-.3-.21-.11-.06-.22-.13-.35-.19-.38-.18-.58-.33-.61-.44l-.2-.46c-.03-.11-.05-.21-.06-.29-.01-.09-.02-.15-.02-.18,.02-.21,.18-.42,.48-.65,.11-.1,.21-.17,.3-.22,.09-.05,.18-.09,.26-.11,.18-.05,.4-.01,.65,.11,.07,.03,.15,.08,.24,.12,.09,.05,.17,.1,.25,.15,.23,.13,.38,.22,.47,.28,.09,.05,.14,.09,.15,.1,.13,.11,.24,.21,.33,.31,.1,.1,.16,.19,.21,.27,.06,.08,.12,.18,.17,.3,.05,.12,.1,.24,.13,.37h0s-.01,.02-.01,.02Z"/>
    <path class="cls-1" d="M70.33,36.1c.02,.06,.02,.14,.02,.24,0,.1-.01,.21-.03,.32-.02,.12-.04,.24-.07,.36-.03,.12-.06,.24-.09,.35-.06,.19-.14,.41-.26,.67-.11,.26-.25,.53-.39,.81-.15,.29-.31,.58-.48,.87-.17,.29-.35,.57-.52,.83-.14,.2-.31,.43-.51,.68-.2,.25-.41,.5-.65,.73-.24,.24-.49,.44-.75,.63-.26,.18-.52,.31-.79,.39-.25,.07-.5,.09-.76,.05-.26-.03-.53-.16-.8-.38-.28-.22-.56-.55-.84-1-.29-.45-.58-1.05-.89-1.81-.03-.08-.07-.19-.12-.35-.05-.16-.11-.32-.16-.48-.05-.16-.1-.3-.15-.41-.04-.12-.08-.17-.09-.17-.05,.01-.11,.11-.19,.3-.08,.18-.16,.42-.25,.72-.09,.3-.19,.63-.29,1.01-.1,.38-.21,.77-.31,1.18-.13,.52-.26,.98-.39,1.4s-.26,.77-.4,1.06c-.13,.29-.28,.53-.43,.71-.15,.18-.33,.29-.52,.35-.29,.08-.55,.09-.76,.03-.22-.06-.41-.19-.58-.39-.17-.2-.33-.48-.48-.83-.14-.35-.29-.78-.44-1.28-.25-.83-.46-1.48-.62-1.94-.16-.46-.28-.68-.34-.67-.08,.02-.18,.15-.3,.4-.12,.25-.26,.57-.41,.98-.15,.41-.31,.89-.47,1.43-.16,.54-.32,1.12-.48,1.74-.04,.16-.09,.35-.14,.56-.06,.22-.12,.43-.18,.65-.06,.22-.12,.44-.19,.65-.06,.21-.12,.39-.17,.54-.07,.2-.17,.36-.32,.49-.14,.13-.3,.22-.49,.27-.26,.07-.5,.08-.72,.02-.22-.06-.41-.17-.57-.33-.16-.16-.31-.36-.44-.61-.13-.25-.23-.52-.31-.81-.07-.26-.13-.5-.17-.71-.04-.21-.09-.43-.12-.65-.03-.22-.06-.45-.09-.7-.03-.25-.06-.53-.1-.84-.03-.28-.09-.57-.15-.87s-.12-.59-.18-.88c-.06-.29-.11-.56-.15-.8-.04-.25-.06-.46-.06-.63,0-.12,.01-.24,.03-.38,.02-.14,.06-.27,.13-.4,.07-.13,.16-.25,.29-.37,.13-.11,.3-.2,.51-.26,.2-.05,.37-.06,.51-.02s.26,.11,.36,.22c.1,.11,.18,.24,.25,.39,.06,.16,.12,.32,.17,.5,.04,.15,.08,.37,.11,.64,.03,.27,.06,.57,.09,.91,.03,.33,.05,.68,.06,1.04,.02,.36,.03,.71,.05,1.04,.02,.33,.04,.63,.05,.89,.02,.27,.04,.47,.05,.62,0-.03,.02-.1,.06-.22,.03-.12,.07-.26,.12-.43,.04-.17,.09-.35,.14-.54,.05-.19,.1-.37,.14-.54,.04-.17,.09-.32,.12-.44,.03-.13,.05-.2,.06-.23,.06-.22,.14-.47,.22-.75,.09-.28,.18-.56,.28-.85,.1-.29,.2-.57,.3-.83,.1-.27,.2-.5,.29-.68,.2-.4,.43-.73,.71-.98,.28-.25,.6-.43,.96-.53,.39-.11,.75-.06,1.08,.13,.34,.19,.61,.5,.81,.91,.08,.15,.16,.34,.24,.58,.09,.24,.17,.49,.25,.75,.08,.26,.16,.52,.24,.79,.08,.27,.15,.5,.21,.71,.06,.21,.11,.38,.16,.51,.04,.13,.08,.19,.09,.19,.06-.02,.12-.12,.18-.31,.06-.19,.13-.42,.2-.7,.07-.28,.14-.58,.21-.9,.07-.32,.14-.62,.21-.89,.12-.44,.26-.86,.41-1.28,.15-.41,.31-.79,.49-1.12,.17-.33,.35-.61,.53-.82,.18-.22,.36-.35,.53-.4,.12-.03,.25-.05,.38-.06,.13-.01,.27,0,.4,.01,.13,.02,.25,.04,.37,.09,.11,.04,.21,.1,.28,.16,.15,.14,.29,.31,.39,.5,.11,.19,.21,.41,.29,.65,.09,.24,.18,.51,.27,.81,.09,.3,.21,.62,.34,.97,.25,.64,.5,1.13,.73,1.47,.24,.34,.48,.48,.73,.41,.11-.03,.24-.11,.39-.24,.15-.13,.31-.28,.49-.46,.17-.18,.35-.38,.53-.59,.18-.21,.34-.42,.49-.63,.16-.22,.32-.45,.46-.67,.14-.23,.28-.46,.42-.69,.14-.24,.27-.48,.41-.74,.14-.25,.29-.52,.44-.8,.1-.17,.23-.28,.4-.32,.21-.05,.35,.06,.43,.36h-.01Z"/>
    <path class="cls-1" d="M45.31,60.57c.02,.06,.02,.14,.02,.24,0,.1-.01,.21-.03,.32-.02,.12-.04,.24-.07,.36s-.06,.24-.09,.35c-.06,.19-.14,.41-.26,.67-.11,.26-.25,.53-.39,.81-.15,.29-.31,.58-.48,.87-.17,.29-.35,.57-.52,.83-.14,.2-.31,.43-.51,.68-.2,.25-.41,.5-.65,.73-.24,.24-.49,.44-.75,.63-.26,.18-.52,.31-.79,.39-.25,.07-.5,.09-.76,.05-.26-.03-.53-.16-.8-.38-.27-.22-.56-.55-.85-1-.29-.45-.58-1.05-.89-1.81-.03-.08-.07-.19-.12-.35-.05-.16-.11-.32-.16-.48-.05-.16-.1-.3-.15-.41-.04-.12-.08-.17-.09-.17-.05,.01-.11,.11-.19,.3-.08,.18-.16,.42-.25,.72-.09,.29-.19,.63-.29,1.01-.1,.38-.21,.77-.31,1.18-.13,.52-.26,.98-.39,1.39-.13,.41-.26,.77-.4,1.06-.13,.29-.28,.53-.43,.71-.15,.18-.32,.29-.52,.35-.29,.08-.55,.09-.76,.03-.22-.06-.41-.19-.58-.4-.17-.2-.33-.48-.48-.83-.14-.35-.29-.78-.44-1.28-.25-.83-.45-1.48-.62-1.94s-.28-.68-.34-.67c-.08,.02-.18,.15-.3,.4-.12,.25-.26,.57-.41,.98-.15,.41-.31,.89-.47,1.43-.16,.54-.32,1.12-.48,1.74-.04,.16-.09,.35-.14,.56-.06,.22-.12,.43-.18,.65-.06,.22-.12,.44-.19,.65-.06,.21-.12,.39-.17,.54-.07,.2-.17,.36-.32,.49-.14,.13-.3,.22-.49,.27-.26,.07-.5,.08-.72,.02-.22-.06-.41-.17-.57-.33-.16-.16-.31-.36-.44-.61-.13-.25-.23-.52-.31-.81-.07-.26-.13-.5-.17-.71-.04-.21-.09-.43-.12-.65-.03-.22-.06-.45-.09-.7-.03-.25-.07-.53-.1-.84-.03-.28-.08-.57-.15-.87-.06-.3-.12-.59-.18-.88-.06-.29-.11-.56-.15-.8-.04-.25-.06-.46-.06-.63,0-.12,.01-.24,.03-.38,.02-.14,.06-.27,.13-.4,.07-.13,.16-.25,.29-.37s.3-.2,.51-.26c.2-.05,.37-.06,.51-.02,.14,.04,.26,.11,.36,.22,.1,.11,.18,.24,.25,.39,.07,.16,.12,.32,.17,.5,.04,.15,.08,.37,.11,.64,.03,.27,.06,.57,.09,.91,.03,.33,.05,.68,.07,1.04,.02,.36,.03,.71,.05,1.04,.02,.33,.04,.63,.05,.89,.02,.27,.04,.47,.05,.62,0-.03,.02-.1,.06-.22,.03-.12,.07-.26,.12-.43,.04-.17,.09-.35,.14-.54,.05-.19,.1-.37,.14-.54,.04-.17,.09-.32,.12-.44,.03-.13,.05-.2,.06-.23,.06-.22,.14-.48,.22-.75,.09-.28,.18-.56,.28-.85,.1-.29,.2-.57,.3-.83,.1-.27,.2-.5,.29-.68,.2-.4,.43-.73,.71-.98,.28-.25,.6-.43,.96-.53,.39-.11,.75-.06,1.08,.13,.34,.19,.61,.5,.81,.91,.08,.15,.16,.34,.24,.58,.09,.24,.17,.49,.25,.75,.08,.26,.16,.52,.24,.79,.08,.27,.15,.5,.21,.71,.06,.21,.11,.38,.16,.51,.04,.13,.08,.19,.09,.19,.06-.02,.12-.12,.18-.31,.06-.19,.13-.42,.2-.7,.07-.28,.14-.58,.21-.9,.07-.32,.14-.62,.21-.89,.12-.44,.26-.86,.41-1.28,.15-.41,.31-.79,.49-1.12,.17-.33,.35-.61,.53-.82,.18-.22,.36-.35,.53-.4,.12-.03,.25-.05,.38-.07,.13-.01,.27,0,.4,.01,.13,.01,.25,.04,.37,.09,.11,.04,.21,.1,.28,.16,.15,.14,.29,.31,.39,.5,.11,.19,.21,.41,.29,.65,.09,.24,.18,.51,.27,.81,.09,.3,.21,.62,.34,.97,.25,.64,.5,1.13,.73,1.47,.24,.34,.48,.48,.73,.41,.11-.03,.24-.11,.39-.24,.15-.13,.31-.28,.49-.46,.17-.18,.35-.38,.53-.59,.18-.21,.34-.42,.49-.63,.16-.22,.32-.45,.46-.67,.14-.23,.28-.46,.42-.69,.14-.24,.27-.48,.41-.74,.14-.25,.29-.52,.44-.8,.1-.17,.23-.28,.4-.32,.21-.05,.35,.06,.42,.36h0Z"/>
    <path class="cls-1" d="M56.99,55.92c.03,.11,.04,.24,.03,.38-.01,.14-.04,.28-.1,.42-.05,.14-.11,.28-.19,.41-.08,.13-.16,.25-.25,.35-.19,.22-.48,.44-.89,.67-.4,.23-.92,.43-1.53,.61-.18,.05-.37,.09-.58,.12-.21,.03-.42,.05-.64,.06-.22,.01-.44,.01-.66,0-.22-.01-.43-.03-.64-.06,.05,.05,.11,.12,.16,.21,.05,.09,.1,.19,.14,.29,.04,.11,.08,.21,.1,.3,.03,.1,.05,.17,.07,.23,.11,.41,.15,.83,.12,1.28-.03,.44-.12,.88-.25,1.31-.13,.43-.31,.85-.52,1.24-.21,.4-.44,.75-.69,1.07-.2,.25-.43,.49-.69,.7-.27,.22-.55,.41-.86,.59-.31,.18-.64,.34-.97,.48-.34,.14-.69,.26-1.05,.36-.3,.08-.61,.09-.92,.02-.31-.07-.61-.19-.88-.37-.27-.17-.51-.39-.71-.65-.21-.26-.35-.53-.42-.82-.14-.51-.21-1.02-.2-1.52,0-.51,.06-1.01,.17-1.51,.11-.5,.26-1.01,.45-1.51,.19-.51,.4-1.01,.62-1.52,.13-.29,.29-.59,.48-.89,.19-.3,.4-.58,.64-.84,.23-.26,.48-.48,.74-.67,.26-.19,.52-.32,.79-.39,.22-.06,.42-.09,.6-.08,.18,0,.35,.04,.51,.09,.16,.05,.33,.13,.49,.23,.16,.1,.34,.21,.52,.34l.26,.16c.06,.04,.23,.08,.48,.12,.25,.04,.55,.07,.89,.08,.34,.01,.69,.01,1.05,0,.36-.02,.69-.06,.97-.14,.29-.08,.55-.16,.81-.23,.25-.08,.5-.17,.75-.28,.25-.11,.5-.25,.76-.41,.26-.16,.54-.37,.84-.62,.05,.05,.09,.12,.13,.2,.04,.09,.07,.15,.08,.2h0Zm-6.81,4.18c-.04-.16-.1-.32-.16-.49-.06-.17-.14-.32-.23-.45-.09-.14-.2-.25-.32-.34-.12-.09-.26-.13-.41-.13-.24,0-.44,0-.6-.04-.16-.03-.29-.06-.39-.1-.1-.03-.17-.06-.21-.1-.04-.03-.07-.04-.08-.04-.05,.01-.11,.08-.18,.19-.07,.11-.14,.25-.22,.41-.08,.16-.15,.34-.23,.52-.08,.18-.15,.36-.22,.52-.09,.2-.17,.4-.25,.58-.08,.19-.14,.38-.21,.58-.07,.2-.13,.41-.18,.62-.06,.21-.11,.45-.17,.7-.04,.23-.05,.5-.02,.81,.03,.31,.08,.59,.15,.85,.03,.11,.07,.22,.13,.32,.05,.11,.12,.19,.2,.27,.08,.08,.16,.13,.26,.16,.1,.03,.21,.03,.33,0,.29-.08,.53-.16,.72-.24,.19-.08,.36-.18,.51-.3,.15-.12,.3-.27,.44-.44,.14-.17,.31-.38,.51-.64,.09-.12,.18-.26,.26-.4,.08-.15,.16-.31,.24-.48,.08-.17,.15-.34,.22-.52,.07-.18,.13-.35,.18-.52,.03-.09,.04-.2,.05-.34,0-.13,0-.27-.02-.4-.01-.13-.03-.26-.05-.37-.02-.11-.04-.19-.05-.23h0s0-.01,0-.01Z"/>
    <path class="cls-1" d="M68.81,53.17c.07,.27-.03,.61-.32,1.03-.17,.26-.38,.51-.61,.75-.23,.24-.48,.45-.74,.65s-.53,.37-.8,.52c-.27,.15-.53,.25-.79,.32-.29,.08-.63,.13-1.02,.14-.39,.01-.76,0-1.1-.04-.03,.13-.05,.3-.09,.52-.03,.22-.07,.44-.1,.69-.03,.25-.07,.49-.11,.73-.04,.24-.07,.45-.1,.64-.06,.37-.12,.72-.18,1.06-.06,.33-.12,.65-.18,.95-.06,.3-.12,.6-.18,.89-.06,.29-.12,.57-.18,.84-.06,.28-.13,.51-.22,.7-.09,.19-.17,.34-.27,.46-.1,.12-.19,.21-.28,.27-.1,.06-.18,.11-.27,.13-.21,.05-.41,.05-.62-.01-.21-.06-.45-.19-.72-.39-.01-.11-.02-.19-.03-.26-.01-.06-.02-.12-.04-.17-.07-.25-.25-.59-.54-1.04-.29-.44-.71-.96-1.24-1.56-.28-.32-.55-.65-.83-1-.27-.35-.52-.69-.75-1.03s-.43-.66-.59-.96c-.17-.31-.28-.58-.35-.82-.05-.19-.08-.4-.09-.63,0-.23,.02-.44,.09-.65,.06-.21,.16-.39,.3-.55,.14-.16,.32-.27,.56-.34,.37-.1,.68-.08,.92,.08,.25,.15,.42,.4,.51,.75,.05,.18,.09,.39,.1,.6,.02,.22,.05,.41,.1,.57,.02,.09,.07,.22,.13,.4s.14,.38,.24,.59c.1,.22,.21,.44,.35,.68,.14,.24,.29,.46,.47,.66,.08,.1,.17,.21,.28,.35,.11,.14,.22,.28,.34,.44,.12,.16,.23,.31,.35,.48,.11,.16,.22,.31,.31,.45,.09,.14,.17,.27,.24,.38,.06,.11,.11,.19,.12,.25h0c.02-.08,.04-.22,.07-.43,.02-.21,.05-.45,.08-.73,.03-.28,.05-.57,.09-.9,.03-.32,.06-.64,.09-.96,.03-.32,.05-.62,.07-.9,.02-.28,.03-.52,.05-.72,.02-.34,.04-.66,.06-.95,.02-.29,.08-.56,.16-.8,.08-.24,.19-.44,.34-.6,.15-.16,.36-.28,.64-.36,.18-.05,.36-.05,.51-.01,.15,.04,.31,.1,.46,.15,.08,.03,.18,.06,.3,.11,.13,.04,.26,.08,.41,.11,.15,.03,.31,.05,.47,.05,.16,0,.32-.01,.47-.05,.26-.07,.5-.15,.73-.25,.22-.1,.43-.2,.63-.31s.38-.23,.55-.35c.17-.12,.34-.24,.51-.37,.16-.12,.3-.22,.41-.3,.11-.08,.24-.14,.39-.18,.13-.03,.23-.01,.31,.06,.08,.08,.12,.14,.14,.19h0Z"/>
    <path class="cls-1" d="M69.14,46.13c.06,.21,.08,.42,.07,.62-.01,.21-.05,.41-.13,.61-.15,.4-.48,.67-.98,.81-.18,.05-.36,.08-.56,.1-.19,.02-.37,.02-.53,0-.16-.02-.3-.06-.42-.12-.12-.06-.19-.15-.23-.27-.05-.2-.06-.42-.02-.67,.04-.25,.12-.49,.23-.72,.11-.23,.25-.44,.41-.61,.16-.18,.33-.29,.51-.34,.22-.06,.42-.1,.6-.12,.18-.02,.34-.01,.48,.03,.14,.04,.25,.11,.35,.22,.1,.11,.17,.26,.23,.45Zm8.09,6.22c.04,.15,.03,.35-.01,.61-.05,.26-.13,.55-.25,.88-.12,.33-.27,.69-.45,1.08-.18,.39-.38,.79-.6,1.21-.24,.45-.51,.91-.8,1.37-.3,.46-.63,.91-.98,1.36-.35,.44-.71,.8-1.09,1.09-.38,.29-.76,.49-1.14,.59-.44,.12-.85,.15-1.22,.09-.37-.06-.7-.18-1.01-.38-.3-.19-.57-.44-.81-.73-.24-.29-.45-.62-.64-.96-.19-.35-.35-.71-.49-1.08-.14-.37-.25-.73-.35-1.07-.04-.13-.08-.34-.14-.61-.05-.27-.11-.56-.15-.87-.05-.3-.09-.6-.12-.89-.03-.29-.05-.52-.05-.69,.01-.34,.15-.69,.41-1.07,.26-.36,.59-.59,1-.7,.41-.11,.69,.08,.82,.57,.07,.24,.11,.49,.14,.77,.03,.28,.05,.55,.08,.81,.04,.49,.1,.92,.17,1.3,.07,.38,.14,.71,.22,1,.09,.32,.19,.63,.31,.93,.12,.29,.25,.55,.39,.77,.14,.22,.28,.39,.43,.5,.15,.12,.3,.15,.46,.11,.19-.05,.38-.12,.58-.22,.19-.09,.41-.25,.66-.48,.47-.45,.94-1.01,1.41-1.69,.17-.24,.36-.52,.56-.84,.21-.32,.42-.65,.62-.98,.2-.33,.39-.66,.56-.97,.17-.31,.3-.58,.4-.8,.01-.04,.03-.09,.05-.14,.02-.06,.05-.12,.08-.18,.03-.06,.07-.12,.11-.17,.04-.05,.09-.08,.14-.1,.1-.03,.18-.03,.24-.02,.05,.02,.13,.09,.23,.22,.11,.14,.18,.26,.22,.37h0Z"/>
    <path class="cls-1" d="M92.19,47.48c.03,.12,.05,.26,.04,.41,0,.15-.02,.31-.05,.47-.03,.16-.07,.31-.11,.45-.04,.15-.09,.27-.14,.37-.13,.31-.29,.64-.46,1-.17,.36-.36,.71-.55,1.06-.2,.36-.4,.7-.62,1.04-.22,.34-.44,.64-.67,.91-.18,.21-.36,.41-.53,.6-.17,.19-.35,.36-.54,.52-.19,.16-.4,.3-.63,.43-.23,.12-.49,.23-.78,.31-.48,.13-.9,.14-1.27,.04-.37-.1-.69-.29-.98-.55-.28-.26-.54-.59-.75-.97-.22-.38-.42-.79-.6-1.22-.25-.58-.47-1.04-.67-1.36-.2-.32-.37-.47-.52-.43-.13,.03-.24,.1-.35,.19-.1,.09-.22,.26-.35,.51-.13,.25-.28,.6-.45,1.05-.17,.45-.4,1.06-.67,1.81-.09,.26-.21,.55-.36,.88-.15,.33-.31,.65-.48,.96-.17,.31-.36,.59-.54,.84-.19,.25-.37,.44-.56,.57-.85,.04-1.46-.62-1.83-1.97-.1-.34-.19-.86-.3-1.55-.04-.31-.09-.64-.13-.98-.04-.34-.08-.69-.09-1.05-.02-.35-.02-.7,0-1.05,.01-.35,.05-.68,.11-.99,.03-.17,.09-.32,.16-.43,.07-.12,.15-.21,.24-.28,.09-.07,.18-.13,.29-.17,.11-.04,.21-.08,.32-.11,.1-.03,.19-.03,.3,0,.1,.02,.2,.07,.29,.14,.1,.07,.18,.16,.26,.28,.08,.12,.14,.26,.18,.42,.04,.15,.06,.29,.08,.43,.01,.14,.01,.29,.01,.44,0,.15-.01,.32-.01,.49,0,.17,0,.37,0,.58,0,.14,0,.33,0,.55v.7c0,.24,0,.48,.01,.71,0,.23,.03,.42,.05,.57,.08-.16,.16-.37,.26-.61,.1-.24,.19-.5,.29-.78,.1-.28,.21-.56,.31-.85,.11-.29,.22-.56,.33-.83,.15-.34,.29-.66,.44-.97,.15-.31,.32-.58,.51-.83,.19-.25,.41-.46,.66-.64,.25-.18,.55-.32,.9-.42,.41-.11,.77-.12,1.08-.02,.31,.1,.58,.27,.82,.53,.24,.26,.45,.58,.64,.97,.19,.39,.37,.82,.55,1.29,.09,.24,.2,.49,.31,.74s.24,.47,.38,.66c.14,.19,.3,.34,.47,.43,.17,.1,.36,.12,.55,.07,.29-.08,.59-.25,.9-.5,.3-.25,.61-.56,.92-.94,.31-.38,.61-.8,.91-1.28,.3-.47,.6-.97,.88-1.49,.09-.17,.18-.34,.26-.5,.08-.16,.16-.31,.24-.44,.08-.13,.16-.25,.25-.34,.09-.09,.18-.15,.28-.18,.04-.01,.08-.02,.14-.02,.05,0,.11,0,.16,.02,.05,.02,.1,.05,.14,.09,.04,.04,.08,.11,.1,.2h-.01Z"/>
    <path class="cls-1" d="M97.63,45.5c.07,.43,.15,.91,.26,1.43,.11,.52,.23,1.09,.35,1.73,.04,.24,.09,.51,.15,.82,.05,.31,.11,.63,.16,.95,.05,.32,.1,.64,.14,.95,.04,.31,.08,.59,.11,.84,.04,.38,.08,.79,.1,1.23s.02,.87-.01,1.32c-.03,.44-.1,.88-.2,1.3-.1,.42-.25,.81-.46,1.17-.21,.36-.47,.67-.8,.94-.33,.27-.74,.47-1.22,.6-.3,.08-.61,.13-.93,.14-.33,.01-.65,0-.98-.04-.33-.04-.64-.11-.96-.19-.31-.09-.61-.19-.88-.32-.67-.3-1.18-.63-1.53-.97-.11-.11-.21-.22-.27-.3-.07-.09-.12-.19-.15-.32-.04-.14-.03-.27,.03-.39,.06-.12,.15-.19,.28-.23,.06-.02,.14-.01,.24,.01,.1,.02,.2,.05,.3,.09,.1,.04,.19,.08,.27,.11s.13,.06,.14,.08c.69,.37,1.36,.59,2.03,.67,.66,.09,1.3,.04,1.91-.12,.37-.1,.64-.3,.83-.61,.18-.31,.3-.66,.37-1.06,.06-.4,.08-.82,.06-1.27-.02-.44-.05-.85-.1-1.23-.04-.39-.11-.82-.2-1.3-.09-.47-.17-.93-.25-1.37-.21,.38-.45,.76-.73,1.13-.27,.38-.57,.72-.89,1.04s-.67,.6-1.03,.83c-.36,.24-.74,.41-1.13,.52-.21,.05-.41,.06-.61,.02-.21-.04-.4-.12-.57-.25-.18-.13-.34-.29-.48-.5-.14-.21-.25-.45-.33-.74-.1-.36-.14-.76-.13-1.21,.01-.45,.06-.91,.14-1.39,.08-.48,.19-.94,.33-1.4,.13-.45,.27-.87,.42-1.24,.14-.37,.34-.77,.58-1.19s.52-.83,.83-1.21c.31-.38,.65-.72,1.02-1.01,.37-.29,.74-.49,1.13-.59,.23-.06,.47-.1,.72-.1s.49,.04,.72,.12c.23,.08,.43,.2,.6,.36,.17,.16,.3,.37,.37,.63,.03,.1,.05,.22,.08,.34,.02,.13,.05,.26,.07,.4,.02,.14,.04,.27,.06,.4,.02,.13,.04,.25,.05,.37h0s0,0,0,0Zm-1.65,2.22c-.02-.21-.05-.45-.1-.72-.04-.27-.11-.62-.19-1.04-.05-.22-.08-.39-.09-.5-.01-.11-.03-.21-.05-.27-.04-.14-.08-.24-.11-.3-.04-.07-.1-.11-.18-.12-.09,0-.21,0-.38,.05-.23,.27-.46,.58-.67,.92-.21,.35-.4,.71-.57,1.09-.17,.38-.33,.77-.46,1.17-.13,.4-.24,.78-.33,1.15-.09,.39-.14,.77-.16,1.14-.02,.36,0,.67,.08,.91,.03,.1,.08,.16,.16,.18,.08,.02,.16,.01,.25-.01,.19-.05,.39-.16,.6-.32s.41-.34,.62-.54c.2-.2,.39-.41,.57-.62,.18-.21,.33-.4,.46-.56,.05-.05,.11-.14,.18-.26,.07-.12,.14-.26,.21-.41,.07-.15,.12-.31,.15-.47,.04-.16,.04-.31,.02-.45h0Z"/>
    <path class="cls-1" d="M59.69,72.78c.03,.11,.04,.24,.03,.38-.01,.14-.04,.28-.1,.42-.05,.14-.11,.28-.19,.41-.08,.13-.16,.25-.25,.35-.19,.22-.48,.44-.89,.67-.4,.23-.92,.43-1.53,.61-.18,.05-.37,.09-.58,.12-.21,.03-.42,.05-.64,.06-.22,.01-.44,.01-.66,0-.22-.01-.43-.03-.64-.06,.05,.05,.11,.12,.16,.21,.05,.09,.1,.19,.14,.29,.04,.11,.08,.21,.1,.3,.03,.1,.05,.17,.07,.23,.11,.41,.15,.83,.12,1.28-.03,.44-.12,.88-.25,1.31-.13,.43-.31,.85-.52,1.24-.21,.4-.44,.75-.69,1.07-.2,.25-.43,.49-.69,.7-.27,.22-.55,.41-.86,.6-.31,.18-.64,.34-.98,.48-.34,.14-.69,.26-1.05,.36-.3,.08-.61,.09-.92,.02-.31-.07-.61-.19-.88-.37-.27-.17-.51-.39-.71-.65-.21-.26-.35-.53-.42-.82-.14-.51-.21-1.02-.2-1.52,0-.51,.06-1.01,.17-1.51,.11-.5,.26-1.01,.45-1.51,.19-.51,.4-1.01,.62-1.52,.13-.29,.29-.59,.48-.89,.19-.3,.4-.58,.64-.84,.23-.26,.48-.48,.74-.67,.26-.19,.52-.32,.79-.39,.22-.06,.42-.09,.6-.08,.18,0,.35,.04,.51,.09,.16,.05,.33,.13,.49,.23,.16,.1,.34,.21,.52,.34l.26,.16c.07,.04,.23,.08,.48,.12,.25,.04,.55,.06,.89,.08,.34,.01,.69,.01,1.05,0,.37-.02,.69-.07,.97-.14,.29-.08,.55-.16,.81-.23,.25-.08,.5-.17,.75-.28,.25-.11,.5-.25,.76-.41,.26-.16,.54-.37,.84-.62,.05,.05,.09,.12,.13,.2,.04,.09,.07,.15,.08,.2h0Zm-6.82,4.18c-.04-.16-.1-.32-.16-.49-.06-.17-.14-.32-.23-.45-.09-.14-.2-.25-.32-.34-.12-.09-.26-.13-.41-.13-.24,0-.44-.01-.6-.04-.16-.03-.29-.06-.39-.1-.1-.03-.17-.07-.21-.1-.04-.03-.07-.04-.08-.04-.05,.01-.11,.08-.18,.19-.07,.11-.14,.25-.22,.41-.08,.16-.15,.34-.23,.52-.08,.18-.15,.36-.22,.52-.09,.2-.17,.4-.25,.58-.08,.19-.14,.38-.21,.58-.06,.2-.13,.41-.18,.62-.06,.22-.11,.45-.17,.7-.04,.23-.05,.5-.02,.81,.03,.31,.08,.6,.15,.85,.03,.11,.07,.22,.13,.32,.05,.11,.12,.19,.2,.27,.08,.08,.16,.13,.26,.16,.1,.03,.21,.03,.33,0,.29-.08,.53-.16,.72-.24,.19-.08,.36-.18,.51-.3,.15-.12,.3-.27,.44-.44,.14-.17,.31-.38,.51-.64,.09-.12,.18-.26,.26-.4,.08-.15,.16-.31,.24-.48,.08-.17,.15-.34,.22-.52,.07-.18,.13-.35,.18-.52,.03-.09,.04-.2,.05-.34,0-.13,0-.27-.02-.4-.01-.13-.03-.26-.05-.37-.02-.11-.04-.19-.05-.23h0s0-.01,0-.01Z"/>
    <path class="cls-1" d="M74.59,69.01c.1,.36,.08,.78-.05,1.28s-.34,1.02-.63,1.56c-.28,.54-.62,1.09-1.01,1.63-.39,.54-.79,1.04-1.2,1.49-.41,.45-.82,.83-1.21,1.15-.39,.31-.74,.51-1.03,.59-.41,.11-.78,.12-1.11,.02-.33-.1-.63-.26-.9-.5-.27-.24-.51-.53-.72-.87-.21-.34-.39-.7-.55-1.08-.03,.26-.09,.54-.18,.85-.09,.31-.18,.62-.3,.93-.11,.31-.23,.61-.36,.89-.12,.28-.24,.53-.36,.74-.16,.3-.34,.59-.55,.88-.21,.29-.44,.56-.7,.81-.26,.25-.55,.47-.86,.66-.31,.19-.65,.34-1.02,.44-.31,.09-.61,.1-.88,.03-.27-.06-.52-.18-.74-.35-.22-.17-.4-.37-.55-.62-.15-.25-.27-.51-.34-.78-.06-.24-.11-.5-.14-.77-.03-.27-.05-.54-.08-.82-.02-.28-.04-.55-.07-.82-.02-.27-.06-.53-.11-.78-.04-.19-.08-.39-.12-.6-.04-.21-.09-.43-.14-.65-.04-.22-.09-.43-.12-.65-.04-.22-.07-.42-.08-.62-.01-.14-.01-.28,0-.41,.01-.13,.05-.26,.12-.38,.07-.12,.16-.22,.28-.31,.12-.09,.28-.16,.48-.22,.4-.11,.71-.07,.94,.13,.23,.19,.41,.53,.54,1.02,.04,.15,.08,.32,.11,.51,.03,.19,.06,.4,.09,.62,.02,.22,.04,.43,.06,.65,.02,.22,.02,.43,.03,.64,.01,.45,.02,.9,.04,1.33,.02,.43,.07,.8,.15,1.12,.05,.21,.14,.36,.25,.48,.11,.11,.22,.15,.33,.13,.27-.08,.53-.24,.78-.49,.25-.25,.48-.54,.69-.86,.21-.33,.4-.67,.57-1.04,.17-.37,.31-.69,.42-.99,.1-.27,.19-.6,.27-.99,.08-.38,.14-.78,.21-1.2,.06-.42,.12-.83,.17-1.23,.05-.41,.1-.77,.14-1.08,.06-.42,.17-.76,.34-1.03,.16-.26,.34-.42,.55-.48,.24-.06,.43-.07,.57,0,.14,.06,.25,.22,.31,.48,.03,.1,.06,.26,.09,.48,.03,.22,.06,.44,.1,.69,.03,.24,.07,.47,.1,.69,.03,.22,.06,.38,.09,.49,.03,.1,.06,.23,.11,.37,.04,.15,.09,.29,.14,.45,.05,.15,.1,.3,.16,.44,.05,.14,.11,.26,.15,.36,.05,.1,.13,.23,.24,.39,.1,.16,.22,.3,.35,.44,.13,.14,.26,.25,.4,.34,.13,.09,.26,.12,.37,.09,.33-.09,.66-.27,.99-.55,.33-.27,.64-.6,.95-.98,.31-.38,.62-.8,.91-1.26,.29-.46,.58-.91,.85-1.36,.11-.19,.22-.38,.33-.57,.11-.19,.22-.36,.33-.52,.11-.16,.21-.29,.31-.4,.1-.11,.19-.18,.28-.2,.1-.03,.19-.02,.27,.03,.08,.05,.12,.1,.14,.15h0Z"/>
    <path class="cls-1" d="M82.46,66.13c.03,.12,.04,.24,.01,.35-.02,.11-.06,.22-.12,.32-.05,.1-.12,.19-.19,.28s-.15,.17-.22,.24c-.25,.21-.53,.4-.83,.58-.3,.18-.61,.36-.91,.51-.31,.16-.61,.3-.9,.43-.3,.13-.57,.25-.82,.35-.17,.07-.35,.14-.54,.22-.19,.08-.37,.15-.55,.22-.18,.07-.35,.14-.5,.2-.15,.06-.28,.12-.39,.17,0,.58,.02,1.13,.03,1.66,.01,.53,.03,1.03,.07,1.49,0,.08,.02,.19,.03,.33s.02,.29,.04,.46c.01,.17,.03,.34,.05,.52,.02,.18,.04,.35,.07,.52,.02,.16,.04,.31,.06,.43,.02,.13,.04,.22,.06,.29,.06,.22,.14,.37,.24,.44,.1,.07,.18,.13,.27,.17,.15,.07,.29,.14,.4,.21s.19,.19,.24,.36c.03,.13,.02,.26-.03,.39-.06,.14-.14,.26-.25,.38-.11,.12-.24,.23-.37,.32-.14,.09-.27,.16-.41,.19-.23,.06-.45,.07-.67,0-.22-.06-.41-.16-.6-.31-.18-.15-.34-.33-.48-.55-.13-.22-.24-.45-.3-.7-.12-.42-.21-.89-.28-1.41-.08-.52-.12-1.05-.14-1.59-.01-.24-.02-.5-.03-.78-.01-.28-.03-.55-.04-.81-.01-.26-.03-.48-.04-.68-.01-.2-.02-.33-.03-.4-.13,.04-.32,.12-.56,.22-.24,.1-.54,.2-.88,.29-.29,.08-.53,.13-.74,.15-.21,.02-.39,0-.54-.06-.15-.06-.28-.16-.38-.31-.1-.15-.19-.36-.26-.63-.04-.15-.02-.29,.06-.41,.08-.12,.2-.23,.34-.32,.15-.09,.3-.17,.47-.23,.17-.06,.32-.11,.45-.15,.07-.02,.17-.05,.33-.12,.15-.06,.32-.12,.51-.19,.18-.07,.36-.13,.53-.2,.17-.06,.3-.11,.4-.14,.03-.01,.05-.08,.07-.22,.01-.13,.02-.3,.02-.51s0-.43-.02-.68c-.01-.25-.02-.49-.03-.73-.01-.24-.02-.46-.03-.66-.01-.2-.02-.36-.02-.48,0-.29-.03-.6-.07-.94-.04-.34-.06-.68-.04-1s.08-.61,.2-.85c.12-.25,.34-.42,.67-.51,.34-.1,.62-.09,.82,.01,.21,.1,.36,.33,.45,.67,.04,.16,.08,.35,.11,.57,.03,.23,.04,.45,.03,.69-.02,.53-.02,1.03-.01,1.48,.01,.45,.02,.85,.04,1.18,.02,.33,.05,.68,.09,1.06,.26-.07,.51-.14,.75-.21,.24-.07,.48-.14,.73-.22,.25-.08,.5-.16,.77-.26,.27-.09,.55-.2,.86-.33,.36-.15,.66-.28,.9-.39,.24-.11,.46-.22,.64-.31,.18-.09,.35-.17,.5-.24,.15-.07,.31-.13,.49-.17,.09-.02,.18-.02,.27,0,.09,.03,.16,.13,.21,.3h-.01Z"/>
    <path class="cls-1" d="M82.13,60.89c.02,.08,.04,.23,.06,.45,.02,.23,.04,.5,.06,.81,.02,.31,.04,.65,.05,1.01,.01,.36,.03,.71,.04,1.06,.03,.7,.04,1.4,.05,2.12,0,.71,.05,1.41,.14,2.09,.03,.16,.06,.29,.09,.42s.05,.25,.07,.37c.02,.13,.02,.26,.02,.4,0,.14-.03,.31-.08,.51-.36,.1-.66,.14-.91,.14-.25,0-.48-.04-.68-.13-.03-.08-.07-.17-.11-.29-.03-.11-.07-.23-.1-.36-.13-.46-.24-.96-.36-1.52-.11-.55-.18-1.13-.22-1.73-.03-.61-.08-1.2-.13-1.76-.05-.56-.15-1.08-.28-1.55-.05-.18-.08-.42-.1-.74-.02-.16-.02-.3-.02-.42s.01-.24,.04-.35c.03-.11,.07-.21,.13-.31s.15-.22,.26-.34c.11-.13,.22-.23,.31-.31,.1-.08,.21-.14,.33-.17,.25-.07,.51-.05,.77,.07,.14,.05,.27,.13,.36,.22,.1,.09,.16,.19,.19,.31h0Zm1.42,11.67c.03,.12,.05,.41,.09,.87,.04,.23-.09,.53-.39,.9-.26,.31-.52,.5-.78,.57-.7,.19-1.16-.1-1.37-.88-.03-.13-.04-.29-.02-.49,.02-.2,.08-.4,.15-.6,.08-.2,.18-.38,.31-.54,.13-.16,.29-.27,.47-.32,.11-.03,.25-.03,.41-.01,.17,.02,.33,.05,.49,.1,.16,.05,.3,.11,.42,.18,.12,.07,.2,.15,.22,.22h0Z"/>
  </g>
</svg>