<svg width="39" height="37" viewBox="0 0 39 37" fill="none" xmlns="http://www.w3.org/2000/svg">
<path d="M25.4645 3.0835H12.6345C10.1275 3.08635 7.72415 4.05342 5.95163 5.77253C4.1791 7.49163 3.18221 9.82236 3.17969 12.2533L3.17969 24.6946C3.18263 27.1256 4.17993 29.4561 5.95275 31.1749C7.72557 32.8937 10.1291 33.8604 12.6361 33.8629H25.4661C27.9731 33.86 30.3765 32.8929 32.149 31.1738C33.9215 29.4547 34.9184 27.124 34.9209 24.693V12.2518C34.918 9.82082 33.9207 7.49025 32.1479 5.77144C30.375 4.05262 27.9715 3.08594 25.4645 3.0835V3.0835ZM31.7285 24.693C31.7285 25.4907 31.5665 26.2806 31.2517 27.0175C30.9369 27.7545 30.4755 28.4241 29.8938 28.9881C29.3122 29.5522 28.6216 29.9996 27.8617 30.3048C27.1017 30.6101 26.2871 30.7672 25.4645 30.7672H12.6345C10.9735 30.7668 9.38059 30.1267 8.20621 28.9876C7.03183 27.8485 6.37209 26.3037 6.37209 24.693V12.2518C6.37252 10.6411 7.03266 9.09649 8.20733 7.9577C9.38201 6.81891 10.975 6.17916 12.6361 6.17916H25.4661C27.1272 6.17957 28.72 6.81971 29.8944 7.95879C31.0688 9.09787 31.7285 10.6426 31.7285 12.2533V24.6946V24.693Z" fill="white"/>
<path d="M19.0486 10.5127C16.8728 10.516 14.787 11.3557 13.2487 12.8477C11.7103 14.3398 10.8447 16.3624 10.8418 18.4723C10.8443 20.5827 11.7099 22.606 13.2487 24.0985C14.7874 25.5909 16.8738 26.4306 19.0502 26.4335C21.2268 26.431 23.3136 25.5915 24.8527 24.099C26.3918 22.6065 27.2576 20.583 27.2601 18.4723C27.2567 16.3619 26.3904 14.3389 24.851 12.8471C23.3116 11.3552 21.2249 10.5163 19.0486 10.5142V10.5127ZM19.0486 23.3378C17.7183 23.3378 16.4424 22.8254 15.5018 21.9132C14.5611 21.001 14.0326 19.7639 14.0326 18.4739C14.0326 17.1839 14.5611 15.9467 15.5018 15.0345C16.4424 14.1224 17.7183 13.6099 19.0486 13.6099C20.3789 13.6099 21.6547 14.1224 22.5954 15.0345C23.5361 15.9467 24.0645 17.1839 24.0645 18.4739C24.0645 19.7639 23.5361 21.001 22.5954 21.9132C21.6547 22.8254 20.3789 23.3378 19.0486 23.3378Z" fill="white"/>
<path d="M27.2752 12.4796C28.3614 12.4796 29.2419 11.6258 29.2419 10.5726C29.2419 9.51934 28.3614 8.66553 27.2752 8.66553C26.1891 8.66553 25.3086 9.51934 25.3086 10.5726C25.3086 11.6258 26.1891 12.4796 27.2752 12.4796Z" fill="white"/>
</svg>
