<?xml version="1.0" encoding="UTF-8"?>
<svg id="Layer_2" data-name="Layer 2" xmlns="http://www.w3.org/2000/svg" xmlns:xlink="http://www.w3.org/1999/xlink" viewBox="0 0 546 467.01">
  <defs>
    <style>
      .cls-1 {
        fill: none;
      }

      .cls-2 {
        clip-path: url(#clippath);
      }

      .cls-3 {
        fill: #2d2d35;
      }
    </style>
    <clipPath id="clippath">
      <rect class="cls-1" x="0" y="0" width="546" height="467"/>
    </clipPath>
  </defs>
  <g id="Layer_1-2" data-name="Layer 1">
    <g class="cls-2">
      <g>
        <path class="cls-3" d="M50.33,336.81c-.68,0-.81,1.06-.12,1.06s.81-1.06,.12-1.06Z"/>
        <path class="cls-3" d="M384.45,357.36c-9.52-6.61-20.38-11.69-30.48-17.37-21.24-11.93-42.26-24.26-63.74-35.76-.12-.07-.25-.11-.37-.15-.53-.64-1.33-1.04-2.38-.93-65.47,7.41-130.92,15.02-196.33,22.99-9,1.1-18.01,2.2-27.01,3.31-4.74,.58-9.45,1.3-14.19,1.91-4.71,.61-9.57,.91-14.14,2.21-.17,.05-.3,.17-.39,.31,1.49,.18,2.96,.5,4.39,.96,6.58-.14,13.32-1.3,19.81-1.86,8.33-.71,16.64-1.67,24.96-2.52,16.4-1.68,32.8-3.34,49.19-5.07,33.01-3.48,66.03-6.98,99.02-10.66,16.24-1.81,32.48-3.63,48.72-5.44-.01,.62,.25,1.28,.93,1.84,4.29,3.5,8.88,6.68,13.54,9.76-3.46,.69-6.9,1.64-10.29,2.39-.47,.11-.94,.21-1.41,.31-2.29-2.07-4.61-4.11-6.98-6.07-.64-.53-1.54,.43-.99,1.05,1.66,1.92,3.36,3.8,5.09,5.66-3.45,.77-6.89,1.54-10.33,2.3-1.47,.32-2.93,.65-4.4,.98-1.46-1.9-2.96-3.8-4.85-5.21-.78-.58-1.8,.31-1.43,1.17,.72,1.71,1.8,3.27,2.97,4.77-4.79,1.07-9.58,2.13-14.38,3.19-.82-1.03-1.65-2.05-2.51-3.05-.44-.51-1.39,0-1.04,.65,.52,.96,1.07,1.89,1.63,2.83-1.98,.44-3.96,.88-5.94,1.32-9.76,2.16-19.48,4.5-29.22,6.78-9.66,2.26-20.11,3.7-29.3,7.47-.82,.34-.35,1.42,.42,1.39,10.04-.42,20.29-3.54,30.13-5.55,10.01-2.04,20.04-4.04,30.03-6.2,2.1-.45,4.19-.9,6.28-1.36,2.17,3.36,4.47,6.63,6.71,9.95,.06,.09,.13,.19,.19,.28-39.45,7.79-78.95,15.38-118.35,23.46-17.08,3.5-34.34,6.49-51.12,11.25-.65,.18-.53,1.13,.17,1.05,15.42-1.73,30.62-5,45.86-7.88,15.25-2.87,30.49-5.75,45.74-8.62,26.7-5.03,53.25-10.82,79.92-15.99,1.03,1.51,2.06,3.02,3.12,4.5,.66,.93,1.28,1.95,1.94,2.93-11.45,2.42-22.89,4.82-34.35,7.18-34.31,7.07-68.72,13.81-102.9,21.5-19.49,4.39-39.34,7.77-58.61,13.02,.09-.25,.12-.54,.06-.88-.95-5.09-3.53-10.18-5.23-15.09-1.77-5.11-3.61-10.19-5.43-15.28-1.81-5.09-3.63-10.18-5.5-15.25-1.94-5.26-3.6-10.73-6.38-15.62-.55-.97-2.19-.64-1.97,.59,.89,5.22,2.91,10.18,4.63,15.18,1.67,4.84,3.38,9.67,5.11,14.5,.47,.37,.84,.9,1.04,1.62,.56,1.96,1.1,3.92,1.63,5.88,1.02,2.86,2.04,5.71,3.08,8.55,.96,2.65,2,5.27,2.94,7.92,.93,2.64,1.54,5.49,2.88,7.95,.36,.66,1.04,.95,1.69,.91-.33,.86,.19,1.97,1.4,1.8,17.57-2.42,34.89-6.62,52.32-9.84,17.46-3.23,34.85-6.77,52.26-10.26,34.35-6.89,68.62-14.17,102.99-20.91,3.88-.76,7.76-1.52,11.64-2.27,.46,.18,.98,.05,1.35-.26,15.44-3.02,30.89-6.03,46.33-9.08,3.75-.74,3.41-6,.4-6.72-7.03-6.98-15.6-11.33-23.67-16.95-7.88-5.48-15.71-11.36-24.03-16.2,.33-.04,.67-.08,1-.11,.05,0,.1-.02,.15-.03,17.23,10.48,34.79,20.4,52.27,30.46,9.02,5.19,18.01,10.44,27,15.67,3.76,2.18,7.6,4.26,11.24,6.62,3.04,1.97,6.77,4.55,7.92,8.18,1.99,6.29-4.83,10.65-10.32,13.19,.01,.04,.02,.08,.03,.12-10.29,2.84-20.4,6.39-30.52,9.79-12.06,4.05-24.15,7.99-36.28,11.81-24.37,7.69-48.83,15.09-73.42,22-24.47,6.88-49.07,13.29-73.78,19.22-12.36,2.97-24.74,5.82-37.15,8.56-10.86,2.4-23.35,6.76-34.56,4.64-8.01-1.51-12.56-7.48-15.24-14.43-6.55-8.85-10.85-19.56-14.49-30.11-.67-2.01-1.35-4.02-2.02-6.03-.15-.45-.31-.9-.47-1.35-.11-.33-.22-.65-.32-.97-3.93-11.89-7.09-23.99-10.52-36.02-.08-.27-.12-.54-.13-.79-1.22-3.07-2.42-6.15-3.63-9.22-1.06-2.69-2.03-5.49-3.06-8.26-.99-2.85-2.06-5.66-3.52-8.25-.03-.05-.07-.1-.1-.15-.43-.81-.87-1.61-1.35-2.39-.59-.96-2.24-.68-2.03,.61,.13,.81,.29,1.62,.48,2.42,0,.13,0,.26,.02,.41,.7,4.41,2.45,8.64,3.87,12.86,1.52,4.55,3.04,9.11,4.55,13.67,3.02,9.12,5.87,18.29,8.99,27.38,2.25,6.53,4.5,13.07,6.74,19.61,.19,.62,.37,1.24,.56,1.85,1.09,3.46,2.02,7.31,3.71,10.57l2.79,8.11c1.07,3.12,2.02,6.79,3.53,9.94,2.08,5.24,5.08,10.04,9.66,13.54,8.98,6.84,20.79,5.71,31.19,3.59,12.78-2.6,25.5-5.58,38.19-8.57,50.91-11.95,101.55-25.56,151.32-41.62,14.07-4.54,28.08-9.23,42.04-14.07,12.25-4.25,24.64-8.4,36.47-13.75,5.47-1.71,10.93-4.17,13.87-9.19,4.73-8.09-.88-16.18-7.56-20.82h0Zm-111.98-26.6c4.17-.9,8.49-1.65,12.79-2.47,3.26,3.35,6.59,6.64,9.94,9.91-5.81,1.18-11.63,2.35-17.44,3.51-.88-1.14-1.76-2.28-2.64-3.42-1.8-2.32-3.6-4.64-5.43-6.93,.93-.2,1.86-.4,2.78-.6Zm-13.9,13.86c-2.23-3.13-4.42-6.31-6.7-9.4,4.84-1.05,9.68-2.09,14.51-3.14,2.08,2.75,4.22,5.45,6.36,8.15,.57,.71,1.14,1.43,1.7,2.15-5.1,1.02-10.2,2.03-15.31,3.04-.19-.26-.37-.53-.56-.8h0Zm8.03,11.44c-.64-.96-1.38-1.88-2.03-2.84-1.02-1.52-2.06-3.02-3.11-4.51,2.61-.5,5.22-1.01,7.84-1.49,2.6-.48,5.2-.98,7.81-1.47,1.83,2.31,3.66,4.62,5.49,6.93-5.33,1.13-10.66,2.26-15.99,3.39h0Zm19.12-4.05c-1.78-2.29-3.55-4.59-5.33-6.89,6.11-1.16,12.21-2.32,18.32-3.49,2.14,2.08,4.27,4.16,6.37,6.25-6.45,1.38-12.91,2.75-19.36,4.13Zm43.35-9.24c-6.83,1.45-13.66,2.91-20.49,4.36-.07-.15-.17-.29-.31-.43-1.98-1.9-3.96-3.84-5.93-5.77,6.08-1.16,12.16-2.31,18.24-3.43,2.73,1.89,5.52,3.7,8.48,5.27Zm-20.67-13.83c2.48,1.63,4.87,3.34,7.25,5.06-5.61,1.17-11.22,2.32-16.83,3.47-3.36-3.31-6.73-6.61-10.16-9.84,4.32-.88,8.59-1.89,12.68-3.25,2.36,1.52,4.73,3.04,7.06,4.57Z"/>
        <path class="cls-3" d="M214.58,412.84c-4.11,1.09-8.95,2-12.63,4.12-.08,.05-.14,.09-.21,.15-5.7-8.26-11.03-16.75-16.78-24.96-.58-.83-2,.04-1.52,.94,4.99,9.36,10.48,18.45,15.49,27.8,1.13,2.12,3.73,1.27,4.19-.41,4.24-.16,8.75-1.91,12.81-3.12,4.54-1.36,9.06-2.78,13.62-4.08,8.8-2.52,17.73-4.65,26.58-6.98,3.38-.89,2.45-5.26-.55-5.21-.84-1.26-1.99-2.29-3.05-3.46-1.76-1.93-3.5-3.88-5.19-5.87-3.37-3.99-7.1-7.69-10.64-11.53-2.22-2.4-6.17,1-3.88,3.17,3.77,3.56,7.37,7.35,11.28,10.75,1.97,1.7,3.91,3.43,5.81,5.2,.88,.82,1.71,1.73,2.59,2.52-8.32,2.54-16.62,5.21-24.99,7.55-4.3,1.2-8.63,2.28-12.94,3.43h.01Z"/>
        <path class="cls-3" d="M121.54,449.19c-8.62,1.67-17.48,2.82-25.95,5.11-.55,.15-.45,.95,.14,.89,7.82-.78,15.58-2.72,23.27-4.3,7.5-1.54,15.01-3.02,22.51-4.52,15.25-3.03,30.4-6.43,45.5-10.13,29.76-7.29,59.78-14.56,88.93-24.06,16.74-5.46,33.49-10.77,49.98-16.98,.09-.03,.04-.19-.05-.16-29.75,8.86-59.37,18.17-89.31,26.38-29.55,8.11-59.3,15.32-89.17,22.15-8.6,1.97-17.2,3.93-25.86,5.61h0Z"/>
        <path class="cls-3" d="M533.57,16.46c1.27-3.33,3.1-7.45,3.36-10.94,.61-.6,.89-1.4,.29-1.89-.11-.09-.24-.18-.37-.27-.02-.15-.04-.3-.08-.45-.17-.75-1.02-.86-1.83-.59-3.23-1.32-7.72-1.53-11.26-1.88-4.75-.46-9.65-.56-14.65-.32-10.11,.5-20.65,2.39-31.04,5.51-8.22,2.47-16.39,5.78-24.25,9.8,0,0,0,0,0-.01,.18-.29,.14-.67-.05-.85-.71-.65-1.79-.78-3-.64-4.26-5.57-12.8-8.32-21.06-8.91-9.62-.69-20.27,1.47-30.27,6.17-7.59,3.57-19.72,11.31-12.04,17.04,4.14,3.08,9.13,5.47,13.61,8.22,4.44,2.72,8.88,5.46,13.32,8.18-2.24,1.39-3.84,3.76-4.34,5.88-.98,4.15,.38,8.4,.99,12.13,.39,2.35,.77,4.69,1.16,7.04,.32,1.92,.15,4.19,1.74,5.4,.68,.52,2.1,.3,2.63-.77,1.22-2.47,.25-4.69-.08-6.91-.38-2.52-.74-5.06-1.15-7.57-.39-2.37-1.06-4.68-1.27-7.11-.12-1.32-.23-3.26,1.18-4.6,.67-.64,1.4-.93,2.04-.97,.28,4.05,1.54,7.9,2.37,11.67,.6,2.72,1.2,5.44,1.8,8.16,.49,2.2,.31,4.98,2.72,5.89-.26,2.57,2.31,3.67,4.06,5.09,2.17,1.76,4.33,3.53,6.5,5.3,3,2.44,5.89,5.31,9.39,7.39-.31,.56-.91,1.07-1.78,1.38-1.83,.66-3.52-.32-4.65-1.02-2.08-1.29-3.85-2.93-5.8-4.35-2.06-1.5-4.18-2.96-6.26-4.44-1.84-1.3-3.39-3.17-6.15-3.19-1.2-.01-2.04,1.16-1.87,2,.37,1.97,2.47,2.84,4.05,3.99,1.93,1.4,3.86,2.81,5.79,4.21,3.07,2.23,6.27,5.37,10.42,6.36,2.12,.51,4.96,.14,7.21-1.23,.46,5.2,.92,10.4,1.37,15.61,.45,5.25,.36,10.8,1.27,15.89,1.69,9.46,14.05,2.09,20.65-3.08,8.69-6.81,15.4-15.37,19.09-24.28,3.17-7.66,4.53-16.53,1.45-22.86,.67-1.02,1.03-2.04,.77-2.97-.07-.26-.39-.46-.73-.43h-.01c7.12-5.22,13.75-11.03,19.64-17.27,7.44-7.88,13.86-16.46,18.84-25.27,2.46-4.36,4.57-8.79,6.28-13.25h0Zm-115.84,22.48c-6.84-3.77-13.68-7.54-20.44-11.4-1.82-1.04-3.81-1.98-5.5-3.16-1.85-1.29-1.6-2.58,.64-4.36,3.41-2.72,7.84-4.83,11.81-6.49,8.77-3.67,18.06-5.28,26.26-4.35,6.51,.73,11.49,3.13,16.49,5.78-1.11,.42-2.17,.9-3.03,1.28-4.02,1.82-7.89,4.13-11.46,6.74-5.49,4.02-11.96,10.09-14.76,15.97Zm27.02-18.5c-.37,.22-.74,.44-1.1,.67-5.06,3.1-9.91,6.48-14.59,10.07,1.97-1.87,4.08-3.64,6.32-5.25,2.94-2.13,6.1-3.96,9.39-5.48h0Zm-16.4,50.06c-.04-.08-.07-.15-.1-.24,3.05-1.21,5.75-3.35,8.47-5.23,3.43-2.37,6.86-4.75,10.29-7.12,3.24-2.24,6.48-4.48,9.73-6.72,1.75-1.2,3.47-2.46,5.28-3.56,1.49-.9,7.96-3.34,5.7,.57-.61,1.05-2.9,2.24-3.91,2.88-1.8,1.13-3.61,2.26-5.41,3.39-3.41,2.13-6.81,4.27-10.22,6.41-3.61,2.26-7.22,4.52-10.82,6.79-1.43,.9-2.86,1.87-4.35,2.68-.73,.4-1.64,.97-2.48,1.18-.63-.49-1.33-.87-2.17-1.05h0Zm55.67,25.37c-2.85,7.75-8.45,15.33-15.66,21.52-3.26,2.8-7.14,5.81-11.1,7.63-2.6,1.2-3.87,.84-4.19-1.4-.3-2.04-.25-4.25-.37-6.35-.43-7.79-.74-15.61-1.06-23.43,6.52,.14,14.85-2.9,20.92-6,3.94-2.01,7.75-4.44,11.17-7.21,.74-.6,1.64-1.33,2.51-2.13,.13,5.67,.05,11.21-2.21,17.36h0Zm-20.36-8.63c5.31-2.57,10.51-5.38,15.56-8.51,.37-.23,.73-.46,1.09-.69-2.83,2.25-5.89,4.25-9.12,5.92-2.45,1.27-4.98,2.36-7.53,3.28Zm59.23-58.55c-4.62,8.36-10.49,16.43-17.56,23.88-8.04,8.46-17.45,16.02-27.65,22.37-5.33,3.32-10.92,6.33-16.62,8.84-2.77,1.22-5.58,2.35-8.41,3.37-1.09,.39-2.22,.69-3.28,1.08-2.57-3.58-6.64-6.28-10.05-9.15-2.13-1.79-4.27-3.59-6.41-5.38-.04-.03-.08-.07-.11-.1,.8-.37,1.58-.78,2.28-1.2,6-3.59,11.85-7.52,17.75-11.27,5.07-3.22,10.75-6.24,15.45-9.92,2.8-2.19,4.62-5.29,2.6-7.35-2.49-2.54-7.21-.9-10.8,1.36-5.78,3.65-11.34,7.77-16.97,11.62-2.68,1.83-5.36,3.67-8.04,5.5-2.33,1.6-4.91,3.13-6.98,5.03-.22-.94-.57-1.85-.79-2.76-.64-2.71-1.28-5.41-1.92-8.12-1.02-4.31-1.61-9.14-3.65-13.04,.83-.77,1.61-1.65,2.45-2.44,2.18-2.06,4.45-4.06,6.79-5.99,4.8-3.96,10.01-7.6,15.37-10.87,10.26-6.25,21.24-11.27,32.41-14.66,9.83-2.98,19.68-4.61,29.22-4.99,.74-.03,1.47-.04,2.2-.05,1.16,3.71,3.89,6.83,5.95,9.96,2.68,4.1,4.67,8.6,7.37,12.68,.05,.07,.1,.12,.16,.18-.25,.47-.49,.94-.74,1.4h-.01Zm-3.78-16.35c-1.39-2.57-2.61-5.45-4.38-7.88,2.58,.05,5.14,.19,7.64,.42,3.09,.29,6.32,1.25,9.59,1.51-1.24,3.05-1.82,6.37-2.95,9.27-.95,2.46-2.03,4.91-3.2,7.35-2.19-3.59-4.71-6.96-6.71-10.66h0Z"/>
        <path class="cls-3" d="M512.27,13.29c-2.2-2.7-5.86-4.47-9.82-4.71-9.44-.57-20.52,6-25.05,14.55-4.59,8.66-2.41,17.77,4.85,21.76,7.74,4.25,19.47,1.84,27.72-6.06,4.51-4.33,7.21-9.49,7.45-14.47,.22-4.33-1.4-8.91-5.14-11.06h0Zm-.23,12.87c-.67,4.46-3.3,9.17-7.75,12.69-9.48,7.51-21.23,4.21-24.17-3.1-3.03-7.55,2.71-17.88,13.27-22.28,5.25-2.19,10.36-2.25,14,.11,3.44,2.23,4.4,5.94,4.44,10.01,0,.23,.15,.37,.36,.42,0,.69-.04,1.41-.15,2.15Z"/>
        <path class="cls-3" d="M428.68,102.46c-6.61,4.15-12.42,10.08-18.09,15.67-.04-2.62-.11-5.24,.02-7.86,.09-1.85-1.94-2.63-3.24-1.27-5.94,6.2-13.49,10.76-21.65,13.28,2.76-4.89,3.43-10.58,2.01-16.08-.3-1.16-1.98-1.67-3.01-1.18-15.89,7.51-31.64,15.36-47.5,22.96,13.88-10.81,27.93-21.4,41.74-32.28,.9-.71,1.17-2.48,.25-3.3-4.39-3.91-9.87-6.01-15.53-5.83,5.89-6.23,13.34-10.92,21.6-13.37,1.81-.54,1.99-2.75,.27-3.56-2.44-1.14-4.79-2.44-7.16-3.73,7.57-2.49,15.54-4.95,22.21-8.99,.95-.57,.56-1.99-.6-1.86-9.59,1.1-19.31,5.31-28.42,8.34-2.15,.71-1.32,3.49,.23,4.24,2.64,1.28,5.37,2.35,8.07,3.48-9.28,3.49-17.18,9.3-23.33,17.33-1.05,1.37,.4,3.82,2.15,3.29,5.13-1.55,10.6-.85,14.96,2.12-16.1,12.19-31.93,24.74-48.09,36.85-.68-1.27-1.41-2.51-2.23-3.71-5.26-7.7-14.42-12.86-23.88-12.05-8.52,.73-15.73,7-17.53,15.38-2.13,9.91,5.32,18.2,14.77,19.95,9.19,1.7,17.26-2.5,23.6-8.57,.69-.36,1.39-.71,2.08-1.06,8.47,30.05-10.46,63.62-38.52,75.37-4.77,1.99-9.81,3.42-14.95,4.26-2.85-11.62-5.66-23.26-8.41-34.9-2.17-9.19-4.29-18.39-6.52-27.57-1.53-6.3-3.36-12.84-7.45-18.01-4.47-5.66-11.14-7.91-18.17-8.04-8.8-.16-17.74,1.02-26.51,1.65-38.75,2.79-77.49,5.68-116.23,8.67-19.13,1.47-38.27,2.87-57.41,4.21-7.05,.49-15.9-.12-22,4.14C.71,154.26-.31,160.94,.07,167.14c.62,10.28,2.82,20.61,4.3,30.79,1.55,10.63,3.09,21.26,4.64,31.89,1.55,10.63,3.09,21.26,4.64,31.89,1.58,10.85,2.81,21.82,5.13,32.54,.36,1.64,2.67,1.25,2.56-.4-1.26-18.04-4.61-36.07-7.1-53.98-2.5-17.97-4.99-35.94-7.49-53.92-1.07-7.73-3.4-16.36-2.4-24.2,1.19-9.27,9.56-10.26,17.3-10.82,18.19-1.3,36.38-2.6,54.58-3.76,36.41-2.34,72.81-4.69,109.2-7.21,9.1-.63,18.19-1.26,27.29-1.89,7.66-.53,17.31-2.57,24.49,1.05,6.03,3.04,8.66,9.99,10.34,16.11,2.23,8.17,3.92,16.5,5.85,24.74,3.19,13.66,6.31,27.34,9.39,41.03-2.03,.15-4.07,.19-6.1,.15-.19-.01-.38-.03-.57-.05-2.81-12.52-5.62-25.04-8.45-37.55-1.81-8.02-3.22-16.29-5.62-24.16-1.85-6.06-5.04-11.82-10.94-14.71-6.3-3.09-13.77-2.48-20.54-1.85-9.04,.84-18.08,1.75-27.12,2.65-36.87,3.65-73.75,7.22-110.62,10.83-9.28,.91-18.56,1.81-27.83,2.72-7.26,.71-15.13,.73-22.13,3.03-15.74,5.18-11.58,22.26-9.51,34.82,3.33,20.19,6.87,40.35,10.23,60.54,1.72,10.33,3.4,20.66,5.19,30.98,1.79,10.31,3.3,20.73,6.03,30.85,.18,.66,1.1,.53,1.06-.17-1.05-17.27-4.64-34.53-7.4-51.59-2.77-17.15-5.33-34.33-8.13-51.48-1.38-8.45-2.75-16.91-4.13-25.36-1.08-6.63-3.18-15.25,1.41-21.06,4.55-5.76,13.4-5.81,20.06-6.45,8.8-.84,17.61-1.68,26.42-2.53,34.27-3.28,68.53-6.6,102.8-9.84,8.81-.83,17.62-1.66,26.42-2.49,8.33-.79,16.81-2.16,25.19-2.18,7.71,0,14.32,2.62,17.58,10.01,3.08,6.99,4.08,15.15,5.75,22.56,3.13,13.95,6.28,27.9,9.42,41.84-1.97-.29-3.92-.65-5.83-1.08-3.39-.76-6.53-2.1-9.89-2.97-3.5-.9-7.04-1.59-10.55-2.47-6.72-1.68-13.36-3.29-20.29-3.84-11.05-.87-22.06,.8-31.53,6.81-8.29,5.24-15.04,13.56-15.85,23.61-.89,10.98,8.79,30.73-3.74,38.17-1.83-3.13-4.57-5.7-7.91-7.01-.96-.38-1.78,1.02-.88,1.61,5.7,3.77,8.34,9.33,7.54,16.04-.09,.78,.39,1.57,1.12,1.85,.15,.06,.29,.11,.45,.11,.99-.01,1.81-.52,1.97-1.57,.3-1.99,.17-4.02-.28-5.99,2.79-1.18,5.65-1.15,7.59,1.73,1.19,1.77,4.07-.07,3.15-1.96-1.14-2.37-4.13-4.01-7.02-4.27,5.21-5.64,5.43-14.68,4.16-22.18-1.1-6.45-3.01-13.1-1.62-19.66,1.18-5.54,4.5-10.51,8.82-14.11,9.41-7.85,21.63-9.98,33.55-8.8,7.31,.72,14.73,2.23,21.81,4.21,2.99,.83,5.92,1.79,8.92,2.57,5.68,2.09,11.53,3.5,17.45,4.18,2.35,10.4,4.7,20.8,7.04,31.21-.28-.11-.57-.19-.87-.27,.58,1.47,.89,2.99,1.31,4.51,.16-.11,.3-.23,.43-.37,2.48,11.01,4.96,22.03,7.43,33.04,.65,2.88,5.21,2.18,4.56-.72-5.05-22.33-10.06-44.67-15.07-67,2.23,.11,4.46,.12,6.7,.02,5.12,22.85,10.14,45.72,15.18,68.59-4.28,.52-8.56,1.04-12.83,1.56-.71-8.93-11.06-12.9-19.13-11.25,0-.21,0-.37-.02-.45-.15-.79-.42-1.58-.69-2.33-.74-2.08-1.85-3.98-3.34-5.6-2.56-2.79-5.85-4.1-9.56-4.1,1.15-3.37,.71-7.27-1.57-10.17-2.6-3.31-6.76-4.18-10.69-3.52,2.34-9.56-6.09-20.31-16.34-19.6-10.26,.71-15.75,13.3-9.45,20.75-2.7,1.43-5.43,2.8-8.17,4.16-.03-4.57-2.52-9.09-6.94-10.94-5.59-2.34-13.51,.38-14.82,6.65-.31,1.5,1.84,2.66,2.93,1.6,2.64-2.58,5.71-5.16,9.68-3.84,4.04,1.33,5.4,6.2,3.88,9.83-.74,1.77,1.3,3.86,3.08,2.91,5.01-2.66,9.95-5.45,15.07-7.9,1.53-.73,1.7-2.76,.39-3.79-6.86-5.36-1.71-15.44,6.41-14.89,3.99,.27,7.38,2.72,8.9,6.42,1.72,4.17,.6,7.72-.42,11.84-.54,2.2,2.54,2.81,3.71,1.44,2.74-3.2,8.04-1.86,10.16,1.35,1.91,2.89,1.26,6.54-.86,9.08-1.48-1.7-3.37-3.06-5.47-3.93-1.06-.44-2.25,1.01-1.38,1.89,3.17,3.19,4.69,7.09,5.93,11.3,.6,2.05,3.85,2.42,4.07-.09,.19-2.12-.22-4.15-1.06-5.97,.95-.72,2.02-1.22,3.17-1.55,.09-.26,.2-.51,.35-.74h-.05s.02-.04,.03-.06c4.57,1.55,9.92,7,8.46,12.07-2.97,2.33-.06,7.86,3.36,5.76,2.99-1.84,6.44-2.54,9.76-1.02,2.52,1.16,3.57,3.29,4.88,5.42-57.68,6.99-115.35,14.06-172.95,21.63-9.01,1.18-18.01,2.62-26.99,4.04-2.51,.4-5.03,.77-7.55,1.13,1.03-.39,1.8-1.3,1.55-2.58-1.58-7.93-4.78-17.2,.38-24.55,2.07-2.95,5.62-5.43,9.38-4.69,3.27,.64,6.05,3.31,6.32,6.55-.09,.74-.13,1.49-.11,2.23,.07,2.58,3.59,2.41,4.23,.24,.43-1.47,.47-2.93,.21-4.32,1.81-7.72,12.47-10.3,17.28-2.39,1.52,2.51,5.52-.22,3.76-2.64-6.17-8.51,3.56-20.78,12.73-13.86,.08,.06,.17,.1,.25,.15-.89,2.49-1.1,5.22-.39,7.9,.7,2.65,4.51,1.52,4.49-.95-.06-5.46,1.21-10.45,5.71-14.05,.95-.76,.22-2.46-1.03-1.98-2.41,.94-4.54,2.54-6.18,4.53-5.19-5.79-6.01-15.69,.53-21.02,7.18-5.85,18.64-2.01,22.01,6.19,.74,1.8,3.56,.81,2.85-1.02-3.07-7.92,6.35-12.5,11.91-7.04,1.02,1,2.72-.56,1.85-1.7-5.52-7.16-15.1-3.25-16.94,3.81-5.88-6.37-16.44-8.49-23.79-3.24-6.77,4.84-9.09,15.06-5.73,22.62-3.96,.06-7.9,1.5-10.68,4.35-2.84,2.92-4.03,6.84-3.75,10.7-3.2-1.34-6.83-1.65-10.08-.45-2.88,1.05-5.22,3.1-6.83,5.62-.84-1.1-1.88-2.06-3.06-2.84-4.35-2.87-9.58-2.71-13.93,.06-10.98,6.97-9.66,22.12-6.56,32.89,.31,1.08,1.21,1.61,2.17,1.69-1.73,.25-3.46,.49-5.2,.74-4.37,.62-8.83,.9-13,2.4-1.05,.37-.69,1.98,.33,2.09,7.57,.8,15.71-1.1,23.28-1.76,8.37-.74,16.73-1.45,25.1-2.2,16.46-1.48,32.88-3.57,49.31-5.4,32.38-3.61,64.74-7.43,97.11-11.17,17.73-2.05,35.45-4.19,53.17-6.3,2.65,2.14,7.73,.47,6.71-3.61-6.08-24.38-12.22-48.77-18.23-73.17,5.45-.7,10.87-2.03,16.14-3.99,18.12-6.73,32-21.04,39.26-38.84,5.52-13.52,7.69-30.62,2.93-45.01,18.37-9.23,37-17.96,55.42-27.09,.6,5.08-1.29,10.17-5.01,14.01-1.27,1.32,.21,3.62,1.9,3.28,9.87-2,18.6-6.48,25.92-13.13-.25,2.84-.56,5.69-.64,8.54-.05,1.67,2,3.57,3.62,1.99,6.85-6.71,15-13.46,20.36-21.4,.64-.95-.42-1.9-1.36-1.31h0Zm-111.95,34.81c-.36,.26-.61,.56-.77,.87-5.08,3.14-10.71,5.79-16.5,5.12-6.93-.8-12.34-6.19-9.86-13.36,2.58-7.46,10.57-9.92,17.61-7.43,5.99,2.12,10.23,6.77,12.92,12.28-1.13,.84-2.26,1.69-3.4,2.52h0Z"/>
        <path class="cls-3" d="M332.84,196.2c-2.22,9.38-9.19,17.85-18.57,20.63-2.79,.83-1.68,4.73,1.15,3.84,10.78-3.39,18.93-12.85,19.54-24.23,.08-1.4-1.82-1.55-2.13-.24h0Z"/>
        <path class="cls-3" d="M328.91,228.61c-.28,.51-.23,1.02,.22,1.41,2.78,2.36,8.07-1.98,9.89-4.06,2.9-3.3,4.28-7.49,3.97-11.86-.14-1.94-3-1.4-2.95,.47,.1,3.63-1.49,7.14-4.14,9.59-1.1,1.01-2.35,1.92-3.72,2.53-1.28,.58-2.55,.61-3.28,1.91h0Z"/>
        <path class="cls-3" d="M100.75,238.08c3.99,6.54,13.49,7.04,18.74,2,3.14,3.25,8.36,3.37,11.66-.25,2.84-3.12,2.75-7.61,.67-10.96,5.86-3.53,7.22-12.08,1.62-16.91-5.54-4.77-13.07-2.34-16.09,3.45-1.44-3.07-5.14-4.54-8.34-2.74-3.06,1.72-3.84,5.36-2.75,8.4-6.07,2.94-9.24,10.89-5.5,17.02h0Zm8.49-14.63c1.06-.33,1.19-1.81,.6-2.56-1.42-1.79-1.22-4.88,1.12-5.9,1.96-.86,4.5,.19,5.81,1.73-.2,.55-.38,1.13-.5,1.72-.49,2.38,3.26,2.78,3.75,.42,1.08-5.23,7.38-7.32,11.18-3.46,3.78,3.84,1.38,9.44-3.35,10.94-1.53,.49-1.36,2.55-.34,3.39,2.28,1.9,2.88,5.5,.82,7.79-1.79,2-5.24,2.17-7.73,1.13,.39-1.55-1.78-3.31-3.11-1.94-3.58,3.71-10.56,4.13-13.6-.58-3.08-4.78,.35-11.12,5.36-12.68h0Z"/>
        <path class="cls-3" d="M200.86,277.27c-2.3,.41-4.13,2.98-5.68,4.56-1.78,1.81,.4,4.62,2.53,3.09,.95-.68,1.91-1.37,2.85-2.06,.99-.71,2.15-1.62,2.55-2.8,.5-1.45-.65-3.08-2.25-2.8Z"/>
        <path class="cls-3" d="M201.7,296.03c1.74-1.23,4.08-2.37,5-4.38,.32-.7-.37-1.36-1.04-1.29-2.18,.22-4.11,2.17-5.82,3.41-1.53,1.11,.32,3.34,1.85,2.26Z"/>
        <path class="cls-3" d="M164.38,209.09c.03,1.93,2.12,2.83,3.45,1.34,1.89-2.13,2.6-4.35,5.46-5.6,2.26-.99,5.76-1.24,8.16-.51,1.54,.46,2.91-1.59,1.42-2.59-1.68-1.13-2.92-2.01-5.02-2.09-2.05-.08-4.1,.32-5.99,1.1-3.13,1.29-7.53,4.61-7.47,8.36h0Z"/>
        <path class="cls-3" d="M172.08,191.65c-2.06-1.16-4.83-1.54-6.93-.28-2.37,1.41-4.35,4.15-2.87,6.81,.64,1.16,2.1,1.42,3.01,.47,.06-.04,.13-.09,.21-.14,.14-.14,.27-.29,.4-.43,.15-.21,.54-.9,.67-1.11,.25-.44,.51-.88,.87-1.23,.81-.77,1.96-1.66,3.13-1.35,1.57,.43,3.19-1.79,1.5-2.74h0Z"/>
        <path class="cls-3" d="M64.5,235.33c.71-.31,.39-1.51-.4-1.33-3.58,.81-6.13,3.79-6.05,7.53,.09,3.84,3.1,6.71,6.81,7.25,3.82,.55,7.51-1.56,8.64-5.29,.85-2.81,.43-9.55-3.55-9.68-1.15-.04-2.41,.9-2.11,2.2,.28,1.24,.87,1.72,1.73,2.59,.85,.87,1.14,1.88,1.06,3.09-.17,2.61-2.37,4.23-4.89,4.12-5.98-.24-6.1-8.4-1.24-10.47Z"/>
        <path class="cls-3" d="M231.21,238.97c-.9-.27-1.71-.45-2.03-1.44-.39-1.21-2.52-.88-2.52,.4,.01,2.57,2.27,4.86,4.97,4.31,1.13-.23,2.25-.85,2.92-1.81,.62-.89,.73-1.93,.88-2.94,.74-1.67-.6-3.76-2.19-4.52-1.04-.49-2.39,.1-2.89,1.07-.57,1.08-.25,2.23,.66,3.01,.17,.14,.34,.29,.51,.43,.02,.01,.49,.48,.22,.18,.15,.17,.29,.31,.43,.44,0,.07-.01,.14-.03,.21-.03,.09-.07,.2-.12,.28-.11,.18-.22,.28-.4,.38-.26,.11-.28,.12-.06,.01-.11,0-.23-.01-.34-.02h0Z"/>
        <path class="cls-3" d="M545.72,67.51c-.76-.71-1.17-2.17-1.8-3.05-.7-.97-1.57-1.81-2.49-2.59-1.88-1.58-4.03-2.72-6.36-3.47-.75-.25-1.2,.88-.45,1.15,2.1,.76,4.02,1.84,5.71,3.31,1.09,.95,3.32,2.89,4.05,4.54-2.16-.04-4.79-.81-5.84-2.72-2.66-4.86-8.55,1.41-4.59,3.74,3.74,2.21,8.15,2.99,11.8,.19,.39-.3,.28-.81-.03-1.11h0Z"/>
        <path class="cls-3" d="M522.4,81.53c-1.88-.65-2.84,1.97-1.1,2.83,1.39,.69,2.9,1.4,3.93,2.59,.46,.54,1.44,2.17,.79,2.89-.22,.25-.79-.08-1.03-.21-.2-.11-.39-.22-.57-.35-.03-.04-.06-.07-.1-.12-.42-.52-.72-1.08-1.32-1.42-.9-.51-2.22-.74-3.05,.09-2.33,2.29-.77,5.62,1.76,6.99,2.22,1.2,5.35,.76,7.11-1.05,1.92-1.96,2.01-5.09,.71-7.41-1.5-2.68-4.36-3.87-7.13-4.82h0Z"/>
      </g>
    </g>
  </g>
</svg>