<?xml version="1.0" encoding="UTF-8"?>
<svg id="Layer_2" data-name="Layer 2" xmlns="http://www.w3.org/2000/svg" xmlns:xlink="http://www.w3.org/1999/xlink" viewBox="0 0 265 237">
  <defs>
    <style>
      .cls-1 {
        fill: none;
      }

      .cls-2 {
        clip-path: url(#clippath);
      }

      .cls-3 {
        fill: #2d2d35;
      }
    </style>
    <clipPath id="clippath">
      <rect class="cls-1" width="265" height="237"/>
    </clipPath>
  </defs>
  <g id="Layer_1-2" data-name="Layer 1">
    <g class="cls-2">
      <g>
        <path class="cls-3" d="M125.51,104.82c-.45-.18-1.08-.05-1.31,.43-.14,.28-.27,.57-.41,.85-.21,.43-.27,.76-.23,1.23,.04,.42,.23,.79,.64,.96,.37,.15,.87,.1,1.14-.22,.28-.33,.53-.62,.6-1.06,.06-.32,.11-.63,.17-.95,.09-.51-.1-1.03-.61-1.24h0Z"/>
        <path class="cls-3" d="M126.95,104.77c-.38,0-.72,.33-.71,.71,.01,.41-.03,.89,.11,1.28,.22,.59,.99,.59,1.21,0,.14-.39,.09-.87,.11-1.28,.01-.38-.34-.71-.71-.71Z"/>
        <path class="cls-3" d="M196.15,75.1c-3.26-.13-6.5-.17-9.75,.1-1.63,.13-3.26,.31-4.87,.67-.82,.18-1.55,.55-2.34,.81-.79,.25-1.6,.45-2.39,.7-1.15,.37-.66,1.97,.49,1.78,.84-.14,1.69-.28,2.54-.29,.83,0,1.63,.1,2.47,.08,1.54-.04,3.09-.07,4.63-.05,3.31,.05,6.64,.23,9.94,.4,6.65,.35,13.28,.72,19.88-.39,1.16-.2,1.75-1.61,1.5-2.63-.39-1.55-.77-3.1-1.16-4.65-.39-1.57-.71-3.22-1.65-4.56-1-1.43-2.88-.8-3.1,.84-.22,1.62,.29,3.27,.67,4.84,.18,.77,.37,1.53,.55,2.3-5.77,.65-11.63,.27-17.41,.04h0Z"/>
        <path class="cls-3" d="M213.79,62.96s.06,.09,.1,.13c.18,.18,.39,.3,.64,.37,.13,.02,.27,.04,.4,.05,.13-.02,.26-.03,.38-.05,.14-.03,.26-.09,.37-.16,.22-.14,.42-.32,.55-.55,.07-.12,.13-.26,.17-.39,.02-.06,.03-.18,.03-.21,0-.08,.03-.15,.02-.23-.02-.24-.06-.48-.19-.69-.15-.25-.38-.44-.65-.56-.1-.06-.22-.09-.34-.09-.11-.03-.23-.03-.34,0-.13-.07-.28-.11-.43-.1-.24,.02-.43,.05-.64,.17-.19,.1-.35,.26-.46,.44-.19,.31-.22,.69-.12,1.04,.09,.32,.28,.59,.51,.83h0Z"/>
        <path class="cls-3" d="M263.92,164.15c-.22-.13-.45-.21-.7-.25-.01,0-.02-.02-.03-.02-.21-.14-.42-.27-.64-.4-.54-.33-1.08-.65-1.62-.98-1.08-.65-2.18-1.26-3.28-1.88-2.09-1.18-4.18-2.35-6.27-3.51-4.37-2.42-8.76-4.78-13.19-7.08-8.84-4.59-17.74-9.06-26.77-13.28-2.48-1.16-4.97-2.31-7.46-3.45-1.37-.63-2.75-1.19-4.15-1.76-1.12-.45-2.38-.85-3.58-.77-.43-.28-.88-.6-1.36-.75-.59-.17-1.38-.21-1.99-.26-1.37-.12-2.75-.14-4.12-.2-2.61-.12-5.23-.29-7.85-.32-5.3-.07-10.6-.18-15.89-.32-10.47-.28-20.94-.58-31.41-1-.2,0-.39-.01-.59-.02,.21-1.42,.18-2.92,.26-4.33,.1-1.69,.21-3.39,.31-5.08,.22-3.58,.47-7.16,.63-10.75,.16-3.51,.4-7.03,.43-10.55,.01-1.76,.02-3.52,.04-5.27,0-.64-.01-1.23,.18-1.84,.07-.22,.17-.43,.22-.65,0,0,0-.02,0-.03,.41-.15,.72-.58,.71-.99,15.7-.52,31.39-1.07,47.1-1.51,6.09-.17,12.17-.34,18.26-.51,3.07-.08,6.15-.17,9.23-.25,3.14-.09,6.31-.05,9.43-.41,1.09-.13,2.03-.78,2.22-1.87,1.14,.1,2.35-.42,3.22-1.16,.72-.61,1.06-1.37,1.47-2.2,.2-.39,.44-.75,.59-1.16,.23-.61,.28-1.31,.33-1.96,.38-4.44,.52-8.85,.31-13.3-.42-8.92-1.47-17.82-2.66-26.67-.32-2.43-.7-4.85-1.09-7.27-.2-1.28-.43-2.53-.72-3.79-.19-.81-.39-1.75-.81-2.52,0-.65-.21-1.31-.64-1.85-.95-1.17-2.39-1.18-3.77-1.18-1.37,0-2.73,0-4.1-.01-5.27-.02-10.54-.02-15.82-.06-10.41-.08-20.83-.17-31.24-.18-10.35-.01-20.68,.08-31.02,.31,.02-.61,.01-1.23,.03-1.84,.05-1.19,.1-2.38,.19-3.56,.19-2.35,.37-4.69,.5-7.05,.03-.58-.25-.93-.63-1.07,.82-1.23,1.02-2.71-.09-4.2-1.11-1.48-3.09-2.05-4.81-2.43-2.12-.48-4.32-.75-6.49-.67-1.98,.08-4.4,.23-6.17,1.2-2.15,1.18-2.69,3.66-3,5.9-.36,2.61-.53,5.22-.46,7.85,.04,1.34,.18,2.66,.37,3.99,.09,.68,.15,1.39,.36,2.04,.05,.16,.11,.33,.18,.49-4.06,.15-8.12,.29-12.19,.39-5.95,.15-11.9,.33-17.86,.4-2.95,.03-5.88,.16-8.83,.3-1.44,.07-2.88,.14-4.32,.21-.8,.04-1.6,.1-2.39,.25-.66,.13-1.17,.45-1.72,.8-2.28-.19-4.92,1.25-6.88,2.13-2.21,1-4.4,2.02-6.6,3.04-4.55,2.12-9.09,4.28-13.58,6.51-8.9,4.42-17.76,8.94-26.46,13.74-2.37,1.31-4.75,2.63-7.11,3.97-1.21,.68-2.42,1.35-3.62,2.06-.6,.35-1.19,.72-1.78,1.08-.22,.13-.43,.26-.65,.39-.12,.07-.24,.16-.35,.24-.03,0-.06,0-.09,.01-1.55,.38-2.08,2.23-1.37,3.55-.05,.3-.05,.63,.05,.99,.45,1.79,2.17,2.62,3.62,3.51,1.56,.95,3.17,1.83,4.77,2.72,3.25,1.83,6.5,3.64,9.78,5.4,6.51,3.49,13.02,6.99,19.52,10.48,3.68,1.98,7.35,3.99,11.02,6,.28,.19,.56,.3,.83,.35,.29,.2,.64,.33,1.04,.36,1.3,.11,2.62,.33,3.93,.35,1.44,.01,2.88-.03,4.32-.05,2.75-.03,5.5-.07,8.25-.15,5.5-.17,11-.33,16.49-.5,10.47-.32,20.93-.63,31.4-.95-.03,.13-.06,.25-.09,.38-.15,.83-.31,1.65-.4,2.49-.2,1.68-.27,3.39-.34,5.08-.14,3.45-.27,6.9-.39,10.35-.12,3.39-.14,6.77-.17,10.16-.01,1.69-.03,3.39-.03,5.08,0,1.62-.08,3.26,.15,4.87-14.5-.15-29.02,.06-43.51,.17-5.92,.05-11.85,.06-17.77,.08-1.5,0-3,0-4.49,.02-1.3,0-2.75-.16-3.99,.27-1.2,.41-2,1.61-2,2.8-.32,.6-.49,1.29-.65,1.93-.27,1.06-.5,2.13-.68,3.21-.36,2.23-.73,4.46-1.04,6.69-.62,4.55-1.2,9.11-1.7,13.67-.47,4.38-.81,8.78-1.11,13.18-.15,2.19-.26,4.4-.27,6.59,0,1.02,.05,2.08,.15,3.1,.11,1.17,.15,2.32,.23,3.49,.1,1.26,0,2.71,.54,3.87,.4,.85,.81,1.8,1.4,2.53,.86,1.06,2.38,1.87,3.78,1.74,.18,1.1,1.13,1.74,2.22,1.87,2.73,.32,5.5,.3,8.25,.38,2.75,.07,5.5,.15,8.25,.23,5.5,.15,11,.3,16.49,.46,10.99,.3,22,.56,32.99,.94,.83,.03,1.66,.05,2.49,.08-.14,.5-.3,.99-.4,1.51-.15,.83-.3,1.65-.4,2.49-.2,1.68-.27,3.39-.34,5.08-.14,3.45-.27,6.9-.39,10.35-.12,3.39-.14,6.77-.17,10.16-.01,1.69-.02,3.38-.03,5.08,0,1.83-.1,3.68,.25,5.49,.24,1.22,1.69,1.92,2.83,1.6,.88-.24,1.37-.87,1.55-1.63,.02,0,.03,.02,.05,.02,.38-1.74,.33-3.54,.37-5.3,.04-1.69,.08-3.39,.12-5.08,.08-3.32,.19-6.64,.22-9.96,.02-2.13,.06-4.26,.09-6.4,1.05,.65,2.19,1.09,3.37,1.35-.84,.85-1.66,1.71-2.38,2.64-.67,.88,.44,2.05,1.38,1.79,.51-.14,1.2-.19,1.83-.18,0,1.13,0,2.28,.27,3.37,.34,1.41,.28,2.88,.84,4.24,.13,.31,.58,.28,.6-.08,.09-1.45-.32-2.88-.18-4.33,.13-1.31,.03-2.65,.07-3.97,.02-.46-.38-.77-.8-.8-.13-.01-.28-.03-.44-.05,.9-.89,1.77-1.85,2.65-2.72,.83-.82,.2-2.26-.94-2.27-.75,0-1.47-.14-2.15-.35,2.23-1.12,4.4-2.35,6.51-3.71,1.34-.86,.69-2.65-.76-2.81-2.65-.29-5.36-.73-8.02-.67-1.38,.03-1.72,2.08-.33,2.44,1.2,.31,2.44,.52,3.69,.69-1.69,.91-3.41,1.77-5.17,2.55,0-.23,0-.46,0-.68,.03-1.69,.08-3.39,.02-5.08-.05-1.5-.12-3.2-.66-4.63v-.05c4.53,.15,9.05,.3,13.57,.46-.05,.07-.11,.14-.15,.22-.79,1.4-.72,3.23-.87,4.78-.37,3.97-.61,7.93-.82,11.92-.21,3.91-.36,7.81-.5,11.72-.07,1.96-.15,3.91-.22,5.86-.08,1.99-.36,4.11-.03,6.08,.27,1.57,2.62,1.39,3,0,.48-1.74,.39-3.7,.5-5.5,.1-1.69,.21-3.39,.31-5.08,.22-3.58,.47-7.16,.63-10.75,.16-3.51,.41-7.03,.43-10.55,.01-1.76,.02-3.52,.04-5.27,0-.64-.01-1.23,.18-1.84,.07-.22,.17-.43,.22-.65,0,0,0-.02,0-.03,.35-.13,.62-.45,.7-.8,14.45,.48,28.89,.95,43.34,1.39,6.09,.18,12.17,.37,18.26,.55,3.08,.09,6.15,.17,9.23,.2,1.57,.02,3.14,.03,4.71,.05,1.58,.02,3.14-.21,4.71-.34,.39-.03,.74-.16,1.04-.36,.27-.05,.56-.16,.83-.35,12.97-7.07,26.08-13.88,38.96-21.11,1.77-.99,3.55-1.95,5.3-2.98,1.66-.98,3.95-1.98,4.46-4.02,.1-.38,.1-.73,.03-1.03,.56-1.11,.43-2.57-.76-3.27l.02-.02ZM219.18,25.91h0ZM122.39,4.14c3.12-1.28,6.67-1.35,9.86-.31,.71,.23,2.11,.73,1.82,1.73-.29,1.02-1.93,1.59-2.82,1.81-1.74,.43-3.68,.36-5.45,.18-1.78-.18-3.4-.73-5.08-1.18,.22-1.09,.55-1.78,1.66-2.24h0Zm-2.48,7.58c.01-.13,.03-.26,.04-.39,.98,.04,2.08,.53,3.01,.75,.99,.23,2,.38,3,.51h.02c-1.8,.38-3.59,.78-5.39,1.18-.41,.09-.69,.39-.84,.75,.03-.94,.07-1.87,.15-2.81Zm-.18,5.32v-1.09c.48,1.35,2.41,1.67,3.75,1.73,2.57,.1,5.3,.45,7.85-.09,.56-.12,.48-.9,0-1.06-1.72-.57-3.55-.62-5.34-.75-.74-.05-1.47-.09-2.21-.15,2.79-.8,5.56-1.62,8.3-2.56,.84-.29,.73-1.57-.21-1.58-1.9-.03-3.81-.13-5.7-.34-.88-.1-1.76-.23-2.64-.34-.82-.1-1.91-.1-2.8-.35,.1-.16,.2-.32,.28-.48,1.45,.44,3.01,.66,4.45,.77,2.08,.15,4.3,.06,6.34-.45,.72-.18,1.48-.5,2.19-.93-.67,1.91-1.11,3.86-1.37,5.9-.23,1.79-.55,3.8-.45,5.69-4.15,.12-8.3,.26-12.44,.41,.07-.48,.12-.97,.11-1.46-.02-.95-.09-1.89-.09-2.84Zm-31.86,67.95c-6.22,.19-12.44,.38-18.66,.56-3.08,.09-6.15,.21-9.23,.36-1.57,.08-3.14,.15-4.71,.23-1.02,.05-2.02,.21-3.03,.38-.17-.33-.46-.61-.86-.84-12.37-6.79-24.61-13.85-37.06-20.48-1.79-.95-3.58-1.91-5.37-2.86-.87-.46-1.73-.92-2.62-1.35-.15-.07-.3-.15-.45-.22,1-.5,1.98-1.03,2.97-1.55,4.95-2.66,9.95-5.23,14.92-7.87,10.02-5.33,20.15-10.41,30.29-15.5,2.78-1.4,5.57-2.78,8.37-4.15,1.43-.7,2.85-1.41,4.25-2.16,1.43-.76,3.22-1.69,3.92-3.2,.03-.06,.05-.12,.07-.19,.36,.03,.73,.02,1.07,.04,1.3,.04,2.62-.05,3.92-.08,2.48-.07,4.97-.08,7.45-.2,4.97-.24,9.94-.51,14.91-.65,9.95-.28,19.89-.46,29.84-.33,19.79,.27,39.59,.16,59.39,.43,5.53,.08,11.07,.15,16.6,.24,2.73,.05,5.47,.1,8.2,.15,1.43,.02,2.86,.05,4.3,.08,.65,.01,1.3,.03,1.95,.03h.3c.2,.13,.41,.23,.62,.3,0,1.01,.03,2.03,.1,3.03,.15,2,.31,3.99,.45,5.99,.18,2.49,.37,4.99,.56,7.48-.2-.07-.4-.13-.65-.16-.53-.08-1.02-.06-1.55-.02-.91,.07-1.82,.16-2.73,.25-1.52,.14-4.12-.03-4.87,1.59-.1,.21-.15,.48,0,.68,1.1,1.54,3.45,.93,5.06,.77,.97-.1,1.95-.17,2.92-.28,.54-.06,1-.18,1.51-.34,.18-.06,.32-.13,.47-.2,.06,.81,.12,1.62,.18,2.43,.27,4.07,.54,8.13,.79,12.2,.26,4.2,.47,8.41,1.07,12.57,.3,2.1,.65,4.22,.88,6.36,.04,.39,.27,.83,.2,1.2-.06,.34-.33,.67-.56,.91-.5,.53-1.2,.8-1.88,1.01-.38-.27-.84-.44-1.33-.47-2.74-.15-5.5,.03-8.25,.12-2.75,.09-5.5,.18-8.25,.27-5.5,.18-11,.36-16.49,.54-10.99,.36-21.99,.77-32.99,1.05-21.99,.56-43.99,1.16-65.98,1.83h0Zm41.79,42.77c-3.65-.12-7.29-.21-10.95-.27,.26-1.56,.22-3.16,.26-4.73,.04-1.69,.08-3.39,.12-5.08,.08-3.32,.19-6.64,.22-9.96,.04-3.32,.08-6.64,.14-9.96,.03-1.69,.08-3.39,.02-5.08-.04-1.21-.1-2.54-.39-3.76,1.49-.05,2.97-.1,4.46-.14-.43,.2-.79,.6-.85,1.12-.24,2.1-.11,4.24-.29,6.35-.09,1.04-.21,2-.04,3.04,.14,.88,.29,1.75,.45,2.62,.07,.39,.65,.43,.82,.11,.43-.77,.81-1.59,1.15-2.39,.47-1.1,.53-2.2,.59-3.39,.11-2.21,.25-4.52-.19-6.7-.08-.43-.3-.68-.58-.81,2.58-.08,5.16-.16,7.74-.25-.04,.06-.09,.11-.12,.18-.79,1.4-.72,3.23-.87,4.78-.37,3.97-.61,7.93-.82,11.92-.21,3.91-.36,7.81-.5,11.72-.07,1.96-.15,3.91-.22,5.86-.06,1.57-.25,3.21-.16,4.8h0Zm-83.85,5.05h.09s-.05,.03-.07,.05c0,0-.01,0-.02,0v-.03h0Zm210.95,36.1c-1.56,.83-3.12,1.66-4.67,2.49-3.12,1.66-6.21,3.35-9.3,5.07-6.17,3.43-12.33,6.86-18.5,10.3-3.54,1.97-7.1,3.9-10.65,5.85-.4,.22-.68,.51-.86,.83-.81-.14-1.63-.28-2.44-.34-1.37-.1-2.75-.14-4.12-.2-2.75-.14-5.5-.27-8.25-.36-2.92-.09-5.85-.18-8.77-.26,.06-.08,.12-.17,.19-.25,.25-.33,.29-.55,.23-.96-.05-.29-.4-.54-.68-.52-.69,.04-1.05,.63-1.46,1.13-.15,.17-.27,.36-.41,.55-1.87-.06-3.73-.11-5.6-.17h-.05c.42-.49,.83-1,1.25-1.53,.84-1.06,2.06-2.18,2.25-3.57,.05-.33-.22-.8-.64-.64-1.33,.55-2.06,1.87-2.9,2.98-.68,.9-1.33,1.77-1.9,2.7-.99-.03-1.98-.06-2.97-.09,.92-1.05,1.79-2.14,2.41-3.33,.85-1.65-1.38-2.89-2.44-1.43-.99,1.37-1.65,3.06-2.29,4.69-8.58-.26-17.15-.52-25.73-.78-21.99-.66-43.99-1.15-65.98-1.87-6.22-.2-12.44-.4-18.66-.61-3.07-.1-6.15-.2-9.23-.3-3.14-.1-6.29-.33-9.42-.16-.49,.03-.95,.2-1.32,.47-1.11-.36-2.49-.97-2.41-2.28,.05-.88,.26-1.83,.38-2.71,.13-1.03,.2-2.09,.39-3.11,.74-4.01,1-8.12,1.25-12.22,.48-8.13,1-16.27,1.65-24.4,.05-.61,.09-1.22,.14-1.83,0,0,0,.01,0,.02,.42,.68,1.19,.6,1.6,.14,.03,.04,.08,.07,.11,.1,.31,.35,.53,.77,.86,1.1,.95,.99,2.4,1.56,3.71,.91,.39-.19,.82-.48,1.12-.83,.17,.12,.52,.2,.7,.25,1.31,.38,2.78,.1,4.06-.27,2.8-.82,5.77-.54,8.63-.86,1.33-.15,2.64-.35,3.98-.27,1.48,.08,2.95,.42,4.37,.85,.2,.06,.28-.25,.09-.31-1.4-.48-2.8-.6-4.27-.71-1.57-.12-3.15-.33-4.73-.38-1.68-.06-3.37,.04-5.05-.05-1.59-.09-3.16-.41-4.72-.74-1.36-.29-2.63-1.4-4.07-.97-.3,.09-1.06,.47-1.4,.83-.1-.16-.24-.31-.35-.46-.9-1.19-2.29-2.11-3.8-1.35-.26,.13-.47,.32-.65,.53,.07-.89,.13-1.78,.2-2.66,.09-1.09,.14-2.18,.16-3.28,0-.17,0-.35,0-.53,.21-.08,.41-.18,.6-.29,.5-.01,.99-.02,1.49-.02,1.3-.03,2.6-.04,3.9-.07,2.47-.05,4.95-.09,7.42-.13,4.95-.09,9.9-.16,14.84-.23,9.9-.14,19.81-.26,29.71-.31,9.95-.05,19.9,.03,29.85-.12,9.88-.15,19.76-.08,29.64,.18,5.57,.15,11.12,.33,16.68,.64,2.74,.15,5.49,.21,8.24,.28,1.44,.04,2.88,.1,4.32,.12,.61,0,1.24,0,1.85-.06,.02,.07,.04,.14,.07,.21,.6,1.3,2.02,2.14,3.24,2.84,1.32,.76,2.7,1.43,4.06,2.09,2.51,1.23,5.02,2.46,7.52,3.71,5.05,2.52,10.11,5.04,15.14,7.6,10.1,5.12,20.12,10.38,30.1,15.72,1.33,.71,2.66,1.44,4.01,2.13,.2,.1,.4,.21,.61,.32-.8,.38-1.58,.78-2.36,1.19h0Zm-204.17-25.45s0,0,0,0c-.13,0-.19-.2,0,0Z"/>
        <path class="cls-3" d="M88.2,184.31c-.79-.25-1.6-.45-2.39-.7-.79-.25-1.52-.63-2.34-.81-1.55-.34-3.11-.52-4.69-.65-3.32-.28-6.61-.24-9.93-.11-5.77,.23-11.64,.61-17.41-.04l.55-2.3c.38-1.58,.88-3.22,.67-4.84-.22-1.63-2.09-2.27-3.1-.84-.94,1.34-1.26,2.99-1.65,4.56-.39,1.55-.77,3.1-1.16,4.65-.26,1.03,.33,2.44,1.5,2.63,6.6,1.11,13.23,.73,19.88,.38,3.25-.17,6.51-.35,9.77-.4,1.6-.03,3.21,0,4.81,.05,.83,.02,1.64-.08,2.47-.08s1.7,.15,2.54,.29c1.15,.19,1.64-1.41,.49-1.78h0Z"/>
        <path class="cls-3" d="M49.32,170.24c.07,.04,.08,.04,.2,.09,.17,.09,.36,.13,.56,.12,.13-.01,.27-.03,.4-.05,.25-.07,.46-.19,.64-.37,.04-.04,.07-.09,.1-.13,.23-.23,.42-.51,.51-.82,.1-.35,.06-.73-.12-1.04-.11-.19-.27-.34-.46-.44-.22-.12-.4-.15-.64-.17-.09,.01-.19,.02-.28,.04-.05,.02-.09,.04-.13,.06-.24-.03-.48,0-.7,.1-.22,.1-.4,.22-.55,.42-.08,.08-.14,.18-.17,.3-.08,.16-.12,.34-.12,.53-.02,.25,.08,.62,.22,.83,.14,.22,.32,.42,.55,.55h0Z"/>
        <path class="cls-3" d="M86.65,141.2c1.56,.14,3-.79,4.5-1.09,1.45-.29,2.72,.11,4.05,.64,.37,.15,.62-.32,.47-.62-.62-1.27-2.41-1.58-3.68-1.3-.83,.18-1.65,.5-2.44,.8-.98,.39-2,.69-2.97,1.08-.25,.1-.22,.45,.06,.48Z"/>
        <path class="cls-3" d="M223,173.84c-1.12,.59-2.12,1.42-3.27,1.95-1.05,.49-2.21,.69-3.36,.63-2.68-.12-5.43-1.31-8.06-.33-1.21,.46-2.13,1.23-2.97,2.19-.6,.7-1.22,1.72-2.24,1.41-1.26-.38-2.35-.69-3.52,.13-.88,.61-1.33,1-2.44,.8-1.8-.31-5.03-2.06-6.31,.14-.23,.4,.07,.89,.52,.9,.98,.02,1.82,0,2.77,.29,1.04,.33,2.03,.79,3.11,.97,1.08,.18,2.14,.02,3.05-.62,.43-.3,.7-.65,1.23-.54,.66,.13,1.25,.5,1.93,.6,1.24,.19,2.3-.34,3.24-1.1,.85-.69,1.58-1.64,2.7-1.88,2.55-.54,5.19,.68,7.77,.55,2.92-.15,6.76-1.76,7.37-4.95,.17-.88-.68-1.58-1.49-1.15h0Z"/>
        <path class="cls-3" d="M177.98,180.94c-.3,.01-.62,.26-.6,.6,.02,.19,.03,.37,.05,.56,.02,.29,.24,.57,.55,.55,.32-.01,.52-.24,.55-.55,.02-.19,.03-.37,.05-.56,.02-.31-.29-.61-.6-.6Z"/>
        <path class="cls-3" d="M141.62,139.11c3.05,.64,6.19,.74,9.29,.92,1.55,.09,3.11,.18,4.67,.28,1.58,.1,3.14,.21,4.59-.53,.41-.21,.39-.84,0-1.06-1.3-.73-2.73-.72-4.2-.7-1.62,.03-3.24,.08-4.86,.12-2.88,.07-5.77,.22-8.64-.06,.09-.37,.17-.73,.26-1.1,.13-.58-.67-.78-.87-.24-.21,.56-.42,1.12-.63,1.68-.1,.27,.12,.64,.4,.7h0Z"/>
        <path class="cls-3" d="M160.2,185.52c-1.78-1.03-3.9-1.21-5.89-1.52-2.2-.34-4.45-.41-6.67-.55-2.02-.13-4.09,.12-6.09-.1-.85-.09-1.58-.48-2.39-.69-.79-.2-1.66-.12-2.43,.15-.55,.2-.43,.92,.13,.98,.75,.08,1.35,.82,1.96,1.22,.78,.51,1.61,.9,2.52,1.15,1.97,.53,4.08,.75,6.11,.9,2.05,.15,4.14,.42,6.2,.39,2.11-.03,4.38,.13,6.38-.67,.53-.21,.72-.95,.17-1.27Z"/>
        <path class="cls-3" d="M249.6,167.46c-1.11-.85-2.08-1.81-3.25-2.58-1.15-.75-2.33-1.45-3.49-2.19-2.34-1.51-4.79-2.62-7.4-3.6-2.58-.97-5.2-1.85-7.81-2.74-1.44-.49-2.88-.98-4.34-1.41-1.41-.41-2.85-.95-4.32-1.05-1.1-.08-1.21,1.33-.5,1.87,1.18,.9,2.7,1.42,4.03,2.04,1.27,.59,2.59,1.11,3.89,1.65,2.53,1.05,5.07,2.06,7.58,3.14,2.47,1.06,4.94,2.07,7.44,3.06,1.2,.48,2.33,1.09,3.45,1.74,.57,.33,1.14,.62,1.7,.93-2.98,1.39-6.03,2.84-8.62,4.81-.65,.5-.32,1.82,.62,1.48,3.79-1.37,7.33-3.48,11.01-5.15,.88-.4,.61-1.54,0-2h0Z"/>
        <path class="cls-3" d="M36.22,68.53c-1.72-.93-3.44-1.86-5.16-2.78-2.69-1.45-5.38-2.9-8.08-4.36,2.35-1.4,4.74-2.75,7.1-4.13,3.25-1.91,6.35-3.98,9.42-6.17,.77-.55,.12-1.63-.73-1.25-3.47,1.5-6.86,3.06-10.19,4.86-3.3,1.78-6.57,3.65-9.93,5.3-1.15,.56-1.1,2.41,0,2.99,3.58,1.87,7.16,3.74,10.74,5.62l5.2,2.72c1.83,.96,3.64,2.1,5.63,2.66,1.24,.35,2.39-1.37,1.32-2.27-1.59-1.33-3.5-2.2-5.32-3.19h0Z"/>
        <path class="cls-3" d="M48.3,74.21c-1.41,0-1.42,2.2,0,2.2s1.42-2.2,0-2.2Z"/>
        <path class="cls-3" d="M97.16,34.87c.05,.76,1.22,.78,1.2,0-.02-.59-.04-1.18-.06-1.76-.01-.42-.39-.71-.8-.61-1.16,.28-2.32,.42-3.49,.45,4.5-1.2,8.94-2.65,13.21-4.52,.9-.39,.36-1.66-.46-1.71-2.67-.15-5.4,.05-8.08,.19-2.69,.14-5.38,.33-8.06,.62-5.31,.59-10.61,1.28-15.72,2.86-.37,.11-.32,.72,.1,.7,5.3-.31,10.54-1.1,15.82-1.55,2.62-.23,5.24-.45,7.87-.61,1.02-.06,2.04-.1,3.07-.13-4.03,1.49-8.22,2.52-12.37,3.67-.72,.2-.79,1.36,0,1.53,2.57,.53,5.18,.5,7.72-.1,.03,.32,.05,.65,.07,.97h0Z"/>
        <path class="cls-3" d="M140.39,68.26c-.94,.5-2.35,.35-3.38,.25-1.23-.12-2.45-.42-3.67-.58-1.4-.19-2.75-.26-4.15-.02-1.5,.26-2.9,.82-4.36,1.25-6.21,1.81-12.84,1.1-19.21,1.75-3.47,.35-6.89,1.05-10.19,2.18-.23,.08-.14,.45,.1,.38,6.32-1.84,13.2-2.2,19.75-1.95,3.23,.13,6.49,.67,9.71,.28,1.58-.19,3.06-.73,4.62-.99,1.32-.22,2.63-.02,3.93,.21,1.45,.26,2.97,.5,4.45,.28,1.5-.23,2.38-.99,3.19-2.22,.35-.53-.32-1.08-.82-.82h0Z"/>
        <path class="cls-3" d="M152.5,71c-.1,0-.2,.03-.29,.05-.11,.02-.22,.05-.33,.07-.24,.05-.45,.33-.44,.58,.01,.25,.18,.53,.44,.58,.11,.02,.22,.05,.33,.07,.1,.02,.2,.05,.29,.05,.21,0,.35-.1,.51-.22,.26-.21,.26-.73,0-.93-.16-.13-.3-.22-.51-.22Z"/>
        <path class="cls-3" d="M173.49,34.31c3.99,.63,8.03,1.05,12.05,1.46,1.99,.2,3.8,.23,5.78-.12,2-.35,4,.26,6.01-.07,.32-.05,.25-.5,0-.59-.93-.33-1.8-.43-2.79-.54-1.14-.12-2.14-.28-3.22-.64-.84-.28-1.68-.6-2.54-.77-1-.2-2.02-.25-3.04-.33-3.96-.3-7.96-.61-11.93-.69-1.28-.02-1.63,2.08-.31,2.28Z"/>
        <path class="cls-3" d="M198.58,35.34c1.21,.09,2.42-.37,3.64-.28,.58,.04,1.08,.3,1.71,.33,.69,.02,1.37-.02,2.05-.03,.61-.01,1.23-.33,1.52-.88,.25-.47,.27-.85,.18-1.36-.1-.6-.68-1.06-1.23-1.23-.77-.24-1.54-.4-2.35-.42-.89-.02-1.48,.37-2.29,.58-1.34,.33-2.89,.76-3.84,1.83-.51,.58-.14,1.4,.6,1.46h0Z"/>
        <path class="cls-3" d="M212.73,34.17c.2,.2,.54,.36,.83,.35,.3-.01,.62-.11,.83-.35,.22-.24,.33-.51,.35-.83,0-.09,0-.19,.02-.28,.02-.3-.15-.64-.35-.85-.21-.21-.55-.36-.85-.35-.31,.01-.63,.12-.85,.35-.21,.23-.37,.53-.35,.85,0,.09,0,.19,.02,.28,.02,.31,.12,.61,.35,.83Z"/>
        <path class="cls-3" d="M68.81,168.27c.2,.12,.42,.23,.67,.33,.25,.1,.5,.19,.75,.26s.49,.13,.72,.18c.23,.05,.42,.07,.58,.07,.3,0,.63,0,1.01-.03,.37-.03,.76-.07,1.16-.14,.4-.06,.81-.14,1.21-.23,.41-.09,.8-.19,1.17-.3,.4-.11,.78-.25,1.16-.4,.38-.15,.75-.32,1.1-.5,.35-.18,.69-.37,1-.56,.31-.19,.59-.38,.84-.56h-.01c.23-.15,.47-.35,.74-.58,.26-.24,.5-.5,.73-.78,.22-.28,.42-.58,.57-.9,.15-.32,.23-.64,.24-.96,.03-1.01-.4-1.87-1.32-2.59-.91-.72-2.32-1.36-4.24-1.91-.02,0-.08-.03-.19-.07-.11-.04-.25-.09-.41-.15s-.33-.12-.52-.2c-.19-.07-.36-.14-.53-.2-.17-.06-.3-.11-.42-.16-.12-.05-.18-.07-.21-.08-.33-.1-.64-.25-.93-.46-.3-.2-.55-.43-.77-.68-.22-.25-.4-.49-.52-.74-.12-.25-.18-.48-.18-.68v.02c.04-.25,.15-.48,.33-.7,.18-.22,.39-.41,.64-.59,.25-.18,.51-.34,.8-.48,.28-.14,.55-.26,.8-.35,.35-.13,.7-.24,1.04-.32,.34-.08,.67-.14,1-.18,.33-.04,.67-.06,1.01-.07,.34,0,.69,0,1.05,0,.14,0,.31,.03,.5,.06,.19,.03,.38,.08,.56,.15,.18,.06,.35,.15,.5,.24,.15,.1,.25,.21,.3,.35,.06,.16,.1,.37,.12,.63,.02,.26,.03,.57,.01,.93,.99,.03,1.62-.1,1.9-.41h-.01c.1-.1,.18-.23,.26-.39,.08-.16,.15-.33,.21-.5,.06-.18,.11-.35,.15-.51,.03-.17,.05-.31,.06-.43,.01-.34-.12-.7-.38-1.06-.27-.37-.64-.69-1.11-.96h.01c-.17-.1-.4-.2-.7-.29-.3-.09-.61-.17-.94-.23-.33-.06-.65-.12-.96-.15-.31-.04-.57-.06-.78-.07-.67-.02-1.36,.02-2.07,.13-.72,.11-1.42,.28-2.11,.49-.69,.22-1.34,.48-1.96,.79-.61,.31-1.16,.66-1.63,1.04-.47,.38-.85,.79-1.12,1.23-.28,.44-.43,.9-.45,1.38-.04,1.21,.34,2.29,1.15,3.24,.36,.39,.8,.76,1.3,1.12,.5,.36,1.03,.65,1.57,.89h-.01c1.3,.55,2.4,.96,3.31,1.22,.32,.1,.7,.23,1.12,.39,.43,.15,.86,.38,1.29,.65h0c.3,.18,.44,.38,.43,.57,0,.18-.06,.35-.17,.51-.11,.16-.24,.32-.4,.47-.16,.15-.33,.29-.51,.41-.18,.12-.35,.23-.5,.33-.36,.21-.75,.42-1.2,.61-.44,.2-.9,.37-1.38,.51-.48,.15-.97,.26-1.45,.34-.49,.08-.96,.11-1.41,.1-.45-.01-.83-.05-1.13-.12-.3-.06-.57-.13-.79-.2-.23-.07-.43-.13-.61-.19-.18-.06-.37-.09-.58-.1-.15,0-.29,.05-.42,.18s-.25,.28-.35,.45c-.1,.18-.18,.36-.24,.55-.05,.19-.09,.35-.09,.48,0,.15,.05,.29,.18,.43,.12,.14,.28,.27,.47,.39h0Z"/>
        <path class="cls-3" d="M99.45,157.49c-.1-.07-.21-.1-.33-.1-.22,0-.44,0-.65,.03-.21,.02-.44,.06-.7,.1-.25,.04-.55,.09-.88,.13-.33,.05-.75,.09-1.23,.13-.42,.04-.8,.06-1.16,.07-.35,.01-.7,.02-1.02,.02-.32,0-.65,0-.95,0-.31,0-.64-.01-.98-.02,.09-.46,.19-.9,.29-1.31,.1-.41,.23-.89,.39-1.45,.16-.56,.35-1.15,.57-1.79,.1-.28,.17-.56,.22-.84,.05-.28,.08-.53,.08-.73,.01-.45-.08-.77-.29-.98-.21-.2-.54-.31-.99-.33-.42-.01-.75,.11-.99,.36-.24,.25-.42,.58-.56,.96-.14,.38-.25,.79-.32,1.22-.07,.43-.17,.82-.27,1.17-.04,.14-.09,.33-.15,.58-.06,.25-.13,.52-.21,.81-.07,.29-.15,.59-.23,.89-.08,.3-.16,.57-.23,.83-.08,.25-.15,.45-.21,.6-.07,.16-.12,.23-.16,.23-.12,0-.3,0-.53,.01-.23,.01-.47,.02-.71,.04-.25,.01-.47,.02-.68,.04-.21,.01-.35,.02-.44,.02-.18,0-.38,0-.6,.01-.23,.01-.45,.05-.65,.1-.21,.05-.39,.14-.53,.26-.15,.12-.22,.28-.23,.48-.01,.35,.02,.63,.08,.85,.07,.22,.18,.39,.35,.53,.16,.13,.37,.22,.63,.28,.26,.05,.57,.09,.95,.1,.45,.01,.84,0,1.17-.02,.33-.03,.58-.05,.76-.05-.02,.08-.06,.25-.12,.49-.06,.25-.12,.52-.2,.84-.08,.32-.16,.65-.25,.99-.09,.35-.18,.67-.25,.96-.18,.66-.32,1.32-.43,1.98-.1,.65-.17,1.26-.18,1.81-.01,.32,.03,.64,.11,.96,.08,.31,.2,.59,.38,.84,.17,.25,.37,.45,.6,.6,.24,.15,.5,.23,.8,.25,.17,0,.36-.02,.57-.08,.2-.06,.39-.14,.57-.25,.18-.1,.33-.23,.45-.37,.12-.14,.18-.3,.19-.46,0-.22-.04-.39-.15-.52-.11-.13-.24-.26-.4-.4-.09-.08-.18-.18-.27-.31s-.12-.33-.12-.62c0-.08,.02-.2,.04-.37,.02-.16,.05-.35,.09-.55,.04-.2,.07-.42,.12-.65,.04-.23,.08-.45,.13-.65,.05-.21,.08-.4,.12-.57,.04-.18,.07-.31,.09-.41,.13-.57,.3-1.18,.47-1.82,.18-.65,.38-1.32,.58-2.02,.15-.02,.33-.04,.54-.06,.21-.02,.43-.04,.67-.05,.24-.02,.49-.04,.75-.06,.25-.02,.5-.04,.73-.06,.34-.03,.72-.07,1.12-.11,.4-.05,.82-.1,1.25-.18,.43-.07,.86-.17,1.29-.28,.43-.11,.84-.24,1.22-.4,.11-.06,.23-.13,.35-.21,.12-.08,.24-.17,.34-.27,.1-.1,.19-.22,.26-.34,.07-.13,.11-.27,.11-.43,0-.23-.04-.38-.14-.45h-.02Z"/>
        <path class="cls-3" d="M123.96,149.68c-.17-.1-.35-.19-.54-.24-.19-.05-.36-.09-.51-.09-.23,0-.44,.04-.64,.13-.2,.09-.38,.21-.52,.35-.15,.14-.26,.28-.35,.43-.09,.15-.13,.27-.14,.37-.02,.53-.06,1.1-.12,1.68-.06,.59-.13,1.18-.22,1.76-.09,.58-.17,1.14-.27,1.67-.1,.53-.19,1.01-.28,1.43-.09,.42-.17,.77-.25,1.05-.08,.28-.13,.44-.18,.5-.06,.09-.21,.17-.45,.24-.24,.07-.54,.12-.91,.17-.37,.05-.78,.09-1.23,.12-.45,.03-.92,.05-1.4,.07-.48,.02-.95,.03-1.42,.03-.47,0-.91,.01-1.31,.01h-1.05c-.3,0-.51,0-.64-.01-.07,0-.15,0-.24-.01-.1,0-.19-.02-.28-.03-.09-.01-.17-.03-.24-.05-.07-.02-.11-.04-.13-.07,0-.24,.03-.5,.06-.78,.03-.28,.08-.57,.13-.87,.05-.3,.11-.6,.17-.9,.06-.3,.13-.58,.2-.85,.15-.6,.28-1.18,.37-1.76,.09-.58,.15-1.13,.17-1.66,0-.28,0-.53-.02-.75-.03-.22-.09-.41-.18-.57-.1-.16-.24-.3-.43-.41-.19-.11-.44-.2-.75-.27-.04,0-.08-.02-.11-.02-.03,0-.07,0-.11,0-.18,0-.36,.03-.53,.1-.17,.07-.32,.16-.45,.27-.13,.11-.24,.23-.32,.37-.08,.13-.14,.26-.16,.39-.11,.82-.23,1.67-.36,2.55-.13,.88-.26,1.76-.39,2.65-.13,.88-.27,1.75-.41,2.61-.14,.86-.28,1.67-.42,2.44-.14,.78-.28,1.49-.41,2.16-.13,.66-.26,1.25-.39,1.75-.01,.09-.04,.23-.09,.43-.05,.2-.1,.41-.16,.64-.06,.23-.11,.46-.15,.7-.05,.23-.07,.43-.07,.61,0,.18,.02,.38,.09,.6,.07,.22,.17,.42,.29,.6,.13,.19,.28,.34,.47,.47,.18,.12,.39,.19,.62,.2,.38,.01,.69-.1,.95-.32,.26-.23,.47-.54,.64-.93,.17-.39,.29-.83,.37-1.33,.08-.5,.12-1.01,.14-1.53,.03-.25,.07-.57,.12-.98,.05-.4,.12-.8,.18-1.2,.07-.39,.13-.74,.2-1.04,.06-.3,.12-.47,.16-.51,.06-.02,.2-.05,.43-.07,.23-.02,.5-.04,.82-.05,.32-.02,.65-.03,1.01-.05s.7-.03,1.01-.04c.31,0,.58-.01,.81-.02s.38,0,.43,0c.28,0,.63,0,1.07,0,.44-.02,.89-.03,1.35-.06,.46-.02,.91-.04,1.33-.06,.42-.02,.76-.02,1.01-.01,.12,0,.19,.06,.21,.18,.02,.12,.03,.25,.02,.4,0,.27-.04,.6-.09,.97-.05,.38-.11,.77-.17,1.18-.07,.41-.14,.83-.22,1.26-.08,.42-.15,.82-.22,1.19-.07,.38-.12,.71-.17,1.01-.05,.3-.07,.53-.08,.7,0,.25,.04,.47,.14,.65,.1,.19,.23,.34,.38,.47,.15,.13,.31,.22,.49,.29,.17,.07,.34,.1,.49,.11,.26,0,.5-.03,.74-.1,.24-.07,.45-.18,.62-.33,.18-.14,.33-.33,.44-.55,.11-.22,.17-.47,.18-.75,.02-.5,.04-1.01,.07-1.53,.03-.53,.07-1.04,.11-1.54,.04-.5,.08-.98,.12-1.43,.05-.45,.08-.86,.12-1.22,.04-.36,.07-.65,.09-.88,.02-.23,.04-.38,.04-.44,.13-1.19,.31-2.35,.55-3.49,.24-1.14,.46-2.2,.68-3.17,.2-.9,.35-1.69,.47-2.36,.12-.67,.18-1.22,.2-1.64,0-.22-.06-.4-.17-.57-.11-.16-.25-.3-.42-.4h0Z"/>
        <path class="cls-3" d="M193.65,167.82c.42-.34,.74-.61,.95-.8,.36-.33,.73-.68,1.12-1.06,.39-.38,.74-.75,1.05-1.11,.32-.37,.58-.71,.79-1.04,.21-.33,.32-.61,.33-.83,0-.02,0-.07-.02-.15-.01-.08-.04-.18-.08-.27-.04-.1-.09-.19-.16-.27-.07-.08-.16-.12-.26-.13-.1,0-.19,.02-.28,.07-.09,.05-.19,.13-.3,.23-.11,.1-.25,.23-.41,.39s-.36,.35-.6,.56c-.28,.26-.6,.53-.95,.81-.35,.28-.71,.57-1.09,.86-.37,.29-.75,.57-1.12,.84-.37,.27-.72,.52-1.04,.74-.32,.22-.61,.4-.85,.56-.24,.15-.43,.26-.55,.31-.1-.18-.23-.42-.39-.73-.17-.3-.34-.63-.52-.96-.18-.34-.37-.66-.54-.99-.18-.32-.32-.59-.44-.81-.24-.45-.35-.94-.34-1.46,.1-.1,.23-.21,.39-.35,.16-.13,.33-.27,.51-.43,.12-.1,.26-.23,.43-.36,.16-.14,.32-.28,.47-.45,.15-.16,.27-.34,.38-.53,.11-.19,.16-.38,.17-.58,0-.24,0-.45-.04-.62-.04-.17-.1-.32-.21-.43-.1-.12-.24-.2-.43-.26-.19-.06-.43-.1-.73-.1-.22,0-.49,.07-.8,.24-.31,.17-.62,.39-.93,.66-.31,.28-.59,.6-.85,.95-.26,.36-.45,.73-.57,1.11-.12,.3-.22,.6-.28,.9-.04,.21-.07,.41-.08,.62l-.11,.11c-.16,.17-.32,.33-.5,.5-.54,.53-1.08,1.02-1.62,1.48-.54,.46-1.07,.86-1.58,1.2-.51,.34-1,.61-1.46,.8-.46,.19-.88,.28-1.27,.27-.26,0-.47-.1-.64-.29-.17-.18-.3-.42-.4-.7-.1-.28-.17-.6-.21-.94-.05-.34-.07-.68-.1-1.01-.04-.63-.1-1.22-.18-1.76-.08-.54-.22-1.01-.41-1.41-.19-.4-.45-.71-.79-.95-.33-.23-.77-.35-1.31-.38-.46-.02-.87,.04-1.24,.17s-.72,.3-1.04,.53c-.32,.23-.62,.5-.92,.81-.29,.32-.59,.65-.9,1.01-.23,.27-.47,.57-.7,.88-.23,.31-.47,.61-.69,.91-.23,.3-.44,.58-.65,.83-.21,.26-.38,.47-.54,.64,.02-.19,.07-.43,.15-.71,.07-.28,.16-.57,.25-.86,.09-.29,.18-.57,.26-.85,.09-.27,.15-.5,.2-.67,.07-.26,.15-.5,.22-.71,.07-.2,.14-.4,.2-.59,.06-.19,.12-.37,.15-.54,.04-.18,.06-.35,.07-.55,0-.22-.01-.41-.06-.57-.05-.17-.12-.31-.2-.43-.09-.12-.19-.21-.3-.28-.12-.07-.23-.1-.36-.1-.14,0-.28,0-.43,.01-.14,.01-.28,.05-.41,.1-.13,.05-.26,.14-.39,.25-.13,.11-.25,.27-.35,.46-.19,.35-.35,.74-.5,1.15-.15,.42-.27,.84-.38,1.28-.02,.1-.05,.2-.07,.31-.06,.05-.12,.09-.19,.14l-.68,.64c-.55,.52-1.12,1.02-1.7,1.51-.59,.5-1.2,.95-1.82,1.37-.36,.24-.75,.47-1.18,.68-.43,.22-.88,.4-1.33,.56-.45,.16-.91,.28-1.38,.38-.46,.09-.9,.13-1.3,.11-.32,0-.6-.06-.85-.14-.25-.09-.46-.21-.63-.35-.18-.14-.31-.31-.41-.5-.1-.19-.15-.38-.16-.59,.53-.38,1.01-.71,1.43-1.01,.42-.3,.8-.58,1.12-.83,1-.8,1.79-1.59,2.36-2.37,.57-.77,.87-1.54,.9-2.28,.01-.4-.02-.78-.11-1.15-.09-.37-.23-.69-.43-.98-.2-.29-.46-.52-.77-.69-.32-.17-.7-.27-1.13-.29-.3,0-.6,.02-.91,.11-.31,.08-.6,.19-.89,.33-.28,.14-.55,.3-.8,.49-.25,.18-.47,.38-.66,.58-.52,.54-.96,1.11-1.32,1.68-.36,.58-.66,1.17-.89,1.78-.16,.41-.28,.82-.38,1.24-.08,.07-.15,.14-.22,.22-.09,.11-.18,.21-.25,.31-.17,.2-.38,.45-.64,.73-.26,.28-.55,.57-.88,.86-.32,.3-.68,.58-1.05,.87-.37,.29-.75,.54-1.14,.76-.39,.22-.77,.4-1.15,.53-.38,.13-.75,.2-1.09,.18-.35-.01-.65-.1-.89-.27-.25-.17-.44-.4-.59-.69-.15-.29-.25-.64-.31-1.05-.05-.41-.08-.87-.06-1.37,.02-.66,.08-1.34,.17-2.05,.09-.7,.21-1.41,.34-2.13,.13-.71,.28-1.41,.44-2.11,.16-.69,.32-1.35,.47-1.98,.16-.63,.31-1.21,.44-1.74,.14-.53,.25-1,.34-1.4l.16-.71c-.27-.58-.7-.88-1.32-.9-.25,0-.48,.03-.69,.12-.21,.09-.4,.21-.56,.37-.16,.16-.29,.34-.4,.55-.11,.21-.18,.43-.23,.66-.1,.48-.18,.9-.25,1.25-.07,.35-.13,.68-.19,.99-.06,.31-.11,.61-.18,.92-.06,.31-.13,.66-.22,1.05-.12,.58-.26,1.19-.39,1.82-.13,.63-.25,1.28-.36,1.92-.06,.38-.11,.76-.17,1.14-.01,.01-.03,.02-.04,.03l-.68,.64c-.55,.52-1.12,1.02-1.7,1.51-.59,.5-1.2,.95-1.82,1.37-.36,.24-.75,.47-1.18,.68-.43,.22-.88,.4-1.33,.56-.45,.16-.91,.28-1.38,.38-.46,.09-.9,.13-1.3,.11-.32,0-.6-.06-.85-.15-.25-.09-.46-.2-.63-.35-.17-.14-.31-.31-.41-.5-.1-.19-.15-.38-.16-.59,.53-.38,1.01-.71,1.43-1.01,.43-.3,.8-.57,1.12-.83,1-.8,1.79-1.59,2.36-2.37,.58-.78,.88-1.54,.9-2.28,.01-.4-.03-.78-.11-1.15-.09-.37-.23-.69-.43-.98-.2-.29-.46-.52-.77-.69-.32-.18-.69-.27-1.13-.29-.3,0-.6,.03-.91,.11-.31,.08-.61,.19-.89,.33-.28,.14-.55,.31-.8,.49-.25,.18-.47,.38-.66,.58-.52,.54-.96,1.1-1.32,1.68-.36,.58-.66,1.17-.89,1.78-.23,.6-.4,1.22-.52,1.85-.11,.63-.18,1.26-.2,1.91-.05,1.63,.3,2.85,1.08,3.68,.77,.83,1.87,1.27,3.29,1.31,.63,.02,1.28-.06,1.95-.23,.67-.18,1.34-.42,2.02-.74,.68-.32,1.35-.7,2.01-1.15,.66-.45,1.3-.94,1.92-1.47,.62-.53,1.2-1.09,1.75-1.69,.01-.01,.02-.03,.03-.04,0,.04,0,.07,0,.11-.03,.91,.06,1.7,.27,2.38,.21,.68,.5,1.25,.89,1.71,.38,.46,.84,.81,1.37,1.04,.53,.23,1.1,.36,1.72,.38,.46,.02,.92-.05,1.39-.18,.47-.13,.92-.31,1.36-.54,.44-.23,.86-.48,1.26-.78,.4-.3,.75-.59,1.07-.89,.57-.55,1.05-1.05,1.44-1.51,.05,1.34,.4,2.36,1.07,3.09,.77,.83,1.87,1.27,3.29,1.31,.63,.02,1.28-.06,1.95-.23,.67-.17,1.34-.42,2.02-.74,.67-.32,1.35-.71,2.01-1.15,.66-.45,1.3-.94,1.92-1.47,.6-.52,1.17-1.06,1.7-1.64-.08,.63-.13,1.13-.15,1.49-.06,1.78,.43,2.79,1.47,3.06,.27-.08,.56-.24,.88-.48,.32-.23,.64-.51,.97-.82,.32-.31,.64-.64,.94-.98,.3-.34,.55-.65,.76-.93,.61-.8,1.1-1.45,1.48-1.93,.38-.48,.69-.85,.94-1.1s.45-.41,.61-.49c.16-.07,.32-.11,.49-.1,.19,0,.35,.24,.47,.71,.12,.47,.22,1.1,.3,1.89,.06,.58,.15,1.15,.26,1.69,.12,.54,.3,1.03,.55,1.45,.25,.43,.57,.77,.97,1.03,.4,.26,.92,.4,1.54,.43,.38,.01,.74-.01,1.06-.08,.33-.07,.63-.16,.92-.28,.29-.12,.57-.27,.85-.43,.27-.16,.56-.34,.86-.53,.38-.24,.77-.52,1.15-.85,.38-.33,.76-.67,1.13-1.02,.37-.35,.73-.71,1.07-1.08,.2-.21,.39-.42,.57-.62,0,.02,.01,.03,.02,.05,.07,.15,.17,.32,.3,.53,.12,.21,.26,.44,.4,.68,.14,.24,.29,.49,.43,.74,.15,.25,.28,.48,.4,.7,.12,.21,.21,.4,.29,.56,.07,.16,.11,.27,.11,.33,0,.25-.07,.46-.17,.63-.1,.17-.25,.32-.45,.46-.19,.13-.42,.25-.68,.36-.26,.11-.55,.22-.87,.33-.49,.18-.91,.36-1.28,.54-.36,.18-.66,.36-.89,.56-.23,.19-.41,.4-.52,.62-.12,.22-.18,.48-.19,.77,0,.12,.02,.23,.07,.35,.05,.11,.14,.22,.27,.31,.12,.09,.28,.17,.48,.23,.2,.06,.44,.1,.73,.1,.35,.01,.75-.07,1.2-.24,.45-.17,.94-.42,1.47-.74,.16-.1,.43-.3,.82-.58,.38-.28,.83-.61,1.33-.98,.5-.38,1.03-.78,1.6-1.22,.56-.44,1.1-.86,1.62-1.27,.52-.41,.99-.78,1.4-1.13h.02Zm-63.47-6.75c.25-.62,.53-1.15,.83-1.59,.3-.44,.62-.77,.95-1,.33-.23,.63-.34,.92-.33,.08,.05,.14,.15,.17,.32,.03,.17,.04,.34,.04,.53-.01,.43-.13,.84-.35,1.22-.22,.38-.49,.74-.82,1.08-.33,.34-.7,.66-1.11,.97-.4,.31-.81,.6-1.21,.88,.13-.76,.32-1.46,.57-2.08h0Zm24.81,.8c.25-.62,.52-1.15,.83-1.59,.3-.44,.62-.77,.95-1,.33-.23,.63-.34,.92-.33,.08,.05,.14,.15,.17,.32,.03,.17,.05,.34,.04,.53-.01,.43-.13,.84-.35,1.22-.22,.38-.49,.74-.82,1.08-.33,.34-.7,.66-1.11,.97-.4,.31-.81,.6-1.21,.88,.13-.76,.32-1.46,.57-2.08h0Z"/>
        <path class="cls-3" d="M90.79,62.79c-.41-.25-.87-.53-1.36-.84-.52-.33-1-.64-1.42-.92-.43-.28-.82-.53-1.18-.76-.36-.23-.74-.48-1.15-.75-.4-.27-.84-.55-1.31-.86-.32-.2-.61-.39-.88-.57-.28-.18-.55-.37-.82-.55,.82-.48,1.58-.99,2.26-1.51,.68-.52,1.28-1.12,1.8-1.81,.61-.83,.91-1.66,.88-2.49-.04-1.28-.52-2.31-1.45-3.09-.42-.36-.89-.67-1.42-.92-.53-.25-1.1-.44-1.72-.58-1.18-.26-2.41-.37-3.67-.33-.37,.01-.78,.05-1.25,.11-.47,.06-.95,.14-1.47,.23-.54,.1-1.03,.2-1.48,.31-.45,.11-.83,.22-1.15,.33-.29,.1-.58,.22-.87,.34-.29,.12-.58,.27-.87,.42-.74,.39-1.1,.8-1.08,1.24,.01,.38,.1,.68,.25,.89,.15,.21,.45,.3,.89,.29,.07,0,.19-.02,.37-.07,.18-.04,.4-.11,.67-.19,.07,.47,.12,.93,.15,1.36,.03,.44,.06,.85,.07,1.26,.02,.53,0,1.1-.04,1.74-.04,.63-.11,1.3-.2,1.98-.03,.23-.05,.43-.07,.6-.02,.17-.04,.33-.05,.48-.02,.15-.03,.29-.05,.42-.02,.13-.05,.28-.09,.43-.05,.34-.1,.69-.15,1.04-.04,.35-.08,.71-.11,1.08-.04,.43-.05,.87-.03,1.33,.01,.32,.03,.6,.05,.85,.02,.25,.05,.48,.1,.67,.09,.4,.31,.74,.67,1.03,.32,.27,.81,.4,1.49,.38,.13,0,.28-.04,.42-.1,.15-.06,.29-.14,.44-.23,.14-.1,.27-.2,.4-.33,.12-.12,.22-.25,.3-.38-.15-.23-.28-.45-.38-.66-.1-.21-.18-.43-.25-.65-.06-.22-.11-.45-.14-.68-.03-.23-.05-.48-.06-.74,0-.28,0-.58,0-.9,0-.32,.03-.64,.06-.98,.03-.35,.07-.75,.12-1.21,.05-.45,.12-.98,.2-1.58,.1-.7,.18-1.26,.24-1.7,.06-.44,.1-.89,.1-1.33,0-.22,.01-.44,0-.66,0-.23,0-.46-.02-.71,0-.22-.02-.46-.05-.73-.03-.27-.09-.57-.17-.89-.05-.21-.1-.4-.16-.57-.05-.17-.12-.34-.19-.49,.15-.04,.27-.07,.35-.09,.09-.02,.16-.04,.23-.05,.07-.02,.13-.03,.2-.04,.07,0,.16-.03,.28-.05,.25-.05,.51-.1,.77-.13,.27-.04,.55-.08,.83-.12,.31-.04,.58-.08,.83-.1,.25-.03,.46-.04,.62-.05,.56-.02,1.12,.05,1.7,.19,.3,.07,.61,.18,.94,.33,.33,.15,.65,.33,.93,.53,.29,.21,.53,.44,.72,.7,.19,.26,.29,.54,.3,.83,0,.19-.03,.39-.11,.58-.08,.2-.21,.4-.4,.6-.23,.25-.47,.48-.71,.7-.24,.22-.48,.42-.74,.6-.29,.2-.57,.39-.85,.58-.28,.18-.55,.35-.82,.49-.18,.1-.37,.2-.56,.31-.19,.11-.39,.21-.6,.31-.21,.1-.42,.18-.65,.24s-.45,.1-.7,.11c-.12,.01-.22,.03-.29,.04-.07,.02-.12,.03-.15,.03-.04,0-.07,.01-.1,.02-.03,0-.08,.03-.15,.04-.26,.1-.46,.25-.6,.45-.14,.2-.2,.44-.19,.74,.02,.62,.29,1.1,.81,1.44,.22-.03,.39-.04,.52-.05,.13-.01,.23-.02,.31-.03,.08,0,.15-.01,.2-.01s.12,0,.17,0c.26,0,.43-.01,.53-.01s.2,.02,.3,.06c.05,.02,.26,.16,.62,.43,.37,.26,.86,.62,1.47,1.07,.67,.5,1.2,.89,1.6,1.18,.4,.29,.67,.48,.81,.58,.56,.4,1.06,.75,1.5,1.05,.43,.29,.79,.52,1.07,.7,.57,.35,1.1,.63,1.59,.82,.49,.19,.98,.28,1.48,.26,.22,0,.43-.04,.64-.1,.21-.06,.4-.13,.56-.23,.24-.13,.42-.29,.55-.47,.12-.18,.19-.38,.19-.59l-.23-.3c-.27-.16-.61-.36-1.02-.61h.02Z"/>
        <path class="cls-3" d="M155.19,56.75c.17-.53,.25-1.07,.23-1.6,0-.08,0-.18-.02-.3,0-.13-.02-.26-.04-.4-.02-.14-.05-.28-.08-.4-.04-.13-.08-.23-.13-.3,.25,.1,.5,.19,.77,.27,.27,.08,.53,.14,.81,.19,.27,.05,.54,.09,.8,.11,.26,.03,.51,.03,.75,.03,.81-.03,1.49-.12,2.06-.29,.12-.04,.24-.08,.35-.12-.02,.17-.03,.34-.05,.51-.05,.55-.09,1.1-.13,1.64-.04,.54-.07,1-.09,1.4-.02,.27-.03,.51-.04,.72,0,.21-.02,.42-.02,.61,0,.2,0,.39,0,.58,0,.19,0,.4,.01,.61,.03,.96,.15,1.68,.37,2.15,.22,.48,.59,.7,1.12,.69,.14-.01,.28-.04,.43-.08,.15-.04,.28-.09,.41-.16s.25-.15,.34-.25c.1-.1,.16-.22,.2-.35,.06-.22,.1-.41,.12-.57,.03-.16,.06-.35,.11-.57,.09-.4,.19-.79,.31-1.15,.12-.37,.24-.72,.38-1.07,.16-.42,.34-.83,.55-1.22,.2-.39,.42-.76,.65-1.1,.22-.35,.46-.66,.7-.95,.24-.29,.47-.55,.69-.76,.98-.96,2.17-1.5,3.56-1.62h.24c.11,0,.22,0,.35,0,.12,0,.24,0,.35,0h.21c.15-.01,.27-.07,.38-.16,.1-.1,.18-.2,.24-.33,.06-.13,.11-.25,.14-.38,.03-.12,.04-.23,.04-.3,0-.23-.1-.44-.3-.62-.19-.18-.43-.33-.71-.45-.28-.12-.6-.21-.93-.26-.34-.05-.67-.08-.98-.07-.27,0-.57,.07-.9,.18-.33,.11-.69,.26-1.08,.45-.5,.25-.96,.58-1.39,.97-.43,.4-.82,.85-1.19,1.35-.37,.5-.71,1.04-1.02,1.62-.31,.58-.61,1.18-.88,1.81,.03-.18,.07-.42,.12-.7,.05-.28,.11-.59,.18-.92,.07-.33,.14-.68,.2-1.05,.07-.37,.13-.73,.19-1.08,.06-.35,.1-.69,.13-1.01,.03-.32,.04-.59,.03-.83l-.02-.23c-.01-.09-.05-.2-.13-.31-.08-.11-.18-.22-.28-.32-.11-.1-.24-.18-.38-.24-.14-.07-.27-.1-.41-.09-.46,.02-.8,.15-1.03,.41-.23,.26-.39,.61-.47,1.05-.02,.09-.03,.18-.05,.28-.23,.07-.45,.13-.67,.17-.33,.07-.67,.11-1,.13-.33,.02-.69,.03-1.06,.05-.37,.01-.77-.03-1.23-.11-.45-.08-.88-.19-1.3-.3-.41-.12-.77-.23-1.07-.36-.3-.13-.48-.22-.55-.28l-.27-.28c-.19-.21-.37-.4-.54-.57-.17-.17-.35-.31-.53-.43-.18-.12-.38-.2-.6-.26-.21-.06-.47-.08-.76-.08-.35,.01-.71,.1-1.09,.25-.38,.15-.74,.35-1.1,.6-.36,.25-.7,.53-1.03,.84-.33,.31-.61,.63-.85,.95-.36,.48-.7,.95-1.03,1.43-.22,.11-.45,.26-.69,.43-.25,.18-.5,.39-.75,.63-.25,.24-.51,.49-.76,.75-.7,.7-1.33,1.31-1.92,1.82-.58,.51-1.14,.97-1.68,1.38-.8,.61-1.63,1.1-2.5,1.48-.87,.38-1.77,.58-2.72,.62-.3,0-.63-.15-.99-.49-.32-.3-.48-.67-.5-1.1-.02-.46,.01-.92,.09-1.39,.07-.47,.18-.93,.3-1.38,.13-.45,.29-.88,.46-1.28,.18-.4,.37-.76,.57-1.09,.2-.33,.42-.6,.63-.82,.21-.23,.42-.38,.62-.46,.07,.1,.15,.28,.24,.53,.09,.25,.2,.5,.34,.75,.14,.25,.32,.48,.52,.66,.21,.19,.46,.28,.77,.27,.21,0,.38-.08,.5-.21,.13-.13,.23-.29,.3-.48,.07-.19,.12-.38,.14-.59,.02-.2,.03-.38,.02-.52,0-.27-.15-.69-.44-1.26-.14-.29-.3-.55-.46-.8-.17-.25-.34-.47-.53-.65-.19-.18-.38-.33-.56-.44-.19-.11-.39-.15-.59-.15-.3,0-.6,.1-.92,.26-.31,.17-.61,.37-.9,.62-.29,.25-.57,.52-.83,.82-.26,.3-.49,.59-.68,.86-.6,.85-1.08,1.71-1.47,2.58-.07,.08-.13,.15-.2,.23-.5,.56-1.01,1.08-1.52,1.58-.51,.49-1.01,.93-1.5,1.3-.49,.38-.95,.67-1.4,.89-.44,.22-.86,.33-1.24,.35-.26,0-.48-.08-.66-.25-.18-.18-.33-.4-.44-.67-.12-.28-.21-.58-.28-.92-.07-.34-.12-.67-.16-1-.08-.63-.18-1.21-.3-1.75-.12-.53-.28-.99-.5-1.38-.22-.38-.5-.68-.85-.89-.35-.21-.79-.3-1.33-.29-.46,.02-.87,.1-1.23,.25-.36,.15-.7,.35-1,.6-.3,.25-.59,.54-.87,.87-.27,.33-.55,.69-.83,1.07-.22,.29-.43,.6-.65,.92-.21,.33-.42,.64-.63,.95-.21,.31-.4,.6-.59,.87-.19,.27-.35,.49-.5,.67,0-.19,.05-.43,.1-.72,.06-.28,.12-.58,.19-.88,.07-.3,.14-.59,.21-.86,.07-.28,.12-.5,.16-.68,.06-.27,.11-.51,.17-.72,.06-.21,.11-.41,.16-.6,.05-.19,.09-.37,.12-.55s.04-.36,.03-.55c0-.22-.04-.41-.1-.57-.06-.17-.14-.3-.23-.42-.1-.11-.2-.2-.32-.26-.12-.06-.24-.09-.37-.08-.14,0-.28,.02-.42,.04-.14,.02-.28,.06-.4,.13-.13,.06-.25,.15-.37,.28-.12,.12-.23,.28-.32,.49-.16,.36-.3,.76-.42,1.18-.07,.25-.13,.49-.18,.74-.06,.06-.12,.12-.18,.18-.19,.2-.38,.4-.58,.6-.47,.48-.95,.95-1.44,1.42-.5,.48-.99,.9-1.49,1.28-.5,.38-.98,.69-1.46,.93-.48,.24-.94,.37-1.37,.38-.15,0-.3-.07-.43-.22-.14-.15-.27-.33-.39-.54-.12-.21-.22-.43-.31-.65-.08-.22-.14-.4-.18-.55-.03-.13-.06-.3-.08-.48-.03-.19-.05-.39-.06-.59-.02-.2-.03-.4-.04-.59-.01-.19-.02-.35-.02-.49,0-.14,0-.35,.03-.63,.03-.28,.05-.57,.08-.88,.03-.3,.06-.6,.08-.87,.03-.28,.03-.48,.03-.61-.01-.33-.09-.56-.25-.68-.15-.12-.39-.18-.7-.16-.27,0-.54,.15-.81,.43s-.51,.66-.71,1.16c-.15,.37-.31,.8-.5,1.28-.18,.49-.38,.98-.57,1.47-.2,.5-.4,.97-.6,1.41-.21,.45-.41,.83-.62,1.13-.22,.33-.49,.7-.81,1.1-.32,.4-.65,.77-1.01,1.11-.35,.34-.72,.63-1.1,.86-.38,.23-.75,.35-1.11,.37-.14,0-.26-.08-.37-.25-.1-.17-.16-.39-.17-.66-.01-.42,.03-.89,.14-1.43,.11-.53,.22-1.08,.35-1.64,.06-.25,.11-.52,.15-.79,.05-.28,.08-.55,.12-.82,.03-.27,.06-.53,.07-.78,.02-.25,.02-.47,.02-.66-.02-.63-.14-1.1-.37-1.41-.22-.3-.6-.45-1.12-.43-.26,0-.48,.05-.65,.13-.18,.08-.32,.18-.43,.3-.11,.13-.2,.27-.25,.43-.06,.16-.1,.33-.12,.5-.03,.24-.06,.5-.08,.78-.02,.28-.03,.56-.04,.84,0,.28-.02,.56-.02,.83,0,.28-.02,.53-.03,.78-.01,.32-.05,.65-.1,.98-.05,.34-.1,.68-.16,1.03-.05,.35-.1,.69-.15,1.03-.04,.34-.06,.67-.05,.98,.01,.36,.08,.71,.19,1.06,.12,.35,.28,.66,.5,.93,.22,.27,.48,.48,.8,.64,.32,.16,.68,.23,1.09,.22,.48-.02,.95-.1,1.39-.24,.44-.14,.86-.33,1.25-.56,.39-.23,.76-.49,1.1-.79,.34-.3,.65-.61,.93-.93,.2-.23,.42-.49,.65-.8,.23-.31,.47-.64,.7-.99,.23-.35,.44-.7,.64-1.06,.2-.36,.35-.69,.47-.99,.08,.51,.2,1.01,.36,1.5,.16,.48,.37,.91,.62,1.28,.26,.37,.57,.66,.95,.88,.38,.22,.83,.32,1.37,.3,.38-.01,.86-.15,1.44-.42,.57-.27,1.18-.62,1.82-1.05,.64-.43,1.28-.93,1.91-1.48,.44-.38,.84-.78,1.22-1.17-.06,.81-.09,1.43-.07,1.86,.06,1.78,.62,2.76,1.67,2.96,.26-.1,.54-.28,.85-.53,.3-.25,.61-.55,.91-.88,.3-.33,.6-.68,.87-1.03,.27-.36,.51-.68,.7-.98,.55-.84,1.01-1.52,1.35-2.03,.35-.51,.63-.9,.86-1.16,.23-.27,.42-.44,.58-.53,.15-.08,.32-.13,.48-.13,.19,0,.36,.22,.51,.68,.15,.46,.29,1.08,.43,1.87,.09,.58,.22,1.14,.38,1.67,.15,.53,.37,1,.64,1.41,.27,.41,.62,.73,1.04,.97,.42,.24,.94,.35,1.57,.33,.38-.01,.73-.06,1.05-.15,.32-.09,.62-.2,.9-.34,.28-.14,.55-.3,.82-.48,.27-.18,.54-.38,.83-.58,.37-.26,.73-.57,1.09-.92,.27-.26,.53-.53,.79-.81,0,.09,0,.18,0,.26,.02,.58,.12,1.12,.31,1.63,.19,.51,.45,.96,.8,1.34,.35,.38,.76,.67,1.25,.88,.49,.21,1.05,.31,1.67,.29,.96-.03,1.86-.19,2.71-.48,.85-.29,1.64-.68,2.38-1.18,.49-.33,.99-.71,1.5-1.13,.51-.42,1.03-.86,1.55-1.34,.24-.22,.45-.4,.62-.55,.17-.15,.33-.3,.49-.44-.06,.42-.09,.85-.08,1.28,.01,.38,.1,.75,.28,1.13,.18,.38,.4,.71,.68,1.01,.28,.3,.61,.53,.97,.71,.37,.18,.74,.26,1.13,.25,.48-.02,.94-.06,1.4-.13,.46-.08,.91-.18,1.34-.31,.43-.13,.85-.29,1.23-.48,.39-.19,.74-.41,1.06-.66,.4-.31,.79-.68,1.16-1.11,.38-.43,.71-.88,1-1.38,.29-.49,.53-1.01,.69-1.54v-.02Zm-2.09-1.6c0,.14-.03,.3-.05,.46-.02,.17-.05,.33-.1,.5-.04,.16-.09,.3-.15,.4-.11,.19-.23,.38-.37,.58-.14,.2-.27,.39-.42,.58-.14,.18-.29,.35-.43,.51-.15,.16-.29,.3-.44,.42-.32,.25-.59,.46-.81,.63-.23,.17-.45,.31-.67,.41-.22,.1-.46,.18-.72,.23s-.57,.08-.96,.09c-.16,0-.29-.03-.4-.1-.11-.07-.2-.16-.27-.28-.07-.11-.12-.24-.16-.39-.04-.15-.06-.29-.06-.43-.01-.34,0-.71,.06-1.1,.05-.39,.14-.72,.27-.99,.14-.3,.28-.57,.41-.81,.13-.25,.27-.48,.41-.71,.14-.23,.28-.44,.43-.65,.15-.21,.3-.43,.47-.65,.14-.18,.28-.37,.43-.58s.29-.4,.43-.58c.14-.18,.27-.33,.38-.45,.12-.12,.21-.18,.28-.18,.02,0,.05,.03,.09,.07,.04,.05,.12,.11,.23,.18,.11,.07,.26,.15,.45,.23,.19,.08,.43,.15,.72,.22,.19,.04,.35,.14,.47,.28,.12,.14,.22,.31,.29,.5,.07,.19,.12,.4,.15,.63,.03,.23,.05,.44,.05,.65h0c0,.07,0,.17,0,.31h0Z"/>
        <path class="cls-3" d="M176.82,58.9c.3-.33,.6-.68,.87-1.03,.27-.36,.51-.68,.7-.98,.55-.84,1-1.52,1.35-2.03,.35-.51,.63-.9,.86-1.16,.23-.27,.42-.44,.57-.53,.15-.08,.32-.13,.48-.13,.19,0,.36,.22,.51,.68,.15,.46,.29,1.08,.43,1.87,.1,.58,.22,1.14,.38,1.67,.15,.53,.37,1,.64,1.41,.27,.41,.62,.73,1.04,.97,.42,.24,.94,.35,1.57,.33,.38-.01,.73-.06,1.05-.15,.32-.09,.62-.2,.9-.34,.28-.14,.55-.3,.82-.48,.26-.18,.54-.38,.82-.58,.37-.26,.73-.57,1.1-.92,.36-.35,.72-.71,1.06-1.09,.35-.38,.68-.76,.99-1.15,.32-.38,.6-.75,.86-1.09,.09-.11,.18-.25,.28-.42,.1-.17,.19-.34,.27-.53,.08-.19,.15-.38,.2-.56,.05-.19,.07-.36,.07-.52,0-.12-.03-.21-.07-.27-.04-.07-.09-.12-.15-.15-.06-.04-.12-.06-.19-.07-.07,0-.12-.02-.17-.01-.13,0-.27,.05-.4,.14-.13,.09-.26,.2-.4,.35-.14,.14-.28,.3-.43,.48-.15,.18-.3,.35-.46,.53-.5,.56-1.01,1.08-1.52,1.58s-1.01,.93-1.5,1.3c-.49,.38-.95,.67-1.4,.89-.45,.22-.86,.33-1.25,.35-.26,0-.48-.08-.66-.25-.18-.18-.33-.4-.45-.67-.12-.28-.21-.58-.28-.92-.07-.34-.12-.67-.16-1-.08-.63-.18-1.21-.3-1.75-.12-.53-.28-.99-.5-1.38-.22-.38-.5-.68-.85-.89-.35-.21-.79-.3-1.33-.29-.46,.02-.87,.1-1.23,.25-.36,.15-.7,.35-1,.6-.3,.25-.59,.54-.87,.87-.27,.33-.55,.69-.83,1.07-.22,.29-.43,.6-.65,.92s-.43,.64-.63,.95c-.21,.31-.4,.6-.59,.87-.19,.27-.35,.49-.5,.67,0-.19,.05-.43,.1-.72,.06-.28,.12-.58,.19-.88,.07-.3,.14-.59,.21-.86,.07-.28,.12-.5,.16-.68,.06-.27,.11-.51,.17-.72,.05-.21,.11-.41,.16-.6,.05-.19,.09-.37,.12-.55,.03-.18,.04-.36,.03-.55,0-.22-.04-.41-.1-.57-.06-.17-.14-.3-.23-.42-.1-.11-.2-.2-.32-.26-.12-.06-.24-.09-.37-.08-.14,0-.28,.02-.43,.04-.14,.02-.28,.06-.4,.13-.13,.06-.25,.15-.37,.28-.12,.12-.23,.28-.32,.49-.16,.36-.3,.76-.43,1.18s-.22,.86-.3,1.3c-.08,.44-.15,.88-.2,1.31-.05,.43-.09,.85-.13,1.24-.07,.88-.1,1.54-.08,1.99,.06,1.78,.62,2.76,1.67,2.96,.26-.1,.55-.28,.85-.53s.61-.55,.92-.88h0Z"/>
      </g>
    </g>
  </g>
</svg>