<?xml version="1.0" encoding="UTF-8"?>
<svg id="Layer_2" data-name="Layer 2" xmlns="http://www.w3.org/2000/svg" viewBox="0 0 221.69 261.41">
  <defs>
    <style>
      .cls-1 {
        fill: #faf8f4;
      }
    </style>
  </defs>
  <g id="Layer_1-2" data-name="Layer 1">
    <path class="cls-1" d="M106.62,30.9c-2.25,2.98-3.89,6.44-4.59,10.13-.31,1.64-.4,3.28-.25,4.93-2.52-2.25-5.39-3.71-8.77-4.46-3.67-.82-7.5-.65-11.15,.22-.81,.19-1.58,.21-2.4,.48-1,.33-2,.92-2.9,1.47-1.68,1.01-3.21,2.29-4.57,3.69-2.75,2.84-4.62,6.36-5.66,10.18-2.27,8.32,.74,16.78,6.16,23.18,5.82,6.88,14.04,11.39,21.99,15.38,4.66,2.33,9.48,3.58,14.65,4.08,2.5,.24,5,.38,7.49,.66,2.28,.26,4.59,.97,6.88,1.06-.13,1.23,.25,2.53,.93,3.6,.93,1.46,2.34,2.28,3.93,2.5,.38,.79,.86,1.54,1.29,2.29,.66,1.16,1.1,2.33,1.67,3.52,1.2,2.51,2.4,4.96,3.74,7.41,2.6,4.73,5.3,9.38,8.07,14.02,2.76,4.63,5.54,9.24,8.36,13.84,2.8,4.56,5.54,9.29,8.7,13.62,1.74,2.38,3.35,4.84,5,7.29,1.76,2.62,3.41,5.4,5.5,7.77,.41,.47,.94,.69,1.49,.71,1.7,1.32,2.65,3.25,3.42,5.24,.47,1.22,.76,2.5,1.23,3.71,.53,1.36,1.14,2.69,1.76,4.01,1.24,2.61,2.59,5.17,4.1,7.63,.77,1.25,1.57,2.47,2.4,3.67,.94,1.35,1.77,2.83,3.47,3.24,0,0,0,0,0,0,.32,.63,.96,.95,1.71,1.01,3.11,.22,6-1.32,8.65-2.78,2.83-1.55,5.6-3.21,8.35-4.9,2.91-1.79,5.82-3.57,8.73-5.36,2.19-1.35,4.81-2.74,5.5-5.45,.67-2.64-.87-5.58-3.74-5.76-1.54-.1-2.88,.6-4.18,1.35-1.34,.77-2.69,1.52-4.1,2.16-1.29,.58-2.6,1.12-3.93,1.58-.73,.25-1.59,.54-2.36,.37,.03-.05,.07-.1,.14-.17,.37-.42,.59-1.1,.95-1.57,.78-1.01,1.76-1.85,2.89-2.46,2.43-1.32,5.5-1.34,7.12-3.92,1.77-2.84,.13-6.19-1.55-8.62-.56-.81-1.73-1.12-2.57-.54-2.13,1.48-4.55,2.49-6.99,3.34-1.55,.54-3.36,1.18-4.94,.53-.08-.03-.18-.15-.21-.16,.03-.09,.1-.4,.2-.56,.55-.88,1.61-1.58,2.41-2.2,2.06-1.6,4.3-3.02,6.65-4.16,1.32-.64,1.89-1.91,1.14-3.26-.98-1.77-1.94-3.52-2.83-5.34-.67-1.39-2.68-1.21-3.59-.28-3.05,3.14-7.06,4.69-11.26,5.62-1.02,.23-2.01,.46-3.05,.53-.99,.07-2.13,.35-3.08-.06-.42-.18-.59-.6-.84-1.04-.23-.43-.77-1.28-.81-1.63-.08-.6-.51-1.03-1.14-1.03-.4,0-.76,.07-1.09,.19-.72-2.09-1.79-4.14-2.68-6.1-1.22-2.71-2.46-5.4-3.82-8.04-2.67-5.21-5.48-10.36-8.41-15.42-5.88-10.14-12.31-19.87-19.28-29.29-.95-1.29-1.66-2.54-2.01-4.11-.33-1.53-.35-3.11-.77-4.62-.71-2.56-2.56-4.93-4.94-6.15,.65-1.84,.38-3.99,.59-5.92,.24-2.21,.65-4.4,1.16-6.56,.96-4.04,2.22-8.01,3.22-12.04,1.03-4.15,1.8-8.42,1.75-12.71-.06-4.23-1.08-8.39-2.88-12.21-1.83-3.87-4.14-7.53-6.97-10.74-2.87-3.25-6.57-5.21-10.9-5.51-7.1-.49-13.97,3.36-18.19,8.94h0Zm110.82,155.95c-.02-.09-.03-.05,0,0h0Zm-14.24,1.38c-.13,.24,.14,.14,0,0h0ZM123.8,27.69c3.12,.26,5.64,1.88,7.6,4.27,2.21,2.7,4.14,5.89,5.5,9.11,1.36,3.26,2.03,6.59,1.94,10.12-.08,3.54-.96,7.17-1.9,10.63-1.14,4.16-2.48,8.25-3.42,12.47-.49,2.2-.86,4.41-1.07,6.65-.25,2.62-.8,5.67,.78,7.97,.36,.52,.8,.87,1.29,1.08,.12,.78,.57,1.51,1.32,1.84,2.2,1,3.25,2.45,3.84,4.78,.32,1.29,.57,2.58,1.15,3.79,.62,1.27,1.51,2.42,2.31,3.57,3.23,4.64,6.43,9.31,9.55,14.03,6.27,9.51,12.06,19.33,17.34,29.43,1.49,2.84,2.98,5.67,4.45,8.52,.73,1.42,1.45,2.85,2.19,4.27,.64,1.21,1.2,2.49,1.94,3.64-.88,.45-1.64,1.2-2.45,1.88-1.21,1.02-2.37,2.13-2.75,3.72-.11,.49,.28,.82,.72,.86,1.6,.12,3.01-.68,4.33-1.49,.45-.27,.94-.55,1.4-.85,.56,.76,1.25,1.35,2.03,1.79-.28,.02-.57,.09-.83,.23-.6,.33-.99,.88-1.49,1.33-.43,.39-.92,.67-1.42,.96-.46,.26-1.1,.51-1.46,.91-.28,.32-.74,1.18-.41,1.6,.58,.74,1.01,1.08,1.99,1.02,.82-.05,1.55-.29,2.28-.64,1.4-.69,2.83-1.7,3.26-3.27,.16-.59,.01-1.09-.3-1.46,1.81,.51,3.84,.4,5.61-.23,4.7-1.67,10.16-2.94,14.12-6.19,.13,.23,.26,.47,.39,.7-2.48,1.35-4.81,2.9-6.98,4.74-2.4,2.04-4.48,5.56-1.74,8.3,1.95,1.95,5.12,1.95,7.61,1.27,2.94-.81,5.59-2.31,8.12-3.97,.71,1.34,1.05,2.81-.64,3.61-.99,.46-2.1,.65-3.13,1.02-1.15,.41-2.28,.98-3.26,1.7-1.95,1.42-3.96,3.62-4.53,6.04-.59,2.5,1.07,4.61,3.51,5,2.42,.38,4.79-.65,6.96-1.57,1.33-.56,2.63-1.18,3.91-1.85,1.15-.6,2.33-1.54,3.56-1.95,.34-.11,.32-.13,.41-.13,.04,.26,.02,.45-.11,.69-.44,.85-1.6,1.38-2.37,1.84-2.66,1.56-5.32,3.09-7.98,4.64-2.96,1.72-5.89,3.46-8.8,5.25-2.39,1.47-4.62,2.96-7.28,3.73-.32-1.26-1.35-2.29-2.1-3.33-.89-1.25-1.75-2.53-2.57-3.84-1.61-2.57-3.09-5.24-4.36-8-1.14-2.49-2.19-5.06-3.52-7.46-.63-1.14-1.45-2.06-2.44-2.89-.34-.28-.67-.51-1-.72,.3-.57,.38-1.24,.06-1.91-2.29-4.91-5.74-9.3-8.41-14.02-2.65-4.69-5.55-9.24-8.38-13.83-5.64-9.18-11.19-18.41-16.9-27.55-1.57-2.51-3.15-4.97-4.82-7.4-.87-1.26-1.84-2.39-2.62-3.71-.21-.35-.4-.7-.6-1.06,.06,0,.12,0,.18-.02,.77-.11,1.56-.27,2.29-.53,1.47-.51,2.97-1.35,4.01-2.52,1.62-1.82-.88-5.06-2.87-3.37-.87,.74-1.66,1.52-2.69,2.04-.46,.23-.96,.4-1.46,.54-.66,.18-1.04,.44-1.61,.8,0,0-.02,.01-.03,.02-.5-.43-1.33-.58-1.93-.34-.53,.22-1.15-.41-1.47-.82-.51-.66-.49-1.39-.29-2.18,.13-.5,.02-.93-.22-1.26,.01-.03,.02-.06,.03-.09,3.07,.18,6.4-1.18,8.71-3.05,.87-.7,1.25-1.86,.6-2.87-.57-.86-1.99-1.31-2.86-.6-1.11,.9-2.33,1.71-3.66,2.23-1.37,.53-2.79,.72-4.22,1.03-.02,0-.04,.01-.07,.02-3.41-2.14-8.16-2.11-12.05-2.42-3.9-.32-7.85-.63-11.6-1.83-3.69-1.18-7.08-3.28-10.38-5.27-3.26-1.97-6.45-4.05-9.34-6.55-2.86-2.47-5.09-4.85-6.96-8.12-1.59-2.76-2.5-5.83-2.53-9.08,0-.44,0-.87,.03-1.31,0,0,0,0,0-.01,.02-.17,.04-.34,.06-.51,.11-.81,.27-1.61,.47-2.39,.11-.43,.24-.84,.37-1.26,.02-.07,.04-.12,.04-.15,.05-.13,.1-.26,.15-.39,.31-.75,.65-1.49,1.05-2.21,1.4-2.55,3.07-4.68,5.81-6.41,1.56-.98,2.83-1.86,4.65-2.33,1.64-.42,3.4-.51,5.09-.38,1.64,.12,3.32,.48,4.86,1.05,1.67,.62,3.47,1.4,4.92,2.46,.77,.56,1.61,.44,2.17,0,.43,.88,.81,1.18,1.73,1.45,.22,.06,.45-.04,.59-.19,.5-.51,.73-.78,.85-1.52,.12-.71,.08-1.39,.07-2.1-.01-1.44,.19-2.88,.46-4.29,.51-2.72,1.61-5.31,3.19-7.58,3.2-4.62,8.62-7.88,14.37-7.41h.01Z"/>
    <path class="cls-1" d="M131.43,47.34c-1.03-6.1-4.11-12.45-10.77-13.76-6.41-1.26-10.7,3.92-12.83,9.33-1.96,4.97-2.4,10.4-1.33,15.59-3.78-1.48-7.81-2.24-11.9-2.29-4.48-.05-10.67,.64-12.25,5.7-1.65,5.29,3.05,9.94,7,12.58,2.27,1.52,4.73,2.75,7.12,4.04,2.79,1.51,5.59,3.01,8.39,4.49,6.21,3.29,12.49,6.45,18.74,9.68,.89,.46,1.68,.05,2.07-.61,.9,.26,1.96-.08,2.53-1.03,.56-.93,1.01-1.72,1.14-2.82,.11-.9,.14-1.81,.21-2.71,.14-1.82,.29-3.63,.45-5.45,.33-3.71,.65-7.41,.97-11.12,.63-7.14,1.65-14.5,.46-21.64h0Zm-6.96,32.32c-.17,1.72-.34,3.44-.53,5.16-.1,.86-.2,1.72-.28,2.58-.06,.63-.03,1.17,.07,1.69-9.08-5.02-18.15-10.05-27.32-14.9-3.67-1.94-8.48-4.09-10.23-8.17-.78-1.81-.66-3.83,1.19-4.89,1.72-.99,3.88-1.06,5.81-1.1,5.44-.08,10.79,1.4,15.57,3.97,1.45,.78,3.5-.76,2.81-2.4-2.02-4.82-2.21-10.13-.71-15.13,1.17-3.89,4.04-9.95,9.02-8.54,5,1.42,6.21,7.69,6.58,12.14,.53,6.25-.33,12.54-.94,18.76-.35,3.61-.7,7.23-1.06,10.84h0Z"/>
    <path class="cls-1" d="M180.77,179.6c.04,.59-.13,1.08,0,1.67,.1,.48,.32,.91,.5,1.36,.37,.91,.02,1.94,.31,2.94,.65,2.23,1.89,4.27,3.04,6.27,1.12,1.97,2.36,3.88,3.63,5.75,.67,1,1.27,2.14,2.41,2.67,.9,.42,2.32,.4,2.86-.57,1.25-2.26-.63-4.25-1.76-6.14-1.04-1.74-2.04-3.5-3.05-5.26-1.01-1.76-1.89-3.72-3.29-5.22-.57-.61-1.35-.88-1.78-1.58-.26-.41-.43-.86-.74-1.25-.37-.46-.86-.65-1.27-1.05-.32-.31-.88-.03-.85,.41h0Z"/>
    <path class="cls-1" d="M152.85,134.94c.41,1.42,1.01,2.7,1.72,3.99,.71,1.3,1.28,2.66,1.94,3.99,1.4,2.79,3.15,5.36,4.83,7.98,1.63,2.54,3.26,5.09,4.88,7.63,.79,1.24,1.58,2.47,2.37,3.71,.9,1.4,1.9,2.65,2.89,3.99,.63,.86,1.81,.03,1.36-.89-.7-1.42-1.3-2.82-2.09-4.2-.73-1.28-1.47-2.55-2.2-3.82-1.55-2.7-3.11-5.39-4.66-8.09-1.5-2.62-2.95-5.28-4.7-7.75-.85-1.2-1.81-2.32-2.64-3.54-.86-1.28-1.75-2.47-2.87-3.54-.38-.36-.97,.07-.83,.54h0Z"/>
    <path class="cls-1" d="M148.29,129.27c.06,.2,.15,.4,.28,.57,.44,.65,1.24,.9,1.98,.67,.46-.15,.89-.47,1.11-.92,.13-.28,.17-.57,.12-.87-.05-.27-.18-.59-.41-.76,0,0-.01-.02-.02-.03-.06-.07-.13-.12-.2-.17-.02-.03-.05-.05-.08-.08-.14-.13-.28-.21-.43-.27-.04-.02-.08-.04-.12-.07-.13-.05-.26-.09-.39-.14-.14-.01-.28-.02-.42-.04-.35,.02-.68,.16-.94,.39-.49,.42-.65,1.07-.48,1.69h.01Zm1.46-1.1h0s0,0,0,0Zm.08,.28s.02,.05,.04,.07c-.02-.03-.03-.05-.04-.07Zm1.57-.32s.01,.02,.01,.04c0-.01-.02-.03-.02-.04,0,0,0,0,0,0Z"/>
    <path class="cls-1" d="M146.4,121.95s-.08,.02-.12,.03c-.47,.12-.91,.61-.99,1.1-.06,.38-.11,.77,.03,1.15,.11,.29,.27,.52,.46,.77,.18,.28,.42,.49,.71,.65,.31,.16,.63,.23,.97,.21,.5-.05,.97-.24,1.31-.62,.32-.36,.51-.88,.49-1.37-.02-.34-.12-.66-.31-.95-.18-.28-.42-.49-.71-.65-.26-.16-.5-.32-.81-.38-.08-.02-.17-.04-.26-.03-.16-.04-.32-.03-.48,.02-.1,.02-.19,.03-.28,.06h0Z"/>
    <path class="cls-1" d="M128.59,36.87c.97,1.26,1.69,2.73,2.34,4.17,.63,1.41,1.21,2.83,1.61,4.33,.43,1.62,.42,3.33,.86,4.93,.14,.5,.63,.93,1.13,1.02,.25,.05,.45,.05,.7-.01,.04-.01,.08-.02,.12-.03,.5-.12,.93-.64,1.02-1.14,.33-1.75-.11-3.74-.47-5.45-.36-1.71-.89-3.42-1.65-5-.77-1.6-1.76-3.02-2.82-4.44-.91-1.22-2.13-3.33-3.9-3.1-.46,.06-1.01,.38-1.07,.9-.18,1.67,1.19,2.6,2.12,3.82h0Z"/>
    <path class="cls-1" d="M123,31.73c.22,0,.42-.06,.6-.17,.19-.07,.36-.19,.49-.35,.26-.29,.44-.75,.41-1.14-.04-.41-.2-.82-.52-1.09-.11-.08-.22-.15-.33-.23-.25-.13-.52-.19-.8-.17-.12,0-.24-.01-.36-.02-.22,0-.42,.06-.61,.17-.2,.07-.36,.2-.5,.36-.27,.29-.46,.76-.42,1.16,.04,.42,.2,.84,.53,1.12,.31,.26,.75,.48,1.16,.42,.12-.02,.24-.04,.35-.06h0Z"/>
    <path class="cls-1" d="M65.16,119.05c1.14-7.82-7.83-14.25-14.95-11.28-8.42,3.39-8.79,13.75-1.15,18.3,6.22,3.7,14.99,.55,16.09-6.95v-.07s.01,0,.01,0Zm-6.84,4.45c-3.34,2.55-8.72,.95-10.32-2.91-2.72-6.02,4.86-12.39,10.39-9,4.15,2.5,3.71,9.19-.01,11.87l-.06,.04h0Z"/>
    <path class="cls-1" d="M41.87,193.12l2.84-7.87,1.53-4.17c19.93,.13,37.46-13.47,42.32-32.85,1.49-5.92,1.63-12.14,.4-18.12-1.34-6.56-4.98-11.54-8.52-17.13-5.25-8.27-13.84-13.32-23.25-15.62-22.48-5.49-45.26,8.45-50.89,30.64-3.8,15.88,.97,32.48,13.74,42.97-.22,1.7-.69,3.24-1.11,4.89l-1.32,5.12-1.34,5.11-1.57,5.81-.52,1.96-1.14,4.02-.77,2.82-1.38,4.71-.94,3.33-1.56,5.04-.79,2.79-2.67,8.96-3.24,10.11c-1.16,3.61-2.31,8.99-1.27,12.67l1.67,5.91c.44,1.55,1.65,6.83,3.48,7.12,2.86,.47,6.53-1.78,8.84-3.26,1.73-1.1,3.43-2.08,5.22-3.08,1.36-.77,2.03-2.34,2.64-3.7,1.79-4,2.27-3.79,.95-8.35,2.41-.59,2.68-1.75,3.47-3.8,.5-1.29,.41-2.47-.16-3.69l-.96-2.05,1.85-.33c.79-.14,1.79-.63,2.11-1.42l.74-1.88c1.09-2.74,2.14-4.87,.07-7.54,3.28-.33,2.46-3.03,4.27-5.49,2.03,.35,3.62-.46,4.6-2.15,.67-1.15,.89-2.48,1.16-3.77,.33-1.57-.13-2.79-1.71-3.43-.4-.16-.95-.44-1.45-.69-.09-.49,.31-1.17,.53-1.79l4.13-11.82h0Zm-6.83,16.33c.62,.36,1.16,.64,1.87,.99,.05,.92-.19,2.2-.96,2.9-.74,.04-1.72-.05-2.47,.18-1.96,.61-2.56,3.23-3.16,5.01-.49,1.44-3.78-.19-4.5,1.47-.72,1.68,1.63,4.2,2.7,5.61l-1.33,3.85c-.69,2.01-3.11,.14-4.4,1.57-.71,.79-.63,2.18-.29,3.12l.98,2.72c.33,.92,.23,2.67-.88,2.97-1.07,.29-2.37,.18-2.95,1.45-.69,1.55,.77,3.76,1.59,5.14l-1.22,2.46c-1.7,3.43-1.63,3.2-4.64,5.19-2.65,1.76-5.27,3.52-8.19,4.96l-2.56-7.8c-.96-2.92-1.7-5.76-1.85-8.86l3.82-11.65,3.06-9.69,2.57-8.18,1.25-4.33,1.43-4.76,1.94-6.98,1.47-5.46,1.51-5.63,1.45-5.45,1.47-5.49c.38-1.42,.73-2.82,1.03-4.24,.26-1.26-.13-2.52-1.14-3.33-11.05-8.85-14.97-23.1-12.08-36.74,.64-3.03,1.47-5.72,2.82-8.47l1.08-2.19c3.66-7.43,11.62-14.62,19.64-17.09l.04,.07c2.75-1.36,6.14-1.73,9.24-1.8-.05-.1-.11-.2-.16-.31,6.97-1.22,13.69-.07,19.91,2.82,9.72,4.72,17.09,13.24,20.42,23.52,2.08,6.43,2.22,13.16,.52,19.68-.66,2.53-1.37,4.92-2.45,7.32-3.87,8.65-10.77,15.62-19.45,19.35-5.25,2.25-10.76,3.13-16.42,2.78-1.17-.07-2.16,2.65-2.51,3.64l-3.74,10.64-1.81,4.75-2.2,6-1.71,4.52c-.55,1.46-.07,2.99,1.23,3.76h0Z"/>
    <path class="cls-1" d="M6.01,239.87l1.31-4.46,1.34-4.54,2.16-6.94,1.62-5.41,2.12-6.79,.74-2.8,3.56-11.1,1.78-5.9,1.78-5.79,.96-3.38c.27-.95,1.19-5.37,2.85-4.36,1.65,1.01-.55,8.25-1.08,9.89l-2.91,9.05-.49,2.34-3.09,9.6-4.12,12.81c-1.28,3.97-2.55,7.82-3.95,11.74l-2.51,7.03c-.19,.53-.86,1.12-1.42,.93-.62-.21-.82-1.22-.62-1.91h-.01Z"/>
    <path class="cls-1" d="M69.45,162.74c-.55,.32-1.84,.45-1.91-.29-.17-1.83,3.13-4.65,4.55-6.64,4.49-6.28,7.14-13.35,6.3-21.28-.76-7.28-3.93-14.8-7.95-20.68-.23-.33-.05-.92,.13-.97,.18-.06,.58,0,.75,.13,2.45,1.87,4.31,4.07,5.88,6.72,3.53,5.99,5.17,12.89,4.82,19.85-.14,2.73-.76,5.16-1.65,7.71-.5,1.44-.92,2.85-1.68,4.18-1.96,3.44-5.76,9.25-9.25,11.28h0Z"/>
    <path class="cls-1" d="M19.15,154.3c-.73,.46-1.56-.13-1.89-.74-3.35-6.23-5.11-12.27-3.86-19.36l.34-1.91c.29-1.68,1.17-4.19,2.97-5.1,.55,.98,.45,1.99,.21,3.02-1.96,8.39-.1,14.53,2.6,22.37,.19,.54,.2,1.38-.36,1.72h0Z"/>
    <path class="cls-1" d="M54.55,171.98c-1.26,.27-2.47,.26-3.46-.59-.29-.25-.3-1.09-.13-1.42,.2-.39,.69-.87,1.17-.97,5.1-1.17,7.7-2.84,12.15-3.9,.33-.07,.89,.39,1,.68,.53,1.43-2.34,3.05-3.5,3.62-2.31,1.14-4.64,2.03-7.23,2.59Z"/>
    <path class="cls-1" d="M88.33,89.85c-.06-.02-.12-.05-.17-.06l-1.23,.93-.13,.08c-4.64,3.43-9.52,6.64-14.24,9.74-1.19,.78-2.38,1.56-3.55,2.34l-1.01,.57c-3.61,2.04-7.34,4.16-10.5,6.74l-.04,.04c-.21,.2-.59,.5-1.02,.85-2.14,1.72-4.56,3.67-3.42,5.12l.11,.14,.17,.08c.41,.19,.85,.31,1.32,.37,3.59,.43,8.86-2.82,12.83-5.26,1.03-.64,1.92-1.19,2.67-1.59l1.26-.76c6.48-3.93,13.18-7.98,18.79-12.94,1.48-1.19,3-2.36,4.51-3.5-2.33-.29-4.67-1.29-6.34-2.89h0Z"/>
    <path class="cls-1" d="M124.11,48.99c.4-4.78,.14-9.87-.79-15.17l.11-.57-.03-.16c-.15-.68-.41-1.44-.6-1.98l-.05-.25c-.86-4.9-2.7-9.44-5.8-14.28-2.16-4.5-3.74-7.75-8.58-10.83-1.26-1.02-3.3-2.02-4.71-1.94-.72-.11-1.15-.25-1.97-.54l-.61-.22c-4.32-1.57-9.7-3.52-13.96-2.97l-.2,.03-.16,.12c-.29,.22-.43,.55-.37,.89,.04,.25-6.41-.57-7.54-.51-3.43,.18-6.8,1.19-10.02,2.34-9.54,3.4-18.62,8.16-26.64,14.35-2.62,2.03-5.14,4.21-7.37,6.66-1.92,2.11-3.63,4.39-5.33,6.68-2.5,3.36-5.01,6.73-7.51,10.09-1.46,1.96-2.93,3.94-3.93,6.17-.67,1.49-1.13,3.08-1.55,4.66-1.3,4.82-2.37,9.7-3.21,14.62-.94,5.48-1.58,11.15-.25,16.55,1.38,5.59,4.79,10.43,8.11,15.13,.25,.35,.5,.71,.75,1.06,.02,.03,.04,.06,.06,.09,1.11-.03,1.95-.79,1.76-1.77-5.56-7.56-7.7-17.6-6.73-27.06,.71-6.92,2.92-13.6,5.94-19.84,2.91-6.02,6.96-10.68,10.56-16.14l.57-.64-.1-.08c.06-.03,.12-.07,.18-.1l.14-.07,.1-.11c3.99-4.36,8.59-8.43,14.04-12.47,.4-.3,.79-.6,1.2-.9l.57-.42-.09-.15c.21-.19,.52-.45,.86-.72,.2-.14,.41-.31,.61-.47,.1-.08,.2-.16,.29-.23l.2,.26c1.84-1.25,3.73-2.42,5.61-3.47,.32-.04,.68-.11,.94-.2,.58-.17,3.55-1.1,3.93-2.17,.01-.04,.03-.08,.03-.13,13.41-6.13,32.5-8.3,44.1,2.65l1.17,1.1,1.05,1.19c2.42,2.73,4.66,6.03,6.65,9.78,.17,.34,.16,.59,.16,1.03,0,.2,0,.42,.01,.67,.07,1.27,.41,2.85,.77,4.52,.29,1.34,.59,2.73,.74,3.95,1.26,7.94-.42,16.21-5.13,25.28-.48,.5-1.14,1.63-1.19,1.91v.04s-.03,.29-.03,.29c-2.12,3.73-4.72,7.55-7.91,11.63l-.03,.03c-.56,.67-1.15,1.33-1.76,1.99,.04,0,.08,.02,.12,.03,2.46,.71,4.33,2.37,6.45,3.66,2.11-2.2,4.04-4.62,5.66-7.39,1.49-2.28,2.82-4.85,4.11-7.35,.79-1.53,1.54-2.97,2.3-4.3l.02-.05c.42-.86,.87-1.68,1.32-2.47,.31-.55,.63-1.12,.93-1.71l.04-.08c1.01-2.63,1.64-5.67,1.99-9.55h0ZM108.02,15.56v-.51c.14,.16,.3,.36,.45,.57l-.45-.07h0Z"/>
  </g>
</svg>