<svg width="39" height="37" viewBox="0 0 39 37" fill="none" xmlns="http://www.w3.org/2000/svg">
<path d="M28.3183 7.73445H9.76959C6.12885 7.73445 3.17969 10.5634 3.17969 14.0537V22.9461C3.17969 26.4364 6.13044 29.2669 9.76959 29.2669H28.3183C31.959 29.2669 34.9082 26.4364 34.9082 22.9461V14.0537C34.9082 10.5634 31.9574 7.73291 28.3183 7.73291V7.73445ZM23.862 18.9316L15.1862 22.9014C15.1333 22.9261 15.0748 22.9374 15.0161 22.9343C14.9575 22.9312 14.9006 22.9137 14.8508 22.8836C14.801 22.8534 14.7598 22.8115 14.7312 22.7618C14.7025 22.7121 14.6873 22.6562 14.687 22.5992V14.4145C14.688 14.3573 14.704 14.3012 14.7334 14.2516C14.7629 14.2019 14.8047 14.1603 14.8552 14.1306C14.9057 14.1009 14.9631 14.0841 15.0221 14.0817C15.081 14.0793 15.1397 14.0914 15.1925 14.117L23.8699 18.3334C23.9277 18.3614 23.9762 18.4045 24.0098 18.458C24.0435 18.5115 24.0609 18.5731 24.06 18.6357C24.0592 18.6983 24.0402 18.7594 24.0051 18.812C23.9701 18.8647 23.9205 18.9066 23.862 18.9331V18.9316Z" fill="white"/>
</svg>
